G04*
G04 #@! TF.GenerationSoftware,Altium Limited,Altium Designer,19.1.1 (5)*
G04*
G04 Layer_Color=65535*
%FSLAX25Y25*%
%MOIN*%
G70*
G01*
G75*
%ADD10C,0.00984*%
%ADD11C,0.02362*%
%ADD12C,0.01000*%
%ADD13C,0.00787*%
%ADD14C,0.00600*%
%ADD15C,0.00500*%
%ADD16C,0.00800*%
G36*
X141929Y96965D02*
Y95776D01*
X133654D01*
Y96965D01*
X141929D01*
D02*
G37*
G36*
X155832Y88779D02*
X157021D01*
Y80505D01*
X155832D01*
Y88779D01*
D02*
G37*
D10*
X21555Y92323D02*
G03*
X21555Y92323I-492J0D01*
G01*
X196358Y-13386D02*
G03*
X196358Y-13386I-492J0D01*
G01*
X113287Y95669D02*
G03*
X113287Y95669I-492J0D01*
G01*
X139665Y202559D02*
G03*
X139665Y202559I-492J0D01*
G01*
X130610Y155512D02*
G03*
X130610Y155512I-492J0D01*
G01*
X130610Y43701D02*
G03*
X130610Y43701I-492J0D01*
G01*
X151279Y129331D02*
G03*
X151279Y129331I-492J0D01*
G01*
X146161Y69882D02*
G03*
X146161Y69882I-492J0D01*
G01*
D11*
X135039Y165748D02*
G03*
X135039Y165748I-1181J0D01*
G01*
X135827Y53150D02*
G03*
X135827Y53150I-1181J0D01*
G01*
D12*
X90256Y162362D02*
G03*
X108563Y162362I9154J0D01*
G01*
Y187559D02*
G03*
X90256Y187559I-9154J0D01*
G01*
X122343Y43937D02*
G03*
X104035Y43937I-9154J0D01*
G01*
Y18740D02*
G03*
X122343Y18740I9154J0D01*
G01*
X89504Y4858D02*
X90504D01*
X89504Y12858D02*
X90504D01*
X112142Y53087D02*
X113142D01*
X112142Y61087D02*
X113142D01*
X99382Y122469D02*
X100382Y123469D01*
X66382Y122469D02*
X99382D01*
X65882Y122969D02*
X66382Y122469D01*
X65882Y122969D02*
Y148469D01*
X66382Y148969D01*
X100382Y123469D02*
Y147969D01*
X99382Y148969D02*
X100382Y147969D01*
X66382Y148969D02*
X99382D01*
X60012Y122469D02*
X61012Y123469D01*
X27012Y122469D02*
X60012D01*
X26512Y122969D02*
X27012Y122469D01*
X26512Y122969D02*
Y148469D01*
X27012Y148969D01*
X61012Y123469D02*
Y147969D01*
X60012Y148969D02*
X61012Y147969D01*
X27012Y148969D02*
X60012D01*
X-20866Y57185D02*
Y83661D01*
X-33366Y57185D02*
X-20866D01*
X-33366D02*
Y83661D01*
X-20866D01*
X-33465Y-30512D02*
Y5807D01*
X-20276D01*
X-33465Y-30512D02*
X-20571D01*
X-20276Y-30216D01*
Y5807D01*
X24059Y13142D02*
X57059D01*
X58059Y12142D01*
Y-12358D02*
Y12142D01*
X23559Y12642D02*
X24059Y13142D01*
X23559Y-12858D02*
Y12642D01*
Y-12858D02*
X24059Y-13358D01*
X57059D01*
X58059Y-12358D01*
X63Y77693D02*
Y78693D01*
X-7937Y77693D02*
Y78693D01*
X180165Y26638D02*
X181165D01*
X180165Y18638D02*
X181165D01*
X108205Y208709D02*
Y209709D01*
X116205Y208709D02*
Y209709D01*
X108268Y202953D02*
Y215453D01*
X81791D02*
X108268D01*
X81791Y202953D02*
Y215453D01*
Y202953D02*
X108268D01*
X88646Y160370D02*
Y161370D01*
X80646Y160370D02*
Y161370D01*
X202693Y209693D02*
Y210693D01*
X210693Y209693D02*
Y210693D01*
X184976Y209693D02*
Y210693D01*
X192976Y209693D02*
Y210693D01*
X150434Y90961D02*
X170119D01*
X150434Y78331D02*
X170119D01*
X108563Y162362D02*
Y187559D01*
X90256Y162362D02*
Y187559D01*
X144110Y82677D02*
Y102362D01*
X131480Y82677D02*
Y102362D01*
X126083Y-22244D02*
X162106D01*
X162401Y-22539D01*
Y-35433D02*
Y-22539D01*
X126083Y-35433D02*
Y-22244D01*
Y-35433D02*
X162401D01*
X115095Y-5858D02*
Y-4858D01*
X123095Y-5858D02*
Y-4858D01*
X160496Y-18764D02*
Y-17764D01*
X152496Y-18764D02*
Y-17764D01*
X151512Y131827D02*
X152512D01*
X151512Y139827D02*
X152512D01*
X104035Y18740D02*
Y43937D01*
X122343Y18740D02*
Y43937D01*
X199499Y74298D02*
X197500D01*
X196500Y73298D01*
Y69300D01*
X197500Y68300D01*
X199499D01*
X200499Y69300D01*
Y73298D01*
X199499Y74298D01*
X202498D02*
Y69300D01*
X203498Y68300D01*
X205497D01*
X206497Y69300D01*
Y74298D01*
X208496D02*
X212495D01*
X210495D01*
Y68300D01*
X85630Y2953D02*
X79632D01*
Y5952D01*
X80632Y6951D01*
X82631D01*
X83631Y5952D01*
Y2953D01*
X80632Y12949D02*
X79632Y11950D01*
Y9950D01*
X80632Y8951D01*
X84630D01*
X85630Y9950D01*
Y11950D01*
X84630Y12949D01*
X79632Y18948D02*
Y14949D01*
X82631D01*
X81631Y16948D01*
Y17948D01*
X82631Y18948D01*
X84630D01*
X85630Y17948D01*
Y15949D01*
X84630Y14949D01*
X104921Y63189D02*
X98923D01*
Y66188D01*
X99923Y67188D01*
X101922D01*
X102922Y66188D01*
Y63189D01*
X99923Y73186D02*
X98923Y72186D01*
Y70187D01*
X99923Y69187D01*
X103921D01*
X104921Y70187D01*
Y72186D01*
X103921Y73186D01*
X104921Y75185D02*
Y77184D01*
Y76185D01*
X98923D01*
X99923Y75185D01*
X98923Y84182D02*
Y80184D01*
X101922D01*
X100923Y82183D01*
Y83183D01*
X101922Y84182D01*
X103921D01*
X104921Y83183D01*
Y81183D01*
X103921Y80184D01*
X-16202Y157701D02*
Y161700D01*
X-22200D01*
Y157701D01*
X-19201Y161700D02*
Y159701D01*
X-17202Y151703D02*
X-16202Y152703D01*
Y154702D01*
X-17202Y155702D01*
X-18201D01*
X-19201Y154702D01*
Y152703D01*
X-20201Y151703D01*
X-21200D01*
X-22200Y152703D01*
Y154702D01*
X-21200Y155702D01*
X-17202Y145705D02*
X-16202Y146705D01*
Y148704D01*
X-17202Y149704D01*
X-21200D01*
X-22200Y148704D01*
Y146705D01*
X-21200Y145705D01*
X-16202Y139707D02*
Y143706D01*
X-19201D01*
Y141707D01*
Y143706D01*
X-22200D01*
X-16202Y137708D02*
X-22200D01*
Y133709D01*
X-13687Y40293D02*
Y44291D01*
X-19685D01*
Y40293D01*
X-16686Y44291D02*
Y42292D01*
X-14687Y34295D02*
X-13687Y35294D01*
Y37294D01*
X-14687Y38293D01*
X-15686D01*
X-16686Y37294D01*
Y35294D01*
X-17686Y34295D01*
X-18685D01*
X-19685Y35294D01*
Y37294D01*
X-18685Y38293D01*
X-14687Y28297D02*
X-13687Y29296D01*
Y31295D01*
X-14687Y32295D01*
X-18685D01*
X-19685Y31295D01*
Y29296D01*
X-18685Y28297D01*
X-13687Y26297D02*
X-19685D01*
Y23298D01*
X-18685Y22298D01*
X-17686D01*
X-16686Y23298D01*
Y26297D01*
Y23298D01*
X-15686Y22298D01*
X-14687D01*
X-13687Y23298D01*
Y26297D01*
Y20299D02*
X-19685D01*
Y16300D01*
X-11734Y-19747D02*
X-10734Y-18747D01*
Y-16748D01*
X-11734Y-15748D01*
X-12734D01*
X-13733Y-16748D01*
Y-18747D01*
X-14733Y-19747D01*
X-15733D01*
X-16732Y-18747D01*
Y-16748D01*
X-15733Y-15748D01*
X-10734Y-21746D02*
X-16732D01*
X-14733Y-23745D01*
X-16732Y-25745D01*
X-10734D01*
Y-27744D02*
X-16732D01*
Y-30743D01*
X-15733Y-31743D01*
X-11734D01*
X-10734Y-30743D01*
Y-27744D01*
X5906Y-33465D02*
X-93D01*
Y-30465D01*
X907Y-29466D01*
X2906D01*
X3906Y-30465D01*
Y-33465D01*
Y-31465D02*
X5906Y-29466D01*
X907Y-23468D02*
X-93Y-24467D01*
Y-26467D01*
X907Y-27466D01*
X4906D01*
X5906Y-26467D01*
Y-24467D01*
X4906Y-23468D01*
X67913Y-34449D02*
X61915D01*
X67913Y-30450D01*
X61915D01*
X67913Y-28451D02*
X61915D01*
Y-25452D01*
X62915Y-24452D01*
X64914D01*
X65914Y-25452D01*
Y-28451D01*
Y-26451D02*
X67913Y-24452D01*
X61915Y-18454D02*
Y-22453D01*
X64914D01*
Y-20453D01*
Y-22453D01*
X67913D01*
X170337Y-28466D02*
X169338Y-27466D01*
X167338D01*
X166339Y-28466D01*
Y-32465D01*
X167338Y-33465D01*
X169338D01*
X170337Y-32465D01*
Y-30465D01*
X168338D01*
X172337Y-33465D02*
Y-27466D01*
X175336D01*
X176335Y-28466D01*
Y-30465D01*
X175336Y-31465D01*
X172337D01*
X182333Y-28466D02*
X181334Y-27466D01*
X179334D01*
X178335Y-28466D01*
Y-29466D01*
X179334Y-30465D01*
X181334D01*
X182333Y-31465D01*
Y-32465D01*
X181334Y-33465D01*
X179334D01*
X178335Y-32465D01*
X192821Y18763D02*
Y14764D01*
X198819D01*
Y18763D01*
X195820Y14764D02*
Y16763D01*
X193821Y24761D02*
X192821Y23761D01*
Y21761D01*
X193821Y20762D01*
X194820D01*
X195820Y21761D01*
Y23761D01*
X196820Y24761D01*
X197819D01*
X198819Y23761D01*
Y21761D01*
X197819Y20762D01*
X193821Y30759D02*
X192821Y29759D01*
Y27760D01*
X193821Y26760D01*
X197819D01*
X198819Y27760D01*
Y29759D01*
X197819Y30759D01*
X192821Y32758D02*
X198819D01*
Y35757D01*
X197819Y36757D01*
X196820D01*
X195820Y35757D01*
Y32758D01*
Y35757D01*
X194820Y36757D01*
X193821D01*
X192821Y35757D01*
Y32758D01*
X198819Y38756D02*
X192821D01*
Y41755D01*
X193821Y42755D01*
X195820D01*
X196820Y41755D01*
Y38756D01*
Y40755D02*
X198819Y42755D01*
X77756Y212598D02*
Y206600D01*
X74757D01*
X73757Y207600D01*
Y209599D01*
X74757Y210599D01*
X77756D01*
X71758Y212598D02*
Y206600D01*
X68759D01*
X67759Y207600D01*
Y209599D01*
X68759Y210599D01*
X71758D01*
X69758D02*
X67759Y212598D01*
X62761Y206600D02*
X64760D01*
X65760Y207600D01*
Y211599D01*
X64760Y212598D01*
X62761D01*
X61761Y211599D01*
Y207600D01*
X62761Y206600D01*
X59762D02*
X55763Y212598D01*
Y206600D02*
X59762Y212598D01*
X49765Y206600D02*
X53764D01*
Y209599D01*
X51764D01*
X53764D01*
Y212598D01*
X184202Y101500D02*
X190200D01*
Y104499D01*
X189200Y105499D01*
X188201D01*
X187201Y104499D01*
Y101500D01*
Y104499D01*
X186201Y105499D01*
X185202D01*
X184202Y104499D01*
Y101500D01*
X190200Y107498D02*
X186201D01*
X184202Y109497D01*
X186201Y111497D01*
X190200D01*
X187201D01*
Y107498D01*
X184202Y113496D02*
Y117495D01*
Y115496D01*
X190200D01*
X1876Y113189D02*
X6874D01*
X7874Y114189D01*
Y116188D01*
X6874Y117188D01*
X1876D01*
X2876Y123186D02*
X1876Y122186D01*
Y120187D01*
X2876Y119187D01*
X3875D01*
X4875Y120187D01*
Y122186D01*
X5875Y123186D01*
X6874D01*
X7874Y122186D01*
Y120187D01*
X6874Y119187D01*
X1876Y125185D02*
X7874D01*
Y128184D01*
X6874Y129184D01*
X5875D01*
X4875Y128184D01*
Y125185D01*
Y128184D01*
X3875Y129184D01*
X2876D01*
X1876Y128184D01*
Y125185D01*
X7874Y131183D02*
X1876D01*
Y134182D01*
X2876Y135182D01*
X4875D01*
X5875Y134182D01*
Y131183D01*
Y133183D02*
X7874Y135182D01*
X2876Y141180D02*
X1876Y140180D01*
Y138181D01*
X2876Y137181D01*
X3875D01*
X4875Y138181D01*
Y140180D01*
X5875Y141180D01*
X6874D01*
X7874Y140180D01*
Y138181D01*
X6874Y137181D01*
X1876Y143179D02*
Y147178D01*
Y145179D01*
X7874D01*
X104238Y111221D02*
X110236D01*
Y114219D01*
X109237Y115219D01*
X108237D01*
X107237Y114219D01*
Y111221D01*
Y114219D01*
X106237Y115219D01*
X105238D01*
X104238Y114219D01*
Y111221D01*
X110236Y117218D02*
X106237D01*
X104238Y119218D01*
X106237Y121217D01*
X110236D01*
X107237D01*
Y117218D01*
X104238Y123217D02*
Y127215D01*
Y125216D01*
X110236D01*
Y129215D02*
X104238D01*
Y132214D01*
X105238Y133213D01*
X107237D01*
X108237Y132214D01*
Y129215D01*
Y131214D02*
X110236Y133213D01*
X105238Y139211D02*
X104238Y138212D01*
Y136212D01*
X105238Y135213D01*
X106237D01*
X107237Y136212D01*
Y138212D01*
X108237Y139211D01*
X109237D01*
X110236Y138212D01*
Y136212D01*
X109237Y135213D01*
X104238Y141211D02*
Y145210D01*
Y143210D01*
X110236D01*
X145577Y-19685D02*
X151575D01*
Y-16686D01*
X150575Y-15686D01*
X149575D01*
X148576Y-16686D01*
Y-19685D01*
Y-16686D01*
X147576Y-15686D01*
X146576D01*
X145577Y-16686D01*
Y-19685D01*
X151575Y-13687D02*
X147576D01*
X145577Y-11688D01*
X147576Y-9688D01*
X151575D01*
X148576D01*
Y-13687D01*
X145577Y-7689D02*
Y-3690D01*
Y-5690D01*
X151575D01*
X145577Y1308D02*
Y-691D01*
X146576Y-1691D01*
X150575D01*
X151575Y-691D01*
Y1308D01*
X150575Y2308D01*
X146576D01*
X145577Y1308D01*
X151575Y4307D02*
X145577D01*
X151575Y8306D01*
X145577D01*
X199100Y92598D02*
X201099D01*
X200100D01*
Y86600D01*
X199100D01*
X201099D01*
X204098D02*
Y92598D01*
X208097Y86600D01*
Y92598D01*
X183500Y57899D02*
X187499D01*
X185499Y59898D02*
Y55900D01*
X-16732Y104331D02*
X-10734D01*
Y101332D01*
X-11734Y100332D01*
X-13733D01*
X-14733Y101332D01*
Y104331D01*
X-16732Y98333D02*
X-10734D01*
Y95334D01*
X-11734Y94334D01*
X-13733D01*
X-14733Y95334D01*
Y98333D01*
Y96333D02*
X-16732Y94334D01*
X-10734Y89336D02*
Y91335D01*
X-11734Y92335D01*
X-15733D01*
X-16732Y91335D01*
Y89336D01*
X-15733Y88336D01*
X-11734D01*
X-10734Y89336D01*
Y86336D02*
X-16732Y82338D01*
X-10734D02*
X-16732Y86336D01*
X-10734Y80339D02*
X-16732D01*
Y77339D01*
X-15733Y76340D01*
X-14733D01*
X-13733Y77339D01*
Y80339D01*
Y77339D01*
X-12734Y76340D01*
X-11734D01*
X-10734Y77339D01*
Y80339D01*
X32480Y16732D02*
Y22730D01*
X35479D01*
X36479Y21731D01*
Y19731D01*
X35479Y18732D01*
X32480D01*
X34480D02*
X36479Y16732D01*
X42477Y21731D02*
X41477Y22730D01*
X39478D01*
X38478Y21731D01*
Y20731D01*
X39478Y19731D01*
X41477D01*
X42477Y18732D01*
Y17732D01*
X41477Y16732D01*
X39478D01*
X38478Y17732D01*
X44476Y22730D02*
X48475D01*
X46476D01*
Y16732D01*
X97441Y2999D02*
X101440D01*
X99440Y4998D02*
Y1000D01*
X103439Y4998D02*
X104439Y5998D01*
X106438D01*
X107438Y4998D01*
Y3999D01*
X106438Y2999D01*
X105438D01*
X106438D01*
X107438Y1999D01*
Y1000D01*
X106438Y0D01*
X104439D01*
X103439Y1000D01*
X109437Y5998D02*
Y1999D01*
X111436Y0D01*
X113436Y1999D01*
Y5998D01*
X115435Y4998D02*
X116435Y5998D01*
X118434D01*
X119434Y4998D01*
Y3999D01*
X118434Y2999D01*
X117435D01*
X118434D01*
X119434Y1999D01*
Y1000D01*
X118434Y0D01*
X116435D01*
X115435Y1000D01*
X173228Y34541D02*
X175228D01*
X174228D01*
Y28543D01*
X173228D01*
X175228D01*
X178227D02*
Y34541D01*
X182225Y28543D01*
Y34541D01*
X184225Y28543D02*
Y32542D01*
X186224Y34541D01*
X188224Y32542D01*
Y28543D01*
Y31542D01*
X184225D01*
X166246Y98425D02*
X172244D01*
Y101424D01*
X171244Y102424D01*
X170245D01*
X169245Y101424D01*
Y98425D01*
Y101424D01*
X168245Y102424D01*
X167246D01*
X166246Y101424D01*
Y98425D01*
X168245Y104423D02*
X171244D01*
X172244Y105423D01*
Y108422D01*
X168245D01*
Y114420D02*
Y111421D01*
X169245Y110421D01*
X171244D01*
X172244Y111421D01*
Y114420D01*
Y116419D02*
X166246D01*
X170245D02*
X168245Y119418D01*
X170245Y116419D02*
X172244Y119418D01*
X118018Y197835D02*
X123016D01*
X124016Y198834D01*
Y200834D01*
X123016Y201833D01*
X118018D01*
X119017Y207831D02*
X118018Y206832D01*
Y204832D01*
X119017Y203833D01*
X120017D01*
X121017Y204832D01*
Y206832D01*
X122016Y207831D01*
X123016D01*
X124016Y206832D01*
Y204832D01*
X123016Y203833D01*
X118018Y209831D02*
X124016D01*
Y212830D01*
X123016Y213829D01*
X122016D01*
X121017Y212830D01*
Y209831D01*
Y212830D01*
X120017Y213829D01*
X119017D01*
X118018Y212830D01*
Y209831D01*
X72742Y156496D02*
X78740D01*
Y159495D01*
X77741Y160495D01*
X76741D01*
X75741Y159495D01*
Y156496D01*
Y159495D01*
X74741Y160495D01*
X73742D01*
X72742Y159495D01*
Y156496D01*
X74741Y163494D02*
Y165493D01*
X75741Y166493D01*
X78740D01*
Y163494D01*
X77741Y162494D01*
X76741Y163494D01*
Y166493D01*
X73742Y169492D02*
X74741D01*
Y168492D01*
Y170492D01*
Y169492D01*
X77741D01*
X78740Y170492D01*
X74741Y174490D02*
Y176490D01*
X75741Y177489D01*
X78740D01*
Y174490D01*
X77741Y173491D01*
X76741Y174490D01*
Y177489D01*
X78740Y179489D02*
Y181488D01*
Y180488D01*
X72742D01*
Y179489D01*
X187992Y191837D02*
X183993D01*
X185993D01*
Y197835D01*
X181994Y193836D02*
X177995Y197835D01*
X179995Y195835D01*
X177995Y193836D01*
X181994Y197835D01*
X213583D02*
Y191837D01*
X210584D01*
X209584Y192836D01*
Y194836D01*
X210584Y195835D01*
X213583D01*
X211583D02*
X209584Y197835D01*
X207585Y193836D02*
X203586Y197835D01*
X205585Y195835D01*
X203586Y193836D01*
X207585Y197835D01*
X-26498Y127891D02*
X-25498Y128891D01*
Y130890D01*
X-26498Y131890D01*
X-30496D01*
X-31496Y130890D01*
Y128891D01*
X-30496Y127891D01*
X-28497D01*
Y129890D01*
X-24529Y9781D02*
X-23529Y10780D01*
Y12780D01*
X-24529Y13780D01*
X-28528D01*
X-29528Y12780D01*
Y10780D01*
X-28528Y9781D01*
X-26528D01*
Y11780D01*
X205631Y10888D02*
X204632Y9889D01*
Y7889D01*
X205631Y6890D01*
X209630D01*
X210630Y7889D01*
Y9889D01*
X209630Y10888D01*
X207631D01*
Y8889D01*
X177088Y129983D02*
X176089Y128983D01*
Y126984D01*
X177088Y125984D01*
X181087D01*
X182087Y126984D01*
Y128983D01*
X181087Y129983D01*
X179088D01*
Y127984D01*
X188899Y190022D02*
X187900Y189023D01*
Y187023D01*
X188899Y186024D01*
X192898D01*
X193898Y187023D01*
Y189023D01*
X192898Y190022D01*
X190899D01*
Y188023D01*
X207585Y175197D02*
Y179196D01*
Y177196D01*
X213583D01*
X207585Y181195D02*
X213583D01*
X210584D01*
Y185194D01*
X207585D01*
X213583D01*
X-20669Y189961D02*
X-14671D01*
Y186962D01*
X-15671Y185962D01*
X-17670D01*
X-18670Y186962D01*
Y189961D01*
X-20669Y183963D02*
X-16671D01*
X-14671Y181963D01*
X-16671Y179964D01*
X-20669D01*
X-17670D01*
Y183963D01*
X-20669Y174966D02*
X-14671D01*
X-17670Y177964D01*
Y173966D01*
X-32480Y189961D02*
X-26482D01*
Y186962D01*
X-27482Y185962D01*
X-29481D01*
X-30481Y186962D01*
Y189961D01*
X-32480Y183963D02*
X-28482D01*
X-26482Y181963D01*
X-28482Y179964D01*
X-32480D01*
X-29481D01*
Y183963D01*
X-26482Y173966D02*
Y177964D01*
X-29481D01*
X-28482Y175965D01*
Y174966D01*
X-29481Y173966D01*
X-31481D01*
X-32480Y174966D01*
Y176965D01*
X-31481Y177964D01*
X-4844Y205647D02*
X-3844Y206647D01*
Y208646D01*
X-4844Y209646D01*
X-8843D01*
X-9843Y208646D01*
Y206647D01*
X-8843Y205647D01*
X-6843D01*
Y207646D01*
X44200Y120698D02*
X48199D01*
X46199D01*
Y114700D01*
X50198Y118699D02*
X54197Y114700D01*
X52197Y116699D01*
X54197Y118699D01*
X50198Y114700D01*
X-6828Y20746D02*
X-7828Y21746D01*
X-9827D01*
X-10827Y20746D01*
Y19747D01*
X-9827Y18747D01*
X-7828D01*
X-6828Y17747D01*
Y16748D01*
X-7828Y15748D01*
X-9827D01*
X-10827Y16748D01*
X-4829Y21746D02*
Y15748D01*
X-1830D01*
X-830Y16748D01*
Y20746D01*
X-1830Y21746D01*
X-4829D01*
X1169Y15748D02*
Y19747D01*
X3169Y21746D01*
X5168Y19747D01*
Y15748D01*
Y18747D01*
X1169D01*
X5967Y55195D02*
X4967Y56195D01*
X2968D01*
X1969Y55195D01*
Y54196D01*
X2968Y53196D01*
X4967D01*
X5967Y52196D01*
Y51196D01*
X4967Y50197D01*
X2968D01*
X1969Y51196D01*
X11965Y55195D02*
X10966Y56195D01*
X8966D01*
X7967Y55195D01*
Y51196D01*
X8966Y50197D01*
X10966D01*
X11965Y51196D01*
X13965Y56195D02*
Y50197D01*
X17963D01*
X82000Y114600D02*
Y120598D01*
X84999D01*
X85999Y119598D01*
Y117599D01*
X84999Y116599D01*
X82000D01*
X83999D02*
X85999Y114600D01*
X87998Y118599D02*
X91997Y114600D01*
X89997Y116599D01*
X91997Y118599D01*
X87998Y114600D01*
X136749Y21048D02*
X135749Y22048D01*
X133750D01*
X132750Y21048D01*
Y17050D01*
X133750Y16050D01*
X135749D01*
X136749Y17050D01*
Y19049D01*
X134749D01*
X138748Y16050D02*
Y22048D01*
X141747D01*
X142747Y21048D01*
Y19049D01*
X141747Y18049D01*
X138748D01*
X148745Y21048D02*
X147745Y22048D01*
X145746D01*
X144746Y21048D01*
Y20049D01*
X145746Y19049D01*
X147745D01*
X148745Y18049D01*
Y17050D01*
X147745Y16050D01*
X145746D01*
X144746Y17050D01*
X197835Y-32434D02*
X201833D01*
X199834Y-30435D02*
Y-34433D01*
X207831Y-29435D02*
X203833D01*
Y-32434D01*
X205832Y-31434D01*
X206832D01*
X207831Y-32434D01*
Y-34433D01*
X206832Y-35433D01*
X204832D01*
X203833Y-34433D01*
X209831Y-29435D02*
Y-33434D01*
X211830Y-35433D01*
X213829Y-33434D01*
Y-29435D01*
X113143Y141732D02*
Y145731D01*
X111143Y143732D02*
X115142D01*
X110144Y151729D02*
Y147730D01*
X113143D01*
X112143Y149730D01*
Y150729D01*
X113143Y151729D01*
X115142D01*
X116142Y150729D01*
Y148730D01*
X115142Y147730D01*
X110144Y153728D02*
X114142D01*
X116142Y155728D01*
X114142Y157727D01*
X110144D01*
X117141Y159727D02*
Y163725D01*
X110144Y165725D02*
X116142D01*
Y168724D01*
X115142Y169723D01*
X114142D01*
X113143D01*
X112143Y168724D01*
Y165725D01*
D13*
X72244Y-17973D02*
X112244D01*
X72244Y-37972D02*
X112244D01*
Y-17973D01*
X72244Y-37972D02*
Y-17973D01*
X93504Y6299D02*
Y11417D01*
X116142Y54527D02*
Y59646D01*
X-34528Y133780D02*
X-24528D01*
X-34528D02*
Y163779D01*
X-24528D01*
Y133780D02*
Y163779D01*
X53300Y-56700D02*
Y-43366D01*
X51634Y-58366D02*
X53300Y-56700D01*
X49967D02*
X51634Y-58366D01*
X49967Y-56700D02*
Y-43366D01*
X43301Y-56700D02*
Y-43366D01*
X41634Y-58366D02*
X43301Y-56700D01*
X39967D02*
X41634Y-58366D01*
X39967Y-56700D02*
Y-43366D01*
X33301Y-56700D02*
Y-43366D01*
X31634Y-58366D02*
X33301Y-56700D01*
X29967D02*
X31634Y-58366D01*
X29967Y-56700D02*
Y-43366D01*
X23301Y-56700D02*
Y-43366D01*
X21634Y-58366D02*
X23301Y-56700D01*
X19967D02*
X21634Y-58366D01*
X19967Y-56700D02*
Y-43366D01*
X16634D02*
X56634D01*
X-32559Y15669D02*
X-22559D01*
X-32559D02*
Y45669D01*
X-22559D01*
Y15669D02*
Y45669D01*
X-6496Y81693D02*
X-1378D01*
X19882Y87008D02*
Y88189D01*
X7677Y87008D02*
Y88189D01*
X19882D01*
X7677Y87008D02*
X19882D01*
X177165Y20079D02*
Y25197D01*
X200590Y-14567D02*
X202953D01*
Y-17717D02*
Y-14567D01*
X200590Y-26378D02*
X202953D01*
Y-23228D01*
X117520Y94488D02*
X119882D01*
Y91338D02*
Y94488D01*
X117520Y82677D02*
X119882D01*
Y85827D01*
X211693Y13701D02*
Y43701D01*
X201693D02*
X211693D01*
X201693Y13701D02*
Y43701D01*
Y13701D02*
X211693D01*
X109646Y205709D02*
X114764D01*
X137992Y197244D02*
Y198425D01*
X125787Y197244D02*
Y198425D01*
X137992D01*
X125787Y197244D02*
X137992D01*
X205787Y172008D02*
Y192008D01*
X195788D02*
X205787D01*
X195788Y172008D02*
Y192008D01*
Y172008D02*
X205787D01*
X82086Y164370D02*
X87205D01*
X129921Y161811D02*
X159449D01*
X129921Y176772D02*
X159449D01*
X129921Y161811D02*
Y176772D01*
X159449Y161811D02*
Y176772D01*
X204134Y206693D02*
X209252D01*
X186417D02*
X191535D01*
X142913Y49213D02*
Y61024D01*
X130709Y49213D02*
Y61024D01*
X142913D01*
X130709Y49213D02*
X142913D01*
X116535Y-8858D02*
X121653D01*
X153937Y-14764D02*
X159055D01*
X155512Y133268D02*
Y138386D01*
X183150Y131811D02*
Y161811D01*
X173150D02*
X183150D01*
X173150Y131811D02*
Y161811D01*
Y131811D02*
X183150D01*
X154921Y128149D02*
X156102D01*
X154921Y115945D02*
X156102D01*
X154921D02*
Y128149D01*
X156102Y115945D02*
Y128149D01*
X154921Y70079D02*
X156102D01*
X154921Y57874D02*
X156102D01*
X154921D02*
Y70079D01*
X156102Y57874D02*
Y70079D01*
X87008Y30315D02*
Y112992D01*
X24528D02*
X87008D01*
X24528Y30315D02*
Y112992D01*
Y30315D02*
X87008D01*
X-35512Y191693D02*
X-25512D01*
X-35512D02*
Y211693D01*
X-25512D01*
Y191693D02*
Y211693D01*
X-22716Y191693D02*
X-12717D01*
X-22716D02*
Y211693D01*
X-12717D01*
Y191693D02*
Y211693D01*
D14*
X16332Y129769D02*
X17132D01*
X16332Y124169D02*
X17132D01*
X16332Y147485D02*
X17132D01*
X16332Y141885D02*
X17132D01*
X150743Y104915D02*
Y105715D01*
X156343Y104915D02*
Y105715D01*
X164394Y105033D02*
Y105833D01*
X158794Y105033D02*
Y105833D01*
X155112Y146501D02*
X155912D01*
X155112Y140901D02*
X155912D01*
X115005Y189561D02*
Y190361D01*
X109405Y189561D02*
Y190361D01*
X153696Y1568D02*
Y2369D01*
X159296Y1568D02*
Y2369D01*
X150438Y45860D02*
Y46660D01*
X144838Y45860D02*
Y46660D01*
X152121Y45860D02*
Y46660D01*
X157721Y45860D02*
Y46660D01*
X143957Y34296D02*
X144757D01*
X143957Y28696D02*
X144757D01*
X160033Y25438D02*
X160833D01*
X160033Y19838D02*
X160833D01*
X195035Y205309D02*
Y206109D01*
X200635Y205309D02*
Y206109D01*
X182918Y205309D02*
Y206109D01*
X177318Y205309D02*
Y206109D01*
X12395Y99562D02*
X13195D01*
X12395Y105162D02*
X13195D01*
X-6737Y98025D02*
Y98825D01*
X-1137Y98025D02*
Y98825D01*
X108421Y-9258D02*
Y-8458D01*
X114021Y-9258D02*
Y-8458D01*
X172091Y63576D02*
Y64376D01*
X166491Y63576D02*
Y64376D01*
X165939Y52997D02*
X166739D01*
X165939Y47397D02*
X166739D01*
X94641Y26175D02*
Y26975D01*
X100241Y26175D02*
Y26975D01*
X165939Y39523D02*
X166739D01*
X165939Y45123D02*
X166739D01*
X113342Y68498D02*
Y69298D01*
X118942Y68498D02*
Y69298D01*
X111373Y101962D02*
Y102762D01*
X116973Y101962D02*
Y102762D01*
X36017Y203587D02*
X36817D01*
X36017Y197987D02*
X36817D01*
X42928Y186608D02*
Y187408D01*
X37328Y186608D02*
Y187408D01*
X46187Y186608D02*
Y187408D01*
X51787Y186608D02*
Y187408D01*
X60645Y186608D02*
Y187408D01*
X55045Y186608D02*
Y187408D01*
X60192Y166923D02*
Y167723D01*
X65792Y166923D02*
Y167723D01*
X30359Y166923D02*
Y167723D01*
X24759Y166923D02*
Y167723D01*
X27712Y186608D02*
Y187408D01*
X33312Y186608D02*
Y187408D01*
X33617Y166923D02*
Y167723D01*
X39217Y166923D02*
Y167723D01*
X13932Y36017D02*
Y36817D01*
X19532Y36017D02*
Y36817D01*
X165939Y31649D02*
X166739D01*
X165939Y37249D02*
X166739D01*
X-12800Y147500D02*
Y148300D01*
X-7200Y147500D02*
Y148300D01*
X171107Y141332D02*
Y142132D01*
X165507Y141332D02*
Y142132D01*
X137643Y-15164D02*
Y-14364D01*
X132043Y-15164D02*
Y-14364D01*
X138932Y-15164D02*
Y-14364D01*
X144532Y-15164D02*
Y-14364D01*
X91688Y-9258D02*
Y-8458D01*
X97288Y-9258D02*
Y-8458D01*
X105162Y-9258D02*
Y-8458D01*
X99562Y-9258D02*
Y-8458D01*
X-11964Y67513D02*
Y68313D01*
X-17564Y67513D02*
Y68313D01*
X82830Y194482D02*
Y195282D01*
X88430Y194482D02*
Y195282D01*
X93104Y19532D02*
X93904D01*
X93104Y13932D02*
X93904D01*
X123184Y66529D02*
Y67329D01*
X128784Y66529D02*
Y67329D01*
D15*
X189370Y117323D02*
X212008D01*
X189370D02*
Y166142D01*
X212008D01*
Y117323D02*
Y166142D01*
X142717Y215158D02*
Y219094D01*
X172244Y215158D02*
Y219094D01*
X142717Y199409D02*
Y205709D01*
X172244Y199409D02*
Y205709D01*
X142717Y219094D02*
X172244D01*
D16*
X113912Y-30972D02*
X117244D01*
X113912Y-34305D01*
Y-35138D01*
X114745Y-35971D01*
X116411D01*
X117244Y-35138D01*
X115244Y-20973D02*
X113578D01*
X114411D01*
Y-25971D01*
X115244Y-25138D01*
X71244Y-25971D02*
X67912D01*
Y-25138D01*
X71244Y-21805D01*
Y-20973D01*
Y-35138D02*
X70411Y-35971D01*
X68745D01*
X67912Y-35138D01*
Y-34305D01*
X68745Y-33472D01*
X67912Y-32639D01*
Y-31806D01*
X68745Y-30972D01*
X70411D01*
X71244Y-31806D01*
Y-32639D01*
X70411Y-33472D01*
X71244Y-34305D01*
Y-35138D01*
X70411Y-33472D02*
X68745D01*
X174302Y104232D02*
Y100900D01*
X179300D01*
Y104232D01*
X176801Y100900D02*
Y102566D01*
X175135Y109231D02*
X174302Y108398D01*
Y106731D01*
X175135Y105898D01*
X175968D01*
X176801Y106731D01*
Y108398D01*
X177634Y109231D01*
X178467D01*
X179300Y108398D01*
Y106731D01*
X178467Y105898D01*
X175135Y114229D02*
X174302Y113396D01*
Y111730D01*
X175135Y110897D01*
X178467D01*
X179300Y111730D01*
Y113396D01*
X178467Y114229D01*
X174302Y119227D02*
Y115895D01*
X176801D01*
Y117561D01*
Y115895D01*
X179300D01*
Y120894D02*
X174302D01*
Y123393D01*
X175135Y124226D01*
X176801D01*
X177634Y123393D01*
Y120894D01*
Y122560D02*
X179300Y124226D01*
X56321Y-30638D02*
X59654D01*
X56321Y-33970D01*
Y-34803D01*
X57154Y-35636D01*
X58820D01*
X59654Y-34803D01*
Y-20638D02*
X57987D01*
X58820D01*
Y-25636D01*
X59654Y-24803D01*
X15653Y-25636D02*
X12321D01*
Y-24803D01*
X15653Y-21471D01*
Y-20638D01*
Y-34803D02*
X14820Y-35636D01*
X13154D01*
X12321Y-34803D01*
Y-33970D01*
X13154Y-33137D01*
X12321Y-32304D01*
Y-31471D01*
X13154Y-30638D01*
X14820D01*
X15653Y-31471D01*
Y-32304D01*
X14820Y-33137D01*
X15653Y-33970D01*
Y-34803D01*
X14820Y-33137D02*
X13154D01*
M02*
