G04*
G04 #@! TF.GenerationSoftware,Altium Limited,Altium Designer,19.1.1 (5)*
G04*
G04 Layer_Physical_Order=4*
G04 Layer_Color=16711680*
%FSLAX25Y25*%
%MOIN*%
G70*
G01*
G75*
%ADD12C,0.01000*%
%ADD17R,0.04000X0.05500*%
%ADD18R,0.05500X0.04000*%
%ADD19R,0.05512X0.04331*%
%ADD20R,0.04331X0.05512*%
%ADD24R,0.06299X0.02362*%
%ADD29R,0.07874X0.09000*%
%ADD32O,0.01378X0.07874*%
%ADD33R,0.05118X0.02756*%
%ADD77C,0.01181*%
%ADD78C,0.01575*%
%ADD79C,0.02000*%
%ADD80C,0.01500*%
%ADD81C,0.03000*%
%ADD83C,0.04000*%
%ADD85C,0.01200*%
%ADD87C,0.07874*%
%ADD88R,0.07874X0.07874*%
%ADD89R,0.07480X0.07480*%
%ADD90R,0.07480X0.07480*%
%ADD91C,0.13780*%
%ADD92C,0.27559*%
%ADD93O,0.07874X0.06299*%
%ADD94R,0.07874X0.06299*%
%ADD95O,0.06299X0.09843*%
%ADD96O,0.05906X0.04134*%
%ADD97O,0.06299X0.07874*%
%ADD98R,0.06299X0.07874*%
%ADD99O,0.06299X0.04134*%
%ADD100O,0.09449X0.07480*%
%ADD101R,0.09449X0.07480*%
%ADD102O,0.04134X0.05906*%
%ADD103O,0.04331X0.06299*%
%ADD104C,0.05709*%
%ADD105C,0.04724*%
%ADD106O,0.04134X0.06299*%
%ADD107C,0.17717*%
%ADD108O,0.07874X0.07480*%
%ADD109R,0.07874X0.07480*%
%ADD110R,0.07874X0.07874*%
%ADD111C,0.02800*%
%ADD112C,0.04500*%
%ADD113O,0.15748X0.47244*%
%ADD114R,0.17717X0.31496*%
%ADD115R,0.02362X0.06299*%
%ADD116R,0.02756X0.04724*%
%ADD117R,0.03937X0.04724*%
%ADD118R,0.03937X0.03150*%
%ADD119R,0.03937X0.11024*%
%ADD120R,0.05118X0.07480*%
%ADD121R,0.13200X0.04700*%
%ADD122O,0.01181X0.07874*%
%ADD123O,0.00984X0.08268*%
%ADD124O,0.00984X0.07500*%
%ADD125O,0.08268X0.00984*%
%ADD126C,0.11811*%
%ADD127C,0.01100*%
%ADD128C,0.03150*%
%ADD129C,0.03937*%
%ADD130R,0.15748X0.47244*%
%ADD131R,0.17300X0.66400*%
%ADD132R,0.18900X0.31200*%
%ADD133R,0.19000X0.32200*%
G36*
X215414Y-38249D02*
X-38249D01*
Y215414D01*
X17461D01*
Y204724D01*
X17651Y204265D01*
X18110Y204075D01*
X22047D01*
X22506Y204265D01*
X22697Y204724D01*
Y215414D01*
X70020D01*
Y209252D01*
X70210Y208793D01*
X70669Y208602D01*
X75787D01*
X76247Y208793D01*
X76437Y209252D01*
Y215414D01*
X215414D01*
Y-38249D01*
D02*
G37*
%LPC*%
G36*
X143701Y214403D02*
X142979Y214308D01*
X142306Y214030D01*
X141728Y213586D01*
X141285Y213009D01*
X141007Y212336D01*
X140911Y211614D01*
Y210955D01*
X140411Y210803D01*
X140222Y211088D01*
X139560Y211530D01*
X138779Y211685D01*
X137999Y211530D01*
X137338Y211088D01*
X136896Y210426D01*
X136740Y209646D01*
X136896Y208865D01*
X137338Y208204D01*
X137999Y207762D01*
X138326Y207697D01*
X141588Y204434D01*
X141397Y203972D01*
X140264D01*
Y201287D01*
X143539D01*
Y202953D01*
X143752Y203211D01*
X145327D01*
X145497Y202711D01*
X145174Y202464D01*
X144620Y201742D01*
X144272Y200902D01*
X144154Y200000D01*
X144272Y199098D01*
X144620Y198258D01*
X145174Y197536D01*
X145896Y196983D01*
X146736Y196634D01*
X147638Y196516D01*
X147864Y196546D01*
X148032Y196366D01*
X152938D01*
X152851Y196803D01*
X152321Y197596D01*
X151527Y198127D01*
X151058Y198220D01*
X150822Y198661D01*
X151003Y199098D01*
X151122Y200000D01*
X151003Y200902D01*
X150655Y201742D01*
X150101Y202464D01*
X149778Y202711D01*
X149948Y203211D01*
X162844D01*
X162928Y203086D01*
X163590Y202644D01*
X164264Y202509D01*
X164452Y202201D01*
X164508Y202006D01*
X164306Y201742D01*
X163958Y200902D01*
X163839Y200000D01*
X163958Y199098D01*
X164306Y198258D01*
X164859Y197536D01*
X165581Y196983D01*
X166421Y196634D01*
X167323Y196516D01*
X168225Y196634D01*
X169065Y196983D01*
X169787Y197536D01*
X170340Y198258D01*
X170688Y199098D01*
X170807Y200000D01*
X170688Y200902D01*
X170340Y201742D01*
X169787Y202464D01*
X169065Y203017D01*
X168225Y203365D01*
X167323Y203484D01*
X166618Y203391D01*
X166438Y203567D01*
X166284Y203785D01*
X166270Y203827D01*
X166409Y204528D01*
X166254Y205308D01*
X165812Y205970D01*
X165150Y206412D01*
X164370Y206567D01*
X163590Y206412D01*
X163034Y206041D01*
X143983D01*
X143625Y206399D01*
X143854Y206877D01*
X144423Y206951D01*
X145095Y207230D01*
X145673Y207673D01*
X146116Y208251D01*
X146395Y208924D01*
X146490Y209646D01*
Y211614D01*
X146395Y212336D01*
X146116Y213009D01*
X145673Y213586D01*
X145095Y214030D01*
X144423Y214308D01*
X143701Y214403D01*
D02*
G37*
G36*
X132390Y210025D02*
Y208177D01*
X134237D01*
X134151Y208614D01*
X133620Y209407D01*
X132826Y209938D01*
X132390Y210025D01*
D02*
G37*
G36*
X131390D02*
X130953Y209938D01*
X130159Y209407D01*
X129629Y208614D01*
X129542Y208177D01*
X131390D01*
Y210025D01*
D02*
G37*
G36*
X87098Y211591D02*
X86798Y211551D01*
X86052Y211242D01*
X85411Y210750D01*
X84920Y210110D01*
X84610Y209364D01*
X84505Y208563D01*
Y208177D01*
X87098D01*
Y211591D01*
D02*
G37*
G36*
X-13780Y211649D02*
X-17217D01*
Y207193D01*
X-12760D01*
Y210630D01*
X-12837Y211020D01*
X-13059Y211351D01*
X-13389Y211572D01*
X-13780Y211649D01*
D02*
G37*
G36*
X-26575D02*
X-30012D01*
Y207193D01*
X-25555D01*
Y210630D01*
X-25633Y211020D01*
X-25854Y211351D01*
X-26185Y211572D01*
X-26575Y211649D01*
D02*
G37*
G36*
X-18216D02*
X-21654D01*
X-22044Y211572D01*
X-22375Y211351D01*
X-22595Y211020D01*
X-22673Y210630D01*
Y207193D01*
X-18216D01*
Y211649D01*
D02*
G37*
G36*
X-31012D02*
X-34449D01*
X-34839Y211572D01*
X-35170Y211351D01*
X-35391Y211020D01*
X-35468Y210630D01*
Y207193D01*
X-31012D01*
Y211649D01*
D02*
G37*
G36*
X171260Y214403D02*
X170538Y214308D01*
X169865Y214030D01*
X169288Y213586D01*
X168844Y213009D01*
X168566Y212336D01*
X168471Y211614D01*
Y209646D01*
X168566Y208924D01*
X168844Y208251D01*
X169288Y207673D01*
X169865Y207230D01*
X170538Y206951D01*
X171260Y206856D01*
X171982Y206951D01*
X172654Y207230D01*
X173232Y207673D01*
X173676Y208251D01*
X173954Y208924D01*
X174049Y209646D01*
Y211614D01*
X173954Y212336D01*
X173676Y213009D01*
X173232Y213586D01*
X172654Y214030D01*
X171982Y214308D01*
X171260Y214403D01*
D02*
G37*
G36*
X134237Y207177D02*
X132390D01*
Y205330D01*
X132826Y205416D01*
X133620Y205947D01*
X134151Y206741D01*
X134237Y207177D01*
D02*
G37*
G36*
X131390D02*
X129542D01*
X129629Y206741D01*
X130159Y205947D01*
X130953Y205416D01*
X131390Y205330D01*
Y207177D01*
D02*
G37*
G36*
X87098Y207177D02*
X84505D01*
Y206791D01*
X84610Y205991D01*
X84920Y205245D01*
X85411Y204604D01*
X86052Y204112D01*
X86798Y203803D01*
X87098Y203764D01*
Y207177D01*
D02*
G37*
G36*
X139264Y203972D02*
X137008D01*
X136618Y203895D01*
X136287Y203674D01*
X136090Y203379D01*
X135827Y203350D01*
X135563Y203379D01*
X135367Y203674D01*
X135036Y203895D01*
X134646Y203972D01*
X132390D01*
Y200787D01*
X131390D01*
Y203972D01*
X129134D01*
X128744Y203895D01*
X128413Y203674D01*
X128216Y203379D01*
X127953Y203350D01*
X127689Y203379D01*
X127493Y203674D01*
X127162Y203895D01*
X126772Y203972D01*
X124516D01*
Y200787D01*
X124016D01*
Y200287D01*
X120240D01*
Y198622D01*
X120318Y198232D01*
X120539Y197901D01*
X120541Y197900D01*
X120800Y197508D01*
X120692Y197243D01*
X120610Y197047D01*
Y192717D01*
X120801Y192257D01*
X121260Y192067D01*
X122589D01*
X122894Y191692D01*
X122979Y191263D01*
X123223Y190899D01*
X124131Y189990D01*
X123986Y189512D01*
X123849Y189485D01*
X123290Y189111D01*
X123266Y189075D01*
X122614Y188999D01*
X122452Y189108D01*
X121949Y189208D01*
X121446Y189108D01*
X121019Y188823D01*
X120970Y188749D01*
X120369D01*
X120319Y188823D01*
X119893Y189108D01*
X119390Y189208D01*
X118887Y189108D01*
X118461Y188823D01*
X118176Y188397D01*
X118076Y187894D01*
Y181398D01*
X118176Y180895D01*
X118461Y180468D01*
X118887Y180183D01*
X119390Y180083D01*
X119893Y180183D01*
X120319Y180468D01*
X120369Y180543D01*
X120970D01*
X121019Y180468D01*
X121446Y180183D01*
X121949Y180083D01*
X122452Y180183D01*
X122614Y180292D01*
X123266Y180217D01*
X123290Y180180D01*
X123849Y179807D01*
X124008Y179775D01*
Y184646D01*
X125008D01*
Y179775D01*
X125167Y179807D01*
X125381Y179950D01*
X125823Y179727D01*
X125867Y179269D01*
X124682Y178084D01*
X124439Y177720D01*
X124353Y177291D01*
X124353Y177291D01*
Y175507D01*
X123853Y175268D01*
X123380Y175584D01*
X122600Y175739D01*
X121820Y175584D01*
X121158Y175142D01*
X120716Y174480D01*
X120561Y173700D01*
X120716Y172920D01*
X121158Y172258D01*
X121820Y171816D01*
X122600Y171661D01*
X123380Y171816D01*
X124042Y172258D01*
X124365Y172742D01*
X124875Y172854D01*
X124977Y172837D01*
X125888Y171926D01*
X126252Y171683D01*
X126681Y171597D01*
X126681Y171597D01*
X128979D01*
X128979Y171597D01*
X129408Y171683D01*
X129430Y171697D01*
X129597D01*
X130125Y171344D01*
X130905Y171189D01*
X131686Y171344D01*
X132347Y171786D01*
X132790Y172448D01*
X132945Y173228D01*
X132815Y173878D01*
X132905Y174021D01*
X133065Y174181D01*
X133208Y174271D01*
X133858Y174142D01*
X134639Y174297D01*
X135300Y174739D01*
X135742Y175401D01*
X135898Y176181D01*
X135742Y176962D01*
X135300Y177623D01*
X134750Y177991D01*
X134723Y178031D01*
X133409Y179345D01*
Y180184D01*
X133569Y180296D01*
X133909Y180406D01*
X134241Y180183D01*
X134744Y180083D01*
X135247Y180183D01*
X135673Y180468D01*
X135723Y180543D01*
X136324D01*
X136374Y180468D01*
X136800Y180183D01*
X137303Y180083D01*
X137806Y180183D01*
X138139Y180406D01*
X138478Y180296D01*
X138639Y180184D01*
Y178883D01*
X138732Y178415D01*
X138997Y178018D01*
X147191Y169824D01*
Y167254D01*
X146696Y167042D01*
X144566Y169172D01*
X144169Y169438D01*
X143701Y169531D01*
X141495D01*
X141027Y169438D01*
X140630Y169172D01*
X138997Y167539D01*
X138732Y167142D01*
X138639Y166674D01*
Y166272D01*
X138478Y166160D01*
X138139Y166051D01*
X137806Y166273D01*
X137303Y166373D01*
X136800Y166273D01*
X136374Y165988D01*
X136324Y165914D01*
X135723D01*
X135673Y165988D01*
X135247Y166273D01*
X134744Y166373D01*
X134241Y166273D01*
X133815Y165988D01*
X133765Y165914D01*
X133164D01*
X133114Y165988D01*
X132688Y166273D01*
X132185Y166373D01*
X131682Y166273D01*
X131256Y165988D01*
X131206Y165914D01*
X130605D01*
X130555Y165988D01*
X130129Y166273D01*
X129626Y166373D01*
X129123Y166273D01*
X128697Y165988D01*
X128647Y165914D01*
X128046D01*
X127996Y165988D01*
X127570Y166273D01*
X127067Y166373D01*
X126564Y166273D01*
X126402Y166165D01*
X125750Y166240D01*
X125725Y166277D01*
X125167Y166650D01*
X125008Y166682D01*
Y161811D01*
X124008D01*
Y166682D01*
X123849Y166650D01*
X123290Y166277D01*
X123266Y166240D01*
X122614Y166165D01*
X122452Y166273D01*
X121949Y166373D01*
X121446Y166273D01*
X121019Y165988D01*
X120970Y165914D01*
X120369D01*
X120319Y165988D01*
X119893Y166273D01*
X119390Y166373D01*
X118887Y166273D01*
X118461Y165988D01*
X118176Y165562D01*
X118076Y165059D01*
Y163034D01*
X117573D01*
Y164165D01*
X117382Y164624D01*
X116923Y164814D01*
X115397D01*
Y165492D01*
X116929D01*
X117388Y165682D01*
X117579Y166142D01*
Y170472D01*
X117497Y170669D01*
X117390Y170933D01*
X117648Y171325D01*
X117650Y171326D01*
X117871Y171657D01*
X117949Y172047D01*
Y173713D01*
X114173D01*
X110398D01*
Y172047D01*
X110475Y171657D01*
X110696Y171326D01*
X110698Y171325D01*
X110957Y170933D01*
X110849Y170669D01*
X110768Y170472D01*
Y166142D01*
X110958Y165682D01*
X111417Y165492D01*
X112950D01*
Y164814D01*
X111423D01*
X110964Y164624D01*
X110774Y164165D01*
Y160165D01*
X110964Y159705D01*
X111423Y159515D01*
X116923D01*
X117382Y159705D01*
X117573Y160165D01*
Y160587D01*
X118076D01*
Y158563D01*
X118176Y158060D01*
X118461Y157634D01*
X118607Y157536D01*
X118637Y156954D01*
X118195Y156292D01*
X118101Y155820D01*
X118073Y155678D01*
X117573Y155728D01*
Y156765D01*
X117382Y157224D01*
X116923Y157414D01*
X111423D01*
X110964Y157224D01*
X110774Y156765D01*
Y155988D01*
X95772D01*
X91584Y160175D01*
X91636Y160433D01*
X91480Y161213D01*
X91038Y161875D01*
X90377Y162317D01*
X89596Y162472D01*
X88816Y162317D01*
X88154Y161875D01*
X87712Y161213D01*
X87557Y160433D01*
X87712Y159653D01*
X88154Y158991D01*
X88816Y158549D01*
X89596Y158394D01*
X89854Y158445D01*
X94400Y153899D01*
X94797Y153634D01*
X95265Y153541D01*
X97852D01*
X98004Y153041D01*
X97967Y153017D01*
X97526Y152355D01*
X97370Y151575D01*
X97526Y150794D01*
X97967Y150133D01*
X98629Y149691D01*
X99410Y149536D01*
X100190Y149691D01*
X100851Y150133D01*
X101293Y150794D01*
X101449Y151575D01*
X101293Y152355D01*
X100851Y153017D01*
X100815Y153041D01*
X100967Y153541D01*
X110774D01*
Y152765D01*
X110964Y152305D01*
X111423Y152115D01*
X116923D01*
X117382Y152305D01*
X117573Y152765D01*
Y155296D01*
X118073Y155345D01*
X118101Y155204D01*
X118195Y154731D01*
X118637Y154070D01*
X119298Y153628D01*
X120079Y153473D01*
X120859Y153628D01*
X121469Y154035D01*
X121705Y153975D01*
X121969Y153840D01*
Y130597D01*
X122093Y129973D01*
X122447Y129444D01*
X144776Y107114D01*
X145305Y106761D01*
X145929Y106636D01*
X146291D01*
Y103768D01*
X146482Y103308D01*
X146941Y103118D01*
X154815D01*
X155274Y103308D01*
X155464Y103768D01*
Y112768D01*
X155274Y113227D01*
X155261Y113233D01*
X155163Y113723D01*
X159104Y117664D01*
X162196D01*
X162655Y117854D01*
X162846Y118313D01*
Y121168D01*
X169182Y127505D01*
X169734Y127377D01*
X169856Y127059D01*
X169753Y126903D01*
X169752Y126902D01*
X169530Y126571D01*
X169453Y126181D01*
Y124516D01*
X177004D01*
Y126181D01*
X176926Y126571D01*
X176705Y126902D01*
X176703Y126903D01*
X176445Y127295D01*
X176552Y127560D01*
X176634Y127756D01*
Y129037D01*
X179671D01*
Y128668D01*
X179862Y128209D01*
X180321Y128019D01*
X185821D01*
X186280Y128209D01*
X186470Y128668D01*
Y129037D01*
X188530D01*
Y128668D01*
X188720Y128209D01*
X189179Y128019D01*
X194679D01*
X195138Y128209D01*
X195249Y128231D01*
X197382Y126098D01*
Y123228D01*
X197572Y122769D01*
X198031Y122579D01*
X207480D01*
X207940Y122769D01*
X208130Y123228D01*
Y130709D01*
X207940Y131168D01*
X207480Y131358D01*
X198031D01*
X197572Y131168D01*
X197555Y131127D01*
X197065Y131029D01*
X196273Y131822D01*
X195743Y132176D01*
X195433Y132237D01*
X195322Y132728D01*
X195645Y133211D01*
X196850D01*
X197475Y133335D01*
X198004Y133689D01*
X198128Y133813D01*
X198627Y133780D01*
X198676Y133715D01*
X199583Y133020D01*
X200639Y132582D01*
X201772Y132433D01*
X203740D01*
X204873Y132582D01*
X205929Y133020D01*
X206836Y133715D01*
X207531Y134622D01*
X207969Y135678D01*
X208118Y136811D01*
X207969Y137944D01*
X207531Y139000D01*
X206836Y139906D01*
X205929Y140602D01*
X204873Y141039D01*
X203740Y141189D01*
X201772D01*
X200639Y141039D01*
X199583Y140602D01*
X198676Y139906D01*
X197980Y139000D01*
X197543Y137944D01*
X197528Y137827D01*
X196175Y136474D01*
X190636D01*
X190221Y136889D01*
X190412Y137351D01*
X194679D01*
X195138Y137542D01*
X195329Y138001D01*
Y142001D01*
X195138Y142460D01*
X194679Y142650D01*
X189381D01*
X187655Y144377D01*
Y147638D01*
X187531Y148262D01*
X187177Y148791D01*
X183240Y152728D01*
X182711Y153082D01*
X182087Y153206D01*
X181220D01*
X181050Y153706D01*
X181611Y154137D01*
X182212Y154920D01*
X182590Y155832D01*
X182719Y156811D01*
X182590Y157790D01*
X182393Y158264D01*
X182817Y158548D01*
X187545Y153820D01*
Y151879D01*
X187736Y151419D01*
X188195Y151229D01*
X193695D01*
X194154Y151419D01*
X194344Y151879D01*
Y155879D01*
X194154Y156338D01*
X193695Y156528D01*
X188838D01*
X182722Y162644D01*
X182264Y162950D01*
X181902Y163022D01*
X181851Y163542D01*
X183714Y164313D01*
X185643Y165496D01*
X187365Y166966D01*
X188835Y168687D01*
X190017Y170617D01*
X190883Y172708D01*
X191412Y174909D01*
X191589Y177165D01*
X191412Y179422D01*
X190883Y181623D01*
X190017Y183714D01*
X188835Y185644D01*
X187365Y187365D01*
X185643Y188835D01*
X183714Y190017D01*
X181623Y190883D01*
X179422Y191412D01*
X177165Y191589D01*
X174909Y191412D01*
X172708Y190883D01*
X170617Y190017D01*
X168687Y188835D01*
X166966Y187365D01*
X165496Y185644D01*
X164313Y183714D01*
X163447Y181623D01*
X162919Y179422D01*
X162741Y177165D01*
X162919Y174909D01*
X163447Y172708D01*
X164313Y170617D01*
X165152Y169248D01*
X164757Y168937D01*
X148047Y185646D01*
X147589Y185953D01*
X147047Y186060D01*
X143736D01*
Y187894D01*
X143635Y188397D01*
X143351Y188823D01*
X142924Y189108D01*
X142421Y189208D01*
X141918Y189108D01*
X141492Y188823D01*
X141442Y188749D01*
X141423Y188743D01*
X140936Y188891D01*
Y192067D01*
X142520D01*
X142979Y192257D01*
X143169Y192717D01*
Y197047D01*
X143088Y197243D01*
X142980Y197508D01*
X143239Y197900D01*
X143241Y197901D01*
X143462Y198232D01*
X143539Y198622D01*
Y200287D01*
X139764D01*
Y200787D01*
X139264D01*
Y203972D01*
D02*
G37*
G36*
X123516D02*
X121260D01*
X120870Y203895D01*
X120539Y203674D01*
X120318Y203343D01*
X120240Y202953D01*
Y201287D01*
X123516D01*
Y203972D01*
D02*
G37*
G36*
X22047Y198090D02*
X18110D01*
X17651Y197900D01*
X17461Y197441D01*
Y194291D01*
X17651Y193832D01*
X18110Y193642D01*
X22047D01*
X22506Y193832D01*
X22697Y194291D01*
Y194745D01*
X23934D01*
X24149Y194424D01*
X24810Y193982D01*
X25591Y193827D01*
X26371Y193982D01*
X27033Y194424D01*
X27474Y195086D01*
X27630Y195866D01*
X27474Y196646D01*
X27033Y197308D01*
X26371Y197750D01*
X25591Y197905D01*
X24810Y197750D01*
X24149Y197308D01*
X23935Y196988D01*
X22697D01*
Y197441D01*
X22506Y197900D01*
X22047Y198090D01*
D02*
G37*
G36*
X152938Y195366D02*
X151091D01*
Y193519D01*
X151527Y193605D01*
X152321Y194136D01*
X152851Y194930D01*
X152938Y195366D01*
D02*
G37*
G36*
X150091D02*
X148243D01*
X148330Y194930D01*
X148860Y194136D01*
X149654Y193605D01*
X150091Y193519D01*
Y195366D01*
D02*
G37*
G36*
X106496Y196689D02*
X104831D01*
Y193413D01*
X107516D01*
Y195669D01*
X107438Y196060D01*
X107217Y196390D01*
X106886Y196611D01*
X106496Y196689D01*
D02*
G37*
G36*
X-25555Y206193D02*
X-30512D01*
X-35468D01*
Y202756D01*
X-35391Y202366D01*
X-35170Y202035D01*
X-34839Y201814D01*
X-34449Y201736D01*
X-30793D01*
X-30761Y201236D01*
X-31696Y201113D01*
X-32800Y200656D01*
X-33748Y199929D01*
X-34475Y198981D01*
X-34932Y197877D01*
X-35088Y196693D01*
X-34932Y195509D01*
X-34475Y194405D01*
X-33748Y193457D01*
X-32800Y192730D01*
X-31696Y192273D01*
X-30512Y192117D01*
X-29327Y192273D01*
X-28224Y192730D01*
X-27276Y193457D01*
X-26549Y194405D01*
X-26092Y195509D01*
X-25936Y196693D01*
X-26092Y197877D01*
X-26549Y198981D01*
X-27276Y199929D01*
X-28224Y200656D01*
X-29327Y201113D01*
X-30263Y201236D01*
X-30230Y201736D01*
X-26575D01*
X-26185Y201814D01*
X-25854Y202035D01*
X-25633Y202366D01*
X-25555Y202756D01*
Y206193D01*
D02*
G37*
G36*
X107516Y192413D02*
X104831D01*
Y189138D01*
X106496D01*
X106886Y189216D01*
X107217Y189436D01*
X107438Y189767D01*
X107516Y190157D01*
Y192413D01*
D02*
G37*
G36*
X88099Y211591D02*
Y207677D01*
Y203764D01*
X88399Y203803D01*
X89145Y204112D01*
X89786Y204604D01*
X89996Y204878D01*
X90616Y204889D01*
X90629Y204881D01*
X91175Y204462D01*
X91824Y204193D01*
X92520Y204101D01*
X93216Y204193D01*
X93865Y204462D01*
X94422Y204889D01*
X94679Y205225D01*
X94704Y205238D01*
X95257D01*
X95281Y205225D01*
X95539Y204889D01*
X96096Y204462D01*
X96745Y204193D01*
X97441Y204101D01*
X98137Y204193D01*
X98786Y204462D01*
X99343Y204889D01*
X99601Y205225D01*
X99625Y205238D01*
X100178D01*
X100202Y205225D01*
X100460Y204889D01*
X100711Y204696D01*
X100747Y204072D01*
X94902Y198227D01*
X57087D01*
X56560Y198122D01*
X56113Y197824D01*
X56113Y197824D01*
X43721Y185432D01*
X24872D01*
X24345Y185327D01*
X23899Y185028D01*
X14831Y175960D01*
X14612Y176001D01*
X14345Y176161D01*
X14424Y177165D01*
X14246Y179422D01*
X13718Y181623D01*
X12852Y183714D01*
X11669Y185644D01*
X10199Y187365D01*
X8478Y188835D01*
X6548Y190017D01*
X4457Y190883D01*
X2256Y191412D01*
X-0Y191589D01*
X-2256Y191412D01*
X-4457Y190883D01*
X-6548Y190017D01*
X-8478Y188835D01*
X-10199Y187365D01*
X-11669Y185644D01*
X-12852Y183714D01*
X-13718Y181623D01*
X-14246Y179422D01*
X-14424Y177165D01*
X-14246Y174909D01*
X-13718Y172708D01*
X-12852Y170617D01*
X-11669Y168687D01*
X-10199Y166966D01*
X-8478Y165496D01*
X-6548Y164313D01*
X-4457Y163447D01*
X-2256Y162919D01*
X-0Y162741D01*
X2256Y162919D01*
X4457Y163447D01*
X6548Y164313D01*
X8478Y165496D01*
X10199Y166966D01*
X11669Y168687D01*
X12852Y170617D01*
X13718Y172708D01*
X13872Y173348D01*
X14372Y173289D01*
Y112775D01*
X-9428Y88975D01*
X-15748D01*
X-16275Y88870D01*
X-16721Y88572D01*
X-24847Y80446D01*
X-26476D01*
X-27172Y80354D01*
X-27821Y80085D01*
X-28378Y79658D01*
X-28806Y79101D01*
X-29075Y78452D01*
X-29166Y77756D01*
X-29075Y77060D01*
X-28806Y76411D01*
X-28378Y75854D01*
X-28043Y75596D01*
X-28030Y75572D01*
Y75019D01*
X-28043Y74994D01*
X-28378Y74737D01*
X-28806Y74180D01*
X-29075Y73531D01*
X-29166Y72835D01*
X-29075Y72138D01*
X-28806Y71490D01*
X-28378Y70933D01*
X-28043Y70675D01*
X-28030Y70650D01*
Y70098D01*
X-28043Y70073D01*
X-28378Y69815D01*
X-28806Y69258D01*
X-29075Y68610D01*
X-29166Y67913D01*
X-29075Y67217D01*
X-28806Y66568D01*
X-28387Y66022D01*
X-28378Y66010D01*
X-28390Y65390D01*
X-28664Y65180D01*
X-29155Y64539D01*
X-29464Y63793D01*
X-29504Y63492D01*
X-25591D01*
X-21677D01*
X-21717Y63793D01*
X-22026Y64539D01*
X-22517Y65180D01*
X-22791Y65390D01*
X-22803Y66010D01*
X-22794Y66022D01*
X-22375Y66568D01*
X-22106Y67217D01*
X-22015Y67913D01*
X-22106Y68610D01*
X-22375Y69258D01*
X-22803Y69815D01*
X-23138Y70073D01*
X-23151Y70098D01*
Y70650D01*
X-23138Y70675D01*
X-22803Y70933D01*
X-22375Y71490D01*
X-22106Y72138D01*
X-22015Y72835D01*
X-22106Y73531D01*
X-22375Y74180D01*
X-22803Y74737D01*
X-23138Y74994D01*
X-23151Y75019D01*
Y75572D01*
X-23138Y75596D01*
X-22803Y75854D01*
X-22375Y76411D01*
X-22106Y77060D01*
X-22015Y77756D01*
X-22106Y78452D01*
X-22353Y79047D01*
X-15178Y86222D01*
X-8858D01*
X-8331Y86327D01*
X-7885Y86625D01*
X16721Y111231D01*
X17020Y111678D01*
X17124Y112205D01*
Y168600D01*
X17625Y168699D01*
X17651Y168635D01*
X18110Y168445D01*
X22047D01*
X22506Y168635D01*
X22697Y169095D01*
Y173819D01*
X22506Y174278D01*
X22047Y174468D01*
X18110D01*
X17818Y174347D01*
X17535Y174771D01*
X25442Y182679D01*
X44291D01*
X44818Y182783D01*
X45265Y183082D01*
X57657Y195474D01*
X95472D01*
X95610Y195361D01*
Y190157D01*
X95801Y189698D01*
X96260Y189508D01*
X98288D01*
Y187387D01*
X97916Y187233D01*
X97297Y186758D01*
X96822Y186140D01*
X96524Y185419D01*
X96422Y184646D01*
X96524Y183872D01*
X96822Y183152D01*
X97297Y182533D01*
X97916Y182058D01*
X98636Y181760D01*
X99410Y181658D01*
X100183Y181760D01*
X100903Y182058D01*
X101522Y182533D01*
X101997Y183152D01*
X102295Y183872D01*
X102397Y184646D01*
X102295Y185419D01*
X101997Y186140D01*
X101522Y186758D01*
X100903Y187233D01*
X100531Y187387D01*
Y189508D01*
X100591D01*
X100787Y189589D01*
X101051Y189697D01*
X101443Y189438D01*
X101444Y189436D01*
X101775Y189216D01*
X102165Y189138D01*
X103831D01*
Y192913D01*
Y196689D01*
X102165D01*
X101775Y196611D01*
X101444Y196390D01*
X101443Y196388D01*
X101051Y196130D01*
X100787Y196238D01*
X100591Y196319D01*
X97541D01*
X97349Y196781D01*
X103335Y202767D01*
X103634Y203213D01*
X103739Y203740D01*
Y204486D01*
X104264Y204889D01*
X104692Y205446D01*
X104960Y206095D01*
X105052Y206791D01*
Y208563D01*
X104960Y209259D01*
X104692Y209908D01*
X104264Y210465D01*
X103707Y210893D01*
X103058Y211161D01*
X102362Y211253D01*
X101666Y211161D01*
X101017Y210893D01*
X100460Y210465D01*
X100202Y210129D01*
X100178Y210117D01*
X99625D01*
X99601Y210129D01*
X99343Y210465D01*
X98786Y210893D01*
X98137Y211161D01*
X97441Y211253D01*
X96745Y211161D01*
X96096Y210893D01*
X95539Y210465D01*
X95281Y210129D01*
X95257Y210117D01*
X94704D01*
X94679Y210129D01*
X94422Y210465D01*
X93865Y210893D01*
X93216Y211161D01*
X92520Y211253D01*
X91824Y211161D01*
X91175Y210893D01*
X90629Y210473D01*
X90616Y210465D01*
X89996Y210476D01*
X89786Y210750D01*
X89145Y211242D01*
X88399Y211551D01*
X88099Y211591D01*
D02*
G37*
G36*
X204725Y191177D02*
X201288D01*
Y187508D01*
X205744D01*
Y190157D01*
X205666Y190548D01*
X205445Y190878D01*
X205115Y191100D01*
X204725Y191177D01*
D02*
G37*
G36*
X200288D02*
X196851D01*
X196460Y191100D01*
X196130Y190878D01*
X195908Y190548D01*
X195831Y190157D01*
Y187508D01*
X200288D01*
Y191177D01*
D02*
G37*
G36*
X205744Y186508D02*
X201288D01*
Y182839D01*
X204725D01*
X205115Y182916D01*
X205445Y183137D01*
X205666Y183468D01*
X205744Y183858D01*
Y186508D01*
D02*
G37*
G36*
X200288D02*
X195831D01*
Y183858D01*
X195908Y183468D01*
X196130Y183137D01*
X196460Y182916D01*
X196851Y182839D01*
X200288D01*
Y186508D01*
D02*
G37*
G36*
X116929Y177398D02*
X114673D01*
Y174713D01*
X117949D01*
Y176378D01*
X117871Y176768D01*
X117650Y177099D01*
X117319Y177320D01*
X116929Y177398D01*
D02*
G37*
G36*
X113673D02*
X111417D01*
X111027Y177320D01*
X110696Y177099D01*
X110475Y176768D01*
X110398Y176378D01*
Y174713D01*
X113673D01*
Y177398D01*
D02*
G37*
G36*
X93004Y177004D02*
X91339D01*
X90948Y176926D01*
X90618Y176705D01*
X90397Y176374D01*
X90319Y175984D01*
Y173728D01*
X93004D01*
Y177004D01*
D02*
G37*
G36*
X201575Y180790D02*
X200000D01*
X199021Y180661D01*
X198109Y180283D01*
X197326Y179682D01*
X196725Y178899D01*
X196347Y177987D01*
X196218Y177008D01*
X196347Y176029D01*
X196725Y175117D01*
X197326Y174334D01*
X198109Y173733D01*
X199021Y173355D01*
X200000Y173226D01*
X201575D01*
X202554Y173355D01*
X203466Y173733D01*
X204249Y174334D01*
X204850Y175117D01*
X205228Y176029D01*
X205357Y177008D01*
X205228Y177987D01*
X204850Y178899D01*
X204249Y179682D01*
X203466Y180283D01*
X202554Y180661D01*
X201575Y180790D01*
D02*
G37*
G36*
X93004Y172728D02*
X90319D01*
Y170472D01*
X90397Y170082D01*
X90618Y169752D01*
X90948Y169530D01*
X91339Y169453D01*
X93004D01*
Y172728D01*
D02*
G37*
G36*
X95669Y177004D02*
X94004D01*
Y173228D01*
Y169453D01*
X95669D01*
X96060Y169530D01*
X96390Y169752D01*
X96391Y169753D01*
X96783Y170012D01*
X97048Y169904D01*
X97244Y169823D01*
X98288D01*
Y168096D01*
X97916Y167942D01*
X97297Y167467D01*
X96822Y166848D01*
X96524Y166128D01*
X96422Y165354D01*
X96524Y164581D01*
X96822Y163860D01*
X97297Y163242D01*
X97916Y162767D01*
X98636Y162468D01*
X99410Y162367D01*
X100183Y162468D01*
X100903Y162767D01*
X101522Y163242D01*
X101997Y163860D01*
X102295Y164581D01*
X102397Y165354D01*
X102295Y166128D01*
X101997Y166848D01*
X101522Y167467D01*
X100903Y167942D01*
X100531Y168096D01*
Y169823D01*
X101575D01*
X102034Y170013D01*
X102224Y170472D01*
Y175984D01*
X102034Y176444D01*
X101575Y176634D01*
X97244D01*
X97048Y176552D01*
X96783Y176444D01*
X96391Y176703D01*
X96390Y176705D01*
X96060Y176926D01*
X95669Y177004D01*
D02*
G37*
G36*
X-28740Y162562D02*
X-30315D01*
X-31294Y162433D01*
X-32206Y162055D01*
X-32989Y161454D01*
X-33590Y160670D01*
X-33968Y159758D01*
X-34097Y158780D01*
X-33968Y157801D01*
X-33590Y156889D01*
X-32989Y156105D01*
X-32206Y155504D01*
X-31294Y155127D01*
X-30315Y154998D01*
X-28740D01*
X-27761Y155127D01*
X-26849Y155504D01*
X-26066Y156105D01*
X-25465Y156889D01*
X-25087Y157801D01*
X-24958Y158780D01*
X-25087Y159758D01*
X-25465Y160670D01*
X-26066Y161454D01*
X-26849Y162055D01*
X-27761Y162433D01*
X-28740Y162562D01*
D02*
G37*
G36*
X193695Y163928D02*
X188195D01*
X187736Y163738D01*
X187545Y163279D01*
Y159279D01*
X187736Y158819D01*
X188195Y158629D01*
X193695D01*
X194154Y158819D01*
X194286Y159138D01*
X197086D01*
X197851Y158373D01*
X197543Y157629D01*
X197394Y156496D01*
X197543Y155363D01*
X197980Y154307D01*
X198676Y153401D01*
X199583Y152705D01*
X200639Y152268D01*
X201772Y152119D01*
X203740D01*
X204873Y152268D01*
X205929Y152705D01*
X206836Y153401D01*
X207531Y154307D01*
X207969Y155363D01*
X208118Y156496D01*
X207969Y157629D01*
X207531Y158685D01*
X206836Y159592D01*
X205929Y160287D01*
X204873Y160725D01*
X203740Y160874D01*
X201772D01*
X201449Y160831D01*
X199487Y162793D01*
X198793Y163257D01*
X197973Y163420D01*
X194286D01*
X194154Y163738D01*
X193695Y163928D01*
D02*
G37*
G36*
X65945Y157539D02*
X62008D01*
X61549Y157349D01*
X61358Y156890D01*
Y152165D01*
X61549Y151706D01*
X62008Y151516D01*
X65945D01*
X66404Y151706D01*
X66594Y152165D01*
Y156890D01*
X66404Y157349D01*
X65945Y157539D01*
D02*
G37*
G36*
X203740Y151031D02*
X201772D01*
X200639Y150882D01*
X199583Y150445D01*
X198676Y149749D01*
X198126Y149032D01*
X195329D01*
Y149401D01*
X195138Y149860D01*
X194679Y150050D01*
X189179D01*
X188720Y149860D01*
X188530Y149401D01*
Y145401D01*
X188720Y144942D01*
X189179Y144751D01*
X194679D01*
X195138Y144942D01*
X195329Y145401D01*
Y145770D01*
X197510D01*
X197543Y145520D01*
X197980Y144465D01*
X198676Y143558D01*
X199583Y142862D01*
X200639Y142425D01*
X201772Y142276D01*
X203740D01*
X204873Y142425D01*
X205929Y142862D01*
X206836Y143558D01*
X207531Y144465D01*
X207969Y145520D01*
X208118Y146653D01*
X207969Y147787D01*
X207531Y148842D01*
X206836Y149749D01*
X205929Y150445D01*
X204873Y150882D01*
X203740Y151031D01*
D02*
G37*
G36*
X62992Y184702D02*
X49213D01*
X48588Y184578D01*
X48059Y184224D01*
X43728Y179894D01*
X43375Y179365D01*
X43251Y178740D01*
Y160607D01*
X42998Y160229D01*
X42843Y159449D01*
X42998Y158668D01*
X43251Y158291D01*
Y157434D01*
X43045Y157349D01*
X42987Y157210D01*
X42446D01*
X42388Y157349D01*
X41929Y157539D01*
X41673D01*
Y177345D01*
X41842Y177458D01*
X42284Y178120D01*
X42439Y178900D01*
X42284Y179680D01*
X41842Y180342D01*
X41180Y180784D01*
X40400Y180939D01*
X39620Y180784D01*
X38958Y180342D01*
X38516Y179680D01*
X38361Y178900D01*
X38516Y178120D01*
X38958Y177458D01*
X39430Y177143D01*
Y157539D01*
X39173D01*
X38977Y157458D01*
X38712Y157350D01*
X38321Y157609D01*
X38319Y157611D01*
X37989Y157832D01*
X37598Y157909D01*
X36720D01*
Y154527D01*
X35721D01*
Y157909D01*
X34843D01*
X34452Y157832D01*
X34122Y157611D01*
X34120Y157609D01*
X33729Y157350D01*
X33464Y157458D01*
X33268Y157539D01*
X33011D01*
Y177948D01*
X33085Y178058D01*
X33240Y178839D01*
X33085Y179619D01*
X32643Y180280D01*
X31981Y180722D01*
X31201Y180878D01*
X30420Y180722D01*
X29759Y180280D01*
X29317Y179619D01*
X29162Y178839D01*
X29317Y178058D01*
X29759Y177397D01*
X30420Y176955D01*
X30768Y176885D01*
Y157539D01*
X30512D01*
X30053Y157349D01*
X29995Y157210D01*
X29454D01*
X29396Y157349D01*
X29100Y157472D01*
X28997Y157978D01*
X29001Y158007D01*
X29443Y158668D01*
X29598Y159449D01*
X29443Y160229D01*
X29001Y160891D01*
X28339Y161333D01*
X27559Y161488D01*
X26779Y161333D01*
X26117Y160891D01*
X25675Y160229D01*
X25520Y159449D01*
X25675Y158668D01*
X26045Y158115D01*
X25918Y157584D01*
X25563Y157405D01*
X25250Y157517D01*
X25197Y157539D01*
X22441D01*
X21982Y157349D01*
X21791Y156890D01*
Y152165D01*
X21982Y151706D01*
X22278Y151583D01*
X22381Y151077D01*
X22377Y151048D01*
X21935Y150387D01*
X21780Y149606D01*
X21935Y148826D01*
X22377Y148164D01*
X22697Y147950D01*
Y143482D01*
X22697Y143482D01*
X22783Y143053D01*
X23026Y142689D01*
X33102Y132614D01*
X32771Y132237D01*
X32604Y132365D01*
X31595Y132783D01*
X31012Y132860D01*
Y127469D01*
X34697D01*
Y128740D01*
X34554Y129824D01*
X34136Y130833D01*
X34008Y131000D01*
X34385Y131330D01*
X35296Y130420D01*
Y122047D01*
X35296Y122047D01*
X35381Y121618D01*
X35624Y121254D01*
X48091Y108787D01*
Y92520D01*
X48091Y92520D01*
X48176Y92090D01*
X48419Y91727D01*
X54325Y85821D01*
X54325Y85821D01*
X54689Y85578D01*
X55118Y85493D01*
X58591D01*
X59578Y84506D01*
X59620Y84231D01*
X59507Y83869D01*
X59402Y83820D01*
X59055Y83889D01*
X58629Y83804D01*
X58268Y83563D01*
X58226Y83500D01*
X57937Y83236D01*
X57585Y83372D01*
X57513Y83420D01*
X57087Y83505D01*
X56661Y83420D01*
X56299Y83179D01*
X56058Y82818D01*
X56005Y82551D01*
X55514Y82335D01*
X52410Y85439D01*
X52046Y85682D01*
X51617Y85767D01*
X51617Y85767D01*
X36276D01*
X36276Y85767D01*
X35847Y85682D01*
X35483Y85439D01*
X35483Y85439D01*
X34727Y84683D01*
X34303Y84966D01*
X34343Y85062D01*
X34440Y85799D01*
X29528D01*
X24615D01*
X24713Y85062D01*
X25190Y83909D01*
X25826Y83081D01*
X25611Y82581D01*
X9609D01*
X9609Y82581D01*
X9179Y82495D01*
X8816Y82252D01*
X8816Y82252D01*
X-19125Y54311D01*
X-19368Y53947D01*
X-19454Y53518D01*
X-19454Y53518D01*
Y15032D01*
X-32905Y1581D01*
X-33148Y1217D01*
X-33233Y788D01*
X-33233Y788D01*
Y-16116D01*
X-33233Y-16116D01*
X-33148Y-16546D01*
X-32905Y-16910D01*
X-29336Y-20478D01*
X-29336Y-20478D01*
X-28973Y-20721D01*
X-28543Y-20807D01*
X-28543Y-20807D01*
X-28111D01*
X-28019Y-21030D01*
X-27591Y-21587D01*
X-27255Y-21845D01*
X-27243Y-21869D01*
Y-22422D01*
X-27255Y-22446D01*
X-27591Y-22704D01*
X-28019Y-23261D01*
X-28287Y-23910D01*
X-28379Y-24606D01*
X-28287Y-25302D01*
X-28019Y-25951D01*
X-27591Y-26508D01*
X-27034Y-26936D01*
X-26385Y-27204D01*
X-25689Y-27296D01*
X-23524D01*
X-22827Y-27204D01*
X-22179Y-26936D01*
X-21621Y-26508D01*
X-21194Y-25951D01*
X-20925Y-25302D01*
X-20834Y-24606D01*
X-20925Y-23910D01*
X-21194Y-23261D01*
X-21621Y-22704D01*
X-21957Y-22446D01*
X-21970Y-22422D01*
Y-21869D01*
X-21957Y-21845D01*
X-21621Y-21587D01*
X-21194Y-21030D01*
X-20925Y-20381D01*
X-20834Y-19685D01*
X-20925Y-18989D01*
X-21194Y-18340D01*
X-21613Y-17794D01*
X-21621Y-17781D01*
X-21610Y-17161D01*
X-21336Y-16951D01*
X-20845Y-16311D01*
X-20536Y-15564D01*
X-20496Y-15264D01*
X-24606D01*
Y-14264D01*
X-20496D01*
X-20536Y-13963D01*
X-20845Y-13217D01*
X-21336Y-12576D01*
X-21610Y-12366D01*
X-21621Y-11746D01*
X-21613Y-11734D01*
X-21194Y-11187D01*
X-20925Y-10539D01*
X-20834Y-9842D01*
X-20925Y-9146D01*
X-21194Y-8497D01*
X-21621Y-7940D01*
X-21957Y-7683D01*
X-21970Y-7658D01*
Y-7106D01*
X-21957Y-7081D01*
X-21621Y-6823D01*
X-21191Y-6795D01*
X-10461Y-17525D01*
X-10461Y-17525D01*
X-10097Y-17768D01*
X-9668Y-17854D01*
X-9668Y-17854D01*
X6890D01*
X6890Y-17854D01*
X7319Y-17768D01*
X7683Y-17525D01*
X28715Y3507D01*
X29450Y3811D01*
X30233Y4412D01*
X30834Y5196D01*
X31040Y5692D01*
X31540Y5593D01*
Y-4637D01*
X31040Y-4806D01*
X30518Y-4127D01*
X29652Y-3462D01*
X28642Y-3044D01*
X28059Y-2967D01*
Y-8858D01*
Y-14750D01*
X28642Y-14673D01*
X29652Y-14255D01*
X30518Y-13589D01*
X31040Y-12910D01*
X31540Y-13080D01*
Y-15417D01*
X30860Y-16097D01*
X30617Y-16461D01*
X30532Y-16890D01*
X30532Y-16890D01*
Y-18256D01*
X29763Y-18575D01*
X28979Y-19176D01*
X28378Y-19959D01*
X28001Y-20871D01*
X27872Y-21850D01*
Y-23425D01*
X28001Y-24404D01*
X28378Y-25316D01*
X28979Y-26099D01*
X29763Y-26700D01*
X30675Y-27078D01*
X31653Y-27207D01*
X32632Y-27078D01*
X33544Y-26700D01*
X34328Y-26099D01*
X34796Y-25489D01*
X35296Y-25659D01*
Y-27409D01*
X33876Y-28829D01*
X33544Y-28575D01*
X32632Y-28197D01*
X31653Y-28068D01*
X30675Y-28197D01*
X29763Y-28575D01*
X28979Y-29176D01*
X28378Y-29959D01*
X28001Y-30871D01*
X27872Y-31850D01*
Y-33425D01*
X28001Y-34404D01*
X28378Y-35316D01*
X28979Y-36099D01*
X29763Y-36700D01*
X30675Y-37078D01*
X31653Y-37207D01*
X32632Y-37078D01*
X33544Y-36700D01*
X34328Y-36099D01*
X34929Y-35316D01*
X35307Y-34404D01*
X35436Y-33425D01*
Y-31850D01*
X35307Y-30871D01*
X35219Y-30659D01*
X37210Y-28667D01*
X37210Y-28667D01*
X37453Y-28303D01*
X37539Y-27874D01*
Y-24596D01*
X38039Y-24497D01*
X38378Y-25316D01*
X38979Y-26099D01*
X39763Y-26700D01*
X40675Y-27078D01*
X41653Y-27207D01*
X42632Y-27078D01*
X43545Y-26700D01*
X44328Y-26099D01*
X44666Y-25659D01*
X45166Y-25828D01*
Y-27539D01*
X43876Y-28829D01*
X43545Y-28575D01*
X42632Y-28197D01*
X41653Y-28068D01*
X40675Y-28197D01*
X39763Y-28575D01*
X38979Y-29176D01*
X38378Y-29959D01*
X38001Y-30871D01*
X37872Y-31850D01*
Y-33425D01*
X38001Y-34404D01*
X38378Y-35316D01*
X38979Y-36099D01*
X39763Y-36700D01*
X40675Y-37078D01*
X41653Y-37207D01*
X42632Y-37078D01*
X43545Y-36700D01*
X44328Y-36099D01*
X44929Y-35316D01*
X45307Y-34404D01*
X45436Y-33425D01*
Y-31850D01*
X45307Y-30871D01*
X45219Y-30659D01*
X47080Y-28797D01*
X47080Y-28797D01*
X47324Y-28433D01*
X47409Y-28004D01*
Y-26805D01*
X47909Y-26706D01*
X48045Y-27034D01*
X48504Y-27224D01*
X54774D01*
X54845Y-27304D01*
X55036Y-27669D01*
X53876Y-28829D01*
X53544Y-28575D01*
X52632Y-28197D01*
X51653Y-28068D01*
X50675Y-28197D01*
X49763Y-28575D01*
X48979Y-29176D01*
X48378Y-29959D01*
X48000Y-30871D01*
X47872Y-31850D01*
Y-33425D01*
X48000Y-34404D01*
X48378Y-35316D01*
X48979Y-36099D01*
X49763Y-36700D01*
X50675Y-37078D01*
X51653Y-37207D01*
X52632Y-37078D01*
X53544Y-36700D01*
X54328Y-36099D01*
X54929Y-35316D01*
X55307Y-34404D01*
X55436Y-33425D01*
Y-31850D01*
X55307Y-30871D01*
X55219Y-30659D01*
X57880Y-27998D01*
X57880Y-27998D01*
X58123Y-27634D01*
X58208Y-27205D01*
X58208Y-27204D01*
Y-19429D01*
X58208Y-19429D01*
X58123Y-18999D01*
X57880Y-18635D01*
X57880Y-18635D01*
X54379Y-15135D01*
X54476Y-14589D01*
X54494Y-14565D01*
X55242Y-14255D01*
X56109Y-13589D01*
X56774Y-12723D01*
X57192Y-11713D01*
X57335Y-10630D01*
Y-9358D01*
X48964D01*
Y-10630D01*
X49056Y-11330D01*
X48583Y-11564D01*
X43444Y-6425D01*
Y25016D01*
X43906Y25208D01*
X51782Y17332D01*
X51591Y16870D01*
X50869D01*
X50655Y17190D01*
X49993Y17632D01*
X49213Y17787D01*
X48432Y17632D01*
X47771Y17190D01*
X47329Y16528D01*
X47173Y15748D01*
X47329Y14968D01*
X47771Y14306D01*
X48432Y13864D01*
X49213Y13709D01*
X49993Y13864D01*
X50655Y14306D01*
X50869Y14627D01*
X51693D01*
X51793Y14127D01*
X51259Y13905D01*
X50475Y13304D01*
X49874Y12521D01*
X49496Y11609D01*
X49368Y10630D01*
Y7087D01*
X49496Y6108D01*
X49874Y5196D01*
X50475Y4412D01*
X51259Y3811D01*
X52171Y3434D01*
X53150Y3305D01*
X54128Y3434D01*
X55041Y3811D01*
X55372Y4066D01*
X57041Y2397D01*
X57041Y2397D01*
X57405Y2154D01*
X57834Y2068D01*
X57834Y2068D01*
X58608D01*
Y1190D01*
X58799Y730D01*
X59258Y540D01*
X60886D01*
Y-138D01*
X59252D01*
X58793Y-328D01*
X58602Y-787D01*
Y-5118D01*
X58684Y-5314D01*
X58792Y-5579D01*
X58533Y-5971D01*
X58531Y-5972D01*
X58310Y-6303D01*
X58232Y-6693D01*
Y-8358D01*
X65783D01*
Y-6693D01*
X65706Y-6303D01*
X65485Y-5972D01*
X65483Y-5971D01*
X65224Y-5579D01*
X65332Y-5314D01*
X65413Y-5118D01*
Y-787D01*
X65223Y-328D01*
X64764Y-138D01*
X63130D01*
Y540D01*
X64758D01*
X65217Y730D01*
X65407Y1190D01*
Y5190D01*
X65217Y5649D01*
X64758Y5839D01*
X59258D01*
X58799Y5649D01*
X58608Y5190D01*
Y4708D01*
X58108Y4501D01*
X56715Y5895D01*
X56803Y6108D01*
X56932Y7087D01*
Y10630D01*
X56803Y11609D01*
X56689Y11884D01*
X57112Y12168D01*
X58608Y10672D01*
Y8590D01*
X58799Y8130D01*
X59258Y7940D01*
X64758D01*
X65217Y8130D01*
X65407Y8590D01*
Y12590D01*
X65217Y13049D01*
X64758Y13239D01*
X59258D01*
X59226Y13226D01*
X56688Y15765D01*
X56879Y16227D01*
X62896D01*
X86319Y-7197D01*
Y-18518D01*
X86060Y-18552D01*
X84956Y-19009D01*
X84008Y-19737D01*
X83281Y-20684D01*
X82824Y-21788D01*
X82668Y-22973D01*
X82824Y-24157D01*
X83281Y-25260D01*
X84008Y-26208D01*
X84956Y-26935D01*
X86060Y-27393D01*
X87244Y-27549D01*
X88428Y-27393D01*
X89532Y-26935D01*
X90480Y-26208D01*
X91207Y-25260D01*
X91664Y-24157D01*
X91820Y-22973D01*
X91664Y-21788D01*
X91207Y-20684D01*
X90480Y-19737D01*
X89532Y-19009D01*
X88563Y-18608D01*
Y-7194D01*
X89062Y-6987D01*
X96319Y-14244D01*
Y-18518D01*
X96060Y-18552D01*
X94956Y-19009D01*
X94008Y-19737D01*
X93281Y-20684D01*
X92824Y-21788D01*
X92668Y-22973D01*
X92824Y-24157D01*
X93281Y-25260D01*
X94008Y-26208D01*
X94956Y-26935D01*
X96060Y-27393D01*
X97244Y-27549D01*
X98428Y-27393D01*
X99532Y-26935D01*
X100480Y-26208D01*
X100741Y-25868D01*
X101241Y-26038D01*
Y-27252D01*
X99497Y-28995D01*
X98428Y-28552D01*
X97244Y-28396D01*
X96060Y-28552D01*
X94956Y-29009D01*
X94008Y-29737D01*
X93281Y-30684D01*
X92824Y-31788D01*
X92668Y-32972D01*
X92824Y-34157D01*
X93281Y-35260D01*
X94008Y-36208D01*
X94956Y-36935D01*
X96060Y-37393D01*
X97244Y-37549D01*
X98428Y-37393D01*
X99532Y-36935D01*
X100480Y-36208D01*
X101207Y-35260D01*
X101664Y-34157D01*
X101820Y-32972D01*
X101664Y-31788D01*
X101207Y-30684D01*
X101109Y-30556D01*
X103155Y-28510D01*
X103155Y-28510D01*
X103398Y-28146D01*
X103442Y-27929D01*
X106962D01*
X106995Y-28429D01*
X106060Y-28552D01*
X104956Y-29009D01*
X104008Y-29737D01*
X103281Y-30684D01*
X102824Y-31788D01*
X102668Y-32972D01*
X102824Y-34157D01*
X103281Y-35260D01*
X104008Y-36208D01*
X104956Y-36935D01*
X106060Y-37393D01*
X107244Y-37549D01*
X108428Y-37393D01*
X109532Y-36935D01*
X110480Y-36208D01*
X111207Y-35260D01*
X111664Y-34157D01*
X111717Y-33759D01*
X114016D01*
X114016Y-33759D01*
X114445Y-33674D01*
X114809Y-33431D01*
X114913Y-33327D01*
X118898D01*
X119357Y-33136D01*
X119547Y-32677D01*
Y-28346D01*
X119466Y-28150D01*
X119358Y-27886D01*
X119617Y-27494D01*
X119619Y-27493D01*
X119840Y-27162D01*
X119917Y-26772D01*
Y-25106D01*
X116142D01*
Y-24606D01*
X115642D01*
Y-21421D01*
X113386D01*
X112996Y-21499D01*
X112701Y-21696D01*
X112517Y-21655D01*
X112201Y-21515D01*
Y-19035D01*
X112123Y-18645D01*
X111902Y-18315D01*
X111571Y-18093D01*
X111181Y-18016D01*
X107744D01*
Y-22973D01*
X106744D01*
Y-18016D01*
X103484D01*
Y-15748D01*
X103484Y-15748D01*
X103398Y-15319D01*
X103155Y-14955D01*
X87853Y347D01*
X88060Y847D01*
X88915D01*
X89046Y531D01*
X89503Y-64D01*
X90098Y-521D01*
X90791Y-808D01*
X91535Y-906D01*
X92279Y-808D01*
X92973Y-521D01*
X93568Y-64D01*
X94025Y531D01*
X94312Y1225D01*
X94410Y1969D01*
X94312Y2712D01*
X94025Y3406D01*
X93568Y4001D01*
X92973Y4458D01*
X92279Y4745D01*
X91535Y4843D01*
X90791Y4745D01*
X90098Y4458D01*
X89503Y4001D01*
X89046Y3406D01*
X88915Y3090D01*
X88063D01*
X71962Y19191D01*
X71981Y19284D01*
X72556Y19670D01*
X72835Y19614D01*
X73615Y19770D01*
X74277Y20212D01*
X74719Y20873D01*
X74874Y21654D01*
X74719Y22434D01*
X74277Y23096D01*
X73956Y23310D01*
Y24077D01*
X74418Y24268D01*
X92744Y5942D01*
X93138Y5678D01*
X93603Y5586D01*
X93603Y5586D01*
X120406D01*
X120558Y5358D01*
X121220Y4916D01*
X122000Y4761D01*
X122780Y4916D01*
X123442Y5358D01*
X123884Y6020D01*
X124039Y6800D01*
X123884Y7580D01*
X123442Y8242D01*
X122780Y8684D01*
X122403Y8759D01*
X122239Y9302D01*
X123722Y10785D01*
X123880Y10816D01*
X124542Y11258D01*
X124984Y11920D01*
X125139Y12700D01*
X124984Y13480D01*
X124552Y14127D01*
X124570Y14221D01*
X124717Y14627D01*
X125933D01*
X127885Y12674D01*
X128249Y12431D01*
X128678Y12345D01*
X128678Y12345D01*
X132020D01*
X132354Y11845D01*
X132310Y11740D01*
Y4260D01*
X132501Y3801D01*
X132960Y3610D01*
X140440D01*
X140899Y3801D01*
X141090Y4260D01*
Y11740D01*
X141046Y11845D01*
X141380Y12345D01*
X145068D01*
X150453Y6961D01*
Y-23070D01*
X150230Y-23162D01*
X149673Y-23590D01*
X149415Y-23926D01*
X149390Y-23938D01*
X148838D01*
X148813Y-23926D01*
X148556Y-23590D01*
X147998Y-23162D01*
X147350Y-22894D01*
X146653Y-22802D01*
X145957Y-22894D01*
X145308Y-23162D01*
X144751Y-23590D01*
X144494Y-23926D01*
X144469Y-23938D01*
X143916D01*
X143892Y-23926D01*
X143634Y-23590D01*
X143077Y-23162D01*
X142429Y-22894D01*
X141732Y-22802D01*
X141036Y-22894D01*
X140387Y-23162D01*
X139830Y-23590D01*
X139573Y-23926D01*
X139548Y-23938D01*
X138995D01*
X138971Y-23926D01*
X138713Y-23590D01*
X138156Y-23162D01*
X137507Y-22894D01*
X136811Y-22802D01*
X136115Y-22894D01*
X135466Y-23162D01*
X134920Y-23582D01*
X134907Y-23590D01*
X134287Y-23579D01*
X134077Y-23305D01*
X133436Y-22813D01*
X132690Y-22504D01*
X132390Y-22464D01*
Y-26575D01*
Y-30685D01*
X132690Y-30645D01*
X133436Y-30336D01*
X134077Y-29845D01*
X134287Y-29571D01*
X134907Y-29559D01*
X134920Y-29568D01*
X135466Y-29987D01*
X136115Y-30256D01*
X136811Y-30347D01*
X137507Y-30256D01*
X138156Y-29987D01*
X138713Y-29559D01*
X138971Y-29224D01*
X138995Y-29211D01*
X139548D01*
X139573Y-29224D01*
X139830Y-29559D01*
X140387Y-29987D01*
X141036Y-30256D01*
X141732Y-30347D01*
X142429Y-30256D01*
X143077Y-29987D01*
X143634Y-29559D01*
X143892Y-29224D01*
X143916Y-29211D01*
X144469D01*
X144494Y-29224D01*
X144751Y-29559D01*
X145308Y-29987D01*
X145957Y-30256D01*
X146653Y-30347D01*
X147350Y-30256D01*
X147998Y-29987D01*
X148556Y-29559D01*
X148813Y-29224D01*
X148838Y-29211D01*
X149390D01*
X149415Y-29224D01*
X149673Y-29559D01*
X150230Y-29987D01*
X150879Y-30256D01*
X151575Y-30347D01*
X152271Y-30256D01*
X152920Y-29987D01*
X153477Y-29559D01*
X153735Y-29223D01*
X153759Y-29211D01*
X154312D01*
X154336Y-29223D01*
X154594Y-29559D01*
X155151Y-29987D01*
X155800Y-30256D01*
X156496Y-30347D01*
X157192Y-30256D01*
X157841Y-29987D01*
X158398Y-29559D01*
X158826Y-29002D01*
X159094Y-28354D01*
X159186Y-27657D01*
Y-25492D01*
X159094Y-24796D01*
X158826Y-24147D01*
X158398Y-23590D01*
X157841Y-23162D01*
X157192Y-22894D01*
X156496Y-22802D01*
X155800Y-22894D01*
X155151Y-23162D01*
X154594Y-23590D01*
X154336Y-23926D01*
X154312Y-23938D01*
X153759D01*
X153735Y-23926D01*
X153477Y-23590D01*
X152920Y-23162D01*
X152696Y-23070D01*
Y7425D01*
X152696Y7425D01*
X152611Y7854D01*
X152368Y8218D01*
X152368Y8218D01*
X146326Y14260D01*
X145962Y14503D01*
X145533Y14589D01*
X145533Y14589D01*
X135665D01*
Y16232D01*
X128023D01*
X127652Y16079D01*
X127267Y16464D01*
X127216Y16541D01*
X126852Y16784D01*
X126423Y16870D01*
X112669D01*
X108405Y21134D01*
Y34971D01*
X108905Y35178D01*
X112067Y32016D01*
Y24395D01*
X111695Y24241D01*
X111076Y23766D01*
X110601Y23147D01*
X110303Y22427D01*
X110201Y21654D01*
X110303Y20880D01*
X110601Y20160D01*
X111076Y19541D01*
X111695Y19066D01*
X112416Y18768D01*
X113189Y18666D01*
X113962Y18768D01*
X114683Y19066D01*
X114702Y19081D01*
X114895Y19029D01*
X115354Y18839D01*
X120866D01*
X121325Y19029D01*
X121516Y19488D01*
Y23819D01*
X121434Y24015D01*
X121326Y24280D01*
X121585Y24671D01*
X121587Y24673D01*
X121808Y25003D01*
X121886Y25394D01*
Y27059D01*
X118110D01*
Y27559D01*
X117610D01*
Y30744D01*
X115354D01*
X114964Y30666D01*
X114811Y30564D01*
X114311Y30794D01*
Y32199D01*
X114811Y32428D01*
X114964Y32326D01*
X115354Y32248D01*
X117610D01*
Y35433D01*
X118610D01*
Y32248D01*
X120866D01*
X121256Y32326D01*
X121587Y32547D01*
X121635Y32618D01*
X121801Y32640D01*
X122206Y32573D01*
X122574Y32023D01*
X123235Y31581D01*
X124016Y31425D01*
X124796Y31581D01*
X125458Y32023D01*
X125900Y32684D01*
X126055Y33465D01*
X125900Y34245D01*
X125736Y34489D01*
X126004Y34989D01*
X127750D01*
X128209Y35179D01*
X128399Y35639D01*
Y37246D01*
X129205Y38052D01*
X132087D01*
X132516Y38137D01*
X132880Y38380D01*
X133123Y38744D01*
X133208Y39173D01*
X133123Y39602D01*
X132880Y39966D01*
X132516Y40209D01*
X132087Y40295D01*
X128740D01*
X128740Y40295D01*
X128311Y40209D01*
X128169Y40115D01*
X127750Y40288D01*
X122250D01*
X122016Y40191D01*
X121516Y40476D01*
Y42201D01*
X122016Y42486D01*
X122250Y42389D01*
X127750D01*
X128209Y42579D01*
X128399Y43039D01*
Y46595D01*
X128753Y46738D01*
X128899Y46769D01*
X129535Y46344D01*
X130315Y46189D01*
X131095Y46344D01*
X131757Y46786D01*
X131971Y47107D01*
X134744D01*
X134744Y47107D01*
X135173Y47192D01*
X135537Y47435D01*
X135827Y47725D01*
X140053Y43498D01*
X140417Y43255D01*
X140846Y43170D01*
X140846Y43170D01*
X149142D01*
X155375Y36937D01*
Y31183D01*
X155054Y30970D01*
X154612Y30308D01*
X154457Y29528D01*
X154612Y28747D01*
X155054Y28086D01*
X155716Y27644D01*
X156496Y27488D01*
X157276Y27644D01*
X157938Y28086D01*
X158380Y28747D01*
X158535Y29528D01*
X158380Y30308D01*
X157938Y30970D01*
X157618Y31183D01*
Y37402D01*
X157532Y37831D01*
X157289Y38195D01*
X157289Y38195D01*
X150399Y45084D01*
X150036Y45327D01*
X149606Y45413D01*
X149606Y45413D01*
X141311D01*
X137200Y49524D01*
X137237Y49819D01*
X137747Y50174D01*
X137795Y50164D01*
X138260Y50256D01*
X138654Y50520D01*
X138905D01*
X139299Y50256D01*
X139330Y50250D01*
X139261Y49900D01*
X139416Y49120D01*
X139858Y48458D01*
X140520Y48016D01*
X141300Y47861D01*
X142080Y48016D01*
X142742Y48458D01*
X143184Y49120D01*
X143339Y49900D01*
X143184Y50680D01*
X142742Y51342D01*
X142080Y51784D01*
X141300Y51939D01*
X140978Y52204D01*
Y58071D01*
X140885Y58535D01*
X140622Y58929D01*
X140228Y59192D01*
X139764Y59285D01*
X139417Y59216D01*
X138917Y59492D01*
Y60039D01*
X138917Y60039D01*
X138831Y60469D01*
X138588Y60832D01*
X137604Y61817D01*
X137240Y62060D01*
X136811Y62145D01*
X136811Y62145D01*
X134744D01*
X134744Y62145D01*
X134315Y62060D01*
X133951Y61817D01*
X133192Y61058D01*
X132747Y61146D01*
X132652Y61210D01*
X132618Y61380D01*
X132176Y62042D01*
X131515Y62484D01*
X130734Y62639D01*
X130260Y62545D01*
X129760Y62910D01*
Y63476D01*
X126484D01*
Y60791D01*
X128538D01*
X128695Y60600D01*
X128850Y59820D01*
X129292Y59158D01*
X129954Y58716D01*
X129851Y58229D01*
X129800Y58239D01*
X129276Y58135D01*
X128916Y58230D01*
X128731Y58492D01*
X128698Y58658D01*
X128477Y58989D01*
X128146Y59210D01*
X127756Y59287D01*
X125500D01*
Y56102D01*
X124500D01*
Y59287D01*
X122244D01*
X121854Y59210D01*
X121523Y58989D01*
X121326Y58694D01*
X121063Y58665D01*
X120800Y58694D01*
X120603Y58989D01*
X120272Y59210D01*
X119882Y59287D01*
X117552D01*
X117277Y59787D01*
X117382Y60039D01*
Y62401D01*
X117191Y62861D01*
X116732Y63051D01*
X114570D01*
X114376Y63342D01*
X114376Y63342D01*
X111680Y66038D01*
X111871Y66500D01*
X113083D01*
Y68701D01*
Y70902D01*
X110433D01*
X110043Y70824D01*
X109712Y70603D01*
X109491Y70272D01*
X108995Y70344D01*
Y77894D01*
X109055D01*
X109514Y78084D01*
X109704Y78543D01*
Y84842D01*
X109514Y85302D01*
X109208Y85429D01*
X109077Y85662D01*
X109310Y86113D01*
X109379Y86162D01*
X109449D01*
X109908Y86352D01*
X110098Y86811D01*
Y92323D01*
X109908Y92782D01*
X109449Y92972D01*
X105118D01*
X104922Y92891D01*
X104657Y92783D01*
X104265Y93042D01*
X104264Y93044D01*
X103934Y93265D01*
X103543Y93342D01*
X101878D01*
Y89567D01*
X100878D01*
Y93342D01*
X99213D01*
X98964Y93293D01*
X98755Y93387D01*
X98578Y93892D01*
X102193Y97507D01*
X102193Y97507D01*
X102436Y97871D01*
X102522Y98300D01*
Y103600D01*
X102522Y103600D01*
X102436Y104029D01*
X102193Y104393D01*
X102193Y104393D01*
X88293Y118293D01*
X87929Y118536D01*
X87500Y118622D01*
X87500Y118622D01*
X80590D01*
Y121240D01*
X80399Y121699D01*
X79940Y121890D01*
X72553D01*
X72383Y122170D01*
X72333Y122352D01*
X72556Y122523D01*
X73157Y123306D01*
X73535Y124218D01*
X73664Y125197D01*
Y125745D01*
X91691D01*
Y125197D01*
X91819Y124218D01*
X92197Y123306D01*
X92798Y122523D01*
X93581Y121922D01*
X94494Y121544D01*
X95473Y121415D01*
X96451Y121544D01*
X97364Y121922D01*
X98147Y122523D01*
X98748Y123306D01*
X99126Y124218D01*
X99255Y125197D01*
Y128740D01*
X99126Y129719D01*
X98748Y130631D01*
X98147Y131414D01*
X97364Y132016D01*
X96451Y132393D01*
X95473Y132522D01*
X94494Y132393D01*
X93581Y132016D01*
X92798Y131414D01*
X92197Y130631D01*
X91819Y129719D01*
X91691Y128740D01*
Y128192D01*
X73664D01*
Y128740D01*
X73535Y129719D01*
X73157Y130631D01*
X72556Y131414D01*
X71773Y132016D01*
X70861Y132393D01*
X69882Y132522D01*
X68903Y132393D01*
X67991Y132016D01*
X67208Y131414D01*
X66607Y130631D01*
X66229Y129719D01*
X66100Y128740D01*
Y125197D01*
X66229Y124218D01*
X66607Y123306D01*
X67208Y122523D01*
X67991Y121922D01*
X68903Y121544D01*
X69882Y121415D01*
X70861Y121544D01*
X71506Y121811D01*
X71888Y121428D01*
X71810Y121240D01*
Y113760D01*
X72001Y113301D01*
X72460Y113110D01*
X75973D01*
X76048Y112610D01*
X75103Y112324D01*
X73460Y111446D01*
X72020Y110264D01*
X70838Y108824D01*
X69960Y107180D01*
X69616Y106048D01*
X69116Y106122D01*
Y111505D01*
X69116Y111505D01*
X69031Y111935D01*
X68787Y112299D01*
X68787Y112299D01*
X66490Y114596D01*
Y121140D01*
X66299Y121599D01*
X65840Y121790D01*
X59214D01*
X59204Y121819D01*
X59102Y122290D01*
X59727Y123104D01*
X60145Y124114D01*
X60288Y125197D01*
Y126469D01*
X56602D01*
Y121077D01*
X57186Y121154D01*
X57222Y121169D01*
X57710Y120830D01*
Y113660D01*
X57901Y113201D01*
X58360Y113010D01*
X64903D01*
X66873Y111041D01*
Y99418D01*
X66873Y99418D01*
X66958Y98989D01*
X67201Y98625D01*
X72653Y93174D01*
X72445Y92674D01*
X72053D01*
X71624Y92589D01*
X71260Y92346D01*
X71260Y92346D01*
X70297Y91383D01*
X70178Y91371D01*
X69697Y91482D01*
X69355Y91993D01*
X68694Y92435D01*
X67913Y92590D01*
X67133Y92435D01*
X66471Y91993D01*
X66029Y91331D01*
X65874Y90551D01*
X65930Y90272D01*
X65544Y89698D01*
X65450Y89679D01*
X56240Y98890D01*
Y112205D01*
X56154Y112634D01*
X55911Y112998D01*
X55911Y112998D01*
X50334Y118575D01*
Y151516D01*
X50591D01*
X51050Y151706D01*
X51107Y151845D01*
X51649D01*
X51706Y151706D01*
X52165Y151516D01*
X54921D01*
X55380Y151706D01*
X55438Y151845D01*
X55979D01*
X56037Y151706D01*
X56496Y151516D01*
X59252D01*
X59711Y151706D01*
X59901Y152165D01*
Y156890D01*
X59711Y157349D01*
X59415Y157472D01*
X59312Y157978D01*
X59316Y158007D01*
X59758Y158668D01*
X59913Y159449D01*
X59758Y160229D01*
X59316Y160891D01*
X58654Y161333D01*
X57874Y161488D01*
X57094Y161333D01*
X56432Y160891D01*
X55990Y160229D01*
X55835Y159449D01*
X55990Y158668D01*
X56432Y158007D01*
X56436Y157978D01*
X56333Y157472D01*
X56037Y157349D01*
X55979Y157210D01*
X55438D01*
X55380Y157349D01*
X54921Y157539D01*
X54665D01*
Y173354D01*
X57496Y176186D01*
X57874Y176110D01*
X58654Y176266D01*
X59316Y176708D01*
X59758Y177369D01*
X59913Y178150D01*
X59758Y178930D01*
X59316Y179592D01*
X58654Y180034D01*
X57874Y180189D01*
X57094Y180034D01*
X56432Y179592D01*
X55990Y178930D01*
X55835Y178150D01*
X55910Y177772D01*
X52750Y174612D01*
X52507Y174248D01*
X52422Y173819D01*
X52422Y173819D01*
Y157539D01*
X52165D01*
X51706Y157349D01*
X51649Y157210D01*
X51107D01*
X51050Y157349D01*
X50591Y157539D01*
X50334D01*
Y176494D01*
X50655Y176708D01*
X51097Y177369D01*
X51252Y178150D01*
X51097Y178930D01*
X50655Y179592D01*
X49993Y180034D01*
X49323Y180167D01*
X49083Y180634D01*
X49888Y181439D01*
X62316D01*
X81046Y162710D01*
Y153987D01*
X79927D01*
X79468Y153797D01*
X79278Y153338D01*
Y149338D01*
X79468Y148879D01*
X79927Y148688D01*
X85427D01*
X85886Y148879D01*
X86077Y149338D01*
Y153338D01*
X85886Y153797D01*
X85427Y153987D01*
X84309D01*
Y163386D01*
X84309Y163386D01*
X84184Y164010D01*
X83831Y164539D01*
X64146Y184224D01*
X63616Y184578D01*
X62992Y184702D01*
D02*
G37*
G36*
X95473Y150239D02*
X94494Y150110D01*
X93581Y149732D01*
X92798Y149131D01*
X92197Y148348D01*
X91819Y147435D01*
X91691Y146457D01*
Y145807D01*
X86077D01*
Y145938D01*
X85886Y146397D01*
X85427Y146587D01*
X79927D01*
X79468Y146397D01*
X79278Y145938D01*
Y145807D01*
X73664D01*
Y146457D01*
X73535Y147435D01*
X73157Y148348D01*
X72556Y149131D01*
X71773Y149732D01*
X70861Y150110D01*
X69882Y150239D01*
X68903Y150110D01*
X67991Y149732D01*
X67208Y149131D01*
X66607Y148348D01*
X66229Y147435D01*
X66100Y146457D01*
Y142913D01*
X66229Y141934D01*
X66607Y141022D01*
X67208Y140239D01*
X67991Y139638D01*
X68903Y139260D01*
X69882Y139131D01*
X70861Y139260D01*
X71773Y139638D01*
X72556Y140239D01*
X73157Y141022D01*
X73535Y141934D01*
X73664Y142913D01*
Y143563D01*
X79278D01*
Y141938D01*
X79468Y141479D01*
X79927Y141288D01*
X85427D01*
X85886Y141479D01*
X86077Y141938D01*
Y143563D01*
X91691D01*
Y142913D01*
X91819Y141934D01*
X92197Y141022D01*
X92798Y140239D01*
X93581Y139638D01*
X94494Y139260D01*
X95473Y139131D01*
X96451Y139260D01*
X97364Y139638D01*
X98147Y140239D01*
X98748Y141022D01*
X99126Y141934D01*
X99255Y142913D01*
Y146457D01*
X99126Y147435D01*
X98748Y148348D01*
X98147Y149131D01*
X97364Y149732D01*
X96451Y150110D01*
X95473Y150239D01*
D02*
G37*
G36*
X-28740Y152561D02*
X-30315D01*
X-31294Y152433D01*
X-32206Y152055D01*
X-32989Y151454D01*
X-33590Y150671D01*
X-33968Y149758D01*
X-34097Y148779D01*
X-33968Y147801D01*
X-33590Y146889D01*
X-32989Y146105D01*
X-32206Y145504D01*
X-31294Y145126D01*
X-30315Y144998D01*
X-28740D01*
X-27761Y145126D01*
X-26849Y145504D01*
X-26066Y146105D01*
X-25465Y146889D01*
X-25087Y147801D01*
X-24958Y148779D01*
X-25087Y149758D01*
X-25465Y150671D01*
X-26066Y151454D01*
X-26849Y152055D01*
X-27761Y152433D01*
X-28740Y152561D01*
D02*
G37*
G36*
X-25591Y142949D02*
X-29028D01*
Y139279D01*
X-24571D01*
Y141929D01*
X-24648Y142319D01*
X-24870Y142650D01*
X-25200Y142871D01*
X-25591Y142949D01*
D02*
G37*
G36*
X-30027D02*
X-33465D01*
X-33855Y142871D01*
X-34185Y142650D01*
X-34407Y142319D01*
X-34484Y141929D01*
Y139279D01*
X-30027D01*
Y142949D01*
D02*
G37*
G36*
X56102Y150239D02*
X55124Y150110D01*
X54211Y149732D01*
X53428Y149131D01*
X52827Y148348D01*
X52449Y147435D01*
X52320Y146457D01*
Y142913D01*
X52449Y141934D01*
X52827Y141022D01*
X53428Y140239D01*
X54211Y139638D01*
X55124Y139260D01*
X56102Y139131D01*
X57081Y139260D01*
X57993Y139638D01*
X58777Y140239D01*
X59378Y141022D01*
X59755Y141934D01*
X59884Y142913D01*
Y146457D01*
X59755Y147435D01*
X59378Y148348D01*
X58777Y149131D01*
X57993Y149732D01*
X57081Y150110D01*
X56102Y150239D01*
D02*
G37*
G36*
X-24571Y138279D02*
X-29028D01*
Y134610D01*
X-25591D01*
X-25200Y134688D01*
X-24870Y134909D01*
X-24648Y135240D01*
X-24571Y135630D01*
Y138279D01*
D02*
G37*
G36*
X-30027D02*
X-34484D01*
Y135630D01*
X-34407Y135240D01*
X-34185Y134909D01*
X-33855Y134688D01*
X-33465Y134610D01*
X-30027D01*
Y138279D01*
D02*
G37*
G36*
X119882Y141201D02*
X112402D01*
X111942Y141010D01*
X111752Y140551D01*
Y133071D01*
X111942Y132612D01*
X112402Y132421D01*
X119882D01*
X120341Y132612D01*
X120531Y133071D01*
Y140551D01*
X120341Y141010D01*
X119882Y141201D01*
D02*
G37*
G36*
X-12760Y206193D02*
X-17717D01*
X-22673D01*
Y202756D01*
X-22595Y202366D01*
X-22375Y202035D01*
X-22044Y201814D01*
X-21654Y201736D01*
X-17998D01*
X-17965Y201236D01*
X-18901Y201113D01*
X-20005Y200656D01*
X-20952Y199929D01*
X-21680Y198981D01*
X-22137Y197877D01*
X-22293Y196693D01*
X-22137Y195509D01*
X-21680Y194405D01*
X-20952Y193457D01*
X-20005Y192730D01*
X-18901Y192273D01*
X-18838Y192264D01*
Y131370D01*
X-22260Y127948D01*
X-22638Y128023D01*
X-23260Y127900D01*
X-23760Y128195D01*
Y128543D01*
X-23950Y129003D01*
X-24409Y129193D01*
X-26772D01*
X-27231Y129003D01*
X-27421Y128543D01*
Y122244D01*
X-27231Y121785D01*
X-26772Y121595D01*
X-24409D01*
X-23950Y121785D01*
X-23760Y122244D01*
Y123773D01*
X-23260Y124069D01*
X-22638Y123945D01*
X-21857Y124100D01*
X-21196Y124542D01*
X-20754Y125204D01*
X-20599Y125984D01*
X-20674Y126362D01*
X-16923Y130113D01*
X-16923Y130113D01*
X-16680Y130476D01*
X-16595Y130906D01*
X-16595Y130906D01*
Y192264D01*
X-16532Y192273D01*
X-15428Y192730D01*
X-14481Y193457D01*
X-13754Y194405D01*
X-13296Y195509D01*
X-13140Y196693D01*
X-13296Y197877D01*
X-13754Y198981D01*
X-14481Y199929D01*
X-15428Y200656D01*
X-16532Y201113D01*
X-17468Y201236D01*
X-17435Y201736D01*
X-13780D01*
X-13389Y201814D01*
X-13059Y202035D01*
X-12837Y202366D01*
X-12760Y202756D01*
Y206193D01*
D02*
G37*
G36*
X56602Y132860D02*
Y127469D01*
X60288D01*
Y128740D01*
X60145Y129824D01*
X59727Y130833D01*
X59062Y131700D01*
X58195Y132365D01*
X57186Y132783D01*
X56602Y132860D01*
D02*
G37*
G36*
X55602D02*
X55019Y132783D01*
X54010Y132365D01*
X53143Y131700D01*
X52478Y130833D01*
X52060Y129824D01*
X51917Y128740D01*
Y127469D01*
X55602D01*
Y132860D01*
D02*
G37*
G36*
X30012D02*
X29428Y132783D01*
X28419Y132365D01*
X27552Y131700D01*
X26887Y130833D01*
X26469Y129824D01*
X26326Y128740D01*
Y127469D01*
X30012D01*
Y132860D01*
D02*
G37*
G36*
X194679Y126288D02*
X192429D01*
Y123768D01*
X195699D01*
Y125268D01*
X195621Y125659D01*
X195400Y125989D01*
X195069Y126210D01*
X194679Y126288D01*
D02*
G37*
G36*
X191429D02*
X189179D01*
X188789Y126210D01*
X188458Y125989D01*
X188237Y125659D01*
X188160Y125268D01*
Y123768D01*
X191429D01*
Y126288D01*
D02*
G37*
G36*
X185821D02*
X183571D01*
Y123768D01*
X186840D01*
Y125268D01*
X186763Y125659D01*
X186542Y125989D01*
X186211Y126210D01*
X185821Y126288D01*
D02*
G37*
G36*
X182571D02*
X180321D01*
X179931Y126210D01*
X179600Y125989D01*
X179379Y125659D01*
X179301Y125268D01*
Y123768D01*
X182571D01*
Y126288D01*
D02*
G37*
G36*
X55602Y126469D02*
X51917D01*
Y125197D01*
X52060Y124114D01*
X52478Y123104D01*
X53143Y122237D01*
X54010Y121572D01*
X55019Y121154D01*
X55602Y121077D01*
Y126469D01*
D02*
G37*
G36*
X34697D02*
X31012D01*
Y121077D01*
X31595Y121154D01*
X32604Y121572D01*
X33471Y122237D01*
X34136Y123104D01*
X34554Y124114D01*
X34697Y125197D01*
Y126469D01*
D02*
G37*
G36*
X30012D02*
X26326D01*
Y125197D01*
X26469Y124114D01*
X26887Y123104D01*
X27552Y122237D01*
X28419Y121572D01*
X29428Y121154D01*
X30012Y121077D01*
Y126469D01*
D02*
G37*
G36*
X209161Y121442D02*
Y119595D01*
X211009D01*
X210922Y120031D01*
X210392Y120825D01*
X209598Y121355D01*
X209161Y121442D01*
D02*
G37*
G36*
X208161D02*
X207725Y121355D01*
X206931Y120825D01*
X206401Y120031D01*
X206314Y119595D01*
X208161D01*
Y121442D01*
D02*
G37*
G36*
X-20669Y120901D02*
X-21350D01*
Y117232D01*
X-19650D01*
Y119882D01*
X-19727Y120272D01*
X-19948Y120603D01*
X-20279Y120824D01*
X-20669Y120901D01*
D02*
G37*
G36*
X-22350D02*
X-23031D01*
X-23422Y120824D01*
X-23753Y120603D01*
X-23974Y120272D01*
X-24051Y119882D01*
Y117232D01*
X-22350D01*
Y120901D01*
D02*
G37*
G36*
X211009Y118595D02*
X209161D01*
Y116747D01*
X209598Y116834D01*
X210392Y117364D01*
X210922Y118158D01*
X211009Y118595D01*
D02*
G37*
G36*
X208161D02*
X206314D01*
X206401Y118158D01*
X206931Y117364D01*
X207725Y116834D01*
X208161Y116747D01*
Y118595D01*
D02*
G37*
G36*
X177004Y123516D02*
X169453D01*
Y121850D01*
X169530Y121460D01*
X169752Y121129D01*
X170082Y120908D01*
X170473Y120831D01*
X170729D01*
X170847Y120570D01*
X170867Y120331D01*
X170390Y119965D01*
X170390Y119965D01*
X166453Y116028D01*
X166036Y115484D01*
X165774Y114852D01*
X165685Y114173D01*
X165685Y114173D01*
Y113417D01*
X164083D01*
X163623Y113227D01*
X163433Y112768D01*
Y103768D01*
X163623Y103308D01*
X164083Y103118D01*
X171957D01*
X172416Y103308D01*
X172606Y103768D01*
Y112768D01*
X172416Y113227D01*
X171957Y113417D01*
X171913D01*
X171722Y113879D01*
X173330Y115488D01*
X197632D01*
X197822Y115248D01*
X197599Y114749D01*
X195000D01*
X194541Y114559D01*
X193982Y114516D01*
X193900Y114549D01*
X193308D01*
X193274Y114632D01*
X192815Y114823D01*
X175098D01*
X174639Y114632D01*
X174449Y114173D01*
Y114137D01*
X174351Y113900D01*
Y97088D01*
X149606D01*
X148331Y96962D01*
X147105Y96591D01*
X145975Y95986D01*
X144984Y95174D01*
X144171Y94183D01*
X143567Y93053D01*
X143195Y91826D01*
X143069Y90551D01*
X143195Y89276D01*
X143567Y88050D01*
X144171Y86919D01*
X144630Y86360D01*
X144394Y85860D01*
X141732D01*
X141732Y85860D01*
X141268Y85767D01*
X140874Y85504D01*
X134968Y79598D01*
X134705Y79205D01*
X134613Y78740D01*
X134613Y78740D01*
Y76571D01*
X134358Y76371D01*
Y71260D01*
Y66391D01*
X134479Y66415D01*
X134936Y66119D01*
X134968Y66071D01*
X135953Y65087D01*
X136346Y64824D01*
X136811Y64731D01*
X136811Y64731D01*
X138611D01*
X138611Y64731D01*
X139075Y64824D01*
X139469Y65087D01*
X140622Y66240D01*
X140622Y66240D01*
X140885Y66634D01*
X140978Y67098D01*
Y71260D01*
X140978Y71260D01*
Y74606D01*
X140885Y75071D01*
X140622Y75465D01*
X140228Y75728D01*
X139764Y75820D01*
X139509Y75770D01*
X139009Y76090D01*
Y77253D01*
X140267Y78510D01*
X143198D01*
X147373Y74335D01*
X147283Y73718D01*
X146548Y73322D01*
X145560Y72505D01*
X144751Y71511D01*
X144151Y70379D01*
X143784Y69151D01*
X143663Y67875D01*
X143793Y66601D01*
X144170Y65376D01*
X144778Y64248D01*
X145595Y63260D01*
X146589Y62451D01*
X147721Y61851D01*
X148949Y61484D01*
X150225Y61363D01*
X164252Y61416D01*
X164546Y60953D01*
X164541Y60917D01*
X163912Y60497D01*
X163470Y59835D01*
X163315Y59055D01*
X163470Y58275D01*
X163912Y57613D01*
X164574Y57171D01*
X165354Y57016D01*
X166135Y57171D01*
X166796Y57613D01*
X167238Y58275D01*
X167394Y59055D01*
X167238Y59835D01*
X166796Y60497D01*
X166159Y60923D01*
X166152Y60961D01*
X166339Y61424D01*
X174095Y61453D01*
X174449Y61100D01*
Y48228D01*
X174451Y48224D01*
Y47600D01*
X174641Y47141D01*
X175100Y46951D01*
X194100D01*
X194559Y47141D01*
X194592Y47220D01*
X195000Y47051D01*
X212300D01*
X212759Y47241D01*
X212949Y47700D01*
Y114100D01*
X212759Y114559D01*
X212300Y114749D01*
X205217D01*
X205191Y114950D01*
X205138Y115078D01*
X205105Y115212D01*
X205007Y115393D01*
X204929Y115583D01*
X204844Y115692D01*
X204779Y115814D01*
X204637Y115963D01*
X204512Y116126D01*
X200673Y119965D01*
X200130Y120381D01*
X199498Y120643D01*
X198819Y120733D01*
X198819Y120733D01*
X196079D01*
X195692Y121233D01*
X195699Y121268D01*
Y122768D01*
X191929D01*
X188160D01*
Y121268D01*
X188167Y121233D01*
X187779Y120733D01*
X187221D01*
X186833Y121233D01*
X186840Y121268D01*
Y122768D01*
X183071D01*
X179301D01*
Y121268D01*
X179308Y121233D01*
X178921Y120733D01*
X176996D01*
X176898Y120866D01*
X176774Y121233D01*
X176926Y121460D01*
X177004Y121850D01*
Y123516D01*
D02*
G37*
G36*
X-19650Y116232D02*
X-21350D01*
Y112563D01*
X-20669D01*
X-20279Y112641D01*
X-19948Y112862D01*
X-19727Y113192D01*
X-19650Y113583D01*
Y116232D01*
D02*
G37*
G36*
X-22350D02*
X-24051D01*
Y113583D01*
X-23974Y113192D01*
X-23753Y112862D01*
X-23422Y112641D01*
X-23031Y112563D01*
X-22350D01*
Y116232D01*
D02*
G37*
G36*
X120079Y108338D02*
X119298Y108183D01*
X118637Y107741D01*
X118195Y107080D01*
X118040Y106299D01*
X118195Y105519D01*
X118637Y104857D01*
X119298Y104415D01*
X120079Y104260D01*
X120859Y104415D01*
X121521Y104857D01*
X121963Y105519D01*
X122118Y106299D01*
X121963Y107080D01*
X121521Y107741D01*
X120859Y108183D01*
X120079Y108338D01*
D02*
G37*
G36*
X-28150Y120531D02*
X-30512D01*
X-30971Y120341D01*
X-31161Y119882D01*
Y113583D01*
X-30971Y113123D01*
X-30922Y113011D01*
X-30858Y112535D01*
X-31215Y112001D01*
X-31370Y111221D01*
X-31215Y110440D01*
X-30773Y109778D01*
X-30452Y109564D01*
Y101831D01*
X-30512D01*
X-30971Y101640D01*
X-31161Y101181D01*
Y94882D01*
X-30971Y94423D01*
X-30512Y94232D01*
X-28150D01*
X-27690Y94423D01*
X-27500Y94882D01*
Y101181D01*
X-27690Y101640D01*
X-28150Y101831D01*
X-28209D01*
Y109395D01*
X-27900Y109630D01*
X-27421Y109415D01*
Y103543D01*
X-27231Y103084D01*
X-26772Y102894D01*
X-24409D01*
X-23950Y103084D01*
X-23760Y103543D01*
Y104088D01*
X-23260Y104384D01*
X-22638Y104260D01*
X-21857Y104415D01*
X-21196Y104857D01*
X-20754Y105519D01*
X-20599Y106299D01*
X-20754Y107080D01*
X-21196Y107741D01*
X-21857Y108183D01*
X-22638Y108338D01*
X-23260Y108215D01*
X-23760Y108510D01*
Y109843D01*
X-23950Y110302D01*
X-24409Y110492D01*
X-26772D01*
X-26941Y110422D01*
X-27379Y110782D01*
X-27292Y111221D01*
X-27447Y112001D01*
X-27804Y112535D01*
X-27739Y113011D01*
X-27690Y113123D01*
X-27500Y113583D01*
Y119882D01*
X-27690Y120341D01*
X-28150Y120531D01*
D02*
G37*
G36*
X33465Y110689D02*
X25591D01*
X25131Y110499D01*
X24941Y110039D01*
Y102559D01*
X25131Y102100D01*
X25591Y101910D01*
X33465D01*
X33924Y102100D01*
X34114Y102559D01*
Y110039D01*
X33924Y110499D01*
X33465Y110689D01*
D02*
G37*
G36*
X-20669Y102201D02*
X-21350D01*
Y98532D01*
X-19650D01*
Y101181D01*
X-19727Y101571D01*
X-19948Y101902D01*
X-20279Y102123D01*
X-20669Y102201D01*
D02*
G37*
G36*
X-22350D02*
X-23031D01*
X-23422Y102123D01*
X-23753Y101902D01*
X-23974Y101571D01*
X-24051Y101181D01*
Y98532D01*
X-22350D01*
Y102201D01*
D02*
G37*
G36*
X9843Y99480D02*
X9062Y99325D01*
X8401Y98883D01*
X7959Y98221D01*
X7803Y97441D01*
X7959Y96661D01*
X8401Y95999D01*
X9062Y95557D01*
X9843Y95402D01*
X10623Y95557D01*
X11284Y95999D01*
X11727Y96661D01*
X11882Y97441D01*
X11727Y98221D01*
X11284Y98883D01*
X10623Y99325D01*
X9843Y99480D01*
D02*
G37*
G36*
X121063Y98496D02*
X120283Y98341D01*
X119621Y97899D01*
X119179Y97237D01*
X119024Y96457D01*
X119179Y95676D01*
X119621Y95015D01*
X120283Y94573D01*
X121063Y94418D01*
X121843Y94573D01*
X122505Y95015D01*
X122947Y95676D01*
X123102Y96457D01*
X122947Y97237D01*
X122505Y97899D01*
X121843Y98341D01*
X121063Y98496D01*
D02*
G37*
G36*
X-19650Y97532D02*
X-21350D01*
Y93862D01*
X-20669D01*
X-20279Y93940D01*
X-19948Y94161D01*
X-19727Y94492D01*
X-19650Y94882D01*
Y97532D01*
D02*
G37*
G36*
X-22350D02*
X-24051D01*
Y94882D01*
X-23974Y94492D01*
X-23753Y94161D01*
X-23422Y93940D01*
X-23031Y93862D01*
X-22350D01*
Y97532D01*
D02*
G37*
G36*
X29724Y100677D02*
X29331D01*
X28198Y100528D01*
X27142Y100090D01*
X26235Y99395D01*
X25540Y98488D01*
X25102Y97432D01*
X24953Y96299D01*
X25102Y95166D01*
X25540Y94110D01*
X26235Y93204D01*
X27142Y92508D01*
X28198Y92071D01*
X29331Y91922D01*
X29724D01*
X30857Y92071D01*
X31913Y92508D01*
X32820Y93204D01*
X33516Y94110D01*
X33953Y95166D01*
X34102Y96299D01*
X33953Y97432D01*
X33516Y98488D01*
X32820Y99395D01*
X31913Y100090D01*
X30857Y100528D01*
X29724Y100677D01*
D02*
G37*
G36*
X30028Y91040D02*
Y86799D01*
X34440D01*
X34343Y87537D01*
X33865Y88690D01*
X33105Y89680D01*
X32115Y90440D01*
X30962Y90917D01*
X30028Y91040D01*
D02*
G37*
G36*
X29028D02*
X28093Y90917D01*
X26940Y90440D01*
X25950Y89680D01*
X25190Y88690D01*
X24713Y87537D01*
X24615Y86799D01*
X29028D01*
Y91040D01*
D02*
G37*
G36*
X116142Y79795D02*
X115361Y79640D01*
X114700Y79198D01*
X114258Y78536D01*
X114103Y77756D01*
X114258Y76976D01*
X114700Y76314D01*
X115361Y75872D01*
X116142Y75717D01*
X116922Y75872D01*
X117584Y76314D01*
X118026Y76976D01*
X118181Y77756D01*
X118026Y78536D01*
X117584Y79198D01*
X116922Y79640D01*
X116142Y79795D01*
D02*
G37*
G36*
X133358Y76129D02*
X133238Y76105D01*
X132712Y75753D01*
X132590Y75571D01*
X132354Y75728D01*
X131890Y75820D01*
X131425Y75728D01*
X131031Y75465D01*
X130768Y75071D01*
X130676Y74606D01*
Y72166D01*
X130506Y72053D01*
X130506Y72053D01*
X129890Y71436D01*
X129390Y71643D01*
Y72047D01*
X129199Y72506D01*
X128740Y72697D01*
X125477D01*
X124185Y73988D01*
X123656Y74342D01*
X123031Y74466D01*
X122221D01*
X121843Y74719D01*
X121063Y74874D01*
X120283Y74719D01*
X119621Y74277D01*
X119179Y73615D01*
X119024Y72835D01*
X119179Y72054D01*
X119621Y71393D01*
X120283Y70951D01*
X121063Y70796D01*
X121843Y70951D01*
X122152Y71157D01*
X122579Y70907D01*
Y69333D01*
X122138Y69097D01*
X121999Y69190D01*
X121563Y69277D01*
Y66929D01*
Y64582D01*
X121709Y64611D01*
X121896Y64476D01*
X125984D01*
X129760D01*
Y66142D01*
X129682Y66532D01*
X129461Y66863D01*
X129459Y66864D01*
X129200Y67256D01*
X129308Y67520D01*
X129390Y67716D01*
Y68760D01*
X129921D01*
X129921Y68760D01*
X130176Y68811D01*
X130676Y68508D01*
Y67914D01*
X130768Y67449D01*
X131031Y67055D01*
X131425Y66792D01*
X131890Y66700D01*
X132354Y66792D01*
X132590Y66949D01*
X132712Y66767D01*
X133238Y66415D01*
X133358Y66391D01*
Y71260D01*
Y76129D01*
D02*
G37*
G36*
X116732Y70902D02*
X114083D01*
Y69201D01*
X117752D01*
Y69882D01*
X117674Y70272D01*
X117453Y70603D01*
X117122Y70824D01*
X116732Y70902D01*
D02*
G37*
G36*
X120563Y69277D02*
X120127Y69190D01*
X119333Y68659D01*
X118802Y67866D01*
X118715Y67429D01*
X120563D01*
Y69277D01*
D02*
G37*
G36*
X117752Y68201D02*
X114083D01*
Y66500D01*
X116732D01*
X117122Y66578D01*
X117453Y66799D01*
X117674Y67129D01*
X117752Y67520D01*
Y68201D01*
D02*
G37*
G36*
X120563Y66429D02*
X118715D01*
X118802Y65993D01*
X119333Y65199D01*
X120127Y64668D01*
X120563Y64582D01*
Y66429D01*
D02*
G37*
G36*
X125484Y63476D02*
X122209D01*
Y61811D01*
X122286Y61421D01*
X122507Y61090D01*
X122838Y60869D01*
X123228Y60791D01*
X125484D01*
Y63476D01*
D02*
G37*
G36*
X-21677Y62492D02*
X-25091D01*
Y59899D01*
X-24705D01*
X-23904Y60004D01*
X-23158Y60313D01*
X-22517Y60805D01*
X-22026Y61445D01*
X-21717Y62191D01*
X-21677Y62492D01*
D02*
G37*
G36*
X-26090D02*
X-29504D01*
X-29464Y62191D01*
X-29155Y61445D01*
X-28664Y60805D01*
X-28023Y60313D01*
X-27277Y60004D01*
X-26476Y59899D01*
X-26090D01*
Y62492D01*
D02*
G37*
G36*
X162402Y57157D02*
X161621Y57002D01*
X160960Y56560D01*
X160518Y55898D01*
X160362Y55118D01*
X160518Y54338D01*
X160960Y53676D01*
X161621Y53234D01*
X162402Y53079D01*
X163182Y53234D01*
X163844Y53676D01*
X164286Y54338D01*
X164441Y55118D01*
X164286Y55898D01*
X163844Y56560D01*
X163182Y57002D01*
X162402Y57157D01*
D02*
G37*
G36*
X-26772Y44451D02*
X-28346D01*
X-29325Y44322D01*
X-30237Y43945D01*
X-31021Y43344D01*
X-31622Y42560D01*
X-32000Y41648D01*
X-32128Y40669D01*
X-32000Y39691D01*
X-31622Y38778D01*
X-31021Y37995D01*
X-30237Y37394D01*
X-29325Y37016D01*
X-28346Y36887D01*
X-26772D01*
X-25793Y37016D01*
X-24881Y37394D01*
X-24097Y37995D01*
X-23496Y38778D01*
X-23119Y39691D01*
X-22990Y40669D01*
X-23119Y41648D01*
X-23496Y42560D01*
X-24097Y43344D01*
X-24881Y43945D01*
X-25793Y44322D01*
X-26772Y44451D01*
D02*
G37*
G36*
X207480Y42483D02*
X205906D01*
X204927Y42354D01*
X204014Y41976D01*
X203231Y41375D01*
X202630Y40592D01*
X202252Y39680D01*
X202124Y38701D01*
X202252Y37722D01*
X202630Y36810D01*
X203231Y36026D01*
X204014Y35425D01*
X204927Y35048D01*
X205906Y34919D01*
X207480D01*
X208459Y35048D01*
X209371Y35425D01*
X210155Y36026D01*
X210756Y36810D01*
X211133Y37722D01*
X211262Y38701D01*
X211133Y39680D01*
X210756Y40592D01*
X210155Y41375D01*
X209371Y41976D01*
X208459Y42354D01*
X207480Y42483D01*
D02*
G37*
G36*
X120866Y30744D02*
X118610D01*
Y28059D01*
X121886D01*
Y29724D01*
X121808Y30115D01*
X121587Y30445D01*
X121256Y30666D01*
X120866Y30744D01*
D02*
G37*
G36*
X-26772Y34451D02*
X-28346D01*
X-29325Y34322D01*
X-30237Y33945D01*
X-31021Y33344D01*
X-31622Y32560D01*
X-32000Y31648D01*
X-32128Y30669D01*
X-32000Y29691D01*
X-31622Y28778D01*
X-31021Y27995D01*
X-30237Y27394D01*
X-29325Y27016D01*
X-28346Y26887D01*
X-26772D01*
X-25793Y27016D01*
X-24881Y27394D01*
X-24097Y27995D01*
X-23496Y28778D01*
X-23119Y29691D01*
X-22990Y30669D01*
X-23119Y31648D01*
X-23496Y32560D01*
X-24097Y33344D01*
X-24881Y33945D01*
X-25793Y34322D01*
X-26772Y34451D01*
D02*
G37*
G36*
X207480Y32483D02*
X205906D01*
X204927Y32354D01*
X204014Y31976D01*
X203231Y31375D01*
X202630Y30592D01*
X202252Y29680D01*
X202124Y28701D01*
X202252Y27722D01*
X202630Y26810D01*
X203231Y26026D01*
X204014Y25425D01*
X204927Y25048D01*
X205906Y24919D01*
X207480D01*
X208459Y25048D01*
X209371Y25425D01*
X210155Y26026D01*
X210756Y26810D01*
X211133Y27722D01*
X211262Y28701D01*
X211133Y29680D01*
X210756Y30592D01*
X210155Y31375D01*
X209371Y31976D01*
X208459Y32354D01*
X207480Y32483D01*
D02*
G37*
G36*
X-23622Y24838D02*
X-27059D01*
Y21169D01*
X-22603D01*
Y23819D01*
X-22680Y24209D01*
X-22901Y24540D01*
X-23232Y24761D01*
X-23622Y24838D01*
D02*
G37*
G36*
X-28059D02*
X-31496D01*
X-31886Y24761D01*
X-32217Y24540D01*
X-32438Y24209D01*
X-32516Y23819D01*
Y21169D01*
X-28059D01*
Y24838D01*
D02*
G37*
G36*
X210630Y22870D02*
X207193D01*
Y19201D01*
X211649D01*
Y21850D01*
X211572Y22241D01*
X211351Y22571D01*
X211020Y22792D01*
X210630Y22870D01*
D02*
G37*
G36*
X206193D02*
X202756D01*
X202366Y22792D01*
X202035Y22571D01*
X201814Y22241D01*
X201736Y21850D01*
Y19201D01*
X206193D01*
Y22870D01*
D02*
G37*
G36*
X132087Y32907D02*
X131622Y32814D01*
X131228Y32551D01*
X130965Y32157D01*
X130873Y31693D01*
Y25453D01*
X129134D01*
X128675Y25262D01*
X128484Y24803D01*
Y20472D01*
X128566Y20276D01*
X128674Y20012D01*
X128415Y19620D01*
X128413Y19619D01*
X128192Y19288D01*
X128114Y18898D01*
Y17232D01*
X135665D01*
Y18898D01*
X135588Y19288D01*
X135367Y19619D01*
X135365Y19620D01*
X135106Y20012D01*
X135214Y20276D01*
X135295Y20472D01*
Y24803D01*
X135105Y25262D01*
X134646Y25453D01*
X133300D01*
Y31693D01*
X133208Y32157D01*
X132945Y32551D01*
X132551Y32814D01*
X132087Y32907D01*
D02*
G37*
G36*
X-22603Y20169D02*
X-27059D01*
Y16500D01*
X-23622D01*
X-23232Y16578D01*
X-22901Y16799D01*
X-22680Y17130D01*
X-22603Y17520D01*
Y20169D01*
D02*
G37*
G36*
X-28059D02*
X-32516D01*
Y17520D01*
X-32438Y17130D01*
X-32217Y16799D01*
X-31886Y16578D01*
X-31496Y16500D01*
X-28059D01*
Y20169D01*
D02*
G37*
G36*
X211649Y18201D02*
X207193D01*
Y14532D01*
X210630D01*
X211020Y14609D01*
X211351Y14830D01*
X211572Y15161D01*
X211649Y15551D01*
Y18201D01*
D02*
G37*
G36*
X206193D02*
X201736D01*
Y15551D01*
X201814Y15161D01*
X202035Y14830D01*
X202366Y14609D01*
X202756Y14532D01*
X206193D01*
Y18201D01*
D02*
G37*
G36*
X146851Y40804D02*
X141535D01*
X140911Y40680D01*
X140382Y40327D01*
X140028Y39797D01*
X139904Y39173D01*
X140028Y38549D01*
X140382Y38020D01*
X140911Y37666D01*
X141535Y37542D01*
X146175D01*
X146991Y36726D01*
Y34140D01*
X146175Y33324D01*
X141535D01*
X140911Y33200D01*
X140382Y32847D01*
X140028Y32317D01*
X139904Y31693D01*
X140028Y31069D01*
X140382Y30539D01*
X140911Y30186D01*
X141535Y30062D01*
X145219D01*
Y24409D01*
X145343Y23785D01*
X145697Y23256D01*
X159445Y9508D01*
X159533Y9062D01*
X159975Y8401D01*
X160637Y7959D01*
X161417Y7803D01*
X162198Y7959D01*
X162859Y8401D01*
X163301Y9062D01*
X163456Y9843D01*
X163301Y10623D01*
X162859Y11284D01*
X162198Y11727D01*
X161752Y11815D01*
X148482Y25085D01*
Y31017D01*
X149776Y32311D01*
X150129Y32840D01*
X150253Y33465D01*
Y37402D01*
X150129Y38026D01*
X149776Y38555D01*
X148004Y40327D01*
X147475Y40680D01*
X146851Y40804D01*
D02*
G37*
G36*
X67913Y8929D02*
X67133Y8774D01*
X66471Y8332D01*
X66029Y7670D01*
X65874Y6890D01*
X66029Y6109D01*
X66471Y5448D01*
X67133Y5006D01*
X67913Y4851D01*
X68694Y5006D01*
X69355Y5448D01*
X69797Y6109D01*
X69953Y6890D01*
X69797Y7670D01*
X69355Y8332D01*
X68694Y8774D01*
X67913Y8929D01*
D02*
G37*
G36*
X53650Y-2967D02*
Y-8358D01*
X57335D01*
Y-7087D01*
X57192Y-6003D01*
X56774Y-4994D01*
X56109Y-4127D01*
X55242Y-3462D01*
X54233Y-3044D01*
X53650Y-2967D01*
D02*
G37*
G36*
X52650D02*
X52066Y-3044D01*
X51057Y-3462D01*
X50190Y-4127D01*
X49525Y-4994D01*
X49107Y-6003D01*
X48964Y-7087D01*
Y-8358D01*
X52650D01*
Y-2967D01*
D02*
G37*
G36*
X27059D02*
X26476Y-3044D01*
X25466Y-3462D01*
X24600Y-4127D01*
X23934Y-4994D01*
X23516Y-6003D01*
X23374Y-7087D01*
Y-8358D01*
X27059D01*
Y-2967D01*
D02*
G37*
G36*
X130709Y-532D02*
X123228D01*
X122769Y-722D01*
X122579Y-1181D01*
Y-8661D01*
X122769Y-9121D01*
X123228Y-9311D01*
X130709D01*
X131168Y-9121D01*
X131358Y-8661D01*
Y-1181D01*
X131168Y-722D01*
X130709Y-532D01*
D02*
G37*
G36*
X65783Y-9358D02*
X62508D01*
Y-12043D01*
X64764D01*
X65154Y-11966D01*
X65485Y-11745D01*
X65706Y-11414D01*
X65783Y-11024D01*
Y-9358D01*
D02*
G37*
G36*
X61508D02*
X58232D01*
Y-11024D01*
X58310Y-11414D01*
X58531Y-11745D01*
X58862Y-11966D01*
X59252Y-12043D01*
X61508D01*
Y-9358D01*
D02*
G37*
G36*
X177165Y14424D02*
X174909Y14246D01*
X172708Y13718D01*
X170617Y12852D01*
X168687Y11669D01*
X166966Y10199D01*
X165496Y8478D01*
X164313Y6548D01*
X163447Y4457D01*
X162919Y2256D01*
X162741Y-0D01*
X162919Y-2256D01*
X163447Y-4457D01*
X164313Y-6548D01*
X165496Y-8478D01*
X166966Y-10199D01*
X168687Y-11669D01*
X170617Y-12852D01*
X172708Y-13718D01*
X174909Y-14246D01*
X177165Y-14424D01*
X179422Y-14246D01*
X181623Y-13718D01*
X183714Y-12852D01*
X185643Y-11669D01*
X187365Y-10199D01*
X188835Y-8478D01*
X190017Y-6548D01*
X190883Y-4457D01*
X191412Y-2256D01*
X191589Y-0D01*
X191412Y2256D01*
X190883Y4457D01*
X190017Y6548D01*
X188835Y8478D01*
X187365Y10199D01*
X185643Y11669D01*
X183714Y12852D01*
X181623Y13718D01*
X179422Y14246D01*
X177165Y14424D01*
D02*
G37*
G36*
X27059Y-9358D02*
X23374D01*
Y-10630D01*
X23516Y-11713D01*
X23934Y-12723D01*
X24600Y-13589D01*
X25466Y-14255D01*
X26476Y-14673D01*
X27059Y-14750D01*
Y-9358D01*
D02*
G37*
G36*
X118898Y-21421D02*
X116642D01*
Y-24106D01*
X119917D01*
Y-22441D01*
X119840Y-22051D01*
X119619Y-21720D01*
X119288Y-21499D01*
X118898Y-21421D01*
D02*
G37*
G36*
X131390Y-22464D02*
X131089Y-22504D01*
X130343Y-22813D01*
X129702Y-23305D01*
X129211Y-23945D01*
X128902Y-24691D01*
X128796Y-25492D01*
Y-26075D01*
X131390D01*
Y-22464D01*
D02*
G37*
G36*
X77244Y-18396D02*
X76060Y-18552D01*
X74956Y-19009D01*
X74008Y-19737D01*
X73281Y-20684D01*
X72824Y-21788D01*
X72668Y-22973D01*
X72824Y-24157D01*
X73281Y-25260D01*
X74008Y-26208D01*
X74956Y-26935D01*
X76060Y-27393D01*
X77244Y-27549D01*
X78428Y-27393D01*
X79532Y-26935D01*
X80480Y-26208D01*
X81207Y-25260D01*
X81664Y-24157D01*
X81820Y-22973D01*
X81664Y-21788D01*
X81207Y-20684D01*
X80480Y-19737D01*
X79532Y-19009D01*
X78428Y-18552D01*
X77244Y-18396D01*
D02*
G37*
G36*
X131390Y-27075D02*
X128796D01*
Y-27657D01*
X128902Y-28458D01*
X129211Y-29204D01*
X129702Y-29845D01*
X130343Y-30336D01*
X131089Y-30645D01*
X131390Y-30685D01*
Y-27075D01*
D02*
G37*
G36*
X123800Y-29152D02*
Y-31000D01*
X125648D01*
X125561Y-30564D01*
X125030Y-29770D01*
X124236Y-29239D01*
X123800Y-29152D01*
D02*
G37*
G36*
X122800D02*
X122364Y-29239D01*
X121570Y-29770D01*
X121039Y-30564D01*
X120952Y-31000D01*
X122800D01*
Y-29152D01*
D02*
G37*
G36*
X21654Y-18068D02*
X20675Y-18197D01*
X19763Y-18575D01*
X18979Y-19176D01*
X18378Y-19959D01*
X18000Y-20871D01*
X17872Y-21850D01*
Y-23425D01*
X18000Y-24404D01*
X18378Y-25316D01*
X18979Y-26099D01*
X19763Y-26700D01*
X20675Y-27078D01*
X21338Y-27165D01*
X21477Y-27184D01*
Y-27688D01*
X21338Y-27706D01*
X20570Y-27807D01*
X19561Y-28226D01*
X18694Y-28891D01*
X18029Y-29757D01*
X17611Y-30767D01*
X17468Y-31850D01*
Y-32138D01*
X21654D01*
X25839D01*
Y-31850D01*
X25696Y-30767D01*
X25278Y-29757D01*
X24613Y-28891D01*
X23746Y-28226D01*
X22737Y-27807D01*
X21969Y-27706D01*
X21830Y-27688D01*
Y-27184D01*
X21969Y-27165D01*
X22632Y-27078D01*
X23544Y-26700D01*
X24328Y-26099D01*
X24929Y-25316D01*
X25307Y-24404D01*
X25436Y-23425D01*
Y-21850D01*
X25307Y-20871D01*
X24929Y-19959D01*
X24328Y-19176D01*
X23544Y-18575D01*
X22632Y-18197D01*
X21654Y-18068D01*
D02*
G37*
G36*
X125648Y-32000D02*
X123800D01*
Y-33848D01*
X124236Y-33761D01*
X125030Y-33230D01*
X125561Y-32436D01*
X125648Y-32000D01*
D02*
G37*
G36*
X122800D02*
X120952D01*
X121039Y-32436D01*
X121570Y-33230D01*
X122364Y-33761D01*
X122800Y-33848D01*
Y-32000D01*
D02*
G37*
G36*
X195669Y-27106D02*
X188189D01*
X187730Y-27297D01*
X187540Y-27756D01*
Y-35236D01*
X187730Y-35695D01*
X188189Y-35886D01*
X195669D01*
X196128Y-35695D01*
X196319Y-35236D01*
Y-27756D01*
X196128Y-27297D01*
X195669Y-27106D01*
D02*
G37*
G36*
X25839Y-33138D02*
X22153D01*
Y-37545D01*
X22737Y-37468D01*
X23746Y-37050D01*
X24613Y-36385D01*
X25278Y-35518D01*
X25696Y-34508D01*
X25839Y-33425D01*
Y-33138D01*
D02*
G37*
G36*
X21154D02*
X17468D01*
Y-33425D01*
X17611Y-34508D01*
X18029Y-35518D01*
X18694Y-36385D01*
X19561Y-37050D01*
X20570Y-37468D01*
X21154Y-37545D01*
Y-33138D01*
D02*
G37*
G36*
X87244Y-28396D02*
X86060Y-28552D01*
X84956Y-29009D01*
X84008Y-29737D01*
X83281Y-30684D01*
X82824Y-31788D01*
X82668Y-32972D01*
X82824Y-34157D01*
X83281Y-35260D01*
X84008Y-36208D01*
X84956Y-36935D01*
X86060Y-37393D01*
X87244Y-37549D01*
X88428Y-37393D01*
X89532Y-36935D01*
X90480Y-36208D01*
X91207Y-35260D01*
X91664Y-34157D01*
X91820Y-32972D01*
X91664Y-31788D01*
X91207Y-30684D01*
X90480Y-29737D01*
X89532Y-29009D01*
X88428Y-28552D01*
X87244Y-28396D01*
D02*
G37*
G36*
X77244D02*
X76060Y-28552D01*
X74956Y-29009D01*
X74008Y-29737D01*
X73281Y-30684D01*
X72824Y-31788D01*
X72668Y-32972D01*
X72824Y-34157D01*
X73281Y-35260D01*
X74008Y-36208D01*
X74956Y-36935D01*
X76060Y-37393D01*
X77244Y-37549D01*
X78428Y-37393D01*
X79532Y-36935D01*
X80480Y-36208D01*
X81207Y-35260D01*
X81664Y-34157D01*
X81820Y-32972D01*
X81664Y-31788D01*
X81207Y-30684D01*
X80480Y-29737D01*
X79532Y-29009D01*
X78428Y-28552D01*
X77244Y-28396D01*
D02*
G37*
%LPD*%
G36*
X163940Y165753D02*
Y163847D01*
X163440Y163695D01*
X163148Y164132D01*
X162354Y164662D01*
X161917Y164749D01*
Y162402D01*
X160917D01*
Y164749D01*
X160481Y164662D01*
X159687Y164132D01*
X159157Y163338D01*
X159008Y162589D01*
X158498D01*
X158380Y163182D01*
X157938Y163844D01*
X157895Y163872D01*
X158001Y164403D01*
X158261Y164455D01*
X158922Y164897D01*
X159364Y165558D01*
X159520Y166339D01*
X159364Y167119D01*
X158922Y167780D01*
X158261Y168222D01*
X157480Y168378D01*
X157162Y168315D01*
X155594Y169883D01*
X155213Y170138D01*
X154764Y170227D01*
X153990D01*
Y171054D01*
X153800Y171514D01*
X153341Y171704D01*
X148772D01*
X141086Y179390D01*
Y180184D01*
X141246Y180297D01*
X141586Y180406D01*
X141918Y180183D01*
X142421Y180083D01*
X142924Y180183D01*
X143351Y180468D01*
X143635Y180895D01*
X143736Y181398D01*
Y183231D01*
X146461D01*
X163940Y165753D01*
D02*
G37*
G36*
X154612Y161621D02*
X155054Y160960D01*
X155716Y160518D01*
X156297Y160402D01*
X156264Y160236D01*
Y157980D01*
X159449D01*
Y157480D01*
X159949D01*
Y153705D01*
X161614D01*
X162004Y153782D01*
X162335Y154003D01*
X162336Y154005D01*
X162728Y154264D01*
X162993Y154156D01*
X163189Y154075D01*
X163940D01*
Y153012D01*
X163189D01*
X162730Y152821D01*
X162672Y152682D01*
X162131D01*
X162073Y152821D01*
X161614Y153012D01*
X157283D01*
X156824Y152821D01*
X156767Y152682D01*
X156226D01*
X156168Y152821D01*
X155709Y153012D01*
X154767D01*
Y155512D01*
X154674Y155980D01*
X154409Y156377D01*
X152280Y158505D01*
X152488Y159005D01*
X153341D01*
X153800Y159195D01*
X153990Y159654D01*
Y162186D01*
X154490Y162235D01*
X154612Y161621D01*
D02*
G37*
G36*
X173193Y138973D02*
Y137311D01*
X178149D01*
Y136311D01*
X173193D01*
Y133661D01*
X173270Y133271D01*
X173294Y133236D01*
X173027Y132736D01*
X170473D01*
X170013Y132546D01*
X169823Y132087D01*
Y131553D01*
X169291D01*
X169291Y131553D01*
X168667Y131429D01*
X168138Y131075D01*
X163307Y126244D01*
X162846Y126436D01*
Y129279D01*
X172731Y139165D01*
X173193Y138973D01*
D02*
G37*
%LPC*%
G36*
X158949Y156980D02*
X156264D01*
Y154724D01*
X156342Y154334D01*
X156562Y154003D01*
X156893Y153782D01*
X157283Y153705D01*
X158949D01*
Y156980D01*
D02*
G37*
%LPD*%
G36*
X47376Y151706D02*
X47835Y151516D01*
X48091D01*
Y118572D01*
X47591Y118365D01*
X41673Y124283D01*
Y151516D01*
X41929D01*
X42388Y151706D01*
X42446Y151845D01*
X42987D01*
X43045Y151706D01*
X43504Y151516D01*
X46260D01*
X46719Y151706D01*
X46777Y151845D01*
X47318D01*
X47376Y151706D01*
D02*
G37*
G36*
X37264Y145205D02*
Y139431D01*
X36764Y139279D01*
X36730Y139330D01*
X35936Y139861D01*
X35500Y139948D01*
Y137600D01*
X35000D01*
Y137100D01*
X32652D01*
X32692Y136903D01*
X32231Y136657D01*
X30191Y138696D01*
X30413Y139144D01*
X30512Y139131D01*
X31491Y139260D01*
X32403Y139638D01*
X33186Y140239D01*
X33787Y141022D01*
X34165Y141934D01*
X34294Y142913D01*
Y146457D01*
X34165Y147435D01*
X34051Y147711D01*
X34474Y147995D01*
X37264Y145205D01*
D02*
G37*
G36*
X89596Y85522D02*
X89728Y85413D01*
Y84161D01*
X93504D01*
Y83161D01*
X89728D01*
Y81496D01*
X89806Y81106D01*
X90027Y80775D01*
X90029Y80774D01*
X90288Y80382D01*
X90180Y80117D01*
X90099Y79921D01*
Y78878D01*
X88457D01*
X87728Y79606D01*
Y82775D01*
X87643Y83202D01*
X87402Y83563D01*
X87040Y83804D01*
X86614Y83889D01*
X86188Y83804D01*
X86135Y83769D01*
X85721Y83851D01*
X85228Y84181D01*
X85146Y84197D01*
Y79134D01*
Y74070D01*
X85228Y74086D01*
X85721Y74416D01*
X86135Y74499D01*
X86188Y74463D01*
X86614Y74379D01*
X87040Y74463D01*
X87402Y74705D01*
X87643Y75066D01*
X87728Y75492D01*
Y76418D01*
X87992Y76634D01*
X87992Y76634D01*
X90099D01*
Y75590D01*
X90289Y75131D01*
X90748Y74941D01*
X92877D01*
X93105Y74601D01*
X93508Y74197D01*
X93433Y73819D01*
X93511Y73428D01*
X93117Y72964D01*
X90256D01*
X89830Y72879D01*
X89469Y72638D01*
X89227Y72277D01*
X89143Y71850D01*
X89227Y71424D01*
X89373Y71206D01*
X89433Y70866D01*
X89373Y70526D01*
X89227Y70308D01*
X89143Y69882D01*
X89227Y69456D01*
X89373Y69238D01*
X89433Y68898D01*
X89405Y68738D01*
X88944Y68467D01*
X88800Y68532D01*
X88379Y68813D01*
X87598Y68968D01*
X86818Y68813D01*
X86156Y68371D01*
X85715Y67709D01*
X85559Y66929D01*
X85689Y66279D01*
X85599Y66136D01*
X85439Y65976D01*
X85296Y65886D01*
X84646Y66016D01*
X83865Y65860D01*
X83204Y65418D01*
X82762Y64757D01*
X82607Y63976D01*
X82762Y63196D01*
X83204Y62534D01*
X83524Y62320D01*
Y57000D01*
X82681Y56157D01*
X82220Y56403D01*
X82339Y57000D01*
X82184Y57780D01*
X81742Y58442D01*
X81080Y58884D01*
X80300Y59039D01*
X79520Y58884D01*
X78858Y58442D01*
X78416Y57780D01*
X78305Y57224D01*
X54794D01*
X54615Y57459D01*
X54490Y57724D01*
X54559Y58071D01*
X54474Y58497D01*
X54328Y58715D01*
X54268Y59055D01*
X54328Y59395D01*
X54474Y59613D01*
X54559Y60039D01*
X54474Y60466D01*
X54328Y60683D01*
X54268Y61024D01*
X54328Y61364D01*
X54474Y61582D01*
X54559Y62008D01*
X54474Y62434D01*
X54328Y62652D01*
X54268Y62992D01*
X54328Y63332D01*
X54474Y63550D01*
X54977Y63515D01*
X55051Y63501D01*
X55051Y63501D01*
X70502D01*
X70716Y63180D01*
X71377Y62738D01*
X72158Y62583D01*
X72938Y62738D01*
X73600Y63180D01*
X74042Y63842D01*
X74197Y64622D01*
X74042Y65403D01*
X73600Y66064D01*
X73470Y66151D01*
X73621Y66651D01*
X78599D01*
X78599Y66651D01*
X79028Y66736D01*
X79392Y66979D01*
X83470Y71057D01*
X83470Y71057D01*
X83714Y71421D01*
X83799Y71851D01*
Y73708D01*
X84146Y73938D01*
Y79134D01*
Y84197D01*
X84064Y84181D01*
X83570Y83851D01*
X83156Y83769D01*
X83103Y83804D01*
X82677Y83889D01*
X82251Y83804D01*
X82033Y83659D01*
X81693Y83598D01*
X81353Y83659D01*
X81135Y83804D01*
X80709Y83889D01*
X80283Y83804D01*
X80230Y83769D01*
X79816Y83851D01*
X79322Y84181D01*
X78740Y84297D01*
X78251Y84688D01*
X78225Y84939D01*
X78808Y85522D01*
X89596D01*
X89596Y85522D01*
D02*
G37*
G36*
X26812Y79838D02*
X26235Y79395D01*
X25540Y78488D01*
X25102Y77432D01*
X24953Y76299D01*
X25102Y75166D01*
X25540Y74110D01*
X26235Y73204D01*
X27142Y72508D01*
X28198Y72071D01*
X29331Y71922D01*
X29724D01*
X30857Y72071D01*
X31913Y72508D01*
X32820Y73204D01*
X33516Y74110D01*
X33953Y75166D01*
X34102Y76299D01*
X33953Y77432D01*
X33648Y78169D01*
X35044Y79565D01*
X35433Y79246D01*
X35381Y79169D01*
X35296Y78740D01*
X35296Y78740D01*
Y74283D01*
X31340Y70328D01*
X30857Y70528D01*
X29724Y70677D01*
X29331D01*
X28198Y70528D01*
X27142Y70090D01*
X26235Y69395D01*
X25540Y68488D01*
X25102Y67432D01*
X24953Y66299D01*
X25102Y65166D01*
X25540Y64110D01*
X26235Y63204D01*
X26963Y62645D01*
X26794Y62145D01*
X-7466D01*
X-7657Y62607D01*
X10073Y80338D01*
X26643D01*
X26812Y79838D01*
D02*
G37*
G36*
X39138Y79167D02*
Y77272D01*
X42323D01*
Y76272D01*
X39138D01*
Y74016D01*
X39215Y73626D01*
X39437Y73295D01*
X39688Y73127D01*
X39781Y73042D01*
X40008Y72516D01*
X39975Y72351D01*
X42323D01*
Y71351D01*
X39975D01*
X40062Y70914D01*
X40593Y70120D01*
X41386Y69590D01*
X41662Y69535D01*
X41613Y69035D01*
X39370D01*
X39370Y69035D01*
X38941Y68950D01*
X38577Y68706D01*
X34110Y64240D01*
X33686Y64523D01*
X33953Y65166D01*
X34102Y66299D01*
X33953Y67432D01*
X33516Y68488D01*
X33149Y68965D01*
X37210Y73026D01*
X37210Y73026D01*
X37453Y73390D01*
X37539Y73819D01*
X37539Y73819D01*
Y78276D01*
X38638Y79375D01*
X39138Y79167D01*
D02*
G37*
G36*
X44993Y66555D02*
X45117Y66292D01*
X45048Y65945D01*
X45117Y65598D01*
X44991Y65333D01*
X44813Y65098D01*
X39370D01*
X39370Y65098D01*
X38941Y65013D01*
X38577Y64769D01*
X31868Y58061D01*
X31625Y57697D01*
X31540Y57268D01*
X31540Y57268D01*
Y12124D01*
X31040Y12025D01*
X30834Y12521D01*
X30233Y13304D01*
X29450Y13905D01*
X28538Y14283D01*
X27559Y14412D01*
X26580Y14283D01*
X25668Y13905D01*
X24885Y13304D01*
X24284Y12521D01*
X23906Y11609D01*
X23777Y10630D01*
Y7087D01*
X23906Y6108D01*
X24284Y5196D01*
X24885Y4412D01*
X25369Y4041D01*
X25432Y3396D01*
X6425Y-15611D01*
X-9203D01*
X-20686Y-4128D01*
X-21049Y-3885D01*
X-21068Y-3881D01*
X-21194Y-3576D01*
X-21621Y-3019D01*
X-21957Y-2761D01*
X-21970Y-2737D01*
Y-2184D01*
X-21957Y-2160D01*
X-21621Y-1902D01*
X-21194Y-1345D01*
X-20925Y-696D01*
X-20834Y-0D01*
X-20925Y696D01*
X-21194Y1345D01*
X-21621Y1902D01*
X-22179Y2330D01*
X-22827Y2598D01*
X-23524Y2690D01*
X-25529D01*
X-25769Y3157D01*
X-15939Y12987D01*
X-15939Y12987D01*
X-15696Y13350D01*
X-15611Y13780D01*
X-15611Y13780D01*
Y52391D01*
X-8100Y59902D01*
X32480D01*
X32480Y59902D01*
X32910Y59987D01*
X33273Y60231D01*
X39835Y66792D01*
X44813D01*
X44993Y66555D01*
D02*
G37*
G36*
X105900Y52752D02*
X106336Y52839D01*
X107130Y53370D01*
X107368Y53725D01*
X108048Y53848D01*
X108130Y53788D01*
Y49919D01*
X107630Y49744D01*
X107080Y50112D01*
X106299Y50267D01*
X105519Y50112D01*
X104857Y49670D01*
X104631Y49332D01*
X104030D01*
X103804Y49670D01*
X103143Y50112D01*
X102362Y50267D01*
X101582Y50112D01*
X100920Y49670D01*
X100706Y49350D01*
X99324D01*
X99094Y49697D01*
X93898D01*
Y50697D01*
X98961D01*
X98945Y50779D01*
X98615Y51272D01*
X98533Y51686D01*
X98568Y51739D01*
X98653Y52165D01*
X98568Y52592D01*
X98423Y52809D01*
X98362Y53149D01*
X98423Y53490D01*
X98568Y53708D01*
X98598Y53857D01*
X98807Y53996D01*
X99219Y54078D01*
X99644D01*
X99858Y53758D01*
X100520Y53316D01*
X101300Y53161D01*
X102080Y53316D01*
X102742Y53758D01*
X102775Y53808D01*
X103377D01*
X103670Y53370D01*
X104464Y52839D01*
X104900Y52752D01*
Y55100D01*
X105900D01*
Y52752D01*
D02*
G37*
G36*
X70335Y54481D02*
X69966Y53930D01*
X69811Y53150D01*
X69941Y52500D01*
X69851Y52356D01*
X69691Y52196D01*
X69548Y52107D01*
X68898Y52236D01*
X68117Y52081D01*
X67456Y51639D01*
X67014Y50977D01*
X66859Y50197D01*
X67014Y49417D01*
X67456Y48755D01*
X67794Y48529D01*
Y47928D01*
X67456Y47702D01*
X67014Y47040D01*
X66859Y46260D01*
X66934Y45882D01*
X66136Y45084D01*
X65893Y44721D01*
X65808Y44291D01*
X65808Y44291D01*
Y40030D01*
X65573Y39851D01*
X65308Y39726D01*
X64961Y39795D01*
X64535Y39710D01*
X64317Y39564D01*
X63976Y39504D01*
X63636Y39564D01*
X63418Y39710D01*
X62992Y39795D01*
X62566Y39710D01*
X62348Y39564D01*
X62008Y39504D01*
X61668Y39564D01*
X61450Y39710D01*
X61024Y39795D01*
X60598Y39710D01*
X60545Y39674D01*
X60131Y39757D01*
X59637Y40087D01*
X59555Y40103D01*
Y35039D01*
X58555D01*
Y40103D01*
X58473Y40087D01*
X58111Y39845D01*
X57750Y40205D01*
X57986Y40558D01*
X58141Y41339D01*
X58054Y41778D01*
X58525Y41974D01*
X58597Y41865D01*
X59259Y41423D01*
X60039Y41268D01*
X60820Y41423D01*
X61481Y41865D01*
X61923Y42527D01*
X62078Y43307D01*
X61923Y44087D01*
X61481Y44749D01*
X61161Y44963D01*
Y45553D01*
X61661Y45728D01*
X62212Y45360D01*
X62992Y45205D01*
X63772Y45360D01*
X64434Y45802D01*
X64876Y46464D01*
X65031Y47244D01*
X64876Y48024D01*
X64434Y48686D01*
X63772Y49128D01*
X63655Y49151D01*
X58326Y54481D01*
X58533Y54981D01*
X70160D01*
X70335Y54481D01*
D02*
G37*
G36*
X111033Y63513D02*
X110842Y63051D01*
X110433D01*
X109974Y62861D01*
X109783Y62401D01*
Y60039D01*
X109974Y59580D01*
X110433Y59390D01*
X113362D01*
X113466Y59244D01*
X113583Y58890D01*
X113428Y58658D01*
X113350Y58268D01*
Y56602D01*
X117126D01*
Y55602D01*
X113350D01*
Y53937D01*
X113428Y53547D01*
X113649Y53216D01*
X113651Y53215D01*
X113910Y52823D01*
X113802Y52558D01*
X113721Y52362D01*
Y48031D01*
X113911Y47572D01*
X114370Y47382D01*
X115957D01*
X116071Y47244D01*
X116226Y46464D01*
X116668Y45802D01*
X117330Y45360D01*
X118110Y45205D01*
X118890Y45360D01*
X119552Y45802D01*
X119994Y46464D01*
X120149Y47244D01*
X120104Y47474D01*
X120341Y47572D01*
X120531Y48031D01*
Y49075D01*
X121595D01*
Y48031D01*
X121785Y47572D01*
X121625Y47097D01*
X121601Y47039D01*
Y44341D01*
X121100Y44056D01*
X120866Y44153D01*
X115354D01*
X114895Y43963D01*
X114721Y43542D01*
X114683Y43532D01*
X113962Y43831D01*
X113189Y43933D01*
X112473Y43838D01*
X112376Y43863D01*
X111974Y44189D01*
Y55781D01*
X111974Y55781D01*
X111888Y56210D01*
X111645Y56574D01*
X111645Y56574D01*
X108226Y59993D01*
X107862Y60236D01*
X107433Y60322D01*
X107433Y60322D01*
X107152D01*
X106885Y60822D01*
X107084Y61120D01*
X107239Y61900D01*
X107094Y62630D01*
X107121Y62769D01*
X107314Y63130D01*
X108071D01*
X108530Y63320D01*
X108720Y63779D01*
Y65172D01*
X109182Y65364D01*
X111033Y63513D01*
D02*
G37*
G36*
X91727Y34640D02*
X91727Y34640D01*
X92090Y34397D01*
X92520Y34312D01*
X95785D01*
X95999Y33991D01*
X96661Y33549D01*
X97441Y33394D01*
X98221Y33549D01*
X98883Y33991D01*
X99097Y34312D01*
X99941D01*
Y32283D01*
X100022Y32087D01*
X100130Y31823D01*
X99871Y31431D01*
X99870Y31430D01*
X99649Y31099D01*
X99571Y30709D01*
Y29043D01*
X103347D01*
Y28043D01*
X99571D01*
Y26378D01*
X99649Y25988D01*
X99870Y25657D01*
X99897Y25639D01*
X99936Y25064D01*
X99494Y24402D01*
X99339Y23622D01*
X99494Y22842D01*
X99936Y22180D01*
X100598Y21738D01*
X101378Y21583D01*
X102158Y21738D01*
X102820Y22180D01*
X103262Y22842D01*
X103417Y23622D01*
X103262Y24402D01*
X102957Y24858D01*
X103211Y25358D01*
X106102D01*
X106162Y25310D01*
Y20669D01*
X106162Y20669D01*
X106247Y20240D01*
X106490Y19876D01*
X111412Y14955D01*
X111412Y14955D01*
X111776Y14712D01*
X112205Y14627D01*
X121483D01*
X121630Y14221D01*
X121648Y14127D01*
X121216Y13480D01*
X121061Y12700D01*
X121216Y11920D01*
X121299Y11795D01*
X119576Y10072D01*
X94566D01*
X77986Y26653D01*
Y30033D01*
X78486Y30335D01*
X78740Y30284D01*
X79166Y30369D01*
X79384Y30514D01*
X79725Y30575D01*
X80065Y30514D01*
X80283Y30369D01*
X80709Y30284D01*
X81135Y30369D01*
X81353Y30514D01*
X81693Y30575D01*
X81919Y30535D01*
X82003Y30382D01*
X81747Y29821D01*
X81741Y29820D01*
X80947Y29289D01*
X80416Y28495D01*
X80330Y28059D01*
X85025D01*
X84938Y28495D01*
X84408Y29289D01*
X84142Y29467D01*
X84146Y29475D01*
Y35039D01*
X85146D01*
Y29976D01*
X85228Y29992D01*
X85721Y30322D01*
X86135Y30404D01*
X86188Y30369D01*
X86614Y30284D01*
X87040Y30369D01*
X87402Y30610D01*
X87643Y30972D01*
X87728Y31398D01*
Y32070D01*
X88228Y32480D01*
X88582Y32410D01*
X89363Y32565D01*
X90024Y33007D01*
X90466Y33668D01*
X90622Y34449D01*
X90475Y35184D01*
X90498Y35212D01*
X91045Y35322D01*
X91727Y34640D01*
D02*
G37*
G36*
X53600Y23862D02*
X55856D01*
X56246Y23940D01*
X56577Y24161D01*
X56629Y24239D01*
X57100Y24044D01*
X57016Y23622D01*
X57171Y22842D01*
X57613Y22180D01*
X58275Y21738D01*
X58484Y21697D01*
X58626Y21602D01*
X59055Y21516D01*
X59484Y21602D01*
X59626Y21697D01*
X59835Y21738D01*
X60497Y22180D01*
X60939Y22842D01*
X61094Y23622D01*
X60965Y24272D01*
X61055Y24415D01*
X61215Y24575D01*
X61358Y24665D01*
X62008Y24536D01*
X62788Y24691D01*
X63339Y25059D01*
X63839Y24884D01*
Y21654D01*
X63839Y21654D01*
X63924Y21224D01*
X64168Y20860D01*
X64459Y20570D01*
X64251Y20070D01*
X54817D01*
X51486Y23400D01*
X51677Y23862D01*
X52600D01*
Y27047D01*
X53600D01*
Y23862D01*
D02*
G37*
%LPC*%
G36*
X45200Y138948D02*
Y137100D01*
X47048D01*
X46961Y137536D01*
X46430Y138330D01*
X45636Y138861D01*
X45200Y138948D01*
D02*
G37*
G36*
X44200D02*
X43764Y138861D01*
X42970Y138330D01*
X42439Y137536D01*
X42352Y137100D01*
X44200D01*
Y138948D01*
D02*
G37*
G36*
X47048Y136100D02*
X45200D01*
Y134252D01*
X45636Y134339D01*
X46430Y134870D01*
X46961Y135664D01*
X47048Y136100D01*
D02*
G37*
G36*
X44200D02*
X42352D01*
X42439Y135664D01*
X42970Y134870D01*
X43764Y134339D01*
X44200Y134252D01*
Y136100D01*
D02*
G37*
G36*
X34500Y139948D02*
X34064Y139861D01*
X33270Y139330D01*
X32739Y138536D01*
X32652Y138100D01*
X34500D01*
Y139948D01*
D02*
G37*
G36*
X22900Y73739D02*
X22120Y73584D01*
X21458Y73142D01*
X21016Y72480D01*
X20861Y71700D01*
X21016Y70920D01*
X21458Y70258D01*
X22120Y69816D01*
X22900Y69661D01*
X23680Y69816D01*
X24342Y70258D01*
X24784Y70920D01*
X24939Y71700D01*
X24784Y72480D01*
X24342Y73142D01*
X23680Y73584D01*
X22900Y73739D01*
D02*
G37*
G36*
X2500Y69248D02*
Y67400D01*
X4348D01*
X4261Y67836D01*
X3730Y68630D01*
X2936Y69161D01*
X2500Y69248D01*
D02*
G37*
G36*
X1500D02*
X1064Y69161D01*
X270Y68630D01*
X-261Y67836D01*
X-348Y67400D01*
X1500D01*
Y69248D01*
D02*
G37*
G36*
X4348Y66400D02*
X2500D01*
Y64552D01*
X2936Y64639D01*
X3730Y65170D01*
X4261Y65964D01*
X4348Y66400D01*
D02*
G37*
G36*
X1500D02*
X-348D01*
X-261Y65964D01*
X270Y65170D01*
X1064Y64639D01*
X1500Y64552D01*
Y66400D01*
D02*
G37*
G36*
X-4437Y36796D02*
X-4873Y36710D01*
X-5667Y36179D01*
X-6198Y35385D01*
X-6285Y34949D01*
X-4437D01*
Y36796D01*
D02*
G37*
G36*
X3740Y37634D02*
X1484D01*
Y34949D01*
X4760D01*
Y36614D01*
X4682Y37004D01*
X4461Y37335D01*
X4130Y37556D01*
X3740Y37634D01*
D02*
G37*
G36*
X9539Y34736D02*
X6461D01*
Y33858D01*
X6538Y33468D01*
X6759Y33137D01*
X7090Y32916D01*
X7480Y32839D01*
X9539D01*
Y34736D01*
D02*
G37*
G36*
X-1181Y57539D02*
X-8661D01*
X-9121Y57349D01*
X-9311Y56890D01*
Y49409D01*
X-9121Y48950D01*
X-8661Y48760D01*
X-2248D01*
X-858Y47370D01*
X-858Y47370D01*
X-465Y47107D01*
X0Y47014D01*
X11071D01*
X12848Y45238D01*
X12641Y44738D01*
X9064D01*
X8605Y44548D01*
X8414Y44089D01*
Y38589D01*
X8605Y38129D01*
X8494Y37634D01*
X7480D01*
X7090Y37556D01*
X6759Y37335D01*
X6538Y37004D01*
X6461Y36614D01*
Y35736D01*
X10039D01*
Y35236D01*
X10539D01*
Y32839D01*
X12598D01*
X12989Y32916D01*
X13142Y33019D01*
X13642Y32789D01*
Y31961D01*
X11465Y29783D01*
X7480D01*
X7194Y29665D01*
X4390D01*
Y30709D01*
X4308Y30905D01*
X4200Y31170D01*
X4459Y31561D01*
X4461Y31563D01*
X4682Y31893D01*
X4760Y32283D01*
Y33949D01*
X984D01*
Y34449D01*
X484D01*
Y37634D01*
X-1772D01*
X-2162Y37556D01*
X-2493Y37335D01*
X-2661Y37084D01*
X-2745Y36991D01*
X-3271Y36763D01*
X-3437Y36796D01*
Y34449D01*
X-3937D01*
Y33949D01*
X-6285D01*
X-6198Y33512D01*
X-6105Y33374D01*
X-6341Y32933D01*
X-10630D01*
X-11089Y32743D01*
X-11279Y32283D01*
Y24803D01*
X-11089Y24344D01*
X-10630Y24154D01*
X-4086D01*
X6786Y13282D01*
X6548Y12852D01*
X4457Y13718D01*
X2256Y14246D01*
X-0Y14424D01*
X-2256Y14246D01*
X-4457Y13718D01*
X-6548Y12852D01*
X-8478Y11669D01*
X-10199Y10199D01*
X-11669Y8478D01*
X-12852Y6548D01*
X-13718Y4457D01*
X-14246Y2256D01*
X-14424Y-0D01*
X-14246Y-2256D01*
X-13718Y-4457D01*
X-12852Y-6548D01*
X-11669Y-8478D01*
X-10199Y-10199D01*
X-8478Y-11669D01*
X-6548Y-12852D01*
X-4457Y-13718D01*
X-2256Y-14246D01*
X-0Y-14424D01*
X2256Y-14246D01*
X4457Y-13718D01*
X6548Y-12852D01*
X8478Y-11669D01*
X10199Y-10199D01*
X11669Y-8478D01*
X12852Y-6548D01*
X13718Y-4457D01*
X14246Y-2256D01*
X14424Y-0D01*
X14246Y2256D01*
X13718Y4457D01*
X12852Y6548D01*
X11669Y8478D01*
X10199Y10199D01*
X9058Y11174D01*
X9243Y11674D01*
X13780D01*
X13780Y11674D01*
X14209Y11759D01*
X14573Y12002D01*
X19257Y16687D01*
X19500Y17050D01*
X19585Y17480D01*
X19585Y17480D01*
Y18254D01*
X20464D01*
X20923Y18444D01*
X21113Y18903D01*
Y24404D01*
X20923Y24863D01*
X20464Y25053D01*
X19678D01*
Y25728D01*
X20914D01*
X22642Y24000D01*
X22567Y23622D01*
X22722Y22842D01*
X23164Y22180D01*
X23826Y21738D01*
X24606Y21583D01*
X25387Y21738D01*
X26048Y22180D01*
X26490Y22842D01*
X26645Y23622D01*
X26516Y24272D01*
X26606Y24415D01*
X26766Y24575D01*
X26909Y24665D01*
X27559Y24536D01*
X28339Y24691D01*
X29001Y25133D01*
X29443Y25794D01*
X29598Y26575D01*
X29443Y27355D01*
X29001Y28017D01*
X28681Y28231D01*
Y31496D01*
X28681Y31496D01*
X28595Y31925D01*
X28352Y32289D01*
X24612Y36029D01*
X24248Y36272D01*
X23819Y36358D01*
X23819Y36358D01*
X22697D01*
Y36614D01*
X22507Y37073D01*
X22047Y37264D01*
X19678D01*
Y37939D01*
X20464D01*
X20923Y38129D01*
X21113Y38589D01*
Y44089D01*
X20923Y44548D01*
X20464Y44738D01*
X16781D01*
X12432Y49087D01*
X12039Y49350D01*
X11574Y49442D01*
X11574Y49442D01*
X503D01*
X-532Y50477D01*
Y56890D01*
X-722Y57349D01*
X-1181Y57539D01*
D02*
G37*
G36*
X93504Y32551D02*
X92724Y32396D01*
X92062Y31954D01*
X91620Y31292D01*
X91465Y30512D01*
X91620Y29732D01*
X92062Y29070D01*
X92724Y28628D01*
X93504Y28473D01*
X94284Y28628D01*
X94946Y29070D01*
X95388Y29732D01*
X95543Y30512D01*
X95388Y31292D01*
X94946Y31954D01*
X94284Y32396D01*
X93504Y32551D01*
D02*
G37*
G36*
X85025Y27059D02*
X83177D01*
Y25212D01*
X83614Y25298D01*
X84408Y25829D01*
X84938Y26623D01*
X85025Y27059D01*
D02*
G37*
G36*
X82177D02*
X80330D01*
X80416Y26623D01*
X80947Y25829D01*
X81741Y25298D01*
X82177Y25212D01*
Y27059D01*
D02*
G37*
%LPD*%
D12*
X53100Y27047D02*
X54596Y28543D01*
X57087D01*
X55000Y32953D02*
X57087Y35039D01*
X53100Y32953D02*
X55000D01*
X52166Y33887D02*
X53100Y32953D01*
X63361Y17348D02*
X87441Y-6732D01*
X53352Y17348D02*
X63361D01*
X54352Y18948D02*
X64713D01*
X45523Y27777D02*
X54352Y18948D01*
X45523Y27777D02*
Y38042D01*
X43923Y26777D02*
X53352Y17348D01*
X43923Y26777D02*
Y42939D01*
X36417Y73819D02*
Y78740D01*
X29528Y66929D02*
X36417Y73819D01*
Y78740D02*
X38854Y81177D01*
X30192Y76299D02*
X35993Y82100D01*
X36000D01*
X36677Y82777D01*
X9609Y81459D02*
X33089D01*
X36276Y84646D01*
X36677Y82777D02*
X51222D01*
X36276Y84646D02*
X51617D01*
X42323Y71851D02*
Y76772D01*
X57087Y-27205D02*
Y-19429D01*
X51181Y-15748D02*
X53406D01*
X57087Y-19429D01*
X57631Y68492D02*
X58350Y67772D01*
X78599D02*
X82677Y71851D01*
X58350Y67772D02*
X78599D01*
X52165Y75787D02*
X55961Y71991D01*
Y70161D02*
Y71991D01*
Y70161D02*
X57631Y68492D01*
Y68492D02*
Y68492D01*
X53929Y50197D02*
X56000Y48126D01*
X49803Y50197D02*
X53929D01*
X79402Y56102D02*
X80300Y57000D01*
X49803Y56102D02*
X79402D01*
X74370Y50197D02*
X76297Y48270D01*
X68898Y50197D02*
X74370D01*
X71850Y53150D02*
X73681D01*
X66929Y44291D02*
X68898Y46260D01*
X62992Y47244D02*
Y48228D01*
X117716Y40945D02*
X118110Y41339D01*
X113189Y40945D02*
X117716D01*
X110852Y43282D02*
X113189Y40945D01*
X110852Y43282D02*
Y55781D01*
X107433Y59200D02*
X110852Y55781D01*
X104098Y59200D02*
X107433D01*
X103436Y57600D02*
X106770D01*
X109252Y55118D01*
X105200Y61900D02*
X105226D01*
X99322Y63976D02*
X104098Y59200D01*
X117126Y50197D02*
X118110Y49213D01*
Y47244D02*
Y49213D01*
X100394Y45276D02*
X105315D01*
X99410Y46260D02*
X100394Y45276D01*
X105315D02*
X107283Y43307D01*
X97441Y-22638D02*
Y-13780D01*
X64713Y18948D02*
X97441Y-13780D01*
X102362Y-27716D02*
Y-15748D01*
X114016Y-32638D02*
X116142Y-30512D01*
X107441Y-32638D02*
X114016D01*
X145533Y13467D02*
X151575Y7425D01*
X139764Y51436D02*
X141300Y49900D01*
X139764Y51436D02*
Y54724D01*
X130315Y48228D02*
X134744D01*
X135827Y49311D01*
X129800Y55240D02*
X131890Y53150D01*
X129800Y55240D02*
Y56200D01*
X93898Y58071D02*
X99171D01*
X104921Y61417D02*
Y64961D01*
Y61417D02*
X105315Y61811D01*
X105226Y61900D02*
X105315Y61811D01*
X105297Y55100D02*
X105400D01*
X93898Y48228D02*
X102362D01*
X128075Y175319D02*
X129626Y176870D01*
X126681Y172719D02*
X128979D01*
X125475Y173925D02*
X126681Y172719D01*
X130496Y172819D02*
X130905Y173228D01*
X130495D02*
X130905D01*
X129079Y172819D02*
X130496D01*
X56000Y45100D02*
Y48126D01*
X72700Y46125D02*
Y46500D01*
X68898Y42323D02*
X72700Y46125D01*
X73681Y53150D02*
X77897Y48933D01*
X78740Y50353D02*
Y52165D01*
Y50353D02*
X79497Y49596D01*
X76297Y47988D02*
Y48270D01*
X77897Y48650D02*
Y48933D01*
X79497Y49440D02*
Y49596D01*
X86614Y50197D02*
X88583Y52165D01*
X81846Y50197D02*
Y53735D01*
X86614Y54134D02*
X93897D01*
X84646Y56535D02*
Y63976D01*
X81846Y53735D02*
X84646Y56535D01*
X95472Y73819D02*
X95669Y73622D01*
X93898Y75394D02*
X95472Y73819D01*
X93898Y71850D02*
X95669Y73622D01*
X93898Y63976D02*
X99322D01*
X93898Y62008D02*
X99028D01*
X103436Y57600D01*
X100803Y50606D02*
X105297Y55100D01*
X98889Y55200D02*
X101300D01*
X98807Y55118D02*
X98889Y55200D01*
X40551Y154527D02*
Y178749D01*
X40400Y178900D02*
X40551Y178749D01*
X94035Y96004D02*
X96004D01*
X91535Y93504D02*
X94035Y96004D01*
X99278Y99278D02*
Y102126D01*
X96004Y96004D02*
X99278Y99278D01*
X95059Y101078D02*
X96778D01*
X95037Y101100D02*
X95059Y101078D01*
X101400Y98300D02*
Y103600D01*
X96604Y93504D02*
X101400Y98300D01*
X97826Y103578D02*
X99278Y102126D01*
X87500Y117500D02*
X101400Y103600D01*
X85490Y91553D02*
X95037Y101100D01*
X73252Y89000D02*
X73400D01*
X72835Y88583D02*
X73252Y89000D01*
X73400D02*
Y89148D01*
X73819Y89567D01*
X72053Y91553D02*
X85490D01*
X70849Y90349D02*
X72053Y91553D01*
X70849Y88048D02*
Y90349D01*
X74803Y86504D02*
X76882Y88583D01*
X74803Y79134D02*
Y86504D01*
X77937Y69372D02*
X80709Y72145D01*
X59013Y69372D02*
X77937D01*
X76300Y72363D02*
Y72400D01*
X75787Y71850D02*
X76300Y72363D01*
X60100Y71900D02*
Y72774D01*
X59055Y73819D02*
X60100Y72774D01*
X65945Y71850D02*
X75787D01*
X62992Y74803D02*
X65945Y71850D01*
X53728Y65945D02*
X55051Y64622D01*
X72158D01*
X18464Y17480D02*
Y21654D01*
X13780Y12795D02*
X18464Y17480D01*
X8858Y12795D02*
X13780D01*
X-6890Y28543D02*
X8858Y12795D01*
X93898Y75394D02*
Y77362D01*
X48228Y73425D02*
X49803Y71850D01*
X-29331Y98032D02*
Y116732D01*
Y98032D02*
X-29331Y98032D01*
X107874Y68258D02*
X113583Y62550D01*
X84646Y29528D02*
Y35039D01*
X82677Y27559D02*
X84646Y29528D01*
X159449Y160433D02*
X161417Y162402D01*
X159449Y157480D02*
Y160433D01*
X-3937Y34449D02*
X-3937Y34449D01*
X984D01*
X99409Y83662D02*
X100394Y82677D01*
X93504Y83662D02*
X99409D01*
X84646Y83662D02*
X85138Y84154D01*
X84798Y84493D02*
X85138Y84154D01*
X85477Y84493D02*
X85630Y84646D01*
X84798Y84493D02*
X85477D01*
X78740D02*
X84798D01*
X78740Y79134D02*
Y84493D01*
X21654Y31496D02*
X24606Y28543D01*
X19488Y31496D02*
X21654D01*
X131890Y200787D02*
Y207677D01*
X150311Y196146D02*
X150591Y195866D01*
X49213Y15748D02*
X55118D01*
X60276Y10590D01*
X62008D01*
X4724Y35236D02*
X10039D01*
X3937Y34449D02*
X4724Y35236D01*
X984Y34449D02*
X3937D01*
X86614Y60039D02*
X93898D01*
X28543Y4921D02*
Y8858D01*
X6890Y-16732D02*
X28543Y4921D01*
X103347Y64961D02*
X104921D01*
X92520Y35433D02*
X97441D01*
X102362D02*
X103347Y34449D01*
X97441Y35433D02*
X102362D01*
X87598Y1969D02*
X91535D01*
X69882Y19685D02*
X87598Y1969D01*
X69882Y19685D02*
Y27559D01*
X70866Y28543D01*
Y35039D01*
X64961Y21654D02*
X102362Y-15748D01*
X64961Y21654D02*
Y35039D01*
X72835Y21654D02*
Y35039D01*
X54134Y6890D02*
X57834Y3190D01*
X68898Y35039D02*
Y42323D01*
X87441Y-22638D02*
Y-6732D01*
X-17717Y130906D02*
Y196850D01*
X-21850Y111417D02*
Y116732D01*
Y111417D02*
X-19685Y109252D01*
Y103347D02*
Y109252D01*
X-21850Y101181D02*
X-19685Y103347D01*
X-21850Y98032D02*
Y101181D01*
X-25591Y106693D02*
X-25197Y106299D01*
X-22638D01*
X-25591Y125394D02*
X-25000Y125984D01*
X-22638D01*
X42323Y-6890D02*
X51181Y-15748D01*
X42323Y-6890D02*
Y45276D01*
X62008Y-2953D02*
X62008Y-2953D01*
Y3190D01*
X57834D02*
X62008D01*
X54134Y6890D02*
Y8858D01*
X87992Y35039D02*
X88582Y34449D01*
X86614Y35039D02*
X87992D01*
X86614D02*
Y36417D01*
X124016Y36654D02*
X125000Y37639D01*
X124016Y33465D02*
Y36654D01*
X82677Y35039D02*
Y40354D01*
X131890Y193898D02*
Y194882D01*
Y193898D02*
X137303Y188484D01*
Y184646D02*
Y188484D01*
X124016Y191692D02*
Y194882D01*
Y191692D02*
X125747Y189961D01*
X132874D01*
X134744Y188091D01*
Y184646D02*
Y188091D01*
X127067Y178883D02*
Y184646D01*
X129626Y176870D02*
Y184646D01*
X137795Y54724D02*
X139764D01*
X86614Y88583D02*
X91535Y93504D01*
X89596Y86644D02*
X96457Y93504D01*
X88583Y52165D02*
X93898D01*
X72835Y35039D02*
X72835Y35039D01*
X97441Y-32638D02*
X102362Y-27716D01*
X51653Y-32638D02*
X57087Y-27205D01*
X51653Y-22638D02*
Y-19173D01*
X40535Y-8055D02*
X51653Y-19173D01*
X40535Y-8055D02*
Y46016D01*
X46287Y-28004D02*
Y-16760D01*
X38386Y-8858D02*
X46287Y-16760D01*
X38386Y-8858D02*
Y53150D01*
X41653Y-22638D02*
Y-17047D01*
X36417Y-11811D02*
X41653Y-17047D01*
X36417Y-11811D02*
Y55118D01*
X45276Y44291D02*
X49803D01*
X31653Y-22638D02*
Y-16890D01*
X32661Y-15882D01*
Y57268D01*
X39370Y63976D01*
X49803D01*
X31653Y-32638D02*
X36417Y-27874D01*
Y-17717D01*
X34449Y-15748D02*
X36417Y-17717D01*
X34449Y-15748D02*
Y56102D01*
X40354Y62008D01*
X49803D01*
X38386Y53150D02*
X43307Y58071D01*
X49803D01*
X36417Y55118D02*
X41339Y60039D01*
X49803D01*
X41653Y-32638D02*
X46287Y-28004D01*
X42323Y45276D02*
X43307Y46260D01*
X40535Y46016D02*
X42748Y48228D01*
X49803D01*
X43307Y46260D02*
X49803D01*
X99410Y184646D02*
Y191929D01*
X98425Y192913D02*
X99410Y191929D01*
Y165354D02*
Y173228D01*
X86614Y79134D02*
X87992Y77756D01*
X61024Y29528D02*
Y35039D01*
X62992Y27559D02*
Y35039D01*
X62008Y26575D02*
X62992Y27559D01*
X60822Y29437D02*
X60933D01*
X61024Y29528D01*
X59055Y27670D02*
X60822Y29437D01*
X19488Y35236D02*
X23819D01*
X27559Y26575D02*
Y31496D01*
X23819Y35236D02*
X27559Y31496D01*
X59055Y22638D02*
Y23622D01*
Y27670D01*
X20472Y27756D02*
X24606Y23622D01*
X19488Y27756D02*
X20472D01*
X125984Y69882D02*
X129921D01*
X131299Y71260D01*
X131890D01*
X131980D01*
X87992Y77756D02*
X93504D01*
X93898Y77362D01*
X94004Y77256D01*
X107874Y68258D02*
Y81693D01*
X113583Y61220D02*
Y62550D01*
X107874Y81693D02*
Y85040D01*
X107283Y85630D02*
Y89567D01*
Y85630D02*
X107874Y85040D01*
X113189Y21654D02*
Y32480D01*
X109252Y36417D02*
X113189Y32480D01*
Y21654D02*
X118110D01*
X117126Y50197D02*
X125000D01*
X125000Y50197D02*
X125000Y50197D01*
X133858Y54724D02*
Y60138D01*
X134744Y61024D01*
X136811D01*
X137795Y60039D01*
Y54724D02*
Y60039D01*
X135827Y49311D02*
Y54724D01*
X125000Y37639D02*
X127206D01*
X128740Y39173D01*
X132087D01*
X125000Y45039D02*
Y50197D01*
X135827Y49311D02*
X140846Y44291D01*
X149606D01*
X156496Y37402D01*
Y29528D02*
Y37402D01*
X93898Y54134D02*
X93898Y54134D01*
X107283Y20669D02*
Y43307D01*
Y20669D02*
X112205Y15748D01*
X80709Y35039D02*
Y45838D01*
X59055Y30512D02*
Y35039D01*
X57087Y28543D02*
X59055Y30512D01*
X52166Y33887D02*
Y37402D01*
X56102Y41339D01*
X49803Y52165D02*
X55118D01*
X60039Y47244D01*
Y43307D02*
Y47244D01*
X49803Y54134D02*
X57087D01*
X62992Y48228D01*
X64961Y79134D02*
Y85630D01*
X66929Y79134D02*
Y86614D01*
X31890Y152165D02*
Y154527D01*
Y152165D02*
X38386Y145669D01*
X23819Y143482D02*
X36417Y130884D01*
Y122047D02*
Y130884D01*
X38386Y123031D02*
Y145669D01*
X49213Y118110D02*
Y154527D01*
X40551Y123819D02*
Y154527D01*
X38386Y123031D02*
X51181Y110236D01*
X36417Y122047D02*
X49213Y109252D01*
X55118Y98425D02*
X66929Y86614D01*
X55118Y98425D02*
Y112205D01*
X49213Y118110D02*
X55118Y112205D01*
X53150Y97441D02*
X64961Y85630D01*
X53150Y97441D02*
Y111221D01*
X40551Y123819D02*
X53150Y111221D01*
X49213Y92520D02*
Y109252D01*
X51181Y95472D02*
X55118Y91535D01*
X51181Y95472D02*
Y110236D01*
X49213Y92520D02*
X55118Y86614D01*
X61024Y79134D02*
Y84646D01*
X55118Y86614D02*
X59055D01*
X61024Y84646D01*
X-28543Y-19685D02*
X-24606D01*
X-28543Y-9842D02*
X-24606D01*
X-30512Y-7874D02*
X-28543Y-9842D01*
X-30512Y-7874D02*
Y0D01*
X-16732Y13780D01*
X32480Y61024D02*
X39370Y67913D01*
X49803D01*
X44291Y69882D02*
X49803D01*
X42323Y71851D02*
X44291Y69882D01*
X66929Y35039D02*
Y44291D01*
X68898Y79134D02*
Y89567D01*
X67913Y90551D02*
X68898Y89567D01*
X29528Y66299D02*
Y66929D01*
X59055Y73819D02*
Y79134D01*
X82677Y71851D02*
Y79134D01*
X80709Y72145D02*
Y79134D01*
X76882Y88583D02*
X86614D01*
X72835Y79134D02*
Y88583D01*
X84646Y79134D02*
Y83662D01*
X85630Y84646D02*
X88583D01*
X89567Y83662D01*
X93504D01*
X23819Y143482D02*
Y149606D01*
Y154527D01*
X49213D02*
Y178150D01*
X49213Y178150D01*
X57874Y154527D02*
Y159449D01*
X53543Y154527D02*
Y173819D01*
X57874Y178150D01*
X57874Y159449D02*
X57874Y159449D01*
X27559Y154527D02*
Y159449D01*
X27559Y159449D01*
X20079Y195866D02*
X25591D01*
X25591Y195866D01*
X984Y28543D02*
X9252D01*
X10039Y27756D01*
X11064Y21654D02*
Y26731D01*
Y41102D02*
Y41339D01*
Y41102D02*
X14764Y37402D01*
Y31496D02*
Y37402D01*
X10531Y27264D02*
X14764Y31496D01*
X10039Y27756D02*
X10531Y27264D01*
X11064Y26731D01*
X984Y28543D02*
Y28543D01*
Y28543D02*
X4921Y24606D01*
X88583Y65945D02*
X93898D01*
X87598Y66929D02*
X88583Y65945D01*
X152559Y69009D02*
X153543D01*
X31201Y178839D02*
X31890Y178150D01*
Y154527D02*
Y178150D01*
X-16732Y13780D02*
Y52855D01*
X-8564Y61024D01*
X32480D01*
X-32112Y-16116D02*
X-28543Y-19685D01*
X38854Y81177D02*
X50560D01*
X52165Y79572D01*
Y75787D02*
Y79572D01*
X62992Y74803D02*
Y79134D01*
X49803Y65945D02*
X53728D01*
X57087Y79134D02*
Y79176D01*
X51617Y84646D02*
X57087Y79176D01*
X57561Y70824D02*
X59013Y69372D01*
X57561Y70824D02*
Y73050D01*
X53765Y76846D02*
X57561Y73050D01*
X53765Y76846D02*
Y80234D01*
X51222Y82777D02*
X53765Y80234D01*
X70866Y79134D02*
Y88031D01*
X70849Y88048D02*
X70866Y88031D01*
X93897Y54134D02*
X93898Y54134D01*
X78740Y35039D02*
Y45544D01*
X76297Y47988D02*
X78740Y45544D01*
X77897Y48650D02*
X80709Y45838D01*
X82677Y40354D02*
X87598D01*
X92520Y35433D01*
X79497Y49440D02*
X86614Y42323D01*
X93898D01*
X81846Y50197D02*
X87751Y44291D01*
X93898D01*
Y46260D02*
X99410D01*
X109252Y36417D02*
Y55118D01*
X93898Y50197D02*
X99983D01*
X100393Y50606D01*
X100803D01*
X118110Y47244D02*
Y47244D01*
X76772Y79134D02*
Y85072D01*
X78344Y86644D01*
X89596D01*
X94004Y77256D02*
X101956D01*
X106393Y81693D01*
X107874D01*
X43923Y42939D02*
X45276Y44291D01*
X45523Y38042D02*
X49803Y42323D01*
X128979Y172719D02*
X129079Y172819D01*
X145834Y195866D02*
X150591D01*
X140913Y200787D02*
X145834Y195866D01*
X139764Y200787D02*
X140913D01*
X93898Y56102D02*
X97822D01*
X98807Y55118D01*
X-24606Y-4921D02*
X-21479D01*
X-9668Y-16732D01*
X6890D01*
X95252Y103578D02*
X97826D01*
X85259Y93585D02*
X95252Y103578D01*
X73828Y93585D02*
X85259D01*
X67994Y99418D02*
X73828Y93585D01*
X67994Y99418D02*
Y111505D01*
X62100Y117400D02*
X67994Y111505D01*
X96457Y93504D02*
X96604D01*
X76200Y117500D02*
X87500D01*
X151575Y-26575D02*
Y7425D01*
X112205Y15748D02*
X126423D01*
Y15723D02*
X128678Y13467D01*
X145533D01*
X124508Y180608D02*
Y184646D01*
X118113Y174213D02*
X124508Y180608D01*
X114173Y174213D02*
X116142D01*
X118113D01*
X29528Y76299D02*
X30192D01*
X29528Y76299D02*
X29528Y76299D01*
X-22638Y125984D02*
X-17717Y130906D01*
X82247Y143938D02*
X82677D01*
X81500Y144685D02*
X82247Y143938D01*
X69882Y144685D02*
X81500D01*
X82677Y143938D02*
X83424Y144685D01*
X81500D02*
X83424D01*
X95473D01*
X125475Y173925D02*
Y177291D01*
X127067Y178883D01*
X-32112Y-16116D02*
Y788D01*
X-18332Y14568D01*
Y53518D01*
X9609Y81459D01*
X50353Y27047D02*
X53100D01*
X48228Y29172D02*
X50353Y27047D01*
X48228Y29172D02*
Y33465D01*
D17*
X18464Y41339D02*
D03*
X11064D02*
D03*
Y21654D02*
D03*
X18464D02*
D03*
X160196Y127953D02*
D03*
X152796D02*
D03*
Y121063D02*
D03*
X160196D02*
D03*
D18*
X62008Y3190D02*
D03*
Y10590D02*
D03*
X114173Y154765D02*
D03*
Y162165D02*
D03*
X190945Y153879D02*
D03*
Y161279D02*
D03*
X150591Y169054D02*
D03*
Y161654D02*
D03*
X191929Y140001D02*
D03*
Y147401D02*
D03*
X82677Y143938D02*
D03*
Y151338D02*
D03*
X183071Y130668D02*
D03*
Y123268D02*
D03*
X191929D02*
D03*
Y130668D02*
D03*
X125000Y45039D02*
D03*
Y37639D02*
D03*
D19*
X62008Y-2953D02*
D03*
Y-8858D02*
D03*
X125984Y63976D02*
D03*
Y69882D02*
D03*
X114173Y174213D02*
D03*
Y168307D02*
D03*
X144685Y121063D02*
D03*
Y126969D02*
D03*
X139764Y194882D02*
D03*
Y200787D02*
D03*
X131890D02*
D03*
Y194882D02*
D03*
X124016D02*
D03*
Y200787D02*
D03*
X173228Y129921D02*
D03*
Y124016D02*
D03*
X984Y34449D02*
D03*
Y28543D02*
D03*
X131890Y16732D02*
D03*
Y22638D02*
D03*
X93504Y83661D02*
D03*
Y77756D02*
D03*
X103347Y28543D02*
D03*
Y34449D02*
D03*
X118110Y21654D02*
D03*
Y27559D02*
D03*
X118110Y35433D02*
D03*
Y41339D02*
D03*
X117126Y50197D02*
D03*
Y56102D02*
D03*
X125000D02*
D03*
Y50197D02*
D03*
X116142Y-24606D02*
D03*
Y-30512D02*
D03*
X53100Y32953D02*
D03*
Y27047D02*
D03*
D20*
X165354Y157480D02*
D03*
X159449D02*
D03*
X165354Y149606D02*
D03*
X159449D02*
D03*
X147638D02*
D03*
X153543D02*
D03*
X149606Y138779D02*
D03*
X143701D02*
D03*
X104331Y192913D02*
D03*
X98425D02*
D03*
X99410Y173228D02*
D03*
X93504D02*
D03*
X107283Y89567D02*
D03*
X101378D02*
D03*
X48228Y76772D02*
D03*
X42323D02*
D03*
D24*
X113583Y68701D02*
D03*
Y61220D02*
D03*
X104921Y64961D02*
D03*
D29*
X150878Y108268D02*
D03*
X168020D02*
D03*
D32*
X119390Y184646D02*
D03*
X121949D02*
D03*
X124508D02*
D03*
X127067D02*
D03*
X129626D02*
D03*
X132185D02*
D03*
X134744D02*
D03*
X137303D02*
D03*
X139862D02*
D03*
X142421D02*
D03*
X119390Y161811D02*
D03*
X121949D02*
D03*
X124508D02*
D03*
X127067D02*
D03*
X129626D02*
D03*
X132185D02*
D03*
X134744D02*
D03*
X137303D02*
D03*
X139862D02*
D03*
X142421D02*
D03*
D33*
X19488Y35236D02*
D03*
Y31496D02*
D03*
Y27756D02*
D03*
X10039D02*
D03*
Y35236D02*
D03*
X44925Y42740D02*
D03*
Y39000D02*
D03*
Y35260D02*
D03*
X35476D02*
D03*
Y42740D02*
D03*
D77*
X93603Y6800D02*
X122000D01*
X94063Y8858D02*
X120079D01*
X74803Y25599D02*
X93603Y6800D01*
X74803Y25599D02*
Y35039D01*
X153980Y69445D02*
X155401Y68024D01*
X125984Y57086D02*
Y63976D01*
X125000Y56102D02*
X125984Y57086D01*
X99171Y58071D02*
X99300Y58200D01*
X125984Y63976D02*
X131890D01*
X123100Y11880D02*
Y12700D01*
X120079Y8858D02*
X123100Y11880D01*
X-4921Y53150D02*
X0Y48228D01*
X11574D01*
X18464Y41339D01*
X191929Y123268D02*
X196449D01*
X191929Y123268D02*
X191929Y123268D01*
X183071Y123268D02*
X191929D01*
X182324Y124016D02*
X183071Y123268D01*
X173228Y124016D02*
X182324D01*
X100394Y82677D02*
Y84646D01*
X119291Y68701D02*
X124016Y63976D01*
X114173Y-22638D02*
X116142Y-24606D01*
X107441Y-22638D02*
X114173D01*
X76772Y26150D02*
Y35039D01*
Y26150D02*
X94063Y8858D01*
X132087Y22835D02*
Y31693D01*
X137795Y71260D02*
Y77756D01*
X139764Y79724D01*
X143701D01*
X135827Y71260D02*
Y78740D01*
X141732Y84646D01*
X145781D01*
X152559Y91424D01*
X135827Y66929D02*
Y71260D01*
Y66929D02*
X136811Y65945D01*
X136811Y65945D01*
X138611D01*
X139764Y67098D02*
Y71260D01*
X138611Y65945D02*
X139764Y67098D01*
X18464Y36261D02*
Y41339D01*
Y36261D02*
X19488Y35236D01*
X18464Y21654D02*
Y26731D01*
X19488Y27756D01*
X133858Y65945D02*
Y71260D01*
X131890Y63976D02*
X133858Y65945D01*
X124016Y63976D02*
X125984D01*
X131890Y22638D02*
X132087Y22835D01*
X113583Y68701D02*
X119291D01*
X100394Y84646D02*
X101378Y85630D01*
Y89567D01*
X118110Y27559D02*
Y35433D01*
X118110Y35433D02*
X118110Y35433D01*
X117126Y56102D02*
X125000D01*
X129921Y35433D02*
X141535D01*
X118110Y27559D02*
X122047D01*
X128937Y16732D02*
X131890D01*
X124016Y21654D02*
X128937Y16732D01*
X124016Y21654D02*
Y29528D01*
X122047Y27559D02*
X124016Y29528D01*
X129921Y35433D01*
X124508Y161811D02*
Y165846D01*
X116142Y174213D02*
X124508Y165846D01*
X143701Y79724D02*
X153543Y69882D01*
X196449Y123268D02*
X196841Y122877D01*
Y122735D02*
Y122877D01*
Y122735D02*
X198275Y121301D01*
X206455D01*
X208661Y119095D01*
X102362Y71850D02*
X102953D01*
X104134Y73032D01*
D78*
X165354Y157480D02*
Y166339D01*
Y149606D02*
Y157480D01*
X166339D02*
X170501Y161643D01*
X181722D01*
X189487Y153879D01*
X190945D01*
X147047Y184646D02*
X165354Y166339D01*
X142421Y184646D02*
X147047D01*
X134744Y157579D02*
Y161811D01*
Y157579D02*
X142717Y149606D01*
X147638D01*
X134744Y161811D02*
X137303D01*
X132185D02*
X134744D01*
X138779Y209244D02*
Y209646D01*
Y209244D02*
X143397Y204626D01*
X164272D01*
X164370Y204528D01*
X202519Y126732D02*
X202756Y126969D01*
X198819D02*
X202756D01*
X173228Y129921D02*
X173976Y130668D01*
X160196Y121063D02*
X160433D01*
X150878Y108268D02*
Y111745D01*
D79*
X123600Y130597D02*
Y155928D01*
Y130597D02*
X145929Y108268D01*
X150878D01*
X189961Y134843D02*
X196850D01*
X183071Y141732D02*
X189961Y134843D01*
X172991Y141732D02*
X183071D01*
X82677Y151338D02*
Y163386D01*
X62992Y183071D02*
X82677Y163386D01*
X49213Y183071D02*
X62992D01*
X44882Y178740D02*
X49213Y183071D01*
X44882Y159449D02*
Y178740D01*
X123031Y72835D02*
X125984Y69882D01*
X121063Y72835D02*
X123031D01*
X183071Y130668D02*
X195119D01*
X186024Y143701D02*
Y147638D01*
X182087Y151575D02*
X186024Y147638D01*
X175197Y151575D02*
X182087D01*
X160196Y128937D02*
X172991Y141732D01*
X196850Y134843D02*
X198819Y136811D01*
X186024Y143701D02*
X189724Y140001D01*
X127067Y130807D02*
X136811Y121063D01*
X202009Y147401D02*
X202756Y146653D01*
X191929Y147401D02*
X202009D01*
X168020Y108268D02*
X168307Y108555D01*
X201772Y91142D02*
X203530Y106000D01*
X195119Y130668D02*
X198819Y126969D01*
X173976Y130668D02*
X183071D01*
X169291Y129921D02*
X173228D01*
X160433Y121063D02*
X169291Y129921D01*
X150878Y111745D02*
X160196Y121063D01*
X146850Y31693D02*
X148622Y33465D01*
X141535Y31693D02*
X146850D01*
X141535Y39173D02*
X146851D01*
X148622Y37402D01*
Y33465D02*
Y37402D01*
X146850Y24409D02*
Y31693D01*
Y24409D02*
X161417Y9843D01*
X44882Y154527D02*
Y159449D01*
X44882Y159449D01*
X136811Y121063D02*
X152796D01*
X149606Y138779D02*
X162401D01*
X175197Y151575D01*
D80*
X129626Y143996D02*
Y161811D01*
X127067Y130807D02*
Y161811D01*
X129626Y143996D02*
X134843Y138779D01*
X-25591Y77756D02*
X-15748Y87598D01*
X-8858D01*
X15748Y112205D01*
Y174931D01*
X24872Y184055D01*
X44291D01*
X57087Y196850D01*
X95472D01*
X102362Y203740D01*
Y207677D01*
X160196Y127953D02*
Y128937D01*
X198819Y136811D02*
X202756D01*
X189724Y140001D02*
X191929D01*
X147638Y144685D02*
Y149606D01*
Y144685D02*
X149606Y142717D01*
Y138779D02*
Y142717D01*
X134843Y138779D02*
X143701D01*
Y132874D02*
Y138779D01*
Y132874D02*
X144685Y131890D01*
Y126969D02*
Y131890D01*
D81*
X190945Y161279D02*
X197973D01*
X202756Y156496D01*
D83*
X168307Y108555D02*
Y114173D01*
X202658Y114272D02*
X203530Y106000D01*
X168307Y114173D02*
X172244Y118110D01*
X198819D01*
X202658Y114272D01*
D85*
X121949Y157579D02*
X123600Y155928D01*
X89596Y160433D02*
X95265Y154765D01*
X114173D01*
X114173Y168307D02*
X114173Y168307D01*
Y162165D02*
Y168307D01*
Y162165D02*
X114527Y161811D01*
X119390D01*
X132185Y178839D02*
Y184646D01*
X159449Y149606D02*
X160433D01*
X153543D02*
X159449D01*
X121949Y157579D02*
Y161811D01*
X153543Y149606D02*
Y155512D01*
X150591Y158465D02*
X153543Y155512D01*
X150591Y158465D02*
Y161654D01*
X150354D02*
X150591D01*
X143701Y168307D02*
X150354Y161654D01*
X141495Y168307D02*
X143701D01*
X139862Y166674D02*
X141495Y168307D01*
X139862Y161811D02*
Y166674D01*
Y178883D02*
X149691Y169054D01*
X139862Y178883D02*
Y184646D01*
X69882Y126969D02*
X95473D01*
X133858Y176181D02*
Y177165D01*
X132185Y178839D02*
X133858Y177165D01*
D87*
X77244Y-32972D02*
D03*
Y-22973D02*
D03*
X87244Y-32972D02*
D03*
Y-22973D02*
D03*
X97244Y-32972D02*
D03*
Y-22973D02*
D03*
X107244Y-32972D02*
D03*
X-30512Y196693D02*
D03*
X-17717D02*
D03*
D88*
X107244Y-22973D02*
D03*
D89*
X-6890Y28543D02*
D03*
X191929Y-31496D02*
D03*
X136700Y8000D02*
D03*
X62100Y117400D02*
D03*
X76200Y117500D02*
D03*
D90*
X-4921Y53150D02*
D03*
X116142Y136811D02*
D03*
X126969Y-4921D02*
D03*
D91*
X203800Y56300D02*
D03*
X203530Y106000D02*
D03*
X184400Y71500D02*
D03*
X183800Y91300D02*
D03*
D92*
X-0Y177165D02*
D03*
X177165D02*
D03*
Y-0D02*
D03*
X-0D02*
D03*
D93*
X-29528Y158780D02*
D03*
Y148779D02*
D03*
X-27559Y40669D02*
D03*
Y30669D02*
D03*
X206693Y28701D02*
D03*
Y38701D02*
D03*
X200787Y177008D02*
D03*
X178149Y146811D02*
D03*
Y156811D02*
D03*
D94*
X-29528Y138779D02*
D03*
X-27559Y20669D02*
D03*
X206693Y18701D02*
D03*
X200787Y187008D02*
D03*
X178149Y136811D02*
D03*
D95*
X69882Y126969D02*
D03*
X95473D02*
D03*
X69882Y144685D02*
D03*
X95473D02*
D03*
X30512Y126969D02*
D03*
X56102D02*
D03*
X30512Y144685D02*
D03*
X56102D02*
D03*
X53150Y8858D02*
D03*
X27559D02*
D03*
X53150Y-8858D02*
D03*
X27559D02*
D03*
D96*
X-25591Y62992D02*
D03*
Y67913D02*
D03*
Y72835D02*
D03*
Y77756D02*
D03*
D97*
X21654Y-32638D02*
D03*
Y-22638D02*
D03*
X31653Y-32638D02*
D03*
Y-22638D02*
D03*
X41653Y-32638D02*
D03*
Y-22638D02*
D03*
X51653Y-32638D02*
D03*
D98*
Y-22638D02*
D03*
D99*
X-24606Y-24606D02*
D03*
Y-19685D02*
D03*
Y-14764D02*
D03*
Y-9842D02*
D03*
Y-4921D02*
D03*
Y-0D02*
D03*
D100*
X202756Y156496D02*
D03*
Y146653D02*
D03*
Y136811D02*
D03*
D101*
Y126969D02*
D03*
D102*
X102362Y207677D02*
D03*
X97441D02*
D03*
X92520D02*
D03*
X87599D02*
D03*
D103*
X143701Y210630D02*
D03*
X171260D02*
D03*
D104*
X147638Y200000D02*
D03*
X167323D02*
D03*
D105*
X99410Y165354D02*
D03*
Y184646D02*
D03*
X113189Y40945D02*
D03*
Y21654D02*
D03*
D106*
X131890Y-26575D02*
D03*
X136811D02*
D03*
X141732D02*
D03*
X146653D02*
D03*
X151575D02*
D03*
X156496D02*
D03*
D107*
X78740Y103543D02*
D03*
D108*
X29528Y66299D02*
D03*
Y76299D02*
D03*
Y86299D02*
D03*
Y96299D02*
D03*
D109*
Y106299D02*
D03*
D110*
X-30512Y206693D02*
D03*
X-17717D02*
D03*
D111*
X71850Y53150D02*
D03*
X68898Y50197D02*
D03*
Y46260D02*
D03*
X62992Y47244D02*
D03*
X105200Y61900D02*
D03*
X141300Y49900D02*
D03*
X130315Y48228D02*
D03*
X129800Y56200D02*
D03*
X105400Y55100D02*
D03*
X106299Y48228D02*
D03*
X102362D02*
D03*
X130734Y60600D02*
D03*
X132874Y148622D02*
D03*
X139764Y147638D02*
D03*
X128075Y175319D02*
D03*
X130905Y173228D02*
D03*
X122600Y173700D02*
D03*
X56000Y45100D02*
D03*
X72700Y46500D02*
D03*
X86614Y50197D02*
D03*
X78740Y52165D02*
D03*
X86614Y54134D02*
D03*
X80300Y57000D02*
D03*
X99300Y58200D02*
D03*
X101300Y55200D02*
D03*
X123100Y12700D02*
D03*
X122000Y6800D02*
D03*
X40400Y178900D02*
D03*
X96778Y101078D02*
D03*
X73400Y89000D02*
D03*
X76300Y72400D02*
D03*
X60100Y71900D02*
D03*
X72158Y64622D02*
D03*
X-29331Y111221D02*
D03*
X48228Y33465D02*
D03*
X82677Y27559D02*
D03*
X161417Y162402D02*
D03*
X-3937Y34449D02*
D03*
X208661Y119095D02*
D03*
X24606Y28543D02*
D03*
X131890Y207677D02*
D03*
X150591Y195866D02*
D03*
X49213Y15748D02*
D03*
X12795D02*
D03*
X95472Y73819D02*
D03*
X97441Y35433D02*
D03*
X116142Y77756D02*
D03*
X42323Y71851D02*
D03*
X48228Y73425D02*
D03*
X9843Y97441D02*
D03*
X72835Y21654D02*
D03*
X67913Y6890D02*
D03*
X-22638Y106299D02*
D03*
Y125984D02*
D03*
X121063Y72835D02*
D03*
X101378Y23622D02*
D03*
X162402Y55118D02*
D03*
X95472Y88583D02*
D03*
X88582Y34449D02*
D03*
X124016Y33465D02*
D03*
X89596Y160433D02*
D03*
X91535Y93504D02*
D03*
X96457D02*
D03*
X156496Y162402D02*
D03*
X138779Y209646D02*
D03*
X164370Y204528D02*
D03*
X62008Y26575D02*
D03*
X27559D02*
D03*
X59055Y23622D02*
D03*
X24606D02*
D03*
X156496Y29528D02*
D03*
X161417Y9843D02*
D03*
X84646Y63976D02*
D03*
X56102Y41339D02*
D03*
X60039Y43307D02*
D03*
X67913Y90551D02*
D03*
X93504Y30512D02*
D03*
X87598Y60039D02*
D03*
X49213Y178150D02*
D03*
X55118Y91535D02*
D03*
X57874Y178150D02*
D03*
X25591Y195866D02*
D03*
X44882Y159449D02*
D03*
X27559D02*
D03*
X23819Y149606D02*
D03*
X57874Y159449D02*
D03*
X135827Y146653D02*
D03*
X99410Y151575D02*
D03*
X102362Y71850D02*
D03*
X121063Y96457D02*
D03*
X157480Y166339D02*
D03*
X133858Y176181D02*
D03*
X4921Y24606D02*
D03*
X87598Y66929D02*
D03*
X31201Y178839D02*
D03*
X118110Y47244D02*
D03*
X165354Y59055D02*
D03*
X121063Y66929D02*
D03*
X120079Y106299D02*
D03*
Y155512D02*
D03*
X74900Y42000D02*
D03*
X22900Y71700D02*
D03*
X2000Y66900D02*
D03*
X44700Y136600D02*
D03*
X35000Y137600D02*
D03*
X123300Y-31500D02*
D03*
D112*
X91535Y1969D02*
D03*
D113*
X203445Y90256D02*
D03*
Y71555D02*
D03*
D114*
X183957Y98425D02*
D03*
Y63976D02*
D03*
D115*
X100394Y81693D02*
D03*
X107874D02*
D03*
X104134Y73032D02*
D03*
X-21850Y116732D02*
D03*
X-29331D02*
D03*
X-25591Y125394D02*
D03*
X-21850Y98032D02*
D03*
X-29331D02*
D03*
X-25591Y106693D02*
D03*
D116*
X57874Y154527D02*
D03*
X53543D02*
D03*
X49213D02*
D03*
X44882D02*
D03*
X40551D02*
D03*
X36220D02*
D03*
X31890D02*
D03*
X27559D02*
D03*
X23819D02*
D03*
D117*
X63977D02*
D03*
X20079Y171457D02*
D03*
D118*
Y195866D02*
D03*
D119*
Y210236D02*
D03*
D120*
X73228Y212992D02*
D03*
D121*
X167323Y91424D02*
D03*
Y68024D02*
D03*
X152559Y91424D02*
D03*
Y68024D02*
D03*
D122*
X131890Y71260D02*
D03*
X133858D02*
D03*
X135827D02*
D03*
X137795D02*
D03*
X139764D02*
D03*
X131890Y54724D02*
D03*
X133858D02*
D03*
X135827D02*
D03*
X137795D02*
D03*
X139764D02*
D03*
D123*
X86614Y79134D02*
D03*
X84646D02*
D03*
X82677D02*
D03*
X80709D02*
D03*
X78740D02*
D03*
X76772D02*
D03*
X74803D02*
D03*
X72835D02*
D03*
X70866D02*
D03*
X68898D02*
D03*
X66929D02*
D03*
X64961D02*
D03*
X62992D02*
D03*
X61024D02*
D03*
X59055D02*
D03*
X57087Y35039D02*
D03*
X59055D02*
D03*
X61024D02*
D03*
X62992D02*
D03*
X64961D02*
D03*
X66929D02*
D03*
X68898D02*
D03*
X70866D02*
D03*
X72835D02*
D03*
X74803D02*
D03*
X76772D02*
D03*
X78740D02*
D03*
X80709D02*
D03*
X82677D02*
D03*
X84646D02*
D03*
X86614D02*
D03*
D124*
X57087Y79134D02*
D03*
D125*
X49803Y71850D02*
D03*
Y69882D02*
D03*
Y67913D02*
D03*
Y65945D02*
D03*
Y63976D02*
D03*
Y62008D02*
D03*
Y60039D02*
D03*
Y58071D02*
D03*
Y56102D02*
D03*
Y54134D02*
D03*
Y52165D02*
D03*
Y50197D02*
D03*
Y48228D02*
D03*
Y46260D02*
D03*
Y44291D02*
D03*
Y42323D02*
D03*
X93898D02*
D03*
Y44291D02*
D03*
Y46260D02*
D03*
Y48228D02*
D03*
Y50197D02*
D03*
Y52165D02*
D03*
Y54134D02*
D03*
Y56102D02*
D03*
Y58071D02*
D03*
Y60039D02*
D03*
Y62008D02*
D03*
Y63976D02*
D03*
Y65945D02*
D03*
Y67913D02*
D03*
Y69882D02*
D03*
Y71850D02*
D03*
D126*
X155401Y68024D02*
X167323D01*
X149606Y90551D02*
X185925D01*
X182099Y68024D02*
X185925Y71850D01*
X150200Y67900D02*
X183300Y68024D01*
X167323D02*
X182099D01*
D127*
X139764Y184744D02*
X139862Y184646D01*
X139764Y184744D02*
Y194882D01*
X149691Y169054D02*
X150591D01*
X154764D01*
X157480Y166339D01*
D128*
X151812Y126969D02*
X152796Y127953D01*
X144685Y126969D02*
X151812D01*
D129*
X202658Y71851D02*
X203800Y56300D01*
D130*
X203740Y80709D02*
D03*
D131*
X203650Y80900D02*
D03*
D132*
X184450Y98300D02*
D03*
D133*
X184600Y63700D02*
D03*
M02*
