G04*
G04 #@! TF.GenerationSoftware,Altium Limited,Altium Designer,19.1.1 (5)*
G04*
G04 Layer_Color=8388736*
%FSLAX25Y25*%
%MOIN*%
G70*
G01*
G75*
%ADD34R,0.04800X0.06300*%
%ADD35R,0.06300X0.04800*%
%ADD36R,0.06312X0.05131*%
%ADD37R,0.05131X0.06312*%
%ADD38R,0.06312X0.06706*%
%ADD39R,0.06706X0.06312*%
%ADD40R,0.03556X0.05918*%
%ADD41R,0.07099X0.03162*%
%ADD42R,0.07887X0.08280*%
%ADD43R,0.06706X0.08280*%
%ADD44R,0.02375X0.06902*%
%ADD45O,0.02572X0.10249*%
%ADD46R,0.08674X0.09800*%
%ADD47R,0.08674X0.16548*%
%ADD48R,0.09800X0.08674*%
%ADD49O,0.02178X0.08674*%
%ADD50R,0.05918X0.03556*%
%ADD51C,0.08674*%
%ADD52R,0.08674X0.08674*%
%ADD53R,0.08280X0.08280*%
%ADD54R,0.08280X0.08280*%
%ADD55C,0.14580*%
%ADD56C,0.28359*%
%ADD57O,0.08674X0.07099*%
%ADD58R,0.08674X0.07099*%
%ADD59O,0.07099X0.10642*%
%ADD60O,0.06706X0.04934*%
%ADD61O,0.07099X0.08674*%
%ADD62R,0.07099X0.08674*%
%ADD63O,0.07099X0.04934*%
%ADD64O,0.10249X0.08280*%
%ADD65R,0.10249X0.08280*%
%ADD66O,0.04934X0.06706*%
%ADD67O,0.05131X0.07099*%
%ADD68C,0.06509*%
%ADD69C,0.05524*%
%ADD70O,0.04934X0.07099*%
%ADD71C,0.18517*%
%ADD72O,0.08674X0.08280*%
%ADD73R,0.08674X0.08280*%
%ADD74R,0.08674X0.08674*%
%ADD75C,0.03600*%
%ADD76C,0.05300*%
D34*
X20432Y126969D02*
D03*
X13032D02*
D03*
X20432Y144685D02*
D03*
X13032D02*
D03*
X159212Y143701D02*
D03*
X151812D02*
D03*
X148057Y31496D02*
D03*
X140657D02*
D03*
X164133Y22638D02*
D03*
X156733D02*
D03*
X9095Y102362D02*
D03*
X16495D02*
D03*
X170039Y50197D02*
D03*
X162639D02*
D03*
Y42323D02*
D03*
X170039D02*
D03*
X40117Y200787D02*
D03*
X32717D02*
D03*
X162639Y34449D02*
D03*
X170039D02*
D03*
X97204Y16732D02*
D03*
X89804D02*
D03*
D35*
X153543Y109015D02*
D03*
Y101615D02*
D03*
X161594Y101733D02*
D03*
Y109133D02*
D03*
X112205Y186261D02*
D03*
Y193661D02*
D03*
X156496Y5669D02*
D03*
Y-1732D02*
D03*
X147638Y42560D02*
D03*
Y49960D02*
D03*
X154921D02*
D03*
Y42560D02*
D03*
X197835Y209409D02*
D03*
Y202009D02*
D03*
X180118D02*
D03*
Y209409D02*
D03*
X-3937Y102125D02*
D03*
Y94725D02*
D03*
X111221Y-5158D02*
D03*
Y-12558D02*
D03*
X169291Y60276D02*
D03*
Y67676D02*
D03*
X97441Y30275D02*
D03*
Y22875D02*
D03*
X116142Y72598D02*
D03*
Y65198D02*
D03*
X114173Y106062D02*
D03*
Y98662D02*
D03*
X40128Y183308D02*
D03*
Y190708D02*
D03*
X48987D02*
D03*
Y183308D02*
D03*
X57845D02*
D03*
Y190708D02*
D03*
X62992Y171023D02*
D03*
Y163623D02*
D03*
X27559D02*
D03*
Y171023D02*
D03*
X30512Y190708D02*
D03*
Y183308D02*
D03*
X36417Y171023D02*
D03*
Y163623D02*
D03*
X16732Y40117D02*
D03*
Y32717D02*
D03*
X-10000Y151600D02*
D03*
Y144200D02*
D03*
X168307Y138032D02*
D03*
Y145432D02*
D03*
X134843Y-18464D02*
D03*
Y-11064D02*
D03*
X141732D02*
D03*
Y-18464D02*
D03*
X94488Y-5158D02*
D03*
Y-12558D02*
D03*
X102362D02*
D03*
Y-5158D02*
D03*
X-14764Y64213D02*
D03*
Y71613D02*
D03*
X85630Y198582D02*
D03*
Y191182D02*
D03*
X125984Y70629D02*
D03*
Y63229D02*
D03*
D36*
X143701Y141732D02*
D03*
Y147638D02*
D03*
X168110Y129680D02*
D03*
Y123775D02*
D03*
X125000Y141732D02*
D03*
Y135827D02*
D03*
X143701Y130905D02*
D03*
Y136811D02*
D03*
X134843Y141732D02*
D03*
Y135827D02*
D03*
X120079Y192913D02*
D03*
Y187008D02*
D03*
X89567Y23622D02*
D03*
Y29528D02*
D03*
X106299Y99409D02*
D03*
Y105315D02*
D03*
X45276Y164370D02*
D03*
Y170276D02*
D03*
X54134D02*
D03*
Y164370D02*
D03*
D37*
X143701Y110236D02*
D03*
X137795D02*
D03*
Y118110D02*
D03*
X143701D02*
D03*
X152559Y72835D02*
D03*
X158465D02*
D03*
X119095Y148622D02*
D03*
X125000D02*
D03*
X16732Y65945D02*
D03*
X10827D02*
D03*
Y73819D02*
D03*
X16732D02*
D03*
X141853Y73900D02*
D03*
X135947D02*
D03*
D38*
X97441Y8858D02*
D03*
X89567D02*
D03*
X120079Y57087D02*
D03*
X112205D02*
D03*
X173228Y22638D02*
D03*
X181102D02*
D03*
X159449Y135827D02*
D03*
X151575D02*
D03*
D39*
X-3937Y85630D02*
D03*
Y77756D02*
D03*
X112205Y201772D02*
D03*
Y209646D02*
D03*
X84646Y168307D02*
D03*
Y160433D02*
D03*
X206693Y202756D02*
D03*
Y210630D02*
D03*
X188976Y202756D02*
D03*
Y210630D02*
D03*
X119095Y-12795D02*
D03*
Y-4921D02*
D03*
X156496Y-10827D02*
D03*
Y-18701D02*
D03*
D40*
X17520Y92323D02*
D03*
X13780D02*
D03*
X10039D02*
D03*
Y82874D02*
D03*
X13780D02*
D03*
X17520D02*
D03*
X135630Y202559D02*
D03*
X131890D02*
D03*
X128149D02*
D03*
Y193110D02*
D03*
X131890D02*
D03*
X135630D02*
D03*
D41*
X195866Y-16732D02*
D03*
Y-24213D02*
D03*
X204527Y-20472D02*
D03*
X112795Y92323D02*
D03*
Y84843D02*
D03*
X121457Y88583D02*
D03*
D42*
X144882Y210630D02*
D03*
X170079D02*
D03*
D43*
X153543D02*
D03*
X161417D02*
D03*
D44*
X152362Y200098D02*
D03*
X154921D02*
D03*
X157480D02*
D03*
X160039D02*
D03*
X162599D02*
D03*
D45*
X133169Y155512D02*
D03*
X135728D02*
D03*
X138287D02*
D03*
X140847D02*
D03*
X143405D02*
D03*
X145965D02*
D03*
X148524D02*
D03*
X151083D02*
D03*
X153642D02*
D03*
X156201D02*
D03*
X133169Y183071D02*
D03*
X135728D02*
D03*
X138287D02*
D03*
X140847D02*
D03*
X143405D02*
D03*
X145965D02*
D03*
X148524D02*
D03*
X151083D02*
D03*
X153642D02*
D03*
X156201D02*
D03*
D46*
X151706Y84646D02*
D03*
X168847D02*
D03*
D47*
X128937Y123031D02*
D03*
X117126D02*
D03*
D48*
X137795Y101091D02*
D03*
Y83949D02*
D03*
D49*
X140649Y66535D02*
D03*
X138091D02*
D03*
X135531D02*
D03*
X132973D02*
D03*
X140649Y43701D02*
D03*
X138091D02*
D03*
X135531D02*
D03*
X132973D02*
D03*
D50*
X150787Y125787D02*
D03*
Y122047D02*
D03*
Y118307D02*
D03*
X160236D02*
D03*
Y122047D02*
D03*
Y125787D02*
D03*
X150787Y67716D02*
D03*
Y63976D02*
D03*
Y60236D02*
D03*
X160236D02*
D03*
Y67716D02*
D03*
D51*
X77244Y-32972D02*
D03*
Y-22973D02*
D03*
X87244Y-32972D02*
D03*
Y-22973D02*
D03*
X97244Y-32972D02*
D03*
Y-22973D02*
D03*
X107244Y-32972D02*
D03*
X-30512Y196693D02*
D03*
X-17717D02*
D03*
D52*
X107244Y-22973D02*
D03*
D53*
X-6890Y28543D02*
D03*
X191929Y-31496D02*
D03*
X136700Y8000D02*
D03*
X62100Y117400D02*
D03*
X76200Y117500D02*
D03*
D54*
X-4921Y53150D02*
D03*
X116142Y136811D02*
D03*
X126969Y-4921D02*
D03*
D55*
X203800Y56300D02*
D03*
X203530Y106000D02*
D03*
X184400Y71500D02*
D03*
X183800Y91300D02*
D03*
D56*
X-0Y177165D02*
D03*
X177165D02*
D03*
Y-0D02*
D03*
X-0D02*
D03*
D57*
X-29528Y158780D02*
D03*
Y148779D02*
D03*
X-27559Y40669D02*
D03*
Y30669D02*
D03*
X206693Y28701D02*
D03*
Y38701D02*
D03*
X200787Y177008D02*
D03*
X178149Y146811D02*
D03*
Y156811D02*
D03*
D58*
X-29528Y138779D02*
D03*
X-27559Y20669D02*
D03*
X206693Y18701D02*
D03*
X200787Y187008D02*
D03*
X178149Y136811D02*
D03*
D59*
X69882Y126969D02*
D03*
X95473D02*
D03*
X69882Y144685D02*
D03*
X95473D02*
D03*
X30512Y126969D02*
D03*
X56102D02*
D03*
X30512Y144685D02*
D03*
X56102D02*
D03*
X53150Y8858D02*
D03*
X27559D02*
D03*
X53150Y-8858D02*
D03*
X27559D02*
D03*
D60*
X-25591Y62992D02*
D03*
Y67913D02*
D03*
Y72835D02*
D03*
Y77756D02*
D03*
D61*
X21654Y-32638D02*
D03*
Y-22638D02*
D03*
X31653Y-32638D02*
D03*
Y-22638D02*
D03*
X41653Y-32638D02*
D03*
Y-22638D02*
D03*
X51653Y-32638D02*
D03*
D62*
Y-22638D02*
D03*
D63*
X-24606Y-24606D02*
D03*
Y-19685D02*
D03*
Y-14764D02*
D03*
Y-9842D02*
D03*
Y-4921D02*
D03*
Y-0D02*
D03*
D64*
X202756Y156496D02*
D03*
Y146653D02*
D03*
Y136811D02*
D03*
D65*
Y126969D02*
D03*
D66*
X102362Y207677D02*
D03*
X97441D02*
D03*
X92520D02*
D03*
X87599D02*
D03*
D67*
X143701Y210630D02*
D03*
X171260D02*
D03*
D68*
X147638Y200000D02*
D03*
X167323D02*
D03*
D69*
X99410Y165354D02*
D03*
Y184646D02*
D03*
X113189Y40945D02*
D03*
Y21654D02*
D03*
D70*
X131890Y-26575D02*
D03*
X136811D02*
D03*
X141732D02*
D03*
X146653D02*
D03*
X151575D02*
D03*
X156496D02*
D03*
D71*
X78740Y103543D02*
D03*
D72*
X29528Y66299D02*
D03*
Y76299D02*
D03*
Y86299D02*
D03*
Y96299D02*
D03*
D73*
Y106299D02*
D03*
D74*
X-30512Y206693D02*
D03*
X-17717D02*
D03*
D75*
X71850Y53150D02*
D03*
X68898Y50197D02*
D03*
Y46260D02*
D03*
X62992Y47244D02*
D03*
X105200Y61900D02*
D03*
X141300Y49900D02*
D03*
X130315Y48228D02*
D03*
X129800Y56200D02*
D03*
X105400Y55100D02*
D03*
X106299Y48228D02*
D03*
X102362D02*
D03*
X130734Y60600D02*
D03*
X132874Y148622D02*
D03*
X139764Y147638D02*
D03*
X128075Y175319D02*
D03*
X130905Y173228D02*
D03*
X122600Y173700D02*
D03*
X56000Y45100D02*
D03*
X72700Y46500D02*
D03*
X86614Y50197D02*
D03*
X78740Y52165D02*
D03*
X86614Y54134D02*
D03*
X80300Y57000D02*
D03*
X99300Y58200D02*
D03*
X101300Y55200D02*
D03*
X123100Y12700D02*
D03*
X122000Y6800D02*
D03*
X40400Y178900D02*
D03*
X96778Y101078D02*
D03*
X73400Y89000D02*
D03*
X76300Y72400D02*
D03*
X60100Y71900D02*
D03*
X72158Y64622D02*
D03*
X-29331Y111221D02*
D03*
X48228Y33465D02*
D03*
X82677Y27559D02*
D03*
X161417Y162402D02*
D03*
X-3937Y34449D02*
D03*
X208661Y119095D02*
D03*
X24606Y28543D02*
D03*
X131890Y207677D02*
D03*
X150591Y195866D02*
D03*
X49213Y15748D02*
D03*
X12795D02*
D03*
X95472Y73819D02*
D03*
X97441Y35433D02*
D03*
X116142Y77756D02*
D03*
X42323Y71851D02*
D03*
X48228Y73425D02*
D03*
X9843Y97441D02*
D03*
X72835Y21654D02*
D03*
X67913Y6890D02*
D03*
X-22638Y106299D02*
D03*
Y125984D02*
D03*
X121063Y72835D02*
D03*
X101378Y23622D02*
D03*
X162402Y55118D02*
D03*
X95472Y88583D02*
D03*
X88582Y34449D02*
D03*
X124016Y33465D02*
D03*
X89596Y160433D02*
D03*
X91535Y93504D02*
D03*
X96457D02*
D03*
X138779Y209646D02*
D03*
X164370Y204528D02*
D03*
X62008Y26575D02*
D03*
X27559D02*
D03*
X59055Y23622D02*
D03*
X24606D02*
D03*
X156496Y29528D02*
D03*
X161417Y9843D02*
D03*
X84646Y63976D02*
D03*
X56102Y41339D02*
D03*
X60039Y43307D02*
D03*
X67913Y90551D02*
D03*
X93504Y30512D02*
D03*
X87598Y60039D02*
D03*
X49213Y178150D02*
D03*
X55118Y91535D02*
D03*
X57874Y178150D02*
D03*
X25591Y195866D02*
D03*
X44882Y159449D02*
D03*
X27559D02*
D03*
X23819Y149606D02*
D03*
X57874Y159449D02*
D03*
X135827Y146653D02*
D03*
X99410Y151575D02*
D03*
X102362Y71850D02*
D03*
X121063Y96457D02*
D03*
X157480Y166339D02*
D03*
X133858Y176181D02*
D03*
X4921Y24606D02*
D03*
X87598Y66929D02*
D03*
X31201Y178839D02*
D03*
X118110Y47244D02*
D03*
X165354Y59055D02*
D03*
X121063Y66929D02*
D03*
X120079Y106299D02*
D03*
Y155512D02*
D03*
X74900Y42000D02*
D03*
X22900Y71700D02*
D03*
X2000Y66900D02*
D03*
X44700Y136600D02*
D03*
X35000Y137600D02*
D03*
X123300Y-31500D02*
D03*
D76*
X91535Y1969D02*
D03*
M02*
