M48
;Layer_Color=9474304
;FILE_FORMAT=2:5
INCH,TZ
;TYPE=PLATED
T1F00S00C0.01575
T2F00S00C0.02362
T3F00S00C0.03346
T4F00S00C0.03937
T5F00S00C0.04724
T6F00S00C0.05118
T7F00S00C0.09843
T8F00S00C0.11811
T9F00S00C0.15748
%
T01
X67913Y6890
X91535Y1969
X122000Y6800
X123300Y-31500
X208661Y119095
X161417Y162402
X156496
X139764Y147638
X135827Y146653
X132874Y148622
X120079Y155512
X99410Y151575
X89596Y160433
X57874Y159449
X44882
X44700Y136600
X55118Y91535
X67913Y90551
X73400Y89000
X76300Y72400
X72158Y64622
X71850Y53150
X68898Y50197
Y46260
X72700Y46500
X74900Y42000
X78740Y52165
X80300Y57000
X86614Y54134
X86614Y50197
X87598Y60039
Y66929
X84646Y63976
X99300Y58200
X101300Y55200
X105400Y55100
X105200Y61900
X102362Y71850
X95472Y73819
Y88583
X96457Y93504
X91535
X96778Y101078
X120079Y106299
X121063Y96457
X116142Y77756
X121063Y72835
Y66929
X130734Y60600
X129800Y56200
X130315Y48228
X141300Y49900
X118110Y47244
X106299Y48228
X102362
X97441Y35433
X93504Y30512
X88582Y34449
X82677Y27559
X72835Y21654
X62008Y26575
X59055Y23622
X49213Y15748
X48228Y33465
X56102Y41339
X56000Y45100
X60039Y43307
X62992Y47244
X60100Y71900
X48228Y73425
X42323Y71851
X101378Y23622
X124016Y33465
X123100Y12700
X161417Y9843
X156496Y29528
X162402Y55118
X165354Y59055
X22900Y71700
X2000Y66900
X9843Y97441
X-22638Y106299
X-29331Y111221
X-22638Y125984
X35000Y137600
X23819Y149606
X27559Y159449
X27559Y26575
X24606Y28543
Y23622
X12795Y15748
X4921Y24606
X-3937Y34449
X31201Y178839
X40400Y178900
X25591Y195866
X49213Y178150
X57874
X122600Y173700
X128075Y175319
X130905Y173228
X133858Y176181
X157480Y166339
X150591Y195866
X164370Y204528
X138779Y209646
X131890Y207677
T02
X-24606Y-24606
Y-19685
Y-14764
Y-9842
Y-4921
Y-0
X131890Y-26575
X136811
X141732
X146653
X151575
X156496
X113189Y21654
Y40945
X-25591Y62992
Y67913
Y72835
Y77756
X99410Y165354
Y184646
X97441Y207677
X102362
X92520
X87599
X143701Y210630
X171260
T03
X147638Y200000
X167323
T04
X21654Y-32638
Y-22638
X31653
Y-32638
X27559Y-8858
X53150
X51653Y-22638
X41653
Y-32638
X51653
X206693Y18701
Y28701
Y38701
X178149Y136811
Y146811
Y156811
X95473Y144685
Y126969
X69882
X56102
Y144685
X69882
X53150Y8858
X27559
X-27559Y20669
Y30669
Y40669
X-29528Y138779
Y148779
Y158780
X30512Y144685
Y126969
X200787Y177008
Y187008
T05
X77244Y-32972
Y-22973
X87244
Y-32972
X97244
Y-22973
X107244
Y-32972
X29528Y66299
Y76299
Y86299
Y96299
Y106299
X-17717Y196693
Y206693
X-30512
Y196693
T06
X126969Y-4921
X191929Y-31496
X202756Y126969
Y136811
Y146653
Y156496
X116142Y136811
X76200Y117500
X62100Y117400
X136700Y8000
X-6890Y28543
X-4921Y53150
T07
X-0Y-0
X177165
X-0Y177165
X177165
T08
X78740Y103543
T09
X203800Y56300
X203530Y106000
X183800Y91300
X184400Y71500
M30
