G04*
G04 #@! TF.GenerationSoftware,Altium Limited,Altium Designer,19.1.1 (5)*
G04*
G04 Layer_Physical_Order=2*
G04 Layer_Color=36540*
%FSLAX25Y25*%
%MOIN*%
G70*
G01*
G75*
%ADD12C,0.01000*%
%ADD77C,0.01181*%
%ADD79C,0.02000*%
%ADD80C,0.01500*%
%ADD87C,0.07874*%
%ADD89R,0.07480X0.07480*%
%ADD90R,0.07480X0.07480*%
%ADD93O,0.07874X0.06299*%
%ADD95O,0.06299X0.09843*%
%ADD97O,0.06299X0.07874*%
%ADD99O,0.06299X0.04134*%
%ADD102O,0.04134X0.05906*%
%ADD106O,0.04134X0.06299*%
%ADD109R,0.07874X0.07480*%
%ADD111C,0.02800*%
G36*
X215414Y-38249D02*
X108649D01*
X108533Y-37782D01*
X109734Y-37285D01*
X110765Y-36494D01*
X111556Y-35462D01*
X112054Y-34261D01*
X112158Y-33472D01*
X107244D01*
Y-32472D01*
X112158D01*
X112054Y-31684D01*
X111556Y-30483D01*
X110765Y-29451D01*
X109734Y-28660D01*
X108533Y-28163D01*
X107746Y-28059D01*
X107779Y-27559D01*
X111181D01*
X111640Y-27369D01*
X111830Y-26910D01*
Y-19035D01*
X111640Y-18576D01*
X111181Y-18386D01*
X103307D01*
X102848Y-18576D01*
X102658Y-19035D01*
Y-26910D01*
X102848Y-27369D01*
X103307Y-27559D01*
X106710D01*
X106742Y-28059D01*
X105955Y-28163D01*
X104754Y-28660D01*
X103723Y-29451D01*
X102931Y-30483D01*
X102434Y-31684D01*
X102300Y-32703D01*
X102294Y-32744D01*
X101790D01*
X101785Y-32703D01*
X101664Y-31788D01*
X101207Y-30684D01*
X100480Y-29737D01*
X99532Y-29009D01*
X98428Y-28552D01*
X97244Y-28396D01*
X96060Y-28552D01*
X94956Y-29009D01*
X94008Y-29737D01*
X93281Y-30684D01*
X92824Y-31788D01*
X92668Y-32972D01*
X92824Y-34157D01*
X93281Y-35260D01*
X94008Y-36208D01*
X94956Y-36935D01*
X96060Y-37393D01*
X97244Y-37549D01*
X98428Y-37393D01*
X99532Y-36935D01*
X100480Y-36208D01*
X101207Y-35260D01*
X101664Y-34157D01*
X101785Y-33242D01*
X101790Y-33201D01*
X102294D01*
X102300Y-33242D01*
X102434Y-34261D01*
X102931Y-35462D01*
X103723Y-36494D01*
X104754Y-37285D01*
X105955Y-37782D01*
X105839Y-38249D01*
X-38249D01*
Y215414D01*
X215414D01*
Y-38249D01*
D02*
G37*
%LPC*%
G36*
X143701Y214403D02*
X142979Y214308D01*
X142306Y214030D01*
X141728Y213586D01*
X141285Y213009D01*
X141007Y212336D01*
X140911Y211614D01*
Y210955D01*
X140411Y210803D01*
X140222Y211088D01*
X139560Y211530D01*
X138779Y211685D01*
X137999Y211530D01*
X137338Y211088D01*
X136896Y210426D01*
X136740Y209646D01*
X136896Y208865D01*
X137338Y208204D01*
X137999Y207762D01*
X138779Y207607D01*
X139560Y207762D01*
X140222Y208204D01*
X140556Y208705D01*
X141090Y208696D01*
X141103Y208691D01*
X141285Y208251D01*
X141728Y207673D01*
X142306Y207230D01*
X142979Y206951D01*
X143701Y206856D01*
X144423Y206951D01*
X145095Y207230D01*
X145673Y207673D01*
X146116Y208251D01*
X146395Y208924D01*
X146490Y209646D01*
Y211614D01*
X146395Y212336D01*
X146116Y213009D01*
X145673Y213586D01*
X145095Y214030D01*
X144423Y214308D01*
X143701Y214403D01*
D02*
G37*
G36*
X102362Y211253D02*
X101666Y211161D01*
X101017Y210893D01*
X100460Y210465D01*
X100202Y210129D01*
X100178Y210117D01*
X99625D01*
X99601Y210129D01*
X99343Y210465D01*
X98786Y210893D01*
X98137Y211161D01*
X97441Y211253D01*
X96745Y211161D01*
X96096Y210893D01*
X95539Y210465D01*
X95281Y210129D01*
X95257Y210117D01*
X94704D01*
X94679Y210129D01*
X94422Y210465D01*
X93865Y210893D01*
X93216Y211161D01*
X92520Y211253D01*
X91824Y211161D01*
X91175Y210893D01*
X90618Y210465D01*
X90360Y210129D01*
X90336Y210117D01*
X89783D01*
X89758Y210129D01*
X89501Y210465D01*
X88943Y210893D01*
X88295Y211161D01*
X87599Y211253D01*
X86902Y211161D01*
X86253Y210893D01*
X85697Y210465D01*
X85269Y209908D01*
X85000Y209259D01*
X84909Y208563D01*
Y206791D01*
X85000Y206095D01*
X85269Y205446D01*
X85697Y204889D01*
X86253Y204462D01*
X86902Y204193D01*
X87599Y204101D01*
X88295Y204193D01*
X88943Y204462D01*
X89501Y204889D01*
X89758Y205225D01*
X89783Y205238D01*
X90336D01*
X90360Y205225D01*
X90618Y204889D01*
X91175Y204462D01*
X91398Y204369D01*
Y195884D01*
X81268Y185755D01*
X81025Y185391D01*
X80940Y184961D01*
X80940Y184961D01*
Y121701D01*
X80440Y121602D01*
X80399Y121699D01*
X79940Y121890D01*
X72553D01*
X72383Y122170D01*
X72333Y122352D01*
X72556Y122523D01*
X73157Y123306D01*
X73535Y124218D01*
X73664Y125197D01*
Y128740D01*
X73535Y129719D01*
X73157Y130631D01*
X72556Y131414D01*
X71773Y132016D01*
X70861Y132393D01*
X69882Y132522D01*
X68903Y132393D01*
X67991Y132016D01*
X67208Y131414D01*
X66607Y130631D01*
X66229Y129719D01*
X66100Y128740D01*
Y125197D01*
X66229Y124218D01*
X66607Y123306D01*
X67208Y122523D01*
X67991Y121922D01*
X68903Y121544D01*
X69882Y121415D01*
X70861Y121544D01*
X71506Y121811D01*
X71888Y121428D01*
X71810Y121240D01*
Y113760D01*
X72001Y113301D01*
X72460Y113110D01*
X75973D01*
X76048Y112610D01*
X75103Y112324D01*
X73460Y111446D01*
X72020Y110264D01*
X70838Y108824D01*
X69960Y107180D01*
X69419Y105397D01*
X69236Y103543D01*
X69419Y101689D01*
X69960Y99906D01*
X70838Y98263D01*
X72020Y96823D01*
X73460Y95641D01*
X75103Y94763D01*
X76886Y94222D01*
X78740Y94039D01*
X80594Y94222D01*
X82377Y94763D01*
X84020Y95641D01*
X85461Y96823D01*
X86642Y98263D01*
X87521Y99906D01*
X88062Y101689D01*
X88244Y103543D01*
X88062Y105397D01*
X87521Y107180D01*
X86642Y108824D01*
X85461Y110264D01*
X84020Y111446D01*
X82377Y112324D01*
X80611Y112859D01*
X80564Y112962D01*
X80433Y113383D01*
X80590Y113760D01*
Y120086D01*
X80597Y120089D01*
X81090Y120169D01*
X81268Y119901D01*
X89430Y111740D01*
Y96921D01*
X83853Y91344D01*
X83609Y90980D01*
X83524Y90551D01*
X83524Y90551D01*
Y65632D01*
X83204Y65418D01*
X82762Y64757D01*
X82607Y63976D01*
X82762Y63196D01*
X83204Y62534D01*
X83865Y62092D01*
X84646Y61937D01*
X85426Y62092D01*
X86088Y62534D01*
X86530Y63196D01*
X86685Y63976D01*
X86556Y64626D01*
X86645Y64770D01*
X86805Y64930D01*
X86948Y65019D01*
X87598Y64890D01*
X88379Y65045D01*
X89040Y65487D01*
X89482Y66149D01*
X89638Y66929D01*
X89482Y67709D01*
X89040Y68371D01*
X88379Y68813D01*
X87598Y68968D01*
X86818Y68813D01*
X86267Y68445D01*
X85767Y68620D01*
Y90087D01*
X89019Y93339D01*
X89562Y93174D01*
X89652Y92724D01*
X90093Y92062D01*
X90755Y91620D01*
X91535Y91465D01*
X92316Y91620D01*
X92977Y92062D01*
X93419Y92724D01*
X93575Y93504D01*
X93419Y94284D01*
X92977Y94946D01*
X92316Y95388D01*
X91826Y95485D01*
X91585Y96024D01*
X91587Y96027D01*
X91673Y96457D01*
Y111107D01*
X92135Y111298D01*
X99978Y103454D01*
Y92706D01*
X97263Y89990D01*
X96914Y90025D01*
X96253Y90467D01*
X95472Y90622D01*
X94692Y90467D01*
X94030Y90025D01*
X93589Y89363D01*
X93433Y88583D01*
X93589Y87802D01*
X94030Y87141D01*
X94692Y86699D01*
X95472Y86544D01*
X96253Y86699D01*
X96914Y87141D01*
X97128Y87461D01*
X97441D01*
X97441Y87461D01*
X97870Y87546D01*
X98234Y87790D01*
X101893Y91449D01*
X101893Y91449D01*
X102136Y91812D01*
X102222Y92242D01*
X102222Y92242D01*
Y103919D01*
X102222Y103919D01*
X102136Y104348D01*
X101893Y104712D01*
X101893Y104712D01*
X84783Y121822D01*
Y183591D01*
X94993Y193801D01*
X94993Y193801D01*
X95236Y194165D01*
X95322Y194594D01*
Y203528D01*
X96208Y204415D01*
X96745Y204193D01*
X97441Y204101D01*
X98137Y204193D01*
X98786Y204462D01*
X99343Y204889D01*
X99601Y205225D01*
X99625Y205238D01*
X100178D01*
X100202Y205225D01*
X100460Y204889D01*
X101017Y204462D01*
X101666Y204193D01*
X102362Y204101D01*
X103058Y204193D01*
X103707Y204462D01*
X104264Y204889D01*
X104692Y205446D01*
X104960Y206095D01*
X105052Y206791D01*
Y208563D01*
X104960Y209259D01*
X104692Y209908D01*
X104264Y210465D01*
X103707Y210893D01*
X103058Y211161D01*
X102362Y211253D01*
D02*
G37*
G36*
X171260Y214403D02*
X170538Y214308D01*
X169865Y214030D01*
X169288Y213586D01*
X168844Y213009D01*
X168566Y212336D01*
X168471Y211614D01*
Y209646D01*
X168566Y208924D01*
X168844Y208251D01*
X169288Y207673D01*
X169865Y207230D01*
X170538Y206951D01*
X171260Y206856D01*
X171982Y206951D01*
X172654Y207230D01*
X173232Y207673D01*
X173676Y208251D01*
X173954Y208924D01*
X174049Y209646D01*
Y211614D01*
X173954Y212336D01*
X173676Y213009D01*
X173232Y213586D01*
X172654Y214030D01*
X171982Y214308D01*
X171260Y214403D01*
D02*
G37*
G36*
X131890Y209716D02*
X131109Y209561D01*
X130448Y209119D01*
X130006Y208457D01*
X129851Y207677D01*
X130006Y206897D01*
X130448Y206235D01*
X131109Y205793D01*
X131890Y205638D01*
X132670Y205793D01*
X133332Y206235D01*
X133774Y206897D01*
X133929Y207677D01*
X133774Y208457D01*
X133332Y209119D01*
X132670Y209561D01*
X131890Y209716D01*
D02*
G37*
G36*
X-13780Y211279D02*
X-21654D01*
X-22113Y211089D01*
X-22303Y210630D01*
Y202756D01*
X-22113Y202297D01*
X-21654Y202106D01*
X-13780D01*
X-13320Y202297D01*
X-13130Y202756D01*
Y210630D01*
X-13320Y211089D01*
X-13780Y211279D01*
D02*
G37*
G36*
X-26575D02*
X-34449D01*
X-34908Y211089D01*
X-35098Y210630D01*
Y202756D01*
X-34908Y202297D01*
X-34449Y202106D01*
X-26575D01*
X-26116Y202297D01*
X-25925Y202756D01*
Y210630D01*
X-26116Y211089D01*
X-26575Y211279D01*
D02*
G37*
G36*
X164370Y206567D02*
X163590Y206412D01*
X162928Y205970D01*
X162486Y205308D01*
X162331Y204528D01*
X162486Y203747D01*
X162928Y203086D01*
X163590Y202644D01*
X164264Y202509D01*
X164452Y202201D01*
X164508Y202006D01*
X164306Y201742D01*
X163958Y200902D01*
X163839Y200000D01*
X163958Y199098D01*
X164306Y198258D01*
X164859Y197536D01*
X165581Y196983D01*
X166421Y196634D01*
X167323Y196516D01*
X168225Y196634D01*
X169065Y196983D01*
X169787Y197536D01*
X170340Y198258D01*
X170688Y199098D01*
X170807Y200000D01*
X170688Y200902D01*
X170340Y201742D01*
X169787Y202464D01*
X169065Y203017D01*
X168225Y203365D01*
X167323Y203484D01*
X166618Y203391D01*
X166438Y203567D01*
X166284Y203785D01*
X166270Y203827D01*
X166409Y204528D01*
X166254Y205308D01*
X165812Y205970D01*
X165150Y206412D01*
X164370Y206567D01*
D02*
G37*
G36*
X147638Y203484D02*
X146736Y203365D01*
X145896Y203017D01*
X145174Y202464D01*
X144620Y201742D01*
X144272Y200902D01*
X144154Y200000D01*
X144272Y199098D01*
X144620Y198258D01*
X145174Y197536D01*
X145896Y196983D01*
X146736Y196634D01*
X147638Y196516D01*
X148185Y196588D01*
X148606Y196139D01*
X148551Y195866D01*
X148707Y195086D01*
X149149Y194424D01*
X149810Y193982D01*
X150591Y193827D01*
X151371Y193982D01*
X152032Y194424D01*
X152474Y195086D01*
X152630Y195866D01*
X152474Y196646D01*
X152032Y197308D01*
X151371Y197750D01*
X150959Y197832D01*
X150846Y197990D01*
X150710Y198391D01*
X151003Y199098D01*
X151122Y200000D01*
X151003Y200902D01*
X150655Y201742D01*
X150101Y202464D01*
X149380Y203017D01*
X148539Y203365D01*
X147638Y203484D01*
D02*
G37*
G36*
X25591Y197905D02*
X24810Y197750D01*
X24149Y197308D01*
X23707Y196646D01*
X23551Y195866D01*
X23707Y195086D01*
X24149Y194424D01*
X24810Y193982D01*
X25591Y193827D01*
X26371Y193982D01*
X27033Y194424D01*
X27474Y195086D01*
X27630Y195866D01*
X27474Y196646D01*
X27033Y197308D01*
X26371Y197750D01*
X25591Y197905D01*
D02*
G37*
G36*
X-17717Y201269D02*
X-18901Y201113D01*
X-20005Y200656D01*
X-20952Y199929D01*
X-21680Y198981D01*
X-22137Y197877D01*
X-22293Y196693D01*
X-22137Y195509D01*
X-21680Y194405D01*
X-20952Y193457D01*
X-20005Y192730D01*
X-18901Y192273D01*
X-17717Y192117D01*
X-16532Y192273D01*
X-15428Y192730D01*
X-14481Y193457D01*
X-13754Y194405D01*
X-13296Y195509D01*
X-13140Y196693D01*
X-13296Y197877D01*
X-13754Y198981D01*
X-14481Y199929D01*
X-15428Y200656D01*
X-16532Y201113D01*
X-17717Y201269D01*
D02*
G37*
G36*
X-30512D02*
X-31696Y201113D01*
X-32800Y200656D01*
X-33748Y199929D01*
X-34475Y198981D01*
X-34932Y197877D01*
X-35088Y196693D01*
X-34932Y195509D01*
X-34475Y194405D01*
X-33748Y193457D01*
X-32800Y192730D01*
X-31696Y192273D01*
X-30512Y192117D01*
X-29327Y192273D01*
X-28224Y192730D01*
X-27276Y193457D01*
X-26549Y194405D01*
X-26092Y195509D01*
X-25936Y196693D01*
X-26092Y197877D01*
X-26549Y198981D01*
X-27276Y199929D01*
X-28224Y200656D01*
X-29327Y201113D01*
X-30512Y201269D01*
D02*
G37*
G36*
X204725Y190807D02*
X196851D01*
X196391Y190617D01*
X196201Y190157D01*
Y183858D01*
X196391Y183399D01*
X196851Y183209D01*
X204725D01*
X205184Y183399D01*
X205374Y183858D01*
Y190157D01*
X205184Y190617D01*
X204725Y190807D01*
D02*
G37*
G36*
X99410Y187634D02*
X98636Y187532D01*
X97916Y187233D01*
X97297Y186758D01*
X96822Y186140D01*
X96524Y185419D01*
X96422Y184646D01*
X96524Y183872D01*
X96822Y183152D01*
X97297Y182533D01*
X97916Y182058D01*
X98636Y181760D01*
X99410Y181658D01*
X100183Y181760D01*
X100903Y182058D01*
X101522Y182533D01*
X101997Y183152D01*
X102295Y183872D01*
X102397Y184646D01*
X102295Y185419D01*
X101997Y186140D01*
X101522Y186758D01*
X100903Y187233D01*
X100183Y187532D01*
X99410Y187634D01*
D02*
G37*
G36*
X40400Y180939D02*
X39620Y180784D01*
X38958Y180342D01*
X38516Y179680D01*
X38361Y178900D01*
X38516Y178120D01*
X38958Y177458D01*
X39620Y177016D01*
X40400Y176861D01*
X41180Y177016D01*
X41842Y177458D01*
X42284Y178120D01*
X42439Y178900D01*
X42284Y179680D01*
X41842Y180342D01*
X41180Y180784D01*
X40400Y180939D01*
D02*
G37*
G36*
X31201Y180878D02*
X30420Y180722D01*
X29759Y180280D01*
X29317Y179619D01*
X29162Y178839D01*
X29317Y178058D01*
X29759Y177397D01*
X30420Y176955D01*
X31201Y176799D01*
X31981Y176955D01*
X32643Y177397D01*
X33085Y178058D01*
X33240Y178839D01*
X33085Y179619D01*
X32643Y180280D01*
X31981Y180722D01*
X31201Y180878D01*
D02*
G37*
G36*
X57874Y180189D02*
X57094Y180034D01*
X56432Y179592D01*
X55990Y178930D01*
X55835Y178150D01*
X55990Y177369D01*
X56432Y176708D01*
X57094Y176266D01*
X57874Y176110D01*
X58654Y176266D01*
X59316Y176708D01*
X59758Y177369D01*
X59913Y178150D01*
X59758Y178930D01*
X59316Y179592D01*
X58654Y180034D01*
X57874Y180189D01*
D02*
G37*
G36*
X49213D02*
X48432Y180034D01*
X47771Y179592D01*
X47329Y178930D01*
X47174Y178150D01*
X47329Y177369D01*
X47771Y176708D01*
X48432Y176266D01*
X49213Y176110D01*
X49993Y176266D01*
X50655Y176708D01*
X51097Y177369D01*
X51252Y178150D01*
X51097Y178930D01*
X50655Y179592D01*
X49993Y180034D01*
X49213Y180189D01*
D02*
G37*
G36*
X177165Y191589D02*
X174909Y191412D01*
X172708Y190883D01*
X170617Y190017D01*
X168687Y188835D01*
X166966Y187365D01*
X165496Y185644D01*
X164313Y183714D01*
X163447Y181623D01*
X162919Y179422D01*
X162741Y177165D01*
X162919Y174909D01*
X163447Y172708D01*
X164313Y170617D01*
X165496Y168687D01*
X166966Y166966D01*
X168687Y165496D01*
X170617Y164313D01*
X172708Y163447D01*
X173348Y163294D01*
X173288Y162794D01*
X166909D01*
X152548Y177154D01*
X152102Y177453D01*
X151575Y177558D01*
X135344D01*
X135300Y177623D01*
X134639Y178065D01*
X133858Y178220D01*
X133078Y178065D01*
X132416Y177623D01*
X132396Y177621D01*
X130895Y179123D01*
X130448Y179421D01*
X129921Y179526D01*
X121850D01*
X121850Y179526D01*
X121323Y179421D01*
X120876Y179123D01*
X120876Y179123D01*
X103357Y161604D01*
X103059Y161158D01*
X102954Y160631D01*
Y136397D01*
X98048Y131490D01*
X97364Y132016D01*
X96451Y132393D01*
X95473Y132522D01*
X94494Y132393D01*
X93581Y132016D01*
X92798Y131414D01*
X92197Y130631D01*
X91819Y129719D01*
X91691Y128740D01*
Y125197D01*
X91819Y124218D01*
X92197Y123306D01*
X92798Y122523D01*
X93581Y121922D01*
X94494Y121544D01*
X95473Y121415D01*
X96451Y121544D01*
X97364Y121922D01*
X98147Y122523D01*
X98748Y123306D01*
X99126Y124218D01*
X99255Y125197D01*
Y128740D01*
X99247Y128797D01*
X105304Y134853D01*
X105602Y135300D01*
X105707Y135827D01*
Y160061D01*
X120228Y174581D01*
X120687Y174333D01*
X120561Y173700D01*
X120716Y172920D01*
X121158Y172258D01*
X121820Y171816D01*
X121887Y171803D01*
X124863Y168827D01*
Y62992D01*
X124863Y62992D01*
X124948Y62563D01*
X125191Y62199D01*
X127583Y59807D01*
X127583Y59807D01*
X127947Y59564D01*
X128376Y59478D01*
X129078D01*
X129292Y59158D01*
X129954Y58716D01*
X129851Y58229D01*
X129800Y58239D01*
X129020Y58084D01*
X128358Y57642D01*
X127916Y56980D01*
X127761Y56200D01*
X127916Y55420D01*
X128358Y54758D01*
X128358Y54157D01*
X127923Y53722D01*
X107415D01*
X107179Y54163D01*
X107284Y54320D01*
X107439Y55100D01*
X107284Y55880D01*
X106842Y56542D01*
X106180Y56984D01*
X105400Y57139D01*
X104620Y56984D01*
X103958Y56542D01*
X103661Y56098D01*
X103556Y56072D01*
X103092Y56118D01*
X102742Y56642D01*
X102080Y57084D01*
X101607Y57178D01*
X101286Y57362D01*
X101244Y57721D01*
X101339Y58200D01*
X101292Y58437D01*
X103220Y60365D01*
X103220Y60365D01*
X103597Y60430D01*
X103845Y60400D01*
X104420Y60016D01*
X105200Y59861D01*
X105980Y60016D01*
X106642Y60458D01*
X107084Y61120D01*
X107239Y61900D01*
X107084Y62680D01*
X106642Y63342D01*
X105980Y63784D01*
X105200Y63939D01*
X104420Y63784D01*
X104076Y63554D01*
X103576Y63822D01*
Y70256D01*
X103804Y70408D01*
X104246Y71070D01*
X104401Y71850D01*
X104246Y72631D01*
X103804Y73292D01*
X103143Y73734D01*
X102362Y73890D01*
X101582Y73734D01*
X100920Y73292D01*
X100478Y72631D01*
X100323Y71850D01*
X100478Y71070D01*
X100920Y70408D01*
X101148Y70256D01*
Y61726D01*
X99601Y60179D01*
X99300Y60239D01*
X98520Y60084D01*
X97858Y59642D01*
X97416Y58980D01*
X97261Y58200D01*
X97416Y57420D01*
X97858Y56758D01*
X98520Y56316D01*
X98993Y56222D01*
X99314Y56038D01*
X99356Y55679D01*
X99261Y55200D01*
X99416Y54420D01*
X99534Y54243D01*
X99298Y53803D01*
X96972D01*
X96543Y53717D01*
X96179Y53474D01*
X96179Y53474D01*
X93157Y50452D01*
X92657Y50659D01*
Y73108D01*
X93157Y73158D01*
X93212Y72882D01*
X93742Y72089D01*
X94536Y71558D01*
X94972Y71471D01*
Y73819D01*
X95472D01*
Y74319D01*
X97820D01*
X97733Y74755D01*
X97203Y75549D01*
X96409Y76080D01*
X95472Y76266D01*
X95246Y76221D01*
X95000Y76682D01*
X112013Y93695D01*
X112257Y94059D01*
X112342Y94488D01*
X112342Y94488D01*
Y96976D01*
X119701Y104335D01*
X120079Y104260D01*
X120859Y104415D01*
X121521Y104857D01*
X121963Y105519D01*
X122118Y106299D01*
X121963Y107080D01*
X121521Y107741D01*
X120859Y108183D01*
X120079Y108338D01*
X119298Y108183D01*
X118637Y107741D01*
X118195Y107080D01*
X118040Y106299D01*
X118115Y105921D01*
X110427Y98234D01*
X110184Y97870D01*
X110099Y97441D01*
X110099Y97441D01*
Y94953D01*
X90742Y75596D01*
X90499Y75232D01*
X90414Y74803D01*
X90414Y74803D01*
Y50661D01*
X89077Y49325D01*
X88984Y49343D01*
X88598Y49918D01*
X88653Y50197D01*
X88498Y50977D01*
X88056Y51639D01*
X87718Y51865D01*
Y52466D01*
X88056Y52692D01*
X88498Y53353D01*
X88653Y54134D01*
X88498Y54914D01*
X88056Y55576D01*
X87394Y56018D01*
X86614Y56173D01*
X85834Y56018D01*
X85172Y55576D01*
X84730Y54914D01*
X84575Y54134D01*
X84730Y53353D01*
X85172Y52692D01*
X85510Y52466D01*
Y51865D01*
X85172Y51639D01*
X84730Y50977D01*
X84575Y50197D01*
X84730Y49417D01*
X85172Y48755D01*
X85834Y48313D01*
X86614Y48158D01*
X86893Y48213D01*
X87253Y48019D01*
X87313Y47901D01*
X87090Y47622D01*
X74356D01*
X74142Y47942D01*
X73480Y48384D01*
X72700Y48539D01*
X71920Y48384D01*
X71258Y47942D01*
X71019Y47585D01*
X70418D01*
X70340Y47702D01*
X70002Y47928D01*
Y48529D01*
X70340Y48755D01*
X70782Y49417D01*
X70937Y50197D01*
X70807Y50847D01*
X70897Y50990D01*
X71057Y51150D01*
X71200Y51240D01*
X71850Y51110D01*
X72631Y51266D01*
X73292Y51708D01*
X73734Y52369D01*
X73890Y53150D01*
X73734Y53930D01*
X73292Y54592D01*
X72631Y55034D01*
X71850Y55189D01*
X71070Y55034D01*
X70408Y54592D01*
X69966Y53930D01*
X69811Y53150D01*
X69941Y52500D01*
X69851Y52356D01*
X69691Y52196D01*
X69548Y52107D01*
X68898Y52236D01*
X68117Y52081D01*
X67456Y51639D01*
X67322Y51438D01*
X66822Y51590D01*
Y52440D01*
X77093Y62712D01*
X77093Y62712D01*
X77336Y63076D01*
X77422Y63505D01*
Y70744D01*
X77742Y70958D01*
X78184Y71620D01*
X78339Y72400D01*
X78184Y73180D01*
X77742Y73842D01*
X77080Y74284D01*
X76300Y74439D01*
X75520Y74284D01*
X74858Y73842D01*
X74416Y73180D01*
X74261Y72400D01*
X74416Y71620D01*
X74858Y70958D01*
X75178Y70744D01*
Y63969D01*
X64907Y53698D01*
X64664Y53334D01*
X64614Y53082D01*
X64114Y53131D01*
Y83661D01*
X64114Y83661D01*
X64028Y84091D01*
X63785Y84455D01*
X63785Y84455D01*
X57082Y91158D01*
X57157Y91535D01*
X57002Y92316D01*
X56560Y92977D01*
X55898Y93419D01*
X55118Y93575D01*
X54338Y93419D01*
X53676Y92977D01*
X53234Y92316D01*
X53079Y91535D01*
X53234Y90755D01*
X53676Y90093D01*
X54338Y89652D01*
X55118Y89496D01*
X55496Y89571D01*
X61871Y83197D01*
Y73681D01*
X61371Y73456D01*
X60880Y73784D01*
X60100Y73939D01*
X59320Y73784D01*
X58658Y73342D01*
X58216Y72680D01*
X58061Y71900D01*
X58216Y71120D01*
X58658Y70458D01*
X59320Y70016D01*
X60100Y69861D01*
X60880Y70016D01*
X61371Y70344D01*
X61871Y70118D01*
Y48900D01*
X61550Y48686D01*
X61108Y48024D01*
X60953Y47244D01*
X61108Y46464D01*
X61550Y45802D01*
X62212Y45360D01*
X62992Y45205D01*
X63772Y45360D01*
X64078Y45565D01*
X64578Y45297D01*
Y39590D01*
X52357Y27368D01*
X52113Y27004D01*
X52028Y26575D01*
X52028Y26575D01*
Y19685D01*
X52028Y19685D01*
X52113Y19256D01*
X52357Y18892D01*
X56293Y14955D01*
X56294Y14955D01*
X56657Y14712D01*
X57087Y14627D01*
X57087Y14627D01*
X114693D01*
X120509Y8811D01*
X120557Y8254D01*
X120492Y8142D01*
X120116Y7580D01*
X119961Y6800D01*
X120116Y6020D01*
X120558Y5358D01*
X121220Y4916D01*
X122000Y4761D01*
X122780Y4916D01*
X123442Y5358D01*
X123884Y6020D01*
X124039Y6800D01*
X123884Y7580D01*
X123773Y7746D01*
X124040Y8246D01*
X132310D01*
Y4260D01*
X132501Y3801D01*
X132960Y3610D01*
X138204D01*
X145532Y-3718D01*
Y-23070D01*
X145308Y-23162D01*
X144751Y-23590D01*
X144494Y-23926D01*
X144469Y-23938D01*
X143916D01*
X143892Y-23926D01*
X143634Y-23590D01*
X143077Y-23162D01*
X142429Y-22894D01*
X141732Y-22802D01*
X141036Y-22894D01*
X140387Y-23162D01*
X139830Y-23590D01*
X139573Y-23926D01*
X139548Y-23938D01*
X138995D01*
X138971Y-23926D01*
X138713Y-23590D01*
X138156Y-23162D01*
X137507Y-22894D01*
X136811Y-22802D01*
X136115Y-22894D01*
X135466Y-23162D01*
X134909Y-23590D01*
X134651Y-23926D01*
X134627Y-23938D01*
X134074D01*
X134049Y-23926D01*
X133792Y-23590D01*
X133235Y-23162D01*
X132586Y-22894D01*
X131890Y-22802D01*
X131193Y-22894D01*
X130545Y-23162D01*
X129988Y-23590D01*
X129560Y-24147D01*
X129291Y-24796D01*
X129200Y-25492D01*
Y-27657D01*
X129215Y-27776D01*
X128742Y-28010D01*
X115327Y-14594D01*
X114797Y-14241D01*
X114173Y-14117D01*
X55586D01*
X55417Y-13617D01*
X55824Y-13304D01*
X56425Y-12521D01*
X56803Y-11609D01*
X56932Y-10630D01*
Y-7087D01*
X56803Y-6108D01*
X56425Y-5196D01*
X55824Y-4412D01*
X55041Y-3811D01*
X54128Y-3433D01*
X53150Y-3305D01*
X52171Y-3433D01*
X51259Y-3811D01*
X50475Y-4412D01*
X49874Y-5196D01*
X49496Y-6108D01*
X49368Y-7087D01*
Y-10630D01*
X49496Y-11609D01*
X49874Y-12521D01*
X50475Y-13304D01*
X50883Y-13617D01*
X50713Y-14117D01*
X29996D01*
X29826Y-13617D01*
X30233Y-13304D01*
X30834Y-12521D01*
X31212Y-11609D01*
X31341Y-10630D01*
Y-7087D01*
X31212Y-6108D01*
X30834Y-5196D01*
X30233Y-4412D01*
X29450Y-3811D01*
X28538Y-3433D01*
X27559Y-3305D01*
X26580Y-3433D01*
X25668Y-3811D01*
X24885Y-4412D01*
X24284Y-5196D01*
X23906Y-6108D01*
X23777Y-7087D01*
Y-10630D01*
X23906Y-11609D01*
X24284Y-12521D01*
X24885Y-13304D01*
X25668Y-13905D01*
X26580Y-14283D01*
X26946Y-14331D01*
X27125Y-14859D01*
X23449Y-18535D01*
X22632Y-18197D01*
X21654Y-18068D01*
X20675Y-18197D01*
X19763Y-18575D01*
X18979Y-19176D01*
X18378Y-19959D01*
X18000Y-20871D01*
X17872Y-21850D01*
Y-23425D01*
X18000Y-24404D01*
X18378Y-25316D01*
X18979Y-26099D01*
X19763Y-26700D01*
X20675Y-27078D01*
X21654Y-27207D01*
X22632Y-27078D01*
X23544Y-26700D01*
X24328Y-26099D01*
X24929Y-25316D01*
X25307Y-24404D01*
X25436Y-23425D01*
Y-21850D01*
X25355Y-21243D01*
X29219Y-17379D01*
X113497D01*
X128672Y-32553D01*
X129201Y-32907D01*
X129825Y-33031D01*
X155608D01*
X156232Y-32907D01*
X156761Y-32553D01*
X157650Y-31665D01*
X158003Y-31136D01*
X158127Y-30512D01*
X158127Y-30512D01*
Y-29767D01*
X158398Y-29559D01*
X158826Y-29002D01*
X159094Y-28354D01*
X159186Y-27657D01*
Y-25492D01*
X159094Y-24796D01*
X158826Y-24147D01*
X158398Y-23590D01*
X157841Y-23162D01*
X157192Y-22894D01*
X156496Y-22802D01*
X155800Y-22894D01*
X155151Y-23162D01*
X154594Y-23590D01*
X154336Y-23926D01*
X154312Y-23938D01*
X153759D01*
X153735Y-23926D01*
X153477Y-23590D01*
X152920Y-23162D01*
X152271Y-22894D01*
X151575Y-22802D01*
X150879Y-22894D01*
X150230Y-23162D01*
X149673Y-23590D01*
X149415Y-23926D01*
X149390Y-23938D01*
X148838D01*
X148813Y-23926D01*
X148556Y-23590D01*
X147998Y-23162D01*
X147775Y-23070D01*
Y-3254D01*
X147775Y-3254D01*
X147690Y-2824D01*
X147447Y-2461D01*
X147447Y-2460D01*
X140983Y4003D01*
X141090Y4260D01*
Y11740D01*
X140899Y12199D01*
X140440Y12390D01*
X132960D01*
X132501Y12199D01*
X132310Y11740D01*
Y10489D01*
X124291D01*
X124140Y10989D01*
X124542Y11258D01*
X124984Y11920D01*
X125139Y12700D01*
X124984Y13480D01*
X124542Y14142D01*
X123880Y14584D01*
X123100Y14739D01*
X122320Y14584D01*
X121658Y14142D01*
X121216Y13480D01*
X121061Y12700D01*
X121200Y11998D01*
X121008Y11815D01*
X120788Y11704D01*
X115951Y16541D01*
X115587Y16784D01*
X115157Y16870D01*
X115157Y16870D01*
X57551D01*
X54613Y19808D01*
X54623Y19856D01*
X55165Y20020D01*
X57278Y17908D01*
X57278Y17908D01*
X57642Y17665D01*
X58071Y17579D01*
X100394D01*
X100394Y17579D01*
X100823Y17665D01*
X101187Y17908D01*
X120858Y37579D01*
X202311D01*
X202630Y36810D01*
X203231Y36026D01*
X204014Y35425D01*
X204927Y35048D01*
X205906Y34919D01*
X207480D01*
X208459Y35048D01*
X209371Y35425D01*
X210155Y36026D01*
X210756Y36810D01*
X211133Y37722D01*
X211262Y38701D01*
X211133Y39680D01*
X210756Y40592D01*
X210155Y41375D01*
X209371Y41976D01*
X208459Y42354D01*
X207480Y42483D01*
X205906D01*
X204927Y42354D01*
X204014Y41976D01*
X203231Y41375D01*
X202630Y40592D01*
X202311Y39822D01*
X149330D01*
X149075Y40286D01*
X149081Y40322D01*
X149415Y40545D01*
X162024Y53154D01*
X162402Y53079D01*
X163182Y53234D01*
X163844Y53676D01*
X164286Y54338D01*
X164441Y55118D01*
X164286Y55898D01*
X163844Y56560D01*
X163182Y57002D01*
X162402Y57157D01*
X161621Y57002D01*
X160960Y56560D01*
X160518Y55898D01*
X160362Y55118D01*
X160438Y54740D01*
X148158Y42460D01*
X119095D01*
X119095Y42460D01*
X118665Y42375D01*
X118301Y42132D01*
X118301Y42132D01*
X116615Y40446D01*
X116142Y40679D01*
X116177Y40945D01*
X116075Y41718D01*
X115777Y42439D01*
X115302Y43057D01*
X114683Y43532D01*
X113962Y43831D01*
X113189Y43933D01*
X112416Y43831D01*
X111695Y43532D01*
X111076Y43057D01*
X110601Y42439D01*
X110303Y41718D01*
X110201Y40945D01*
X110303Y40171D01*
X110601Y39451D01*
X111076Y38832D01*
X111695Y38357D01*
X112416Y38059D01*
X113189Y37957D01*
X113455Y37992D01*
X113688Y37518D01*
X101756Y25586D01*
X101378Y25661D01*
X100598Y25506D01*
X99936Y25064D01*
X99494Y24402D01*
X99339Y23622D01*
X99494Y22842D01*
X99936Y22180D01*
X100598Y21738D01*
X101048Y21648D01*
X101213Y21106D01*
X99929Y19822D01*
X74525D01*
X74351Y20322D01*
X74719Y20873D01*
X74874Y21654D01*
X74719Y22434D01*
X74277Y23096D01*
X73615Y23538D01*
X73164Y23627D01*
X73000Y24170D01*
X98790Y49959D01*
X99483D01*
X99689Y49918D01*
X99689Y49918D01*
X100485D01*
X100752Y49419D01*
X100478Y49009D01*
X100323Y48228D01*
X100478Y47448D01*
X100920Y46786D01*
X101582Y46344D01*
X102362Y46189D01*
X103143Y46344D01*
X103804Y46786D01*
X104030Y47124D01*
X104631D01*
X104857Y46786D01*
X105519Y46344D01*
X106299Y46189D01*
X107080Y46344D01*
X107741Y46786D01*
X108183Y47448D01*
X108338Y48228D01*
X108183Y49009D01*
X107936Y49378D01*
X108203Y49878D01*
X128411D01*
X128678Y49378D01*
X128431Y49009D01*
X128276Y48228D01*
X128431Y47448D01*
X128873Y46786D01*
X129535Y46344D01*
X130315Y46189D01*
X131095Y46344D01*
X131757Y46786D01*
X132199Y47448D01*
X132354Y48228D01*
X132199Y49009D01*
X131952Y49378D01*
X132219Y49878D01*
X139265D01*
X139416Y49120D01*
X139858Y48458D01*
X140520Y48016D01*
X141300Y47861D01*
X142080Y48016D01*
X142742Y48458D01*
X143184Y49120D01*
X143339Y49900D01*
X143184Y50680D01*
X142742Y51342D01*
X142422Y51556D01*
Y55832D01*
X142336Y56262D01*
X142093Y56626D01*
X142093Y56626D01*
X133226Y65493D01*
X132862Y65736D01*
X132432Y65822D01*
X132432Y65822D01*
X131631D01*
X131043Y66409D01*
Y146931D01*
X131543Y147106D01*
X132094Y146738D01*
X132874Y146583D01*
X133313Y146670D01*
X133693Y146657D01*
X133856Y146307D01*
X133943Y145873D01*
X134385Y145212D01*
X135046Y144770D01*
X135827Y144614D01*
X136607Y144770D01*
X137269Y145212D01*
X137711Y145873D01*
X137762Y146133D01*
X138293Y146239D01*
X138322Y146196D01*
X138983Y145754D01*
X139764Y145599D01*
X140544Y145754D01*
X141206Y146196D01*
X141648Y146857D01*
X141803Y147638D01*
X141648Y148418D01*
X141206Y149080D01*
X140544Y149522D01*
X139764Y149677D01*
X138983Y149522D01*
X138322Y149080D01*
X137880Y148418D01*
X137828Y148158D01*
X137297Y148053D01*
X137269Y148096D01*
X136607Y148538D01*
X135827Y148693D01*
X135388Y148605D01*
X135008Y148619D01*
X134844Y148968D01*
X134758Y149402D01*
X134316Y150064D01*
X133654Y150506D01*
X132874Y150661D01*
X132094Y150506D01*
X131543Y150138D01*
X131043Y150313D01*
Y169811D01*
X131699Y170467D01*
X131942Y170831D01*
X132027Y171260D01*
X132027Y171260D01*
Y171572D01*
X132347Y171786D01*
X132790Y172448D01*
X132945Y173228D01*
X132815Y173878D01*
X132905Y174021D01*
X133065Y174181D01*
X133208Y174271D01*
X133858Y174142D01*
X134639Y174297D01*
X135300Y174739D01*
X135344Y174805D01*
X151005D01*
X157065Y168745D01*
X156920Y168266D01*
X156700Y168222D01*
X156038Y167780D01*
X155596Y167119D01*
X155441Y166339D01*
X155596Y165558D01*
X156038Y164897D01*
X156081Y164868D01*
X155976Y164337D01*
X155716Y164286D01*
X155054Y163844D01*
X154612Y163182D01*
X154457Y162402D01*
X154612Y161621D01*
X155054Y160960D01*
X155716Y160518D01*
X156496Y160362D01*
X157276Y160518D01*
X157938Y160960D01*
X158380Y161621D01*
X158535Y162402D01*
X158380Y163182D01*
X157938Y163844D01*
X157895Y163872D01*
X158001Y164403D01*
X158261Y164455D01*
X158922Y164897D01*
X159364Y165558D01*
X159408Y165778D01*
X159886Y165923D01*
X161002Y164808D01*
X160856Y164329D01*
X160637Y164286D01*
X159975Y163844D01*
X159533Y163182D01*
X159378Y162402D01*
X159533Y161621D01*
X159975Y160960D01*
X160637Y160518D01*
X161417Y160362D01*
X162198Y160518D01*
X162859Y160960D01*
X163301Y161621D01*
X163345Y161841D01*
X163823Y161986D01*
X165365Y160444D01*
X165812Y160146D01*
X166339Y160041D01*
X166339Y160041D01*
X174634D01*
X174795Y159567D01*
X174688Y159485D01*
X174087Y158702D01*
X173709Y157790D01*
X173580Y156811D01*
X173709Y155832D01*
X174087Y154920D01*
X174688Y154137D01*
X175471Y153536D01*
X176383Y153158D01*
X177362Y153029D01*
X178937D01*
X179916Y153158D01*
X180828Y153536D01*
X181611Y154137D01*
X182212Y154920D01*
X182590Y155832D01*
X182719Y156811D01*
X182590Y157790D01*
X182212Y158702D01*
X181611Y159485D01*
X181504Y159567D01*
X181665Y160041D01*
X185039D01*
X185566Y160146D01*
X186013Y160444D01*
X198952Y173383D01*
X199021Y173355D01*
X200000Y173226D01*
X201575D01*
X202554Y173355D01*
X203466Y173733D01*
X204249Y174334D01*
X204850Y175117D01*
X205228Y176029D01*
X205357Y177008D01*
X205228Y177987D01*
X204850Y178899D01*
X204249Y179682D01*
X203466Y180283D01*
X202554Y180661D01*
X201575Y180790D01*
X200000D01*
X199021Y180661D01*
X198109Y180283D01*
X197326Y179682D01*
X196725Y178899D01*
X196347Y177987D01*
X196218Y177008D01*
X196347Y176029D01*
X196725Y175117D01*
X196754Y175079D01*
X184469Y162794D01*
X181042D01*
X180983Y163294D01*
X181623Y163447D01*
X183714Y164313D01*
X185643Y165496D01*
X187365Y166966D01*
X188835Y168687D01*
X190017Y170617D01*
X190883Y172708D01*
X191412Y174909D01*
X191589Y177165D01*
X191412Y179422D01*
X190883Y181623D01*
X190017Y183714D01*
X188835Y185644D01*
X187365Y187365D01*
X185643Y188835D01*
X183714Y190017D01*
X181623Y190883D01*
X179422Y191412D01*
X177165Y191589D01*
D02*
G37*
G36*
X-0D02*
X-2256Y191412D01*
X-4457Y190883D01*
X-6548Y190017D01*
X-8478Y188835D01*
X-10199Y187365D01*
X-11669Y185644D01*
X-12852Y183714D01*
X-13718Y181623D01*
X-14246Y179422D01*
X-14424Y177165D01*
X-14246Y174909D01*
X-13718Y172708D01*
X-12852Y170617D01*
X-11669Y168687D01*
X-10199Y166966D01*
X-8478Y165496D01*
X-6548Y164313D01*
X-4457Y163447D01*
X-2256Y162919D01*
X-0Y162741D01*
X2256Y162919D01*
X4457Y163447D01*
X6548Y164313D01*
X8478Y165496D01*
X10199Y166966D01*
X11669Y168687D01*
X12852Y170617D01*
X13718Y172708D01*
X14246Y174909D01*
X14424Y177165D01*
X14246Y179422D01*
X13718Y181623D01*
X12852Y183714D01*
X11669Y185644D01*
X10199Y187365D01*
X8478Y188835D01*
X6548Y190017D01*
X4457Y190883D01*
X2256Y191412D01*
X-0Y191589D01*
D02*
G37*
G36*
X99410Y168342D02*
X98636Y168240D01*
X97916Y167942D01*
X97297Y167467D01*
X96822Y166848D01*
X96524Y166128D01*
X96422Y165354D01*
X96524Y164581D01*
X96822Y163860D01*
X97297Y163242D01*
X97916Y162767D01*
X98636Y162468D01*
X99410Y162367D01*
X100183Y162468D01*
X100903Y162767D01*
X101522Y163242D01*
X101997Y163860D01*
X102295Y164581D01*
X102397Y165354D01*
X102295Y166128D01*
X101997Y166848D01*
X101522Y167467D01*
X100903Y167942D01*
X100183Y168240D01*
X99410Y168342D01*
D02*
G37*
G36*
X45382Y161796D02*
Y159949D01*
X47229D01*
X47143Y160385D01*
X46612Y161179D01*
X45818Y161710D01*
X45382Y161796D01*
D02*
G37*
G36*
X44382D02*
X43946Y161710D01*
X43152Y161179D01*
X42621Y160385D01*
X42534Y159949D01*
X44382D01*
Y161796D01*
D02*
G37*
G36*
X89596Y162472D02*
X88816Y162317D01*
X88154Y161875D01*
X87712Y161213D01*
X87557Y160433D01*
X87712Y159653D01*
X88154Y158991D01*
X88816Y158549D01*
X89596Y158394D01*
X90377Y158549D01*
X91038Y158991D01*
X91480Y159653D01*
X91636Y160433D01*
X91480Y161213D01*
X91038Y161875D01*
X90377Y162317D01*
X89596Y162472D01*
D02*
G37*
G36*
X57874Y161488D02*
X57094Y161333D01*
X56432Y160891D01*
X55990Y160229D01*
X55835Y159449D01*
X55990Y158668D01*
X56432Y158007D01*
X57094Y157565D01*
X57874Y157410D01*
X58654Y157565D01*
X59316Y158007D01*
X59758Y158668D01*
X59913Y159449D01*
X59758Y160229D01*
X59316Y160891D01*
X58654Y161333D01*
X57874Y161488D01*
D02*
G37*
G36*
X27559D02*
X26779Y161333D01*
X26117Y160891D01*
X25675Y160229D01*
X25520Y159449D01*
X25675Y158668D01*
X26117Y158007D01*
X26779Y157565D01*
X27559Y157410D01*
X28339Y157565D01*
X29001Y158007D01*
X29443Y158668D01*
X29598Y159449D01*
X29443Y160229D01*
X29001Y160891D01*
X28339Y161333D01*
X27559Y161488D01*
D02*
G37*
G36*
X47229Y158949D02*
X45382D01*
Y157101D01*
X45818Y157188D01*
X46612Y157719D01*
X47143Y158512D01*
X47229Y158949D01*
D02*
G37*
G36*
X44382D02*
X42534D01*
X42621Y158512D01*
X43152Y157719D01*
X43946Y157188D01*
X44382Y157101D01*
Y158949D01*
D02*
G37*
G36*
X-28740Y162562D02*
X-30315D01*
X-31294Y162433D01*
X-32206Y162055D01*
X-32989Y161454D01*
X-33590Y160670D01*
X-33968Y159758D01*
X-34097Y158780D01*
X-33968Y157801D01*
X-33590Y156889D01*
X-32989Y156105D01*
X-32206Y155504D01*
X-31294Y155127D01*
X-30315Y154998D01*
X-28740D01*
X-27761Y155127D01*
X-26849Y155504D01*
X-26066Y156105D01*
X-25465Y156889D01*
X-25087Y157801D01*
X-24958Y158780D01*
X-25087Y159758D01*
X-25465Y160670D01*
X-26066Y161454D01*
X-26849Y162055D01*
X-27761Y162433D01*
X-28740Y162562D01*
D02*
G37*
G36*
X120079Y157551D02*
X119298Y157396D01*
X118637Y156954D01*
X118195Y156292D01*
X118040Y155512D01*
X118195Y154731D01*
X118637Y154070D01*
X119298Y153628D01*
X120079Y153473D01*
X120859Y153628D01*
X121521Y154070D01*
X121963Y154731D01*
X122118Y155512D01*
X121963Y156292D01*
X121521Y156954D01*
X120859Y157396D01*
X120079Y157551D01*
D02*
G37*
G36*
X203740Y160874D02*
X201772D01*
X200639Y160725D01*
X199583Y160287D01*
X198676Y159592D01*
X197980Y158685D01*
X197543Y157629D01*
X197394Y156496D01*
X197543Y155363D01*
X197980Y154307D01*
X198676Y153401D01*
X199583Y152705D01*
X200639Y152268D01*
X201772Y152119D01*
X203740D01*
X204873Y152268D01*
X205929Y152705D01*
X206836Y153401D01*
X207531Y154307D01*
X207969Y155363D01*
X208118Y156496D01*
X207969Y157629D01*
X207531Y158685D01*
X206836Y159592D01*
X205929Y160287D01*
X204873Y160725D01*
X203740Y160874D01*
D02*
G37*
G36*
X99410Y153614D02*
X98629Y153459D01*
X97967Y153017D01*
X97526Y152355D01*
X97370Y151575D01*
X97526Y150794D01*
X97967Y150133D01*
X98629Y149691D01*
X99410Y149536D01*
X100190Y149691D01*
X100851Y150133D01*
X101293Y150794D01*
X101449Y151575D01*
X101293Y152355D01*
X100851Y153017D01*
X100190Y153459D01*
X99410Y153614D01*
D02*
G37*
G36*
X23819Y151646D02*
X23039Y151490D01*
X22377Y151048D01*
X21935Y150387D01*
X21780Y149606D01*
X21935Y148826D01*
X22377Y148164D01*
X23039Y147722D01*
X23819Y147567D01*
X24599Y147722D01*
X25261Y148164D01*
X25703Y148826D01*
X25858Y149606D01*
X25703Y150387D01*
X25261Y151048D01*
X24599Y151490D01*
X23819Y151646D01*
D02*
G37*
G36*
X-28740Y152561D02*
X-30315D01*
X-31294Y152433D01*
X-32206Y152055D01*
X-32989Y151454D01*
X-33590Y150671D01*
X-33968Y149758D01*
X-34097Y148779D01*
X-33968Y147801D01*
X-33590Y146889D01*
X-32989Y146105D01*
X-32206Y145504D01*
X-31294Y145126D01*
X-30315Y144998D01*
X-28740D01*
X-27761Y145126D01*
X-26849Y145504D01*
X-26066Y146105D01*
X-25465Y146889D01*
X-25087Y147801D01*
X-24958Y148779D01*
X-25087Y149758D01*
X-25465Y150671D01*
X-26066Y151454D01*
X-26849Y152055D01*
X-27761Y152433D01*
X-28740Y152561D01*
D02*
G37*
G36*
X178937Y150593D02*
X177362D01*
X176383Y150464D01*
X175471Y150086D01*
X174688Y149485D01*
X174087Y148702D01*
X173709Y147790D01*
X173580Y146811D01*
X173709Y145832D01*
X174087Y144920D01*
X174688Y144137D01*
X175471Y143536D01*
X176383Y143158D01*
X177362Y143029D01*
X178937D01*
X179916Y143158D01*
X180828Y143536D01*
X181611Y144137D01*
X182212Y144920D01*
X182590Y145832D01*
X182719Y146811D01*
X182590Y147790D01*
X182212Y148702D01*
X181611Y149485D01*
X180828Y150086D01*
X179916Y150464D01*
X178937Y150593D01*
D02*
G37*
G36*
X203740Y151031D02*
X201772D01*
X200639Y150882D01*
X199583Y150445D01*
X198676Y149749D01*
X197980Y148842D01*
X197543Y147787D01*
X197394Y146653D01*
X197543Y145520D01*
X197980Y144465D01*
X198676Y143558D01*
X199583Y142862D01*
X200639Y142425D01*
X201772Y142276D01*
X203740D01*
X204873Y142425D01*
X205929Y142862D01*
X206836Y143558D01*
X207531Y144465D01*
X207969Y145520D01*
X208118Y146653D01*
X207969Y147787D01*
X207531Y148842D01*
X206836Y149749D01*
X205929Y150445D01*
X204873Y150882D01*
X203740Y151031D01*
D02*
G37*
G36*
X95473Y150239D02*
X94494Y150110D01*
X93581Y149732D01*
X92798Y149131D01*
X92197Y148348D01*
X91819Y147435D01*
X91691Y146457D01*
Y142913D01*
X91819Y141934D01*
X92197Y141022D01*
X92798Y140239D01*
X93581Y139638D01*
X94494Y139260D01*
X95473Y139131D01*
X96451Y139260D01*
X97364Y139638D01*
X98147Y140239D01*
X98748Y141022D01*
X99126Y141934D01*
X99255Y142913D01*
Y146457D01*
X99126Y147435D01*
X98748Y148348D01*
X98147Y149131D01*
X97364Y149732D01*
X96451Y150110D01*
X95473Y150239D01*
D02*
G37*
G36*
X69882D02*
X68903Y150110D01*
X67991Y149732D01*
X67208Y149131D01*
X66607Y148348D01*
X66229Y147435D01*
X66100Y146457D01*
Y142913D01*
X66229Y141934D01*
X66607Y141022D01*
X67208Y140239D01*
X67991Y139638D01*
X68903Y139260D01*
X69882Y139131D01*
X70861Y139260D01*
X71773Y139638D01*
X72556Y140239D01*
X73157Y141022D01*
X73535Y141934D01*
X73664Y142913D01*
Y146457D01*
X73535Y147435D01*
X73157Y148348D01*
X72556Y149131D01*
X71773Y149732D01*
X70861Y150110D01*
X69882Y150239D01*
D02*
G37*
G36*
X56102D02*
X55124Y150110D01*
X54211Y149732D01*
X53428Y149131D01*
X52827Y148348D01*
X52449Y147435D01*
X52320Y146457D01*
Y142913D01*
X52449Y141934D01*
X52827Y141022D01*
X53428Y140239D01*
X54211Y139638D01*
X55124Y139260D01*
X56102Y139131D01*
X57081Y139260D01*
X57993Y139638D01*
X58777Y140239D01*
X59378Y141022D01*
X59755Y141934D01*
X59884Y142913D01*
Y146457D01*
X59755Y147435D01*
X59378Y148348D01*
X58777Y149131D01*
X57993Y149732D01*
X57081Y150110D01*
X56102Y150239D01*
D02*
G37*
G36*
X30512D02*
X29533Y150110D01*
X28621Y149732D01*
X27837Y149131D01*
X27237Y148348D01*
X26859Y147435D01*
X26730Y146457D01*
Y142913D01*
X26859Y141934D01*
X27237Y141022D01*
X27837Y140239D01*
X28621Y139638D01*
X29533Y139260D01*
X30512Y139131D01*
X31491Y139260D01*
X32403Y139638D01*
X33186Y140239D01*
X33787Y141022D01*
X34165Y141934D01*
X34294Y142913D01*
Y146457D01*
X34165Y147435D01*
X33787Y148348D01*
X33186Y149131D01*
X32403Y149732D01*
X31491Y150110D01*
X30512Y150239D01*
D02*
G37*
G36*
X35000Y139639D02*
X34220Y139484D01*
X33558Y139042D01*
X33116Y138380D01*
X32961Y137600D01*
X33116Y136820D01*
X33558Y136158D01*
X34220Y135716D01*
X35000Y135561D01*
X35780Y135716D01*
X36442Y136158D01*
X36884Y136820D01*
X37039Y137600D01*
X36884Y138380D01*
X36442Y139042D01*
X35780Y139484D01*
X35000Y139639D01*
D02*
G37*
G36*
X-25591Y142579D02*
X-33465D01*
X-33924Y142388D01*
X-34114Y141929D01*
Y135630D01*
X-33924Y135171D01*
X-33465Y134980D01*
X-25591D01*
X-25131Y135171D01*
X-24941Y135630D01*
Y141929D01*
X-25131Y142388D01*
X-25591Y142579D01*
D02*
G37*
G36*
X44700Y138639D02*
X43920Y138484D01*
X43258Y138042D01*
X42816Y137380D01*
X42661Y136600D01*
X42816Y135820D01*
X43258Y135158D01*
X43920Y134716D01*
X44700Y134561D01*
X45480Y134716D01*
X46142Y135158D01*
X46584Y135820D01*
X46739Y136600D01*
X46584Y137380D01*
X46142Y138042D01*
X45480Y138484D01*
X44700Y138639D01*
D02*
G37*
G36*
X182087Y140610D02*
X174213D01*
X173753Y140420D01*
X173563Y139961D01*
Y133661D01*
X173753Y133202D01*
X174213Y133012D01*
X182087D01*
X182546Y133202D01*
X182736Y133661D01*
Y139961D01*
X182546Y140420D01*
X182087Y140610D01*
D02*
G37*
G36*
X203740Y141189D02*
X201772D01*
X200639Y141039D01*
X199583Y140602D01*
X198676Y139906D01*
X197980Y139000D01*
X197543Y137944D01*
X197394Y136811D01*
X197543Y135678D01*
X197980Y134622D01*
X198676Y133715D01*
X199583Y133020D01*
X200639Y132582D01*
X201772Y132433D01*
X203740D01*
X204873Y132582D01*
X205929Y133020D01*
X206836Y133715D01*
X207531Y134622D01*
X207969Y135678D01*
X208118Y136811D01*
X207969Y137944D01*
X207531Y139000D01*
X206836Y139906D01*
X205929Y140602D01*
X204873Y141039D01*
X203740Y141189D01*
D02*
G37*
G36*
X119882Y141201D02*
X112402D01*
X111942Y141010D01*
X111752Y140551D01*
Y133071D01*
X111942Y132612D01*
X112402Y132421D01*
X119882D01*
X120341Y132612D01*
X120531Y133071D01*
Y140551D01*
X120341Y141010D01*
X119882Y141201D01*
D02*
G37*
G36*
X-22638Y128023D02*
X-23418Y127868D01*
X-24080Y127426D01*
X-24522Y126765D01*
X-24677Y125984D01*
X-24522Y125204D01*
X-24080Y124542D01*
X-23418Y124100D01*
X-22638Y123945D01*
X-21857Y124100D01*
X-21196Y124542D01*
X-20754Y125204D01*
X-20599Y125984D01*
X-20754Y126765D01*
X-21196Y127426D01*
X-21857Y127868D01*
X-22638Y128023D01*
D02*
G37*
G36*
X207480Y131358D02*
X198031D01*
X197572Y131168D01*
X197382Y130709D01*
Y123228D01*
X197572Y122769D01*
X198031Y122579D01*
X207480D01*
X207940Y122769D01*
X208130Y123228D01*
Y130709D01*
X207940Y131168D01*
X207480Y131358D01*
D02*
G37*
G36*
X30512Y132522D02*
X29533Y132393D01*
X28621Y132016D01*
X27837Y131414D01*
X27237Y130631D01*
X26859Y129719D01*
X26730Y128740D01*
Y125197D01*
X26859Y124218D01*
X27237Y123306D01*
X27837Y122523D01*
X28621Y121922D01*
X29533Y121544D01*
X30512Y121415D01*
X31491Y121544D01*
X32403Y121922D01*
X33186Y122523D01*
X33787Y123306D01*
X34165Y124218D01*
X34294Y125197D01*
Y128740D01*
X34165Y129719D01*
X33787Y130631D01*
X33186Y131414D01*
X32403Y132016D01*
X31491Y132393D01*
X30512Y132522D01*
D02*
G37*
G36*
X208661Y121134D02*
X207881Y120978D01*
X207220Y120536D01*
X206778Y119875D01*
X206622Y119095D01*
X206778Y118314D01*
X207220Y117653D01*
X207881Y117210D01*
X208661Y117055D01*
X209442Y117210D01*
X210103Y117653D01*
X210545Y118314D01*
X210701Y119095D01*
X210545Y119875D01*
X210103Y120536D01*
X209442Y120978D01*
X208661Y121134D01*
D02*
G37*
G36*
X203530Y114562D02*
X203499Y114549D01*
X203467Y114558D01*
X201923Y114406D01*
X201864Y114375D01*
X201798Y114382D01*
X200314Y113931D01*
X200263Y113889D01*
X200196Y113883D01*
X198828Y113151D01*
X198786Y113100D01*
X198723Y113081D01*
X197524Y112097D01*
X197492Y112038D01*
X197434Y112007D01*
X196450Y110808D01*
X196430Y110744D01*
X196379Y110702D01*
X195648Y109334D01*
X195641Y109268D01*
X195599Y109216D01*
X195149Y107732D01*
X195155Y107666D01*
X195124Y107607D01*
X194972Y106064D01*
X194991Y106000D01*
X194972Y105936D01*
X195124Y104393D01*
X195155Y104334D01*
X195149Y104268D01*
X195599Y102784D01*
X195641Y102732D01*
X195648Y102666D01*
X196379Y101298D01*
X196430Y101256D01*
X196450Y101192D01*
X197434Y99993D01*
X197492Y99962D01*
X197524Y99903D01*
X198723Y98919D01*
X198786Y98900D01*
X198828Y98849D01*
X200196Y98117D01*
X200263Y98111D01*
X200314Y98069D01*
X201798Y97618D01*
X201864Y97625D01*
X201923Y97594D01*
X203467Y97442D01*
X203499Y97451D01*
X203530Y97439D01*
X203562Y97451D01*
X203594Y97442D01*
X205138Y97594D01*
X205196Y97625D01*
X205262Y97618D01*
X206747Y98069D01*
X206798Y98111D01*
X206864Y98117D01*
X208232Y98849D01*
X208274Y98900D01*
X208338Y98919D01*
X209537Y99903D01*
X209568Y99962D01*
X209627Y99993D01*
X210611Y101192D01*
X210630Y101256D01*
X210682Y101298D01*
X211413Y102666D01*
X211420Y102732D01*
X211462Y102784D01*
X211912Y104268D01*
X211905Y104334D01*
X211937Y104393D01*
X212089Y105936D01*
X212069Y106000D01*
X212089Y106064D01*
X211937Y107607D01*
X211905Y107666D01*
X211912Y107732D01*
X211462Y109216D01*
X211419Y109268D01*
X211413Y109334D01*
X210682Y110702D01*
X210630Y110744D01*
X210611Y110808D01*
X209627Y112007D01*
X209568Y112038D01*
X209537Y112097D01*
X208338Y113081D01*
X208274Y113100D01*
X208232Y113151D01*
X206864Y113883D01*
X206798Y113889D01*
X206747Y113931D01*
X205262Y114382D01*
X205196Y114375D01*
X205138Y114406D01*
X203594Y114558D01*
X203562Y114549D01*
X203530Y114562D01*
D02*
G37*
G36*
X56102Y132522D02*
X55124Y132393D01*
X54211Y132016D01*
X53428Y131414D01*
X52827Y130631D01*
X52449Y129719D01*
X52320Y128740D01*
Y125197D01*
X52449Y124218D01*
X52827Y123306D01*
X53428Y122523D01*
X54211Y121922D01*
X55124Y121544D01*
X56102Y121415D01*
X57081Y121544D01*
X57389Y121671D01*
X57772Y121289D01*
X57710Y121140D01*
Y113660D01*
X57901Y113201D01*
X58360Y113010D01*
X65840D01*
X66299Y113201D01*
X66490Y113660D01*
Y121140D01*
X66299Y121599D01*
X65840Y121790D01*
X58643D01*
X58473Y122290D01*
X58777Y122523D01*
X59378Y123306D01*
X59755Y124218D01*
X59884Y125197D01*
Y128740D01*
X59755Y129719D01*
X59378Y130631D01*
X58777Y131414D01*
X57993Y132016D01*
X57081Y132393D01*
X56102Y132522D01*
D02*
G37*
G36*
X-28831Y113568D02*
Y111721D01*
X-26983D01*
X-27070Y112157D01*
X-27600Y112951D01*
X-28394Y113481D01*
X-28831Y113568D01*
D02*
G37*
G36*
X-29831D02*
X-30267Y113481D01*
X-31061Y112951D01*
X-31591Y112157D01*
X-31678Y111721D01*
X-29831D01*
Y113568D01*
D02*
G37*
G36*
X-26983Y110721D02*
X-28831D01*
Y108873D01*
X-28394Y108960D01*
X-27600Y109490D01*
X-27070Y110284D01*
X-26983Y110721D01*
D02*
G37*
G36*
X-29831D02*
X-31678D01*
X-31591Y110284D01*
X-31061Y109490D01*
X-30267Y108960D01*
X-29831Y108873D01*
Y110721D01*
D02*
G37*
G36*
X-22638Y108338D02*
X-23418Y108183D01*
X-24080Y107741D01*
X-24522Y107080D01*
X-24677Y106299D01*
X-24522Y105519D01*
X-24080Y104857D01*
X-23418Y104415D01*
X-22638Y104260D01*
X-21857Y104415D01*
X-21196Y104857D01*
X-20754Y105519D01*
X-20599Y106299D01*
X-20754Y107080D01*
X-21196Y107741D01*
X-21857Y108183D01*
X-22638Y108338D01*
D02*
G37*
G36*
X183800Y99862D02*
X183769Y99849D01*
X183736Y99858D01*
X182193Y99706D01*
X182134Y99675D01*
X182068Y99682D01*
X180584Y99231D01*
X180532Y99189D01*
X180466Y99183D01*
X179098Y98451D01*
X179056Y98400D01*
X178992Y98381D01*
X177793Y97397D01*
X177762Y97338D01*
X177703Y97307D01*
X176719Y96108D01*
X176700Y96044D01*
X176649Y96002D01*
X175917Y94634D01*
X175911Y94568D01*
X175869Y94516D01*
X175418Y93032D01*
X175425Y92966D01*
X175394Y92907D01*
X175242Y91364D01*
X175261Y91300D01*
X175242Y91236D01*
X175394Y89693D01*
X175425Y89634D01*
X175418Y89568D01*
X175869Y88084D01*
X175911Y88032D01*
X175917Y87966D01*
X176649Y86598D01*
X176700Y86556D01*
X176719Y86492D01*
X177703Y85293D01*
X177762Y85262D01*
X177793Y85203D01*
X178992Y84219D01*
X179056Y84200D01*
X179098Y84149D01*
X180466Y83417D01*
X180532Y83411D01*
X180584Y83369D01*
X182068Y82918D01*
X182134Y82925D01*
X182193Y82894D01*
X183736Y82742D01*
X183769Y82751D01*
X183800Y82739D01*
X183831Y82751D01*
X183864Y82742D01*
X185407Y82894D01*
X185466Y82925D01*
X185532Y82918D01*
X187016Y83369D01*
X187068Y83411D01*
X187134Y83417D01*
X188502Y84149D01*
X188544Y84200D01*
X188608Y84219D01*
X189807Y85203D01*
X189838Y85262D01*
X189897Y85293D01*
X190881Y86492D01*
X190900Y86556D01*
X190951Y86598D01*
X191683Y87966D01*
X191689Y88032D01*
X191731Y88084D01*
X192182Y89568D01*
X192175Y89634D01*
X192206Y89693D01*
X192358Y91236D01*
X192339Y91300D01*
X192358Y91364D01*
X192206Y92907D01*
X192175Y92966D01*
X192182Y93032D01*
X191731Y94516D01*
X191689Y94568D01*
X191683Y94634D01*
X190951Y96002D01*
X190900Y96044D01*
X190881Y96108D01*
X189897Y97307D01*
X189838Y97338D01*
X189807Y97397D01*
X188608Y98381D01*
X188544Y98400D01*
X188502Y98451D01*
X187134Y99183D01*
X187068Y99189D01*
X187016Y99231D01*
X185532Y99682D01*
X185466Y99675D01*
X185407Y99706D01*
X183864Y99858D01*
X183831Y99849D01*
X183800Y99862D01*
D02*
G37*
G36*
X96778Y103117D02*
X95998Y102962D01*
X95336Y102520D01*
X94894Y101858D01*
X94739Y101078D01*
X94894Y100298D01*
X95336Y99636D01*
X95998Y99194D01*
X96778Y99039D01*
X97558Y99194D01*
X98220Y99636D01*
X98662Y100298D01*
X98817Y101078D01*
X98662Y101858D01*
X98220Y102520D01*
X97558Y102962D01*
X96778Y103117D01*
D02*
G37*
G36*
X121063Y98496D02*
X120283Y98341D01*
X119621Y97899D01*
X119179Y97237D01*
X119024Y96457D01*
X119179Y95676D01*
X119621Y95015D01*
X120283Y94573D01*
X121063Y94418D01*
X121843Y94573D01*
X122505Y95015D01*
X122947Y95676D01*
X123102Y96457D01*
X122947Y97237D01*
X122505Y97899D01*
X121843Y98341D01*
X121063Y98496D01*
D02*
G37*
G36*
X33465Y110689D02*
X25591D01*
X25131Y110499D01*
X24941Y110039D01*
Y107931D01*
X8858D01*
X8234Y107806D01*
X7705Y107453D01*
X4752Y104500D01*
X4398Y103971D01*
X4274Y103347D01*
Y90551D01*
X4398Y89927D01*
X4752Y89398D01*
X11164Y82986D01*
Y16906D01*
X10911Y16528D01*
X10756Y15748D01*
X10911Y14968D01*
X11353Y14306D01*
X12015Y13864D01*
X12795Y13709D01*
X13576Y13864D01*
X14237Y14306D01*
X14679Y14968D01*
X14834Y15748D01*
X14679Y16528D01*
X14427Y16906D01*
Y83661D01*
X14302Y84286D01*
X13949Y84815D01*
X7537Y91227D01*
Y96413D01*
X8037Y96543D01*
X8401Y95999D01*
X9062Y95557D01*
X9843Y95402D01*
X10623Y95557D01*
X11284Y95999D01*
X11727Y96661D01*
X11882Y97441D01*
X11806Y97819D01*
X14244Y100256D01*
X26537D01*
X26707Y99756D01*
X26235Y99395D01*
X25540Y98488D01*
X25102Y97432D01*
X24953Y96299D01*
X25102Y95166D01*
X25540Y94110D01*
X26235Y93204D01*
X27142Y92508D01*
X28198Y92071D01*
X29331Y91922D01*
X29724D01*
X30857Y92071D01*
X31913Y92508D01*
X32820Y93204D01*
X33516Y94110D01*
X33953Y95166D01*
X34102Y96299D01*
X33953Y97432D01*
X33516Y98488D01*
X32820Y99395D01*
X32348Y99756D01*
X32518Y100256D01*
X60559D01*
X67369Y93447D01*
X67215Y92893D01*
X67169Y92881D01*
X62858Y97193D01*
X62494Y97436D01*
X62065Y97522D01*
X62064Y97522D01*
X49300D01*
X49300Y97522D01*
X48871Y97436D01*
X48507Y97193D01*
X48507Y97193D01*
X37593Y86279D01*
X37350Y85915D01*
X37264Y85486D01*
X37264Y85486D01*
Y12368D01*
X31771Y6875D01*
X31578Y6970D01*
X31341Y7152D01*
Y10630D01*
X31212Y11609D01*
X30834Y12521D01*
X30233Y13304D01*
X29450Y13905D01*
X28538Y14283D01*
X27559Y14412D01*
X26580Y14283D01*
X25668Y13905D01*
X24885Y13304D01*
X24284Y12521D01*
X23906Y11609D01*
X23777Y10630D01*
Y7087D01*
X23906Y6108D01*
X24284Y5196D01*
X24885Y4412D01*
X25668Y3811D01*
X26580Y3434D01*
X27501Y3312D01*
X27715Y2989D01*
X27771Y2875D01*
X9318Y-15578D01*
X-6458D01*
X-16595Y-5441D01*
Y-2953D01*
X-16595Y-2953D01*
X-16680Y-2523D01*
X-16924Y-2160D01*
X-16924Y-2160D01*
X-19876Y793D01*
X-20240Y1036D01*
X-20669Y1122D01*
X-20669Y1122D01*
X-21102D01*
X-21194Y1345D01*
X-21621Y1902D01*
X-22179Y2330D01*
X-22827Y2598D01*
X-23524Y2690D01*
X-25689D01*
X-26385Y2598D01*
X-27034Y2330D01*
X-27591Y1902D01*
X-28019Y1345D01*
X-28287Y696D01*
X-28379Y-0D01*
X-28287Y-696D01*
X-28019Y-1345D01*
X-27591Y-1902D01*
X-27255Y-2160D01*
X-27243Y-2184D01*
Y-2737D01*
X-27255Y-2761D01*
X-27591Y-3019D01*
X-28019Y-3576D01*
X-28287Y-4225D01*
X-28379Y-4921D01*
X-28287Y-5618D01*
X-28019Y-6266D01*
X-27591Y-6823D01*
X-27255Y-7081D01*
X-27243Y-7106D01*
Y-7658D01*
X-27255Y-7683D01*
X-27591Y-7940D01*
X-28019Y-8497D01*
X-28287Y-9146D01*
X-28379Y-9842D01*
X-28287Y-10539D01*
X-28019Y-11187D01*
X-27591Y-11744D01*
X-27255Y-12002D01*
X-27242Y-12027D01*
Y-12579D01*
X-27255Y-12604D01*
X-27591Y-12862D01*
X-28019Y-13419D01*
X-28287Y-14068D01*
X-28379Y-14764D01*
X-28287Y-15460D01*
X-28019Y-16109D01*
X-27591Y-16666D01*
X-27255Y-16924D01*
X-27243Y-16948D01*
Y-17501D01*
X-27255Y-17525D01*
X-27591Y-17783D01*
X-28019Y-18340D01*
X-28287Y-18989D01*
X-28379Y-19685D01*
X-28287Y-20381D01*
X-28019Y-21030D01*
X-27599Y-21576D01*
X-27591Y-21589D01*
X-27602Y-22209D01*
X-27876Y-22419D01*
X-28368Y-23059D01*
X-28677Y-23806D01*
X-28716Y-24106D01*
X-24606D01*
X-20496D01*
X-20536Y-23806D01*
X-20845Y-23059D01*
X-21336Y-22419D01*
X-21610Y-22209D01*
X-21621Y-21589D01*
X-21613Y-21576D01*
X-21194Y-21030D01*
X-20925Y-20381D01*
X-20834Y-19685D01*
X-20925Y-18989D01*
X-21194Y-18340D01*
X-21621Y-17783D01*
X-21957Y-17525D01*
X-21970Y-17501D01*
Y-16948D01*
X-21957Y-16924D01*
X-21621Y-16666D01*
X-21194Y-16109D01*
X-20925Y-15460D01*
X-20834Y-14764D01*
X-20925Y-14068D01*
X-21194Y-13419D01*
X-21621Y-12862D01*
X-21957Y-12604D01*
X-21970Y-12579D01*
Y-12027D01*
X-21957Y-12002D01*
X-21621Y-11744D01*
X-21194Y-11187D01*
X-20925Y-10539D01*
X-20834Y-9842D01*
X-20925Y-9146D01*
X-21194Y-8497D01*
X-21621Y-7940D01*
X-21957Y-7683D01*
X-21970Y-7658D01*
Y-7106D01*
X-21957Y-7081D01*
X-21621Y-6823D01*
X-21194Y-6266D01*
X-20925Y-5618D01*
X-20834Y-4921D01*
X-20925Y-4225D01*
X-21194Y-3576D01*
X-21621Y-3019D01*
X-21957Y-2761D01*
X-21970Y-2737D01*
Y-2184D01*
X-21957Y-2160D01*
X-21621Y-1902D01*
X-21378Y-1585D01*
X-20757Y-1498D01*
X-18838Y-3417D01*
Y-5906D01*
X-18838Y-5906D01*
X-18753Y-6335D01*
X-18510Y-6699D01*
X-7715Y-17493D01*
X-7715Y-17493D01*
X-7351Y-17736D01*
X-6922Y-17821D01*
X9782D01*
X9782Y-17822D01*
X10211Y-17736D01*
X10575Y-17493D01*
X39179Y11111D01*
X39179Y11111D01*
X39422Y11474D01*
X39507Y11904D01*
Y85021D01*
X49765Y95278D01*
X61600D01*
X65949Y90929D01*
X65874Y90551D01*
X66029Y89771D01*
X66471Y89109D01*
X67133Y88667D01*
X67913Y88512D01*
X68694Y88667D01*
X69355Y89109D01*
X69797Y89771D01*
X69887Y90221D01*
X70429Y90386D01*
X71436Y89379D01*
X71361Y89000D01*
X71516Y88220D01*
X71958Y87558D01*
X72620Y87116D01*
X73400Y86961D01*
X74180Y87116D01*
X74842Y87558D01*
X75284Y88220D01*
X75439Y89000D01*
X75284Y89780D01*
X74842Y90442D01*
X74180Y90884D01*
X73400Y91039D01*
X73023Y90964D01*
X61817Y102171D01*
X61453Y102414D01*
X61024Y102499D01*
X61024Y102499D01*
X34154D01*
X34114Y102559D01*
Y110039D01*
X33924Y110499D01*
X33465Y110689D01*
D02*
G37*
G36*
X96457Y95543D02*
X95676Y95388D01*
X95015Y94946D01*
X94573Y94284D01*
X94418Y93504D01*
X94573Y92724D01*
X95015Y92062D01*
X95676Y91620D01*
X96457Y91465D01*
X97237Y91620D01*
X97899Y92062D01*
X98341Y92724D01*
X98496Y93504D01*
X98341Y94284D01*
X97899Y94946D01*
X97237Y95388D01*
X96457Y95543D01*
D02*
G37*
G36*
X29724Y90677D02*
X29331D01*
X28198Y90528D01*
X27142Y90090D01*
X26235Y89395D01*
X25540Y88488D01*
X25102Y87432D01*
X24953Y86299D01*
X25102Y85166D01*
X25540Y84110D01*
X26235Y83204D01*
X27142Y82508D01*
X28198Y82071D01*
X29331Y81922D01*
X29724D01*
X30857Y82071D01*
X31913Y82508D01*
X32820Y83204D01*
X33516Y84110D01*
X33953Y85166D01*
X34102Y86299D01*
X33953Y87432D01*
X33516Y88488D01*
X32820Y89395D01*
X31913Y90090D01*
X30857Y90528D01*
X29724Y90677D01*
D02*
G37*
G36*
X184400Y80062D02*
X184369Y80049D01*
X184336Y80058D01*
X182793Y79906D01*
X182734Y79875D01*
X182668Y79882D01*
X181184Y79431D01*
X181132Y79389D01*
X181066Y79383D01*
X179698Y78651D01*
X179656Y78600D01*
X179592Y78581D01*
X178393Y77597D01*
X178362Y77538D01*
X178303Y77507D01*
X177319Y76308D01*
X177300Y76244D01*
X177249Y76202D01*
X176517Y74834D01*
X176511Y74768D01*
X176469Y74716D01*
X176018Y73232D01*
X176025Y73166D01*
X175994Y73107D01*
X175842Y71564D01*
X175861Y71500D01*
X175842Y71436D01*
X175994Y69893D01*
X176025Y69834D01*
X176018Y69768D01*
X176469Y68284D01*
X176511Y68232D01*
X176517Y68166D01*
X177249Y66798D01*
X177300Y66756D01*
X177319Y66692D01*
X178303Y65493D01*
X178362Y65462D01*
X178393Y65403D01*
X179592Y64419D01*
X179656Y64400D01*
X179698Y64349D01*
X181066Y63617D01*
X181132Y63611D01*
X181184Y63569D01*
X182668Y63118D01*
X182734Y63125D01*
X182793Y63094D01*
X184336Y62942D01*
X184369Y62951D01*
X184400Y62938D01*
X184431Y62951D01*
X184464Y62942D01*
X186007Y63094D01*
X186066Y63125D01*
X186132Y63118D01*
X187616Y63569D01*
X187668Y63611D01*
X187734Y63617D01*
X189102Y64349D01*
X189144Y64400D01*
X189208Y64419D01*
X190407Y65403D01*
X190438Y65462D01*
X190497Y65493D01*
X191481Y66692D01*
X191500Y66756D01*
X191551Y66798D01*
X192283Y68166D01*
X192289Y68232D01*
X192331Y68284D01*
X192782Y69768D01*
X192775Y69834D01*
X192806Y69893D01*
X192958Y71436D01*
X192939Y71500D01*
X192958Y71564D01*
X192806Y73107D01*
X192775Y73166D01*
X192782Y73232D01*
X192331Y74716D01*
X192289Y74768D01*
X192283Y74834D01*
X191551Y76202D01*
X191500Y76244D01*
X191481Y76308D01*
X190497Y77507D01*
X190438Y77538D01*
X190407Y77597D01*
X189208Y78581D01*
X189144Y78600D01*
X189102Y78651D01*
X187734Y79383D01*
X187668Y79389D01*
X187616Y79431D01*
X186132Y79882D01*
X186066Y79875D01*
X186007Y79906D01*
X184464Y80058D01*
X184431Y80049D01*
X184400Y80062D01*
D02*
G37*
G36*
X116142Y79795D02*
X115361Y79640D01*
X114700Y79198D01*
X114258Y78536D01*
X114103Y77756D01*
X114258Y76976D01*
X114700Y76314D01*
X115361Y75872D01*
X116142Y75717D01*
X116922Y75872D01*
X117584Y76314D01*
X118026Y76976D01*
X118181Y77756D01*
X118026Y78536D01*
X117584Y79198D01*
X116922Y79640D01*
X116142Y79795D01*
D02*
G37*
G36*
X48728Y75773D02*
Y73925D01*
X50576D01*
X50489Y74362D01*
X49959Y75156D01*
X49165Y75686D01*
X48728Y75773D01*
D02*
G37*
G36*
X47728D02*
X47292Y75686D01*
X46498Y75156D01*
X45968Y74362D01*
X45881Y73925D01*
X47728D01*
Y75773D01*
D02*
G37*
G36*
X29724Y80677D02*
X29331D01*
X28198Y80528D01*
X27142Y80090D01*
X26235Y79395D01*
X25540Y78488D01*
X25102Y77432D01*
X24953Y76299D01*
X25102Y75166D01*
X25540Y74110D01*
X26235Y73204D01*
X27142Y72508D01*
X28198Y72071D01*
X29331Y71922D01*
X29724D01*
X30857Y72071D01*
X31913Y72508D01*
X32820Y73204D01*
X33516Y74110D01*
X33953Y75166D01*
X34102Y76299D01*
X33953Y77432D01*
X33516Y78488D01*
X32820Y79395D01*
X31913Y80090D01*
X30857Y80528D01*
X29724Y80677D01*
D02*
G37*
G36*
X97820Y73319D02*
X95972D01*
Y71471D01*
X96409Y71558D01*
X97203Y72089D01*
X97733Y72882D01*
X97820Y73319D01*
D02*
G37*
G36*
X50576Y72925D02*
X48728D01*
Y71078D01*
X49165Y71165D01*
X49959Y71695D01*
X50489Y72489D01*
X50576Y72925D01*
D02*
G37*
G36*
X47728D02*
X45881D01*
X45968Y72489D01*
X46498Y71695D01*
X47292Y71165D01*
X47728Y71078D01*
Y72925D01*
D02*
G37*
G36*
X121063Y74874D02*
X120283Y74719D01*
X119621Y74277D01*
X119179Y73615D01*
X119024Y72835D01*
X119179Y72054D01*
X119621Y71393D01*
X120283Y70951D01*
X121063Y70796D01*
X121843Y70951D01*
X122505Y71393D01*
X122947Y72054D01*
X123102Y72835D01*
X122947Y73615D01*
X122505Y74277D01*
X121843Y74719D01*
X121063Y74874D01*
D02*
G37*
G36*
X42323Y73890D02*
X41542Y73734D01*
X40881Y73292D01*
X40439Y72631D01*
X40284Y71851D01*
X40439Y71070D01*
X40881Y70409D01*
X41542Y69967D01*
X42323Y69811D01*
X43103Y69967D01*
X43765Y70409D01*
X44207Y71070D01*
X44362Y71851D01*
X44207Y72631D01*
X43765Y73292D01*
X43103Y73734D01*
X42323Y73890D01*
D02*
G37*
G36*
X22900Y73739D02*
X22120Y73584D01*
X21458Y73142D01*
X21016Y72480D01*
X20861Y71700D01*
X21016Y70920D01*
X21458Y70258D01*
X22120Y69816D01*
X22900Y69661D01*
X23680Y69816D01*
X24342Y70258D01*
X24784Y70920D01*
X24939Y71700D01*
X24784Y72480D01*
X24342Y73142D01*
X23680Y73584D01*
X22900Y73739D01*
D02*
G37*
G36*
X121063Y68968D02*
X120283Y68813D01*
X119621Y68371D01*
X119179Y67709D01*
X119024Y66929D01*
X119179Y66149D01*
X119621Y65487D01*
X120283Y65045D01*
X121063Y64890D01*
X121843Y65045D01*
X122505Y65487D01*
X122947Y66149D01*
X123102Y66929D01*
X122947Y67709D01*
X122505Y68371D01*
X121843Y68813D01*
X121063Y68968D01*
D02*
G37*
G36*
X2000Y68939D02*
X1220Y68784D01*
X558Y68342D01*
X116Y67680D01*
X-39Y66900D01*
X116Y66120D01*
X558Y65458D01*
X1220Y65016D01*
X2000Y64861D01*
X2780Y65016D01*
X3442Y65458D01*
X3884Y66120D01*
X4039Y66900D01*
X3884Y67680D01*
X3442Y68342D01*
X2780Y68784D01*
X2000Y68939D01*
D02*
G37*
G36*
X203800Y64862D02*
X203769Y64849D01*
X203736Y64858D01*
X202193Y64706D01*
X202134Y64675D01*
X202068Y64682D01*
X200584Y64231D01*
X200532Y64189D01*
X200466Y64183D01*
X199098Y63451D01*
X199056Y63400D01*
X198992Y63381D01*
X197793Y62397D01*
X197762Y62338D01*
X197703Y62307D01*
X196719Y61108D01*
X196700Y61044D01*
X196649Y61002D01*
X195917Y59634D01*
X195911Y59568D01*
X195869Y59516D01*
X195418Y58032D01*
X195425Y57966D01*
X195394Y57907D01*
X195242Y56364D01*
X195261Y56300D01*
X195242Y56236D01*
X195394Y54693D01*
X195425Y54634D01*
X195418Y54568D01*
X195869Y53084D01*
X195911Y53032D01*
X195917Y52966D01*
X196649Y51598D01*
X196700Y51556D01*
X196719Y51492D01*
X197703Y50293D01*
X197762Y50262D01*
X197793Y50203D01*
X198992Y49219D01*
X199056Y49200D01*
X199098Y49149D01*
X200466Y48417D01*
X200532Y48411D01*
X200584Y48369D01*
X202068Y47918D01*
X202134Y47925D01*
X202193Y47894D01*
X203736Y47742D01*
X203769Y47751D01*
X203800Y47739D01*
X203831Y47751D01*
X203864Y47742D01*
X205407Y47894D01*
X205466Y47925D01*
X205532Y47918D01*
X207016Y48369D01*
X207068Y48411D01*
X207134Y48417D01*
X208502Y49149D01*
X208544Y49200D01*
X208608Y49219D01*
X209807Y50203D01*
X209838Y50262D01*
X209897Y50293D01*
X210881Y51492D01*
X210900Y51556D01*
X210951Y51598D01*
X211683Y52966D01*
X211689Y53032D01*
X211731Y53084D01*
X212182Y54568D01*
X212175Y54634D01*
X212206Y54693D01*
X212358Y56236D01*
X212339Y56300D01*
X212358Y56364D01*
X212206Y57907D01*
X212175Y57966D01*
X212182Y58032D01*
X211731Y59516D01*
X211689Y59568D01*
X211683Y59634D01*
X210951Y61002D01*
X210900Y61044D01*
X210881Y61108D01*
X209897Y62307D01*
X209838Y62338D01*
X209807Y62397D01*
X208608Y63381D01*
X208544Y63400D01*
X208502Y63451D01*
X207134Y64183D01*
X207068Y64189D01*
X207016Y64231D01*
X205532Y64682D01*
X205466Y64675D01*
X205407Y64706D01*
X203864Y64858D01*
X203831Y64849D01*
X203800Y64862D01*
D02*
G37*
G36*
X72158Y66661D02*
X71377Y66506D01*
X70716Y66064D01*
X70274Y65403D01*
X70118Y64622D01*
X70274Y63842D01*
X70716Y63180D01*
X71377Y62738D01*
X72158Y62583D01*
X72938Y62738D01*
X73600Y63180D01*
X74042Y63842D01*
X74197Y64622D01*
X74042Y65403D01*
X73600Y66064D01*
X72938Y66506D01*
X72158Y66661D01*
D02*
G37*
G36*
X29724Y70677D02*
X29331D01*
X28198Y70528D01*
X27142Y70090D01*
X26235Y69395D01*
X25540Y68488D01*
X25102Y67432D01*
X24953Y66299D01*
X25102Y65166D01*
X25540Y64110D01*
X26235Y63204D01*
X27142Y62508D01*
X28198Y62071D01*
X29331Y61922D01*
X29724D01*
X30857Y62071D01*
X31913Y62508D01*
X32820Y63204D01*
X33516Y64110D01*
X33953Y65166D01*
X34102Y66299D01*
X33953Y67432D01*
X33516Y68488D01*
X32820Y69395D01*
X31913Y70090D01*
X30857Y70528D01*
X29724Y70677D01*
D02*
G37*
G36*
X-24705Y80446D02*
X-26476D01*
X-27172Y80354D01*
X-27821Y80085D01*
X-28378Y79658D01*
X-28806Y79101D01*
X-29075Y78452D01*
X-29166Y77756D01*
X-29075Y77060D01*
X-28806Y76411D01*
X-28378Y75854D01*
X-28043Y75596D01*
X-28030Y75572D01*
Y75019D01*
X-28043Y74994D01*
X-28378Y74737D01*
X-28806Y74180D01*
X-29075Y73531D01*
X-29166Y72835D01*
X-29075Y72138D01*
X-28806Y71490D01*
X-28378Y70933D01*
X-28043Y70675D01*
X-28030Y70650D01*
Y70098D01*
X-28043Y70073D01*
X-28378Y69815D01*
X-28806Y69258D01*
X-29075Y68610D01*
X-29166Y67913D01*
X-29075Y67217D01*
X-28806Y66568D01*
X-28378Y66011D01*
X-28043Y65754D01*
X-28030Y65729D01*
Y65176D01*
X-28043Y65152D01*
X-28378Y64894D01*
X-28806Y64337D01*
X-29075Y63688D01*
X-29166Y62992D01*
X-29075Y62296D01*
X-28806Y61647D01*
X-28378Y61090D01*
X-27821Y60663D01*
X-27172Y60394D01*
X-26476Y60302D01*
X-24705D01*
X-24008Y60394D01*
X-23360Y60663D01*
X-22803Y61090D01*
X-22375Y61647D01*
X-22106Y62296D01*
X-22015Y62992D01*
X-22106Y63688D01*
X-22375Y64337D01*
X-22803Y64894D01*
X-23138Y65152D01*
X-23151Y65176D01*
Y65729D01*
X-23138Y65754D01*
X-22803Y66011D01*
X-22375Y66568D01*
X-22106Y67217D01*
X-22015Y67913D01*
X-22106Y68610D01*
X-22375Y69258D01*
X-22803Y69815D01*
X-23138Y70073D01*
X-23151Y70098D01*
Y70650D01*
X-23138Y70675D01*
X-22803Y70933D01*
X-22375Y71490D01*
X-22106Y72138D01*
X-22015Y72835D01*
X-22106Y73531D01*
X-22375Y74180D01*
X-22803Y74737D01*
X-23138Y74994D01*
X-23151Y75019D01*
Y75572D01*
X-23138Y75596D01*
X-22803Y75854D01*
X-22375Y76411D01*
X-22106Y77060D01*
X-22015Y77756D01*
X-22106Y78452D01*
X-22375Y79101D01*
X-22803Y79658D01*
X-23360Y80085D01*
X-24008Y80354D01*
X-24705Y80446D01*
D02*
G37*
G36*
X87598Y62078D02*
X86818Y61923D01*
X86156Y61481D01*
X85715Y60820D01*
X85559Y60039D01*
X85715Y59259D01*
X86156Y58597D01*
X86818Y58155D01*
X87598Y58000D01*
X88379Y58155D01*
X89040Y58597D01*
X89482Y59259D01*
X89638Y60039D01*
X89482Y60820D01*
X89040Y61481D01*
X88379Y61923D01*
X87598Y62078D01*
D02*
G37*
G36*
X165354Y61094D02*
X164574Y60939D01*
X163912Y60497D01*
X163470Y59835D01*
X163315Y59055D01*
X163470Y58275D01*
X163912Y57613D01*
X164574Y57171D01*
X165354Y57016D01*
X166135Y57171D01*
X166796Y57613D01*
X167238Y58275D01*
X167394Y59055D01*
X167238Y59835D01*
X166796Y60497D01*
X166135Y60939D01*
X165354Y61094D01*
D02*
G37*
G36*
X80300Y59039D02*
X79520Y58884D01*
X78858Y58442D01*
X78416Y57780D01*
X78261Y57000D01*
X78416Y56220D01*
X78858Y55558D01*
X79520Y55116D01*
X80300Y54961D01*
X81080Y55116D01*
X81742Y55558D01*
X82184Y56220D01*
X82339Y57000D01*
X82184Y57780D01*
X81742Y58442D01*
X81080Y58884D01*
X80300Y59039D01*
D02*
G37*
G36*
X78740Y54204D02*
X77960Y54049D01*
X77298Y53607D01*
X76856Y52946D01*
X76701Y52165D01*
X76856Y51385D01*
X77298Y50723D01*
X77960Y50281D01*
X78740Y50126D01*
X79520Y50281D01*
X80182Y50723D01*
X80624Y51385D01*
X80779Y52165D01*
X80624Y52946D01*
X80182Y53607D01*
X79520Y54049D01*
X78740Y54204D01*
D02*
G37*
G36*
X-1181Y57539D02*
X-8661D01*
X-9121Y57349D01*
X-9311Y56890D01*
Y49409D01*
X-9121Y48950D01*
X-8661Y48760D01*
X-1181D01*
X-722Y48950D01*
X-532Y49409D01*
Y56890D01*
X-722Y57349D01*
X-1181Y57539D01*
D02*
G37*
G36*
X118110Y49283D02*
X117330Y49128D01*
X116668Y48686D01*
X116226Y48024D01*
X116071Y47244D01*
X116226Y46464D01*
X116668Y45802D01*
X117330Y45360D01*
X118110Y45205D01*
X118890Y45360D01*
X119552Y45802D01*
X119994Y46464D01*
X120149Y47244D01*
X119994Y48024D01*
X119552Y48686D01*
X118890Y49128D01*
X118110Y49283D01*
D02*
G37*
G36*
X56000Y47139D02*
X55220Y46984D01*
X54558Y46542D01*
X54116Y45880D01*
X53961Y45100D01*
X54116Y44320D01*
X54558Y43658D01*
Y43193D01*
X54372Y43069D01*
X53842Y42275D01*
X53755Y41839D01*
X56102D01*
Y41339D01*
X56602D01*
Y38991D01*
X57039Y39078D01*
X57833Y39608D01*
X58363Y40402D01*
X58549Y41339D01*
X59009Y41590D01*
X59259Y41423D01*
X60039Y41268D01*
X60820Y41423D01*
X61481Y41865D01*
X61923Y42527D01*
X62078Y43307D01*
X61923Y44087D01*
X61481Y44749D01*
X60820Y45191D01*
X60039Y45346D01*
X59259Y45191D01*
X58597Y44749D01*
X58429Y44497D01*
X57958Y44692D01*
X58039Y45100D01*
X57884Y45880D01*
X57442Y46542D01*
X56780Y46984D01*
X56000Y47139D01*
D02*
G37*
G36*
X55602Y40839D02*
X53755D01*
X53842Y40402D01*
X54372Y39608D01*
X55166Y39078D01*
X55602Y38991D01*
Y40839D01*
D02*
G37*
G36*
X-26772Y44451D02*
X-28346D01*
X-29325Y44322D01*
X-30237Y43945D01*
X-31021Y43344D01*
X-31622Y42560D01*
X-32000Y41648D01*
X-32128Y40669D01*
X-32000Y39691D01*
X-31622Y38778D01*
X-31021Y37995D01*
X-30237Y37394D01*
X-29325Y37016D01*
X-28346Y36887D01*
X-26772D01*
X-25793Y37016D01*
X-24881Y37394D01*
X-24097Y37995D01*
X-23496Y38778D01*
X-23119Y39691D01*
X-22990Y40669D01*
X-23119Y41648D01*
X-23496Y42560D01*
X-24097Y43344D01*
X-24881Y43945D01*
X-25793Y44322D01*
X-26772Y44451D01*
D02*
G37*
G36*
X97941Y37781D02*
Y35933D01*
X99788D01*
X99702Y36369D01*
X99171Y37163D01*
X98377Y37694D01*
X97941Y37781D01*
D02*
G37*
G36*
X96941D02*
X96504Y37694D01*
X95711Y37163D01*
X95180Y36369D01*
X95093Y35933D01*
X96941D01*
Y37781D01*
D02*
G37*
G36*
X124516Y35812D02*
Y33965D01*
X126363D01*
X126277Y34401D01*
X125746Y35195D01*
X124952Y35725D01*
X124516Y35812D01*
D02*
G37*
G36*
X123516D02*
X123079Y35725D01*
X122285Y35195D01*
X121755Y34401D01*
X121668Y33965D01*
X123516D01*
Y35812D01*
D02*
G37*
G36*
X99788Y34933D02*
X97941D01*
Y33086D01*
X98377Y33172D01*
X99171Y33703D01*
X99702Y34497D01*
X99788Y34933D01*
D02*
G37*
G36*
X96941D02*
X95093D01*
X95180Y34497D01*
X95711Y33703D01*
X96504Y33172D01*
X96941Y33086D01*
Y34933D01*
D02*
G37*
G36*
X88582Y36488D02*
X87802Y36333D01*
X87141Y35891D01*
X86699Y35229D01*
X86543Y34449D01*
X86699Y33668D01*
X87141Y33007D01*
X87802Y32565D01*
X88582Y32410D01*
X89363Y32565D01*
X90024Y33007D01*
X90466Y33668D01*
X90622Y34449D01*
X90466Y35229D01*
X90024Y35891D01*
X89363Y36333D01*
X88582Y36488D01*
D02*
G37*
G36*
X48228Y35504D02*
X47448Y35348D01*
X46786Y34907D01*
X46344Y34245D01*
X46189Y33465D01*
X46344Y32684D01*
X46786Y32023D01*
X47448Y31581D01*
X48228Y31425D01*
X49009Y31581D01*
X49670Y32023D01*
X50112Y32684D01*
X50267Y33465D01*
X50112Y34245D01*
X49670Y34907D01*
X49009Y35348D01*
X48228Y35504D01*
D02*
G37*
G36*
X126363Y32965D02*
X124516D01*
Y31117D01*
X124952Y31204D01*
X125746Y31734D01*
X126277Y32528D01*
X126363Y32965D01*
D02*
G37*
G36*
X123516D02*
X121668D01*
X121755Y32528D01*
X122285Y31734D01*
X123079Y31204D01*
X123516Y31117D01*
Y32965D01*
D02*
G37*
G36*
X93504Y32551D02*
X92724Y32396D01*
X92062Y31954D01*
X91620Y31292D01*
X91465Y30512D01*
X91620Y29732D01*
X92062Y29070D01*
X92724Y28628D01*
X93504Y28473D01*
X94284Y28628D01*
X94946Y29070D01*
X95388Y29732D01*
X95543Y30512D01*
X95388Y31292D01*
X94946Y31954D01*
X94284Y32396D01*
X93504Y32551D01*
D02*
G37*
G36*
X156496Y31567D02*
X155716Y31411D01*
X155054Y30970D01*
X154612Y30308D01*
X154457Y29528D01*
X154612Y28747D01*
X155054Y28086D01*
X155716Y27644D01*
X156496Y27488D01*
X157276Y27644D01*
X157938Y28086D01*
X158380Y28747D01*
X158535Y29528D01*
X158380Y30308D01*
X157938Y30970D01*
X157276Y31411D01*
X156496Y31567D01*
D02*
G37*
G36*
X-26772Y34451D02*
X-28346D01*
X-29325Y34322D01*
X-30237Y33945D01*
X-31021Y33344D01*
X-31622Y32560D01*
X-32000Y31648D01*
X-32128Y30669D01*
X-32000Y29691D01*
X-31622Y28778D01*
X-31021Y27995D01*
X-30237Y27394D01*
X-29325Y27016D01*
X-28346Y26887D01*
X-26772D01*
X-25793Y27016D01*
X-24881Y27394D01*
X-24097Y27995D01*
X-23496Y28778D01*
X-23119Y29691D01*
X-22990Y30669D01*
X-23119Y31648D01*
X-23496Y32560D01*
X-24097Y33344D01*
X-24881Y33945D01*
X-25793Y34322D01*
X-26772Y34451D01*
D02*
G37*
G36*
X24606Y30582D02*
X23826Y30427D01*
X23164Y29985D01*
X22722Y29324D01*
X22567Y28543D01*
X22722Y27763D01*
X23164Y27101D01*
X23826Y26659D01*
X24606Y26504D01*
X25046Y26592D01*
X25425Y26578D01*
X25589Y26229D01*
X25649Y25925D01*
X25559Y25782D01*
X25399Y25622D01*
X25256Y25532D01*
X24606Y25661D01*
X23826Y25506D01*
X23164Y25064D01*
X22722Y24402D01*
X22567Y23622D01*
X22722Y22842D01*
X23164Y22180D01*
X23826Y21738D01*
X24606Y21583D01*
X25387Y21738D01*
X26048Y22180D01*
X26490Y22842D01*
X26645Y23622D01*
X26516Y24272D01*
X26606Y24415D01*
X26766Y24575D01*
X26909Y24665D01*
X27559Y24536D01*
X28339Y24691D01*
X29001Y25133D01*
X29443Y25794D01*
X29598Y26575D01*
X29443Y27355D01*
X29001Y28017D01*
X28339Y28459D01*
X27559Y28614D01*
X27120Y28527D01*
X26741Y28540D01*
X26577Y28890D01*
X26490Y29324D01*
X26048Y29985D01*
X25387Y30427D01*
X24606Y30582D01*
D02*
G37*
G36*
X82677Y29598D02*
X81897Y29443D01*
X81235Y29001D01*
X80793Y28339D01*
X80638Y27559D01*
X80793Y26779D01*
X81235Y26117D01*
X81897Y25675D01*
X82677Y25520D01*
X83457Y25675D01*
X84119Y26117D01*
X84561Y26779D01*
X84716Y27559D01*
X84561Y28339D01*
X84119Y29001D01*
X83457Y29443D01*
X82677Y29598D01*
D02*
G37*
G36*
X5421Y26954D02*
Y25106D01*
X7269D01*
X7182Y25543D01*
X6652Y26337D01*
X5858Y26867D01*
X5421Y26954D01*
D02*
G37*
G36*
X4421D02*
X3985Y26867D01*
X3191Y26337D01*
X2661Y25543D01*
X2574Y25106D01*
X4421D01*
Y26954D01*
D02*
G37*
G36*
X207480Y32483D02*
X205906D01*
X204927Y32354D01*
X204014Y31976D01*
X203231Y31375D01*
X202630Y30592D01*
X202252Y29680D01*
X202124Y28701D01*
X202252Y27722D01*
X202630Y26810D01*
X203231Y26026D01*
X204014Y25425D01*
X204927Y25048D01*
X205906Y24919D01*
X207480D01*
X208459Y25048D01*
X209371Y25425D01*
X210155Y26026D01*
X210756Y26810D01*
X211133Y27722D01*
X211262Y28701D01*
X211133Y29680D01*
X210756Y30592D01*
X210155Y31375D01*
X209371Y31976D01*
X208459Y32354D01*
X207480Y32483D01*
D02*
G37*
G36*
X-3937Y36488D02*
X-4717Y36333D01*
X-5379Y35891D01*
X-5821Y35229D01*
X-5976Y34449D01*
X-5821Y33669D01*
X-5664Y33433D01*
X-5931Y32933D01*
X-10630D01*
X-11089Y32743D01*
X-11279Y32283D01*
Y24803D01*
X-11089Y24344D01*
X-10630Y24154D01*
X-3150D01*
X-2690Y24344D01*
X-2500Y24803D01*
Y32283D01*
X-2690Y32743D01*
X-2506Y33000D01*
X-2495Y33007D01*
X-2053Y33669D01*
X-1898Y34449D01*
X-2053Y35229D01*
X-2495Y35891D01*
X-3157Y36333D01*
X-3937Y36488D01*
D02*
G37*
G36*
X7269Y24106D02*
X5421D01*
Y22259D01*
X5858Y22346D01*
X6652Y22876D01*
X7182Y23670D01*
X7269Y24106D01*
D02*
G37*
G36*
X4421D02*
X2574D01*
X2661Y23670D01*
X3191Y22876D01*
X3985Y22346D01*
X4421Y22259D01*
Y24106D01*
D02*
G37*
G36*
X113189Y24641D02*
X112416Y24540D01*
X111695Y24241D01*
X111076Y23766D01*
X110601Y23147D01*
X110303Y22427D01*
X110201Y21654D01*
X110303Y20880D01*
X110601Y20160D01*
X111076Y19541D01*
X111695Y19066D01*
X112416Y18768D01*
X113189Y18666D01*
X113962Y18768D01*
X114683Y19066D01*
X115302Y19541D01*
X115777Y20160D01*
X116075Y20880D01*
X116177Y21654D01*
X116075Y22427D01*
X115777Y23147D01*
X115302Y23766D01*
X114683Y24241D01*
X113962Y24540D01*
X113189Y24641D01*
D02*
G37*
G36*
X-23622Y24468D02*
X-31496D01*
X-31955Y24278D01*
X-32146Y23819D01*
Y17520D01*
X-31955Y17061D01*
X-31496Y16870D01*
X-23622D01*
X-23163Y17061D01*
X-22973Y17520D01*
Y23819D01*
X-23163Y24278D01*
X-23622Y24468D01*
D02*
G37*
G36*
X49713Y18096D02*
Y16248D01*
X51560D01*
X51473Y16684D01*
X50943Y17478D01*
X50149Y18009D01*
X49713Y18096D01*
D02*
G37*
G36*
X48713D02*
X48276Y18009D01*
X47482Y17478D01*
X46952Y16684D01*
X46865Y16248D01*
X48713D01*
Y18096D01*
D02*
G37*
G36*
X210630Y22500D02*
X202756D01*
X202297Y22310D01*
X202106Y21850D01*
Y15551D01*
X202297Y15092D01*
X202756Y14902D01*
X210630D01*
X211089Y15092D01*
X211279Y15551D01*
Y21850D01*
X211089Y22310D01*
X210630Y22500D01*
D02*
G37*
G36*
X48713Y15248D02*
X46865D01*
X46952Y14812D01*
X47482Y14018D01*
X48276Y13487D01*
X48713Y13400D01*
Y15248D01*
D02*
G37*
G36*
X161417Y11882D02*
X160637Y11727D01*
X159975Y11284D01*
X159533Y10623D01*
X159378Y9843D01*
X159533Y9062D01*
X159975Y8401D01*
X160637Y7959D01*
X161417Y7803D01*
X162198Y7959D01*
X162859Y8401D01*
X163301Y9062D01*
X163456Y9843D01*
X163301Y10623D01*
X162859Y11284D01*
X162198Y11727D01*
X161417Y11882D01*
D02*
G37*
G36*
X67913Y8929D02*
X67133Y8774D01*
X66471Y8332D01*
X66029Y7670D01*
X65874Y6890D01*
X66029Y6109D01*
X66471Y5448D01*
X67133Y5006D01*
X67913Y4851D01*
X68694Y5006D01*
X69355Y5448D01*
X69797Y6109D01*
X69953Y6890D01*
X69797Y7670D01*
X69355Y8332D01*
X68694Y8774D01*
X67913Y8929D01*
D02*
G37*
G36*
X51560Y15248D02*
X49713D01*
Y13400D01*
X49956Y13449D01*
X50238Y12995D01*
X49874Y12521D01*
X49496Y11609D01*
X49368Y10630D01*
Y7087D01*
X49496Y6108D01*
X49874Y5196D01*
X50475Y4412D01*
X51259Y3811D01*
X52171Y3434D01*
X53150Y3305D01*
X54128Y3434D01*
X55041Y3811D01*
X55824Y4412D01*
X56425Y5196D01*
X56803Y6108D01*
X56932Y7087D01*
Y10630D01*
X56803Y11609D01*
X56425Y12521D01*
X55824Y13304D01*
X55041Y13905D01*
X54128Y14283D01*
X53150Y14412D01*
X52171Y14283D01*
X51550Y14026D01*
X51218Y14430D01*
X51473Y14812D01*
X51560Y15248D01*
D02*
G37*
G36*
X91535Y4843D02*
X90791Y4745D01*
X90098Y4458D01*
X89503Y4001D01*
X89046Y3406D01*
X88759Y2712D01*
X88661Y1969D01*
X88759Y1225D01*
X89046Y531D01*
X89503Y-64D01*
X90098Y-521D01*
X90791Y-808D01*
X91535Y-906D01*
X92279Y-808D01*
X92973Y-521D01*
X93568Y-64D01*
X94025Y531D01*
X94312Y1225D01*
X94410Y1969D01*
X94312Y2712D01*
X94025Y3406D01*
X93568Y4001D01*
X92973Y4458D01*
X92279Y4745D01*
X91535Y4843D01*
D02*
G37*
G36*
X130709Y-161D02*
X127469D01*
Y-4421D01*
X131728D01*
Y-1181D01*
X131651Y-791D01*
X131430Y-460D01*
X131099Y-239D01*
X130709Y-161D01*
D02*
G37*
G36*
X126469D02*
X123228D01*
X122838Y-239D01*
X122507Y-460D01*
X122286Y-791D01*
X122209Y-1181D01*
Y-4421D01*
X126469D01*
Y-161D01*
D02*
G37*
G36*
X131728Y-5421D02*
X127469D01*
Y-9681D01*
X130709D01*
X131099Y-9603D01*
X131430Y-9382D01*
X131651Y-9052D01*
X131728Y-8661D01*
Y-5421D01*
D02*
G37*
G36*
X126469D02*
X122209D01*
Y-8661D01*
X122286Y-9052D01*
X122507Y-9382D01*
X122838Y-9603D01*
X123228Y-9681D01*
X126469D01*
Y-5421D01*
D02*
G37*
G36*
X177165Y14424D02*
X174909Y14246D01*
X172708Y13718D01*
X170617Y12852D01*
X168687Y11669D01*
X166966Y10199D01*
X165496Y8478D01*
X164313Y6548D01*
X163447Y4457D01*
X162919Y2256D01*
X162741Y-0D01*
X162919Y-2256D01*
X163447Y-4457D01*
X164313Y-6548D01*
X165496Y-8478D01*
X166966Y-10199D01*
X168687Y-11669D01*
X170617Y-12852D01*
X172708Y-13718D01*
X174909Y-14246D01*
X177165Y-14424D01*
X179422Y-14246D01*
X181623Y-13718D01*
X183714Y-12852D01*
X185643Y-11669D01*
X187365Y-10199D01*
X188835Y-8478D01*
X190017Y-6548D01*
X190883Y-4457D01*
X191412Y-2256D01*
X191589Y-0D01*
X191412Y2256D01*
X190883Y4457D01*
X190017Y6548D01*
X188835Y8478D01*
X187365Y10199D01*
X185643Y11669D01*
X183714Y12852D01*
X181623Y13718D01*
X179422Y14246D01*
X177165Y14424D01*
D02*
G37*
G36*
X-0D02*
X-2256Y14246D01*
X-4457Y13718D01*
X-6548Y12852D01*
X-8478Y11669D01*
X-10199Y10199D01*
X-11669Y8478D01*
X-12852Y6548D01*
X-13718Y4457D01*
X-14246Y2256D01*
X-14424Y-0D01*
X-14246Y-2256D01*
X-13718Y-4457D01*
X-12852Y-6548D01*
X-11669Y-8478D01*
X-10199Y-10199D01*
X-8478Y-11669D01*
X-6548Y-12852D01*
X-4457Y-13718D01*
X-2256Y-14246D01*
X-0Y-14424D01*
X2256Y-14246D01*
X4457Y-13718D01*
X6548Y-12852D01*
X8478Y-11669D01*
X10199Y-10199D01*
X11669Y-8478D01*
X12852Y-6548D01*
X13718Y-4457D01*
X14246Y-2256D01*
X14424Y-0D01*
X14246Y2256D01*
X13718Y4457D01*
X12852Y6548D01*
X11669Y8478D01*
X10199Y10199D01*
X8478Y11669D01*
X6548Y12852D01*
X4457Y13718D01*
X2256Y14246D01*
X-0Y14424D01*
D02*
G37*
G36*
X41653Y-18068D02*
X40675Y-18197D01*
X39763Y-18575D01*
X38979Y-19176D01*
X38378Y-19959D01*
X38001Y-20871D01*
X37872Y-21850D01*
Y-23425D01*
X38001Y-24404D01*
X38378Y-25316D01*
X38979Y-26099D01*
X39763Y-26700D01*
X40675Y-27078D01*
X41653Y-27207D01*
X42632Y-27078D01*
X43545Y-26700D01*
X44328Y-26099D01*
X44929Y-25316D01*
X45307Y-24404D01*
X45436Y-23425D01*
Y-21850D01*
X45307Y-20871D01*
X44929Y-19959D01*
X44328Y-19176D01*
X43545Y-18575D01*
X42632Y-18197D01*
X41653Y-18068D01*
D02*
G37*
G36*
X31653D02*
X30675Y-18197D01*
X29763Y-18575D01*
X28979Y-19176D01*
X28378Y-19959D01*
X28001Y-20871D01*
X27872Y-21850D01*
Y-23425D01*
X28001Y-24404D01*
X28378Y-25316D01*
X28979Y-26099D01*
X29763Y-26700D01*
X30675Y-27078D01*
X31653Y-27207D01*
X32632Y-27078D01*
X33544Y-26700D01*
X34328Y-26099D01*
X34929Y-25316D01*
X35307Y-24404D01*
X35436Y-23425D01*
Y-21850D01*
X35307Y-20871D01*
X34929Y-19959D01*
X34328Y-19176D01*
X33544Y-18575D01*
X32632Y-18197D01*
X31653Y-18068D01*
D02*
G37*
G36*
X54803Y-18051D02*
X48504D01*
X48045Y-18241D01*
X47855Y-18701D01*
Y-26575D01*
X48045Y-27034D01*
X48504Y-27224D01*
X54803D01*
X55262Y-27034D01*
X55453Y-26575D01*
Y-18701D01*
X55262Y-18241D01*
X54803Y-18051D01*
D02*
G37*
G36*
X97244Y-18396D02*
X96060Y-18552D01*
X94956Y-19009D01*
X94008Y-19737D01*
X93281Y-20684D01*
X92824Y-21788D01*
X92668Y-22973D01*
X92824Y-24157D01*
X93281Y-25260D01*
X94008Y-26208D01*
X94956Y-26935D01*
X96060Y-27393D01*
X97244Y-27549D01*
X98428Y-27393D01*
X99532Y-26935D01*
X100480Y-26208D01*
X101207Y-25260D01*
X101664Y-24157D01*
X101820Y-22973D01*
X101664Y-21788D01*
X101207Y-20684D01*
X100480Y-19737D01*
X99532Y-19009D01*
X98428Y-18552D01*
X97244Y-18396D01*
D02*
G37*
G36*
X87244D02*
X86060Y-18552D01*
X84956Y-19009D01*
X84008Y-19737D01*
X83281Y-20684D01*
X82824Y-21788D01*
X82668Y-22973D01*
X82824Y-24157D01*
X83281Y-25260D01*
X84008Y-26208D01*
X84956Y-26935D01*
X86060Y-27393D01*
X87244Y-27549D01*
X88428Y-27393D01*
X89532Y-26935D01*
X90480Y-26208D01*
X91207Y-25260D01*
X91664Y-24157D01*
X91820Y-22973D01*
X91664Y-21788D01*
X91207Y-20684D01*
X90480Y-19737D01*
X89532Y-19009D01*
X88428Y-18552D01*
X87244Y-18396D01*
D02*
G37*
G36*
X77244D02*
X76060Y-18552D01*
X74956Y-19009D01*
X74008Y-19737D01*
X73281Y-20684D01*
X72824Y-21788D01*
X72668Y-22973D01*
X72824Y-24157D01*
X73281Y-25260D01*
X74008Y-26208D01*
X74956Y-26935D01*
X76060Y-27393D01*
X77244Y-27549D01*
X78428Y-27393D01*
X79532Y-26935D01*
X80480Y-26208D01*
X81207Y-25260D01*
X81664Y-24157D01*
X81820Y-22973D01*
X81664Y-21788D01*
X81207Y-20684D01*
X80480Y-19737D01*
X79532Y-19009D01*
X78428Y-18552D01*
X77244Y-18396D01*
D02*
G37*
G36*
X-20496Y-25106D02*
X-24106D01*
Y-27700D01*
X-23524D01*
X-22723Y-27594D01*
X-21977Y-27285D01*
X-21336Y-26794D01*
X-20845Y-26153D01*
X-20536Y-25407D01*
X-20496Y-25106D01*
D02*
G37*
G36*
X-25106D02*
X-28716D01*
X-28677Y-25407D01*
X-28368Y-26153D01*
X-27876Y-26794D01*
X-27236Y-27285D01*
X-26490Y-27594D01*
X-25689Y-27700D01*
X-25106D01*
Y-25106D01*
D02*
G37*
G36*
X123300Y-29461D02*
X122520Y-29616D01*
X121858Y-30058D01*
X121416Y-30720D01*
X121261Y-31500D01*
X121416Y-32280D01*
X121858Y-32942D01*
X122520Y-33384D01*
X123300Y-33539D01*
X124080Y-33384D01*
X124742Y-32942D01*
X125184Y-32280D01*
X125339Y-31500D01*
X125184Y-30720D01*
X124742Y-30058D01*
X124080Y-29616D01*
X123300Y-29461D01*
D02*
G37*
G36*
X195669Y-27106D02*
X188189D01*
X187730Y-27297D01*
X187540Y-27756D01*
Y-35236D01*
X187730Y-35695D01*
X188189Y-35886D01*
X195669D01*
X196128Y-35695D01*
X196319Y-35236D01*
Y-27756D01*
X196128Y-27297D01*
X195669Y-27106D01*
D02*
G37*
G36*
X51653Y-28068D02*
X50675Y-28197D01*
X49763Y-28575D01*
X48979Y-29176D01*
X48378Y-29959D01*
X48000Y-30871D01*
X47872Y-31850D01*
Y-33425D01*
X48000Y-34404D01*
X48378Y-35316D01*
X48979Y-36099D01*
X49763Y-36700D01*
X50675Y-37078D01*
X51653Y-37207D01*
X52632Y-37078D01*
X53544Y-36700D01*
X54328Y-36099D01*
X54929Y-35316D01*
X55307Y-34404D01*
X55436Y-33425D01*
Y-31850D01*
X55307Y-30871D01*
X54929Y-29959D01*
X54328Y-29176D01*
X53544Y-28575D01*
X52632Y-28197D01*
X51653Y-28068D01*
D02*
G37*
G36*
X41653D02*
X40675Y-28197D01*
X39763Y-28575D01*
X38979Y-29176D01*
X38378Y-29959D01*
X38001Y-30871D01*
X37872Y-31850D01*
Y-33425D01*
X38001Y-34404D01*
X38378Y-35316D01*
X38979Y-36099D01*
X39763Y-36700D01*
X40675Y-37078D01*
X41653Y-37207D01*
X42632Y-37078D01*
X43545Y-36700D01*
X44328Y-36099D01*
X44929Y-35316D01*
X45307Y-34404D01*
X45436Y-33425D01*
Y-31850D01*
X45307Y-30871D01*
X44929Y-29959D01*
X44328Y-29176D01*
X43545Y-28575D01*
X42632Y-28197D01*
X41653Y-28068D01*
D02*
G37*
G36*
X31653D02*
X30675Y-28197D01*
X29763Y-28575D01*
X28979Y-29176D01*
X28378Y-29959D01*
X28001Y-30871D01*
X27872Y-31850D01*
Y-33425D01*
X28001Y-34404D01*
X28378Y-35316D01*
X28979Y-36099D01*
X29763Y-36700D01*
X30675Y-37078D01*
X31653Y-37207D01*
X32632Y-37078D01*
X33544Y-36700D01*
X34328Y-36099D01*
X34929Y-35316D01*
X35307Y-34404D01*
X35436Y-33425D01*
Y-31850D01*
X35307Y-30871D01*
X34929Y-29959D01*
X34328Y-29176D01*
X33544Y-28575D01*
X32632Y-28197D01*
X31653Y-28068D01*
D02*
G37*
G36*
X21654D02*
X20675Y-28197D01*
X19763Y-28575D01*
X18979Y-29176D01*
X18378Y-29959D01*
X18000Y-30871D01*
X17872Y-31850D01*
Y-33425D01*
X18000Y-34404D01*
X18378Y-35316D01*
X18979Y-36099D01*
X19763Y-36700D01*
X20675Y-37078D01*
X21654Y-37207D01*
X22632Y-37078D01*
X23544Y-36700D01*
X24328Y-36099D01*
X24929Y-35316D01*
X25307Y-34404D01*
X25436Y-33425D01*
Y-31850D01*
X25307Y-30871D01*
X24929Y-29959D01*
X24328Y-29176D01*
X23544Y-28575D01*
X22632Y-28197D01*
X21654Y-28068D01*
D02*
G37*
G36*
X87244Y-28396D02*
X86060Y-28552D01*
X84956Y-29009D01*
X84008Y-29737D01*
X83281Y-30684D01*
X82824Y-31788D01*
X82668Y-32972D01*
X82824Y-34157D01*
X83281Y-35260D01*
X84008Y-36208D01*
X84956Y-36935D01*
X86060Y-37393D01*
X87244Y-37549D01*
X88428Y-37393D01*
X89532Y-36935D01*
X90480Y-36208D01*
X91207Y-35260D01*
X91664Y-34157D01*
X91820Y-32972D01*
X91664Y-31788D01*
X91207Y-30684D01*
X90480Y-29737D01*
X89532Y-29009D01*
X88428Y-28552D01*
X87244Y-28396D01*
D02*
G37*
G36*
X77244D02*
X76060Y-28552D01*
X74956Y-29009D01*
X74008Y-29737D01*
X73281Y-30684D01*
X72824Y-31788D01*
X72668Y-32972D01*
X72824Y-34157D01*
X73281Y-35260D01*
X74008Y-36208D01*
X74956Y-36935D01*
X76060Y-37393D01*
X77244Y-37549D01*
X78428Y-37393D01*
X79532Y-36935D01*
X80480Y-36208D01*
X81207Y-35260D01*
X81664Y-34157D01*
X81820Y-32972D01*
X81664Y-31788D01*
X81207Y-30684D01*
X80480Y-29737D01*
X79532Y-29009D01*
X78428Y-28552D01*
X77244Y-28396D01*
D02*
G37*
%LPD*%
D12*
X68898Y39370D02*
Y46260D01*
X62992Y47244D02*
Y83661D01*
X103635Y51000D02*
X140200D01*
X141300Y49900D01*
X132432Y64700D02*
X141300Y55832D01*
Y49900D02*
Y55832D01*
X94200Y203993D02*
X97441Y207234D01*
Y207677D01*
X94200Y194594D02*
Y203993D01*
X83661Y184055D02*
X94200Y194594D01*
X92520Y195420D02*
Y207677D01*
X82061Y184961D02*
X92520Y195420D01*
X82061Y120694D02*
Y184961D01*
Y120694D02*
X90551Y112205D01*
X119095Y41339D02*
X148622D01*
X101378Y23622D02*
X119095Y41339D01*
X148622D02*
X162402Y55118D01*
X83661Y121357D02*
X101100Y103919D01*
Y92242D02*
Y103919D01*
X97441Y88583D02*
X101100Y92242D01*
X38386Y11904D02*
Y85486D01*
X9782Y-16700D02*
X38386Y11904D01*
X-6922Y-16700D02*
X9782D01*
X-17717Y-5906D02*
X-6922Y-16700D01*
X129800Y56200D02*
X131987D01*
X133234Y57447D01*
X129800Y54013D02*
Y56200D01*
X128387Y52600D02*
X129800Y54013D01*
X104365Y52600D02*
X128387D01*
X104283Y52681D02*
X104365Y52600D01*
X102445Y52681D02*
X104283D01*
X103554Y51081D02*
X103635Y51000D01*
X103108Y51081D02*
X103554D01*
X103067Y51040D02*
X103108Y51081D01*
X99689Y51040D02*
X103067D01*
X128376Y60600D02*
X130734D01*
X125984Y62992D02*
X128376Y60600D01*
X133234Y57447D02*
Y61636D01*
X129921Y65945D02*
X131166Y64700D01*
X132432D01*
X131770Y63100D02*
X133234Y61636D01*
X129813Y63100D02*
X131770D01*
X127953Y64961D02*
X129813Y63100D01*
X130734Y60406D02*
Y60600D01*
X130712Y60384D02*
X130734Y60406D01*
X127953Y64961D02*
X128075Y65083D01*
Y175319D01*
X129921Y65945D02*
Y170276D01*
X130905Y171260D01*
X125984Y62992D02*
Y169291D01*
X130905Y171260D02*
Y173228D01*
X122600Y172676D02*
Y173700D01*
X87839Y46500D02*
X91535Y50197D01*
X72700Y46500D02*
X87839D01*
X61024Y101378D02*
X73400Y89002D01*
Y89000D02*
Y89002D01*
X76300Y63505D02*
Y72400D01*
X65700Y52905D02*
X76300Y63505D01*
X57087Y15748D02*
X115157D01*
X13780Y101378D02*
X61024D01*
X9843Y97441D02*
X13780Y101378D01*
X-24606Y-0D02*
X-20669D01*
X-17717Y-5906D02*
Y-2953D01*
X-20669Y-0D02*
X-17717Y-2953D01*
X48228Y49213D02*
X56102Y41339D01*
X48228Y49213D02*
Y73425D01*
X59055Y23622D02*
X70866D01*
X62008Y26575D02*
X70866D01*
X58071Y18701D02*
X100394D01*
X53150Y19685D02*
X57087Y15748D01*
X55118Y21654D02*
X58071Y18701D01*
X100394D02*
X120394Y38701D01*
X55118Y25591D02*
X68898Y39370D01*
X90551Y96457D02*
Y112205D01*
X84646Y90551D02*
X90551Y96457D01*
X84646Y63976D02*
Y90551D01*
X95472Y88583D02*
X97441D01*
X55118Y21654D02*
Y25591D01*
X120394Y38701D02*
X206693D01*
X53150Y19685D02*
Y26575D01*
X55118Y91535D02*
X62992Y83661D01*
X91535Y50197D02*
Y74803D01*
X111221Y94488D01*
Y97441D01*
X120079Y106299D01*
X53150Y26575D02*
X65700Y39125D01*
Y52905D01*
X122600Y172676D02*
X125984Y169291D01*
X70866Y23622D02*
X98325Y51081D01*
X100310Y52681D02*
X100351Y52640D01*
X102404D01*
X102445Y52681D01*
X98325Y51081D02*
X99648D01*
X99689Y51040D01*
X70866Y26575D02*
X96972Y52681D01*
X100310D01*
X83661Y121357D02*
Y184055D01*
X146653Y-26575D02*
Y-3254D01*
X115157Y15748D02*
X121538Y9368D01*
X38386Y85486D02*
X49300Y96400D01*
X62065D01*
X67913Y90551D01*
X134032Y9368D02*
X146653Y-3254D01*
X121538Y9368D02*
X134032D01*
D77*
X102362Y61224D02*
Y71850D01*
X99319Y58181D02*
X102362Y61224D01*
X99300Y58200D02*
X99319Y58181D01*
D79*
X155608Y-31400D02*
X156496Y-30512D01*
X129825Y-31400D02*
X155608D01*
X114173Y-15748D02*
X129825Y-31400D01*
X156496Y-30512D02*
Y-26575D01*
X28543Y-15748D02*
X114173D01*
X21654Y-22638D02*
X28543Y-15748D01*
X8858Y106299D02*
X29528D01*
X5906Y103347D02*
X8858Y106299D01*
X5906Y90551D02*
Y103347D01*
Y90551D02*
X12795Y83661D01*
Y15748D02*
Y83661D01*
D80*
X121850Y178150D02*
X129921D01*
X104331Y160631D02*
X121850Y178150D01*
X129921D02*
X131890Y176181D01*
X104331Y135827D02*
Y160631D01*
X95473Y126969D02*
X104331Y135827D01*
X166339Y161417D02*
X185039D01*
X200787Y177165D01*
X133858Y176181D02*
X151575D01*
X131890D02*
X133858D01*
X151575D02*
X166339Y161417D01*
D87*
X107244Y-32972D02*
D03*
D89*
X136700Y8000D02*
D03*
D90*
X126969Y-4921D02*
D03*
D93*
X206693Y38701D02*
D03*
X200787Y177008D02*
D03*
D95*
X95473Y126969D02*
D03*
D97*
X21654Y-22638D02*
D03*
D99*
X-24606Y-24606D02*
D03*
Y-0D02*
D03*
D102*
X97441Y207677D02*
D03*
X92520D02*
D03*
D106*
X146653Y-26575D02*
D03*
X156496D02*
D03*
D109*
X29528Y106299D02*
D03*
D111*
X68898Y46260D02*
D03*
X62992Y47244D02*
D03*
X141300Y49900D02*
D03*
X129800Y56200D02*
D03*
X130734Y60600D02*
D03*
X128075Y175319D02*
D03*
X130905Y173228D02*
D03*
X122600Y173700D02*
D03*
X72700Y46500D02*
D03*
X99300Y58200D02*
D03*
X73400Y89000D02*
D03*
X76300Y72400D02*
D03*
X-29331Y111221D02*
D03*
X49213Y15748D02*
D03*
X12795D02*
D03*
X95472Y73819D02*
D03*
X97441Y35433D02*
D03*
X48228Y73425D02*
D03*
X9843Y97441D02*
D03*
X101378Y23622D02*
D03*
X162402Y55118D02*
D03*
X95472Y88583D02*
D03*
X124016Y33465D02*
D03*
X62008Y26575D02*
D03*
X59055Y23622D02*
D03*
X84646Y63976D02*
D03*
X56102Y41339D02*
D03*
X67913Y90551D02*
D03*
X55118Y91535D02*
D03*
X44882Y159449D02*
D03*
X102362Y71850D02*
D03*
X133858Y176181D02*
D03*
X4921Y24606D02*
D03*
X120079Y106299D02*
D03*
M02*
