G04*
G04 #@! TF.GenerationSoftware,Altium Limited,Altium Designer,19.1.1 (5)*
G04*
G04 Layer_Color=16711935*
%FSLAX25Y25*%
%MOIN*%
G70*
G01*
G75*
%ADD34R,0.04800X0.06300*%
%ADD35R,0.06300X0.04800*%
%ADD36R,0.06312X0.05131*%
%ADD37R,0.05131X0.06312*%
%ADD41R,0.07099X0.03162*%
%ADD46R,0.08674X0.09800*%
%ADD49O,0.02178X0.08674*%
%ADD50R,0.05918X0.03556*%
%ADD51C,0.08674*%
%ADD52R,0.08674X0.08674*%
%ADD53R,0.08280X0.08280*%
%ADD54R,0.08280X0.08280*%
%ADD55C,0.14580*%
%ADD56C,0.28359*%
%ADD57O,0.08674X0.07099*%
%ADD58R,0.08674X0.07099*%
%ADD59O,0.07099X0.10642*%
%ADD60O,0.06706X0.04934*%
%ADD61O,0.07099X0.08674*%
%ADD62R,0.07099X0.08674*%
%ADD63O,0.07099X0.04934*%
%ADD64O,0.10249X0.08280*%
%ADD65R,0.10249X0.08280*%
%ADD66O,0.04934X0.06706*%
%ADD67O,0.05131X0.07099*%
%ADD68C,0.06509*%
%ADD69C,0.05524*%
%ADD70O,0.04934X0.07099*%
%ADD71C,0.18517*%
%ADD72O,0.08674X0.08280*%
%ADD73R,0.08674X0.08280*%
%ADD74R,0.08674X0.08674*%
%ADD75C,0.03600*%
%ADD76C,0.05300*%
%ADD134O,0.16548X0.48044*%
%ADD135R,0.18517X0.32296*%
%ADD136R,0.03162X0.07099*%
%ADD137R,0.03556X0.05524*%
%ADD138R,0.04737X0.05524*%
%ADD139R,0.04737X0.03950*%
%ADD140R,0.04737X0.11824*%
%ADD141R,0.05918X0.08280*%
%ADD142R,0.14000X0.05500*%
%ADD143O,0.01981X0.08674*%
%ADD144O,0.01784X0.09068*%
%ADD145O,0.01784X0.08300*%
%ADD146O,0.09068X0.01784*%
D34*
X18464Y41339D02*
D03*
X11064D02*
D03*
Y21654D02*
D03*
X18464D02*
D03*
X160196Y127953D02*
D03*
X152796D02*
D03*
Y121063D02*
D03*
X160196D02*
D03*
D35*
X62008Y3190D02*
D03*
Y10590D02*
D03*
X114173Y154765D02*
D03*
Y162165D02*
D03*
X190945Y153879D02*
D03*
Y161279D02*
D03*
X150591Y169054D02*
D03*
Y161654D02*
D03*
X191929Y140001D02*
D03*
Y147401D02*
D03*
X82677Y143938D02*
D03*
Y151338D02*
D03*
X183071Y130668D02*
D03*
Y123268D02*
D03*
X191929D02*
D03*
Y130668D02*
D03*
X125000Y45039D02*
D03*
Y37639D02*
D03*
D36*
X62008Y-2953D02*
D03*
Y-8858D02*
D03*
X125984Y63976D02*
D03*
Y69882D02*
D03*
X114173Y174213D02*
D03*
Y168307D02*
D03*
X144685Y121063D02*
D03*
Y126969D02*
D03*
X139764Y194882D02*
D03*
Y200787D02*
D03*
X131890D02*
D03*
Y194882D02*
D03*
X124016D02*
D03*
Y200787D02*
D03*
X173228Y129921D02*
D03*
Y124016D02*
D03*
X984Y34449D02*
D03*
Y28543D02*
D03*
X131890Y16732D02*
D03*
Y22638D02*
D03*
X93504Y83661D02*
D03*
Y77756D02*
D03*
X103347Y28543D02*
D03*
Y34449D02*
D03*
X118110Y21654D02*
D03*
Y27559D02*
D03*
X118110Y35433D02*
D03*
Y41339D02*
D03*
X117126Y50197D02*
D03*
Y56102D02*
D03*
X125000D02*
D03*
Y50197D02*
D03*
X116142Y-24606D02*
D03*
Y-30512D02*
D03*
X53100Y32953D02*
D03*
Y27047D02*
D03*
D37*
X165354Y157480D02*
D03*
X159449D02*
D03*
X165354Y149606D02*
D03*
X159449D02*
D03*
X147638D02*
D03*
X153543D02*
D03*
X149606Y138779D02*
D03*
X143701D02*
D03*
X104331Y192913D02*
D03*
X98425D02*
D03*
X99410Y173228D02*
D03*
X93504D02*
D03*
X107283Y89567D02*
D03*
X101378D02*
D03*
X48228Y76772D02*
D03*
X42323D02*
D03*
D41*
X113583Y68701D02*
D03*
Y61220D02*
D03*
X104921Y64961D02*
D03*
D46*
X150878Y108268D02*
D03*
X168020D02*
D03*
D49*
X119390Y184646D02*
D03*
X121949D02*
D03*
X124508D02*
D03*
X127067D02*
D03*
X129626D02*
D03*
X132185D02*
D03*
X134744D02*
D03*
X137303D02*
D03*
X139862D02*
D03*
X142421D02*
D03*
X119390Y161811D02*
D03*
X121949D02*
D03*
X124508D02*
D03*
X127067D02*
D03*
X129626D02*
D03*
X132185D02*
D03*
X134744D02*
D03*
X137303D02*
D03*
X139862D02*
D03*
X142421D02*
D03*
D50*
X19488Y35236D02*
D03*
Y31496D02*
D03*
Y27756D02*
D03*
X10039D02*
D03*
Y35236D02*
D03*
X44925Y42740D02*
D03*
Y39000D02*
D03*
Y35260D02*
D03*
X35476D02*
D03*
Y42740D02*
D03*
D51*
X77244Y-32972D02*
D03*
Y-22973D02*
D03*
X87244Y-32972D02*
D03*
Y-22973D02*
D03*
X97244Y-32972D02*
D03*
Y-22973D02*
D03*
X107244Y-32972D02*
D03*
X-30512Y196693D02*
D03*
X-17717D02*
D03*
D52*
X107244Y-22973D02*
D03*
D53*
X-6890Y28543D02*
D03*
X191929Y-31496D02*
D03*
X136700Y8000D02*
D03*
X62100Y117400D02*
D03*
X76200Y117500D02*
D03*
D54*
X-4921Y53150D02*
D03*
X116142Y136811D02*
D03*
X126969Y-4921D02*
D03*
D55*
X203800Y56300D02*
D03*
X203530Y106000D02*
D03*
X184400Y71500D02*
D03*
X183800Y91300D02*
D03*
D56*
X-0Y177165D02*
D03*
X177165D02*
D03*
Y-0D02*
D03*
X-0D02*
D03*
D57*
X-29528Y158780D02*
D03*
Y148779D02*
D03*
X-27559Y40669D02*
D03*
Y30669D02*
D03*
X206693Y28701D02*
D03*
Y38701D02*
D03*
X200787Y177008D02*
D03*
X178149Y146811D02*
D03*
Y156811D02*
D03*
D58*
X-29528Y138779D02*
D03*
X-27559Y20669D02*
D03*
X206693Y18701D02*
D03*
X200787Y187008D02*
D03*
X178149Y136811D02*
D03*
D59*
X69882Y126969D02*
D03*
X95473D02*
D03*
X69882Y144685D02*
D03*
X95473D02*
D03*
X30512Y126969D02*
D03*
X56102D02*
D03*
X30512Y144685D02*
D03*
X56102D02*
D03*
X53150Y8858D02*
D03*
X27559D02*
D03*
X53150Y-8858D02*
D03*
X27559D02*
D03*
D60*
X-25591Y62992D02*
D03*
Y67913D02*
D03*
Y72835D02*
D03*
Y77756D02*
D03*
D61*
X21654Y-32638D02*
D03*
Y-22638D02*
D03*
X31653Y-32638D02*
D03*
Y-22638D02*
D03*
X41653Y-32638D02*
D03*
Y-22638D02*
D03*
X51653Y-32638D02*
D03*
D62*
Y-22638D02*
D03*
D63*
X-24606Y-24606D02*
D03*
Y-19685D02*
D03*
Y-14764D02*
D03*
Y-9842D02*
D03*
Y-4921D02*
D03*
Y-0D02*
D03*
D64*
X202756Y156496D02*
D03*
Y146653D02*
D03*
Y136811D02*
D03*
D65*
Y126969D02*
D03*
D66*
X102362Y207677D02*
D03*
X97441D02*
D03*
X92520D02*
D03*
X87599D02*
D03*
D67*
X143701Y210630D02*
D03*
X171260D02*
D03*
D68*
X147638Y200000D02*
D03*
X167323D02*
D03*
D69*
X99410Y165354D02*
D03*
Y184646D02*
D03*
X113189Y40945D02*
D03*
Y21654D02*
D03*
D70*
X131890Y-26575D02*
D03*
X136811D02*
D03*
X141732D02*
D03*
X146653D02*
D03*
X151575D02*
D03*
X156496D02*
D03*
D71*
X78740Y103543D02*
D03*
D72*
X29528Y66299D02*
D03*
Y76299D02*
D03*
Y86299D02*
D03*
Y96299D02*
D03*
D73*
Y106299D02*
D03*
D74*
X-30512Y206693D02*
D03*
X-17717D02*
D03*
D75*
X71850Y53150D02*
D03*
X68898Y50197D02*
D03*
Y46260D02*
D03*
X62992Y47244D02*
D03*
X105200Y61900D02*
D03*
X141300Y49900D02*
D03*
X130315Y48228D02*
D03*
X129800Y56200D02*
D03*
X105400Y55100D02*
D03*
X106299Y48228D02*
D03*
X102362D02*
D03*
X130734Y60600D02*
D03*
X132874Y148622D02*
D03*
X139764Y147638D02*
D03*
X128075Y175319D02*
D03*
X130905Y173228D02*
D03*
X122600Y173700D02*
D03*
X56000Y45100D02*
D03*
X72700Y46500D02*
D03*
X86614Y50197D02*
D03*
X78740Y52165D02*
D03*
X86614Y54134D02*
D03*
X80300Y57000D02*
D03*
X99300Y58200D02*
D03*
X101300Y55200D02*
D03*
X123100Y12700D02*
D03*
X122000Y6800D02*
D03*
X40400Y178900D02*
D03*
X96778Y101078D02*
D03*
X73400Y89000D02*
D03*
X76300Y72400D02*
D03*
X60100Y71900D02*
D03*
X72158Y64622D02*
D03*
X-29331Y111221D02*
D03*
X48228Y33465D02*
D03*
X82677Y27559D02*
D03*
X161417Y162402D02*
D03*
X-3937Y34449D02*
D03*
X208661Y119095D02*
D03*
X24606Y28543D02*
D03*
X131890Y207677D02*
D03*
X150591Y195866D02*
D03*
X49213Y15748D02*
D03*
X12795D02*
D03*
X95472Y73819D02*
D03*
X97441Y35433D02*
D03*
X116142Y77756D02*
D03*
X42323Y71851D02*
D03*
X48228Y73425D02*
D03*
X9843Y97441D02*
D03*
X72835Y21654D02*
D03*
X67913Y6890D02*
D03*
X-22638Y106299D02*
D03*
Y125984D02*
D03*
X121063Y72835D02*
D03*
X101378Y23622D02*
D03*
X162402Y55118D02*
D03*
X95472Y88583D02*
D03*
X88582Y34449D02*
D03*
X124016Y33465D02*
D03*
X89596Y160433D02*
D03*
X91535Y93504D02*
D03*
X96457D02*
D03*
X138779Y209646D02*
D03*
X164370Y204528D02*
D03*
X62008Y26575D02*
D03*
X27559D02*
D03*
X59055Y23622D02*
D03*
X24606D02*
D03*
X156496Y29528D02*
D03*
X161417Y9843D02*
D03*
X84646Y63976D02*
D03*
X56102Y41339D02*
D03*
X60039Y43307D02*
D03*
X67913Y90551D02*
D03*
X93504Y30512D02*
D03*
X87598Y60039D02*
D03*
X49213Y178150D02*
D03*
X55118Y91535D02*
D03*
X57874Y178150D02*
D03*
X25591Y195866D02*
D03*
X44882Y159449D02*
D03*
X27559D02*
D03*
X23819Y149606D02*
D03*
X57874Y159449D02*
D03*
X135827Y146653D02*
D03*
X99410Y151575D02*
D03*
X102362Y71850D02*
D03*
X121063Y96457D02*
D03*
X157480Y166339D02*
D03*
X133858Y176181D02*
D03*
X4921Y24606D02*
D03*
X87598Y66929D02*
D03*
X31201Y178839D02*
D03*
X118110Y47244D02*
D03*
X165354Y59055D02*
D03*
X121063Y66929D02*
D03*
X120079Y106299D02*
D03*
Y155512D02*
D03*
X74900Y42000D02*
D03*
X22900Y71700D02*
D03*
X2000Y66900D02*
D03*
X44700Y136600D02*
D03*
X35000Y137600D02*
D03*
X123300Y-31500D02*
D03*
D76*
X91535Y1969D02*
D03*
D134*
X203445Y90256D02*
D03*
Y71555D02*
D03*
D135*
X183957Y98425D02*
D03*
Y63976D02*
D03*
D136*
X100394Y81693D02*
D03*
X107874D02*
D03*
X104134Y73032D02*
D03*
X-21850Y116732D02*
D03*
X-29331D02*
D03*
X-25591Y125394D02*
D03*
X-21850Y98032D02*
D03*
X-29331D02*
D03*
X-25591Y106693D02*
D03*
D137*
X57874Y154527D02*
D03*
X53543D02*
D03*
X49213D02*
D03*
X44882D02*
D03*
X40551D02*
D03*
X36220D02*
D03*
X31890D02*
D03*
X27559D02*
D03*
X23819D02*
D03*
D138*
X63977D02*
D03*
X20079Y171457D02*
D03*
D139*
Y195866D02*
D03*
D140*
Y210236D02*
D03*
D141*
X73228Y212992D02*
D03*
D142*
X167323Y91424D02*
D03*
Y68024D02*
D03*
X152559Y91424D02*
D03*
Y68024D02*
D03*
D143*
X131890Y71260D02*
D03*
X133858D02*
D03*
X135827D02*
D03*
X137795D02*
D03*
X139764D02*
D03*
X131890Y54724D02*
D03*
X133858D02*
D03*
X135827D02*
D03*
X137795D02*
D03*
X139764D02*
D03*
D144*
X86614Y79134D02*
D03*
X84646D02*
D03*
X82677D02*
D03*
X80709D02*
D03*
X78740D02*
D03*
X76772D02*
D03*
X74803D02*
D03*
X72835D02*
D03*
X70866D02*
D03*
X68898D02*
D03*
X66929D02*
D03*
X64961D02*
D03*
X62992D02*
D03*
X61024D02*
D03*
X59055D02*
D03*
X57087Y35039D02*
D03*
X59055D02*
D03*
X61024D02*
D03*
X62992D02*
D03*
X64961D02*
D03*
X66929D02*
D03*
X68898D02*
D03*
X70866D02*
D03*
X72835D02*
D03*
X74803D02*
D03*
X76772D02*
D03*
X78740D02*
D03*
X80709D02*
D03*
X82677D02*
D03*
X84646D02*
D03*
X86614D02*
D03*
D145*
X57087Y79134D02*
D03*
D146*
X49803Y71850D02*
D03*
Y69882D02*
D03*
Y67913D02*
D03*
Y65945D02*
D03*
Y63976D02*
D03*
Y62008D02*
D03*
Y60039D02*
D03*
Y58071D02*
D03*
Y56102D02*
D03*
Y54134D02*
D03*
Y52165D02*
D03*
Y50197D02*
D03*
Y48228D02*
D03*
Y46260D02*
D03*
Y44291D02*
D03*
Y42323D02*
D03*
X93898D02*
D03*
Y44291D02*
D03*
Y46260D02*
D03*
Y48228D02*
D03*
Y50197D02*
D03*
Y52165D02*
D03*
Y54134D02*
D03*
Y56102D02*
D03*
Y58071D02*
D03*
Y60039D02*
D03*
Y62008D02*
D03*
Y63976D02*
D03*
Y65945D02*
D03*
Y67913D02*
D03*
Y69882D02*
D03*
Y71850D02*
D03*
M02*
