G04*
G04 #@! TF.GenerationSoftware,Altium Limited,Altium Designer,19.1.1 (5)*
G04*
G04 Layer_Color=128*
%FSLAX25Y25*%
%MOIN*%
G70*
G01*
G75*
%ADD17R,0.04000X0.05500*%
%ADD18R,0.05500X0.04000*%
%ADD19R,0.05512X0.04331*%
%ADD20R,0.04331X0.05512*%
%ADD24R,0.06299X0.02362*%
%ADD29R,0.07874X0.09000*%
%ADD32O,0.01378X0.07874*%
%ADD33R,0.05118X0.02756*%
%ADD113O,0.15748X0.47244*%
%ADD114R,0.17717X0.31496*%
%ADD115R,0.02362X0.06299*%
%ADD116R,0.02756X0.04724*%
%ADD117R,0.03937X0.04724*%
%ADD118R,0.03937X0.03150*%
%ADD119R,0.03937X0.11024*%
%ADD120R,0.05118X0.07480*%
%ADD121R,0.13200X0.04700*%
%ADD122O,0.01181X0.07874*%
%ADD123O,0.00984X0.08268*%
%ADD124O,0.00984X0.07500*%
%ADD125O,0.08268X0.00984*%
D17*
X18464Y41339D02*
D03*
X11064D02*
D03*
Y21654D02*
D03*
X18464D02*
D03*
X160196Y127953D02*
D03*
X152796D02*
D03*
Y121063D02*
D03*
X160196D02*
D03*
D18*
X62008Y3190D02*
D03*
Y10590D02*
D03*
X114173Y154765D02*
D03*
Y162165D02*
D03*
X190945Y153879D02*
D03*
Y161279D02*
D03*
X150591Y169054D02*
D03*
Y161654D02*
D03*
X191929Y140001D02*
D03*
Y147401D02*
D03*
X82677Y143938D02*
D03*
Y151338D02*
D03*
X183071Y130668D02*
D03*
Y123268D02*
D03*
X191929D02*
D03*
Y130668D02*
D03*
X125000Y45039D02*
D03*
Y37639D02*
D03*
D19*
X62008Y-2953D02*
D03*
Y-8858D02*
D03*
X125984Y63976D02*
D03*
Y69882D02*
D03*
X114173Y174213D02*
D03*
Y168307D02*
D03*
X144685Y121063D02*
D03*
Y126969D02*
D03*
X139764Y194882D02*
D03*
Y200787D02*
D03*
X131890D02*
D03*
Y194882D02*
D03*
X124016D02*
D03*
Y200787D02*
D03*
X173228Y129921D02*
D03*
Y124016D02*
D03*
X984Y34449D02*
D03*
Y28543D02*
D03*
X131890Y16732D02*
D03*
Y22638D02*
D03*
X93504Y83661D02*
D03*
Y77756D02*
D03*
X103347Y28543D02*
D03*
Y34449D02*
D03*
X118110Y21654D02*
D03*
Y27559D02*
D03*
X118110Y35433D02*
D03*
Y41339D02*
D03*
X117126Y50197D02*
D03*
Y56102D02*
D03*
X125000D02*
D03*
Y50197D02*
D03*
X116142Y-24606D02*
D03*
Y-30512D02*
D03*
X53100Y32953D02*
D03*
Y27047D02*
D03*
D20*
X165354Y157480D02*
D03*
X159449D02*
D03*
X165354Y149606D02*
D03*
X159449D02*
D03*
X147638D02*
D03*
X153543D02*
D03*
X149606Y138779D02*
D03*
X143701D02*
D03*
X104331Y192913D02*
D03*
X98425D02*
D03*
X99410Y173228D02*
D03*
X93504D02*
D03*
X107283Y89567D02*
D03*
X101378D02*
D03*
X48228Y76772D02*
D03*
X42323D02*
D03*
D24*
X113583Y68701D02*
D03*
Y61220D02*
D03*
X104921Y64961D02*
D03*
D29*
X150878Y108268D02*
D03*
X168020D02*
D03*
D32*
X119390Y184646D02*
D03*
X121949D02*
D03*
X124508D02*
D03*
X127067D02*
D03*
X129626D02*
D03*
X132185D02*
D03*
X134744D02*
D03*
X137303D02*
D03*
X139862D02*
D03*
X142421D02*
D03*
X119390Y161811D02*
D03*
X121949D02*
D03*
X124508D02*
D03*
X127067D02*
D03*
X129626D02*
D03*
X132185D02*
D03*
X134744D02*
D03*
X137303D02*
D03*
X139862D02*
D03*
X142421D02*
D03*
D33*
X19488Y35236D02*
D03*
Y31496D02*
D03*
Y27756D02*
D03*
X10039D02*
D03*
Y35236D02*
D03*
X44925Y42740D02*
D03*
Y39000D02*
D03*
Y35260D02*
D03*
X35476D02*
D03*
Y42740D02*
D03*
D113*
X203445Y90256D02*
D03*
Y71555D02*
D03*
D114*
X183957Y98425D02*
D03*
Y63976D02*
D03*
D115*
X100394Y81693D02*
D03*
X107874D02*
D03*
X104134Y73032D02*
D03*
X-21850Y116732D02*
D03*
X-29331D02*
D03*
X-25591Y125394D02*
D03*
X-21850Y98032D02*
D03*
X-29331D02*
D03*
X-25591Y106693D02*
D03*
D116*
X57874Y154527D02*
D03*
X53543D02*
D03*
X49213D02*
D03*
X44882D02*
D03*
X40551D02*
D03*
X36220D02*
D03*
X31890D02*
D03*
X27559D02*
D03*
X23819D02*
D03*
D117*
X63977D02*
D03*
X20079Y171457D02*
D03*
D118*
Y195866D02*
D03*
D119*
Y210236D02*
D03*
D120*
X73228Y212992D02*
D03*
D121*
X167323Y91424D02*
D03*
Y68024D02*
D03*
X152559Y91424D02*
D03*
Y68024D02*
D03*
D122*
X131890Y71260D02*
D03*
X133858D02*
D03*
X135827D02*
D03*
X137795D02*
D03*
X139764D02*
D03*
X131890Y54724D02*
D03*
X133858D02*
D03*
X135827D02*
D03*
X137795D02*
D03*
X139764D02*
D03*
D123*
X86614Y79134D02*
D03*
X84646D02*
D03*
X82677D02*
D03*
X80709D02*
D03*
X78740D02*
D03*
X76772D02*
D03*
X74803D02*
D03*
X72835D02*
D03*
X70866D02*
D03*
X68898D02*
D03*
X66929D02*
D03*
X64961D02*
D03*
X62992D02*
D03*
X61024D02*
D03*
X59055D02*
D03*
X57087Y35039D02*
D03*
X59055D02*
D03*
X61024D02*
D03*
X62992D02*
D03*
X64961D02*
D03*
X66929D02*
D03*
X68898D02*
D03*
X70866D02*
D03*
X72835D02*
D03*
X74803D02*
D03*
X76772D02*
D03*
X78740D02*
D03*
X80709D02*
D03*
X82677D02*
D03*
X84646D02*
D03*
X86614D02*
D03*
D124*
X57087Y79134D02*
D03*
D125*
X49803Y71850D02*
D03*
Y69882D02*
D03*
Y67913D02*
D03*
Y65945D02*
D03*
Y63976D02*
D03*
Y62008D02*
D03*
Y60039D02*
D03*
Y58071D02*
D03*
Y56102D02*
D03*
Y54134D02*
D03*
Y52165D02*
D03*
Y50197D02*
D03*
Y48228D02*
D03*
Y46260D02*
D03*
Y44291D02*
D03*
Y42323D02*
D03*
X93898D02*
D03*
Y44291D02*
D03*
Y46260D02*
D03*
Y48228D02*
D03*
Y50197D02*
D03*
Y52165D02*
D03*
Y54134D02*
D03*
Y56102D02*
D03*
Y58071D02*
D03*
Y60039D02*
D03*
Y62008D02*
D03*
Y63976D02*
D03*
Y65945D02*
D03*
Y67913D02*
D03*
Y69882D02*
D03*
Y71850D02*
D03*
M02*
