G04*
G04 #@! TF.GenerationSoftware,Altium Limited,Altium Designer,19.1.1 (5)*
G04*
G04 Layer_Color=8421504*
%FSLAX25Y25*%
%MOIN*%
G70*
G01*
G75*
%ADD17R,0.04000X0.05500*%
%ADD18R,0.05500X0.04000*%
%ADD19R,0.05512X0.04331*%
%ADD20R,0.04331X0.05512*%
%ADD21R,0.05512X0.05906*%
%ADD22R,0.05906X0.05512*%
%ADD23R,0.02756X0.05118*%
%ADD24R,0.06299X0.02362*%
%ADD25R,0.07087X0.07480*%
%ADD26R,0.05906X0.07480*%
%ADD27R,0.01575X0.06102*%
%ADD28O,0.01772X0.09449*%
%ADD29R,0.07874X0.09000*%
%ADD30R,0.07874X0.15748*%
%ADD31R,0.09000X0.07874*%
%ADD32O,0.01378X0.07874*%
%ADD33R,0.05118X0.02756*%
D17*
X20432Y126969D02*
D03*
X13032D02*
D03*
X20432Y144685D02*
D03*
X13032D02*
D03*
X159212Y143701D02*
D03*
X151812D02*
D03*
X148057Y31496D02*
D03*
X140657D02*
D03*
X164133Y22638D02*
D03*
X156733D02*
D03*
X9095Y102362D02*
D03*
X16495D02*
D03*
X170039Y50197D02*
D03*
X162639D02*
D03*
Y42323D02*
D03*
X170039D02*
D03*
X40117Y200787D02*
D03*
X32717D02*
D03*
X162639Y34449D02*
D03*
X170039D02*
D03*
X97204Y16732D02*
D03*
X89804D02*
D03*
D18*
X153543Y109015D02*
D03*
Y101615D02*
D03*
X161594Y101733D02*
D03*
Y109133D02*
D03*
X112205Y186261D02*
D03*
Y193661D02*
D03*
X156496Y5669D02*
D03*
Y-1732D02*
D03*
X147638Y42560D02*
D03*
Y49960D02*
D03*
X154921D02*
D03*
Y42560D02*
D03*
X197835Y209409D02*
D03*
Y202009D02*
D03*
X180118D02*
D03*
Y209409D02*
D03*
X-3937Y102125D02*
D03*
Y94725D02*
D03*
X111221Y-5158D02*
D03*
Y-12558D02*
D03*
X169291Y60276D02*
D03*
Y67676D02*
D03*
X97441Y30275D02*
D03*
Y22875D02*
D03*
X116142Y72598D02*
D03*
Y65198D02*
D03*
X114173Y106062D02*
D03*
Y98662D02*
D03*
X40128Y183308D02*
D03*
Y190708D02*
D03*
X48987D02*
D03*
Y183308D02*
D03*
X57845D02*
D03*
Y190708D02*
D03*
X62992Y171023D02*
D03*
Y163623D02*
D03*
X27559D02*
D03*
Y171023D02*
D03*
X30512Y190708D02*
D03*
Y183308D02*
D03*
X36417Y171023D02*
D03*
Y163623D02*
D03*
X16732Y40117D02*
D03*
Y32717D02*
D03*
X-10000Y151600D02*
D03*
Y144200D02*
D03*
X168307Y138032D02*
D03*
Y145432D02*
D03*
X134843Y-18464D02*
D03*
Y-11064D02*
D03*
X141732D02*
D03*
Y-18464D02*
D03*
X94488Y-5158D02*
D03*
Y-12558D02*
D03*
X102362D02*
D03*
Y-5158D02*
D03*
X-14764Y64213D02*
D03*
Y71613D02*
D03*
X85630Y198582D02*
D03*
Y191182D02*
D03*
X125984Y70629D02*
D03*
Y63229D02*
D03*
D19*
X143701Y141732D02*
D03*
Y147638D02*
D03*
X168110Y129680D02*
D03*
Y123775D02*
D03*
X125000Y141732D02*
D03*
Y135827D02*
D03*
X143701Y130905D02*
D03*
Y136811D02*
D03*
X134843Y141732D02*
D03*
Y135827D02*
D03*
X120079Y192913D02*
D03*
Y187008D02*
D03*
X89567Y23622D02*
D03*
Y29528D02*
D03*
X106299Y99409D02*
D03*
Y105315D02*
D03*
X45276Y164370D02*
D03*
Y170276D02*
D03*
X54134D02*
D03*
Y164370D02*
D03*
D20*
X143701Y110236D02*
D03*
X137795D02*
D03*
Y118110D02*
D03*
X143701D02*
D03*
X152559Y72835D02*
D03*
X158465D02*
D03*
X119095Y148622D02*
D03*
X125000D02*
D03*
X16732Y65945D02*
D03*
X10827D02*
D03*
Y73819D02*
D03*
X16732D02*
D03*
X141853Y73900D02*
D03*
X135947D02*
D03*
D21*
X97441Y8858D02*
D03*
X89567D02*
D03*
X120079Y57087D02*
D03*
X112205D02*
D03*
X173228Y22638D02*
D03*
X181102D02*
D03*
X159449Y135827D02*
D03*
X151575D02*
D03*
D22*
X-3937Y85630D02*
D03*
Y77756D02*
D03*
X112205Y201772D02*
D03*
Y209646D02*
D03*
X84646Y168307D02*
D03*
Y160433D02*
D03*
X206693Y202756D02*
D03*
Y210630D02*
D03*
X188976Y202756D02*
D03*
Y210630D02*
D03*
X119095Y-12795D02*
D03*
Y-4921D02*
D03*
X156496Y-10827D02*
D03*
Y-18701D02*
D03*
D23*
X17520Y92323D02*
D03*
X13780D02*
D03*
X10039D02*
D03*
Y82874D02*
D03*
X13780D02*
D03*
X17520D02*
D03*
X135630Y202559D02*
D03*
X131890D02*
D03*
X128149D02*
D03*
Y193110D02*
D03*
X131890D02*
D03*
X135630D02*
D03*
D24*
X195866Y-16732D02*
D03*
Y-24213D02*
D03*
X204527Y-20472D02*
D03*
X112795Y92323D02*
D03*
Y84843D02*
D03*
X121457Y88583D02*
D03*
D25*
X144882Y210630D02*
D03*
X170079D02*
D03*
D26*
X153543D02*
D03*
X161417D02*
D03*
D27*
X152362Y200098D02*
D03*
X154921D02*
D03*
X157480D02*
D03*
X160039D02*
D03*
X162599D02*
D03*
D28*
X133169Y155512D02*
D03*
X135728D02*
D03*
X138287D02*
D03*
X140847D02*
D03*
X143405D02*
D03*
X145965D02*
D03*
X148524D02*
D03*
X151083D02*
D03*
X153642D02*
D03*
X156201D02*
D03*
X133169Y183071D02*
D03*
X135728D02*
D03*
X138287D02*
D03*
X140847D02*
D03*
X143405D02*
D03*
X145965D02*
D03*
X148524D02*
D03*
X151083D02*
D03*
X153642D02*
D03*
X156201D02*
D03*
D29*
X151706Y84646D02*
D03*
X168847D02*
D03*
D30*
X128937Y123031D02*
D03*
X117126D02*
D03*
D31*
X137795Y101091D02*
D03*
Y83949D02*
D03*
D32*
X140649Y66535D02*
D03*
X138091D02*
D03*
X135531D02*
D03*
X132973D02*
D03*
X140649Y43701D02*
D03*
X138091D02*
D03*
X135531D02*
D03*
X132973D02*
D03*
D33*
X150787Y125787D02*
D03*
Y122047D02*
D03*
Y118307D02*
D03*
X160236D02*
D03*
Y122047D02*
D03*
Y125787D02*
D03*
X150787Y67716D02*
D03*
Y63976D02*
D03*
Y60236D02*
D03*
X160236D02*
D03*
Y67716D02*
D03*
M02*
